<svg width="74" height="70" viewBox="0 0 74 70" fill="none" xmlns="http://www.w3.org/2000/svg">
<path d="M71.3076 23.4324C68.3182 20.7834 63.5032 20.3651 60.4619 20.4073C61.9274 16.3316 62.5143 10.2068 57.8972 5.73877C56.2241 4.11758 54.2463 3.38156 52.022 3.54692C47.8328 3.85819 43.7928 7.46696 41.5848 9.81119C38.9487 4.76606 33.427 -1.55657 25.7004 0.346702C22.3867 1.16378 19.9387 2.94708 18.4213 5.64797C16.1873 9.61664 16.5764 14.6131 17.1113 17.5896C11.8684 16.8958 4.18724 17.9366 1.24965 25.6275C-0.51744 30.2576 -0.410442 34.1355 1.57065 37.1541C3.75277 40.4808 7.67928 41.8588 10.3413 42.423C8.8206 45.0363 7.06647 49.5757 9.10268 54.5884C10.7757 58.7062 13.4961 61.3228 16.7677 61.9615C19.7474 62.5419 22.9347 61.5271 26.2775 58.9396C26.3618 61.0277 26.832 63.5341 28.2943 65.6059C29.8344 67.7881 32.1527 69.085 35.1843 69.4676C35.742 69.539 36.2803 69.5714 36.8055 69.5714C39.2989 69.5714 41.4129 68.777 43.1055 67.2045C45.761 64.737 46.7304 60.8559 47.0741 57.9929C48.8834 59.3936 51.4967 60.8883 54.6094 61.125C57.975 61.3812 61.1979 60.1393 64.1744 57.4222C66.8753 54.958 68.0555 52.2669 67.6794 49.4265C67.2222 45.9734 64.4597 43.1168 62.0636 41.246C66.8526 40.1501 73.895 37.2806 73.9988 29.862C74.0377 27.2065 73.1331 25.0406 71.3141 23.4292L71.3076 23.4324ZM4.27155 35.3643C2.90002 33.2665 2.90326 30.3776 4.27479 26.7818C7.55607 18.1927 18.3564 21.1076 18.8136 21.2341C19.1281 21.3249 19.4556 21.3086 19.7571 21.2114C19.3324 21.6394 18.9238 22.0836 18.5347 22.544C14.2872 27.5632 12.7633 33.7269 14.2127 39.962C13.9435 39.7351 13.6063 39.5924 13.2432 39.5762C13.1783 39.5762 6.78763 39.2195 4.27155 35.3676V35.3643ZM57.5502 38.6683C56.8207 38.7105 56.2079 39.2325 56.0555 39.949C55.9031 40.6624 56.2468 41.3919 56.8953 41.7291C58.8342 42.731 63.9701 46.1452 64.4597 49.861C64.6899 51.6119 63.8793 53.3011 61.9858 55.0293C59.7032 57.1109 57.3103 58.0772 54.872 57.8956C50.3327 57.5584 46.912 53.4179 46.8796 53.379C46.4386 52.831 45.6961 52.6332 45.0412 52.8829C44.3862 53.1325 43.9647 53.7778 44.0004 54.4781C44.0036 54.5495 44.3149 61.6632 40.8942 64.8375C39.5615 66.0729 37.8301 66.5365 35.5929 66.2544C33.4789 65.9885 31.9614 65.1682 30.953 63.7481C28.7061 60.5803 29.7436 55.4962 29.7663 55.3925C29.9187 54.6856 29.5848 53.9626 28.9493 53.6221C28.3105 53.2785 27.5226 53.4017 27.02 53.9205C23.4145 57.6297 20.0846 59.3093 17.3902 58.7873C14.4753 58.2198 12.8282 55.1525 12.1084 53.3757C9.77061 47.6173 14.1965 42.4878 14.3813 42.2771C14.6407 41.9853 14.7801 41.6157 14.7898 41.2395C15.1821 41.6189 15.7528 41.794 16.317 41.6448C17.1827 41.4211 17.7047 40.5359 17.481 39.6702C15.7009 32.7996 18.4213 27.7058 21.0152 24.6418C25.0616 19.8625 31.6599 16.8536 37.0682 17.327C42.8493 17.8328 47.4373 20.0409 50.3295 23.7145C53.0336 27.1482 54.0582 31.6875 53.2865 36.8461C52.0155 45.3411 42.5737 51.8421 33.4756 50.4803C30.1846 49.9875 27.2827 48.2431 25.3048 45.5681C23.327 42.8931 22.5099 39.6086 23.0027 36.3176C23.3853 33.7723 24.7342 31.5254 26.8028 29.995C28.8714 28.4646 31.4167 27.8323 33.962 28.2117C35.9139 28.5035 37.6356 29.5378 38.8093 31.1233C39.9831 32.7088 40.4694 34.6575 40.1744 36.6094C39.7172 39.654 36.8704 41.7615 33.8225 41.3076C32.7266 41.1423 31.7636 40.5619 31.1054 39.6734C30.4472 38.785 30.1749 37.6891 30.3402 36.5964C30.5834 34.9655 32.1073 33.8372 33.7415 34.0803C34.6267 34.2133 35.4535 33.6037 35.5864 32.7186C35.7193 31.8334 35.1098 31.0066 34.2246 30.8769C30.8233 30.3646 27.6458 32.7186 27.1368 36.1198C26.845 38.0717 27.3313 40.0204 28.5018 41.6059C29.6755 43.1914 31.3972 44.2258 33.3459 44.5176C38.1608 45.2374 42.6613 41.9075 43.3843 37.0925C43.8058 34.2846 43.1055 31.48 41.4194 29.1973C39.7301 26.9147 37.2562 25.4265 34.4483 25.0049C31.0438 24.4959 27.6491 25.3422 24.8801 27.3881C22.1143 29.434 20.3083 32.4365 19.7993 35.8377C18.5185 44.3976 24.4391 52.403 32.999 53.687C33.9555 53.8296 34.912 53.8977 35.8685 53.8977C45.6831 53.8977 55.1087 46.5992 56.4997 37.326C57.4076 31.2627 56.156 25.8609 52.8845 21.7075C49.4735 17.3789 43.9614 14.678 37.36 14.0976C31.8123 13.6112 25.4799 16.0236 20.785 20.2484C20.9114 19.9144 20.9244 19.5448 20.8174 19.1946C20.7947 19.1233 18.6093 11.9349 21.2616 7.23026C22.3381 5.3205 24.0468 4.10136 26.4883 3.49828C34.9866 1.40046 39.6037 13.2416 39.6491 13.3583C39.8566 13.9096 40.3462 14.3019 40.9298 14.3894C41.5102 14.4737 42.0938 14.2403 42.4537 13.7734C43.8739 11.9252 48.41 7.06813 52.2814 6.78281C53.5621 6.68878 54.6645 7.1103 55.6567 8.07328C61.0325 13.2741 56.6683 21.0622 56.4803 21.3865C56.1722 21.9215 56.1917 22.5861 56.5354 23.0984C56.8791 23.6107 57.4821 23.8863 58.0982 23.8053C60.2155 23.5232 66.3338 23.3416 69.1741 25.8642C70.2701 26.8369 70.7888 28.1306 70.7662 29.8231C70.6527 37.822 57.6929 38.6618 57.5632 38.6716L57.5502 38.6683Z" fill="#BD000F"/>
</svg>
