<svg width="121" height="109" viewBox="0 0 121 109" fill="none" xmlns="http://www.w3.org/2000/svg">
<g clip-path="url(#clip0_123_5613)">
<mask id="mask0_123_5613" style="mask-type:luminance" maskUnits="userSpaceOnUse" x="-10" y="-11" width="137" height="156">
<path d="M126.59 -10.563H-9.76257V144.995H126.59V-10.563Z" fill="white"/>
</mask>
<g mask="url(#mask0_123_5613)">
<path d="M26.5551 64.2027C26.6093 60.3968 25.9013 55.8787 24.2557 54.4265C22.6115 52.9756 18.092 48.3379 15.8997 49.1655C13.7074 49.9932 7.76623 52.1952 6.98029 52.8643C6.19435 53.5334 7.62434 55.0121 11.1214 54.7492C13.6963 54.5544 5.86467 59.1505 8.31569 63.4321C9.14337 64.8788 11.1938 66.9055 13.2942 65.9624C13.1482 67.7638 16.5855 69.7586 17.9932 70.2677L24.7203 84.0015L34.2114 80.382C34.2114 80.382 26.5217 66.4507 26.5551 64.2041V64.2027Z" fill="white" stroke="#333333" stroke-width="1.41033" stroke-linecap="round" stroke-linejoin="round"/>
<path d="M9.66934 56.7622C9.0865 58.195 8.40071 59.6347 10.2258 61.5377C12.0522 63.4406 13.2235 63.9887 14.0901 63.7786C14.9567 63.57 15.8219 61.7046 15.8219 61.7046" fill="white"/>
<path d="M9.66934 56.7622C9.0865 58.195 8.40071 59.6347 10.2258 61.5377C12.0522 63.4406 13.2235 63.9887 14.0901 63.7786C14.9567 63.57 15.8219 61.7046 15.8219 61.7046" stroke="#333333" stroke-width="1.41033" stroke-linecap="round" stroke-linejoin="round"/>
<path d="M36.2286 50.7354C35.9921 49.5405 34.8306 48.7629 33.6356 48.9994C33.6356 48.9994 5.98861 54.5232 5.90375 54.5664L3.20512 55.9226L0.192117 57.4375C-0.0248857 57.546 -0.138952 57.788 -0.0874831 58.0245C-0.0624443 58.1372 -0.00262865 58.2345 0.0794431 58.3069C0.169861 58.3862 0.286708 58.4349 0.413293 58.439L3.88534 58.5434L6.60762 58.6254C6.85245 58.7242 34.4911 53.3269 34.4911 53.3269C35.686 53.0905 36.4636 51.9289 36.2272 50.734L36.2286 50.7354Z" fill="#333333"/>
<path d="M3.50136 57.3965L3.42346 57.0863L6.0275 55.7773L6.43368 57.4855C6.39474 57.5523 3.50136 57.3965 3.50136 57.3965Z" fill="white"/>
<path d="M7.26135 55.535L33.7385 50.2922C34.2073 50.199 34.6622 50.5036 34.7554 50.9724C34.8486 51.4412 34.5439 51.896 34.0751 51.9892L7.59799 57.2321L7.26135 55.535Z" fill="#C9CACA"/>
<path d="M11.6293 57.5195C11.7419 58.4947 13.2151 60.6202 14.1624 61.4353C15.3295 62.4383 17.1253 60.9276 17.0098 60.7287" fill="white"/>
<path d="M11.6293 57.5195C11.7419 58.4947 13.2151 60.6202 14.1624 61.4353C15.3295 62.4383 17.1253 60.9276 17.0098 60.7287" stroke="#333333" stroke-width="1.41033" stroke-linecap="round" stroke-linejoin="round"/>
<path d="M13.2943 65.9602C13.2943 65.9602 14.7841 64.9489 14.3974 63.7832L13.2943 65.9602Z" fill="white"/>
<path d="M13.2943 65.9602C13.2943 65.9602 14.7841 64.9489 14.3974 63.7832" stroke="#333333" stroke-width="1.37699" stroke-linecap="round" stroke-linejoin="round"/>
<path d="M13.0161 50.2793C13.0161 50.2793 10.956 51.0944 10.3161 51.317C9.6762 51.541 6.19441 52.0932 5.8397 53.0224C5.27493 54.5025 8.11267 55.2662 10.0629 54.6486C10.9587 54.3648 14.3905 53.5594 14.3905 53.5594" fill="white"/>
<path d="M13.0161 50.2793C13.0161 50.2793 10.956 51.0944 10.3161 51.317C9.6762 51.541 6.19441 52.0932 5.8397 53.0224C5.27493 54.5025 8.11267 55.2662 10.0629 54.6486C10.9587 54.3648 14.3905 53.5594 14.3905 53.5594" stroke="#333333" stroke-width="1.37699" stroke-linecap="round" stroke-linejoin="round"/>
<path d="M23.9915 57.6534C23.9915 57.6534 20.7531 56.3722 19.9408 55.8186C19.1298 55.2649 15.4491 50.9457 14.2834 53.0045C13.1177 55.0632 17.0988 58.673 17.0988 58.673C17.0988 58.673 16.6648 61.7708 19.4024 64.4903" fill="white"/>
<path d="M23.9915 57.6534C23.9915 57.6534 20.7531 56.3722 19.9408 55.8186C19.1298 55.2649 15.4491 50.9457 14.2834 53.0045C13.1177 55.0632 17.0988 58.673 17.0988 58.673C17.0988 58.673 16.6648 61.7708 19.4024 64.4903" stroke="#333333" stroke-width="1.41033" stroke-linecap="round" stroke-linejoin="round"/>
<path d="M85.4813 47.1152C89.2302 47.4505 94.7554 47.3211 97.2941 55.2389C99.8328 63.1568 102.846 71.7395 104.943 72.1485C98.8562 71.8341 90.2637 67.9267 86.8599 62.7311C83.456 57.5369 83.4476 52.9785 83.0011 52.4944" fill="#FABE00"/>
<path d="M85.4813 47.1152C89.2302 47.4505 94.7554 47.3211 97.2941 55.2389C99.8328 63.1568 102.846 71.7395 104.943 72.1485C98.8562 71.8341 90.2637 67.9267 86.8599 62.7311C83.456 57.5369 83.4476 52.9785 83.0011 52.4944" stroke="#333333" stroke-width="1.41033" stroke-linecap="round" stroke-linejoin="round"/>
<path d="M89.0521 55.5449C89.9605 58.7861 92.5715 61.9354 94.3395 63.0566L89.0521 55.5449Z" fill="#FABE00"/>
<path d="M89.0521 55.5449C89.9605 58.7861 92.5715 61.9354 94.3395 63.0566" stroke="#333333" stroke-width="1.41033" stroke-linecap="round" stroke-linejoin="round"/>
<path d="M31.8549 74.1654L28.5915 68.2075L18.7429 73.8774L21.3901 78.7753" fill="white"/>
<path d="M31.8549 74.1654L28.5915 68.2075L18.7429 73.8774L21.3901 78.7753" stroke="#333333" stroke-width="1.41033" stroke-linecap="round" stroke-linejoin="round"/>
<path d="M110.75 97.2309C108.837 93.7255 103.975 77.1832 101.139 71.3004C100.88 70.4171 100.495 69.7411 99.9468 69.3864C99.2012 68.9037 90.7228 65.5248 90.7228 65.5248C90.7228 65.5248 77.2352 63.5162 74.8384 63.5162C71.2885 63.5162 67.7705 63.4299 65.4169 63.2463C60.5176 62.8638 55.9369 62.3477 53.7015 64.5831C53.7015 64.5831 41.2224 83.8644 40.7161 83.4067C39.1762 82.0157 31.8913 70.5228 31.8913 70.5228L18.8752 78.5088C18.8752 78.5088 29.1745 100.542 35.8182 103.79C43.27 107.433 53.0797 88.7608 53.0797 88.7608C50.8443 97.6204 56.325 99.2716 55.6559 111.986C55.3777 117.259 51.9543 130.923 51.5885 131.654C51.2226 132.384 62.977 135.759 70.4677 136.001C85.8694 136.497 96.1993 132.227 96.1993 132.227C96.1993 132.227 90.2109 118.924 90.1302 114.644C90.0954 112.793 91.5101 109.014 93.3463 104.441C95.2923 110.118 100.128 120.008 109.823 117.583C119.143 115.253 112.968 101.301 110.748 97.2295L110.75 97.2309Z" fill="#FABE00"/>
<path d="M110.75 97.2309C108.837 93.7255 103.975 77.1832 101.139 71.3004C100.88 70.4171 100.495 69.7411 99.9468 69.3864C99.2012 68.9037 90.7228 65.5248 90.7228 65.5248C90.7228 65.5248 77.2352 63.5162 74.8384 63.5162C71.2885 63.5162 67.7705 63.4299 65.4169 63.2463C60.5176 62.8638 55.9369 62.3477 53.7015 64.5831C53.7015 64.5831 41.2224 83.8644 40.7161 83.4067C39.1762 82.0157 31.8913 70.5228 31.8913 70.5228L18.8752 78.5088C18.8752 78.5088 29.1745 100.542 35.8182 103.79C43.27 107.433 53.0797 88.7608 53.0797 88.7608C50.8443 97.6204 56.325 99.2716 55.6559 111.986C55.3777 117.259 51.9543 130.923 51.5885 131.654C51.2226 132.384 62.977 135.759 70.4677 136.001C85.8694 136.497 96.1993 132.227 96.1993 132.227C96.1993 132.227 90.2109 118.924 90.1302 114.644C90.0954 112.793 91.5101 109.014 93.3463 104.441C95.2923 110.118 100.128 120.008 109.823 117.583C119.143 115.253 112.968 101.301 110.748 97.2295L110.75 97.2309Z" stroke="#333333" stroke-width="1.41033" stroke-linecap="round" stroke-linejoin="round"/>
<path d="M63.6086 66.3462C63.6086 66.3462 87.9227 68.5677 87.1924 68.3243C86.4621 68.0808 69.0559 102.558 69.0559 102.558C69.0559 102.558 59.754 85.2881 60.9002 80.9828C62.0464 76.6775 64.4001 68.0196 63.6086 66.3462Z" fill="#333333"/>
<path d="M83.0012 51.57C83.0012 51.57 80.8673 60.4587 83.2418 64.1102C85.615 67.7617 86.3411 66.2552 86.3411 66.2552C86.3411 66.2552 81.5155 76.5072 73.1887 76.1372C66.808 75.8534 64.3097 66.8645 64.3097 66.8645C64.3097 66.8645 68.2658 68.0817 70.8212 63.1518C73.3779 58.2219 71.7337 50.9189 71.7337 50.9189" fill="white"/>
<path d="M83.0012 51.57C83.0012 51.57 80.8673 60.4587 83.2418 64.1102C85.615 67.7617 86.3411 66.2552 86.3411 66.2552C86.3411 66.2552 81.5155 76.5072 73.1887 76.1372C66.808 75.8534 64.3097 66.8645 64.3097 66.8645C64.3097 66.8645 68.2658 68.0817 70.8212 63.1518C73.3779 58.2219 71.7337 50.9189 71.7337 50.9189" stroke="#333333" stroke-width="1.41033" stroke-linecap="round" stroke-linejoin="round"/>
<path d="M83.4184 66.2561C83.4184 66.2561 79.0978 86.1578 74.8983 91.0876C70.6987 96.0175 67.9597 100.095 67.9597 100.095C62.6654 87.6796 66.2919 65.6927 66.4379 65.708" stroke="#333333" stroke-width="1.41033" stroke-linecap="round" stroke-linejoin="round"/>
<path d="M91.0119 73.4856L89.8407 64.7888L83.115 62.7871C83.115 62.7871 80.4372 71.7329 78.4285 75.7503C76.0053 80.5981 69.0557 101.69 69.0557 101.69C69.0557 101.69 74.6546 95.7132 78.5496 92.0617C82.4445 88.4102 90.0243 78.2361 90.0243 78.2361L85.029 75.5221C88.8822 74.2632 91.0119 73.487 91.0119 73.487V73.4856Z" fill="#FABE00" stroke="#333333" stroke-width="1.41033" stroke-linecap="round" stroke-linejoin="round"/>
<path d="M66.7425 72.9335C67.4116 67.7602 70.8197 62.2822 70.8197 62.2822L64.5516 62.5062L58.1987 72.4981L62.4539 74.9658L57.2737 75.8908C57.2737 75.8908 58.3434 84.8923 60.1698 89.2741C61.9963 93.6559 69.0558 101.689 69.0558 101.689C69.0558 101.689 66.2807 76.5057 66.7425 72.9321V72.9335Z" fill="#FABE00" stroke="#333333" stroke-width="1.41033" stroke-linecap="round" stroke-linejoin="round"/>
<path d="M73.7352 13.0949C73.7352 13.0949 62.6305 8.89396 58.8802 19.5716C55.8269 28.2615 61.3772 35.7105 61.3772 35.7105L73.7352 13.0949Z" fill="#FABE00" stroke="#333333" stroke-width="1.41033" stroke-linecap="round" stroke-linejoin="round"/>
<path d="M62.7083 23.3266C61.1892 27.28 60.7872 32.2669 59.8552 38.0453C58.4364 46.8353 62.7792 56.5086 71.5205 57.4684C79.6596 58.3629 87.2978 53.6528 91.4793 47.4613C94.2697 43.3285 97.017 34.8222 96.4356 29.144C95.8541 23.4671 87.3645 12.9244 78.7582 13.7938C70.1504 14.6632 65.4542 16.1836 62.7083 23.3252V23.3266Z" fill="white" stroke="#333333" stroke-width="1.41033" stroke-linecap="round" stroke-linejoin="round"/>
<path d="M71.696 11.5856C70.9031 12.0725 74.549 22.2855 82.9259 30.1769C91.3028 38.0683 95.7986 41.7936 95.7986 41.7936C95.7986 41.7936 107.342 28.8248 96.4649 16.4849C89.2315 8.2777 77.5439 7.99671 71.696 11.587V11.5856Z" fill="#FABE00" stroke="#333333" stroke-width="1.41033" stroke-linecap="round" stroke-linejoin="round"/>
<path d="M84.5033 36.5284C84.6048 37.2866 84.0735 37.9849 83.3139 38.0864C82.5558 38.188 81.8575 37.6566 81.756 36.8971C81.6544 36.139 82.1858 35.4406 82.9439 35.3391C83.702 35.2376 84.4004 35.7689 84.5019 36.5271L84.5033 36.5284Z" fill="#333333"/>
<path d="M69.409 32.5963C69.5105 33.3544 68.9792 34.0527 68.221 34.1543C67.4629 34.2558 66.7646 33.7245 66.6631 32.9649C66.5615 32.2068 67.0929 31.5085 67.8524 31.407C68.6105 31.3054 69.3088 31.8368 69.4104 32.5949L69.409 32.5963Z" fill="#333333"/>
<path d="M83.3279 20.582C84.9234 24.7037 89.2927 29.8714 92.7272 31.2402" stroke="#333333" stroke-width="1.41033" stroke-linecap="round" stroke-linejoin="round"/>
<path d="M88.483 19.1494C89.5847 22.3752 92.4044 26.2841 95.2073 27.3621" stroke="#333333" stroke-width="1.41033" stroke-linecap="round" stroke-linejoin="round"/>
<path d="M71.6904 35.2852C68.6788 38.6765 66.2917 39.1606 66.2917 39.1606L70.2354 42.0039" fill="white"/>
<path d="M71.6904 35.2852C68.6788 38.6765 66.2917 39.1606 66.2917 39.1606L70.2354 42.0039" stroke="#333333" stroke-width="1.41033" stroke-linecap="round" stroke-linejoin="round"/>
<path d="M77.5997 48.5059C77.5997 48.5059 76.5133 53.369 73.8049 52.9183C71.6877 52.565 70.8934 47.624 70.8934 47.624C70.8934 47.624 78.081 48.7563 77.5997 48.5059Z" fill="white" stroke="#333333" stroke-width="1.41033" stroke-linecap="round" stroke-linejoin="round"/>
<path d="M92.4365 39.918C95.1463 40.6163 97.173 42.2299 96.5136 44.7936C95.8529 47.3573 93.1209 48.8693 90.4111 48.171" fill="white"/>
<path d="M92.4365 39.918C95.1463 40.6163 97.173 42.2299 96.5136 44.7936C95.8529 47.3573 93.1209 48.8693 90.4111 48.171" stroke="#333333" stroke-width="1.41033" stroke-linecap="round" stroke-linejoin="round"/>
<path d="M92.7467 49.0178C92.7217 49.9929 91.9107 50.7608 90.9356 50.7357C89.9618 50.7107 89.1926 49.8997 89.2176 48.9246C89.2427 47.9495 90.0537 47.1816 91.0288 47.2067C92.0025 47.2317 92.7718 48.0427 92.7467 49.0178Z" fill="white" stroke="#333333" stroke-width="1.41033" stroke-linecap="round" stroke-linejoin="round"/>
<path d="M40.7396 83.313L42.6412 85.981" stroke="#333333" stroke-width="1.41033" stroke-linecap="round" stroke-linejoin="round"/>
<path d="M70.6109 108.263C70.7714 107.27 70.0962 106.334 69.1027 106.174C68.1091 106.013 67.1736 106.689 67.013 107.682C66.8524 108.676 67.5277 109.611 68.5212 109.772C69.5147 109.932 70.4503 109.257 70.6109 108.263Z" fill="white" stroke="#333333" stroke-width="1.41033" stroke-linecap="round" stroke-linejoin="round"/>
<path d="M52.981 89.2312C53.4998 87.9347 54.6572 84.2902 54.8338 83.1426L52.981 89.2312Z" fill="#FABE00"/>
<path d="M52.981 89.2312C53.4998 87.9347 54.6572 84.2902 54.8338 83.1426" stroke="#333333" stroke-width="1.41033" stroke-linecap="round" stroke-linejoin="round"/>
<path d="M107.919 9.49658L103.889 12.7725" stroke="#FABE00" stroke-width="1.57187" stroke-linecap="round" stroke-linejoin="round"/>
<path d="M101.392 5.27295L100.623 10.4087" stroke="#FABE00" stroke-width="1.57187" stroke-linecap="round" stroke-linejoin="round"/>
<path d="M110.718 16.7413L105.533 16.4478" stroke="#FABE00" stroke-width="1.57187" stroke-linecap="round" stroke-linejoin="round"/>
<path d="M105.176 92.0117L103.323 95.8496" stroke="#333333" stroke-width="1.41033" stroke-linecap="round" stroke-linejoin="round"/>
<path d="M110.056 102.829C109.962 102.69 109.407 100.146 109.037 99.2667C108.667 98.3876 106.632 96.9075 105.568 96.2134C104.504 95.5193 103.857 98.1094 103.718 98.1094C103.579 98.1094 110.147 103.152 110.147 103.152" fill="white"/>
<path d="M110.056 102.829C109.962 102.69 109.407 100.146 109.037 99.2667C108.667 98.3876 106.632 96.9075 105.568 96.2134C104.504 95.5193 103.857 98.1094 103.718 98.1094C103.579 98.1094 110.147 103.152 110.147 103.152" stroke="#333333" stroke-width="1.39366" stroke-linecap="round" stroke-linejoin="round"/>
<path d="M106.61 122.475H70.9129L69.0614 79.2036H108.461L106.61 122.475Z" fill="#C9CACA" stroke="#333333" stroke-width="1.41033" stroke-linecap="round" stroke-linejoin="round"/>
<path d="M98.6421 84.3551H78.8809L78.7682 79.2041H98.7547L98.6421 84.3551Z" fill="white" stroke="#333333" stroke-width="1.41033" stroke-linecap="round" stroke-linejoin="round"/>
<path d="M84.4117 82.1379C84.4172 82.6581 83.9554 83.0796 83.3823 83.0796C82.8092 83.0796 82.339 82.6581 82.3306 82.1379C82.3237 81.6162 82.7841 81.1934 83.36 81.1934C83.9359 81.1934 84.4061 81.6176 84.4117 82.1379Z" fill="#333333"/>
<path d="M95.1921 82.1379C95.1852 82.6581 94.7136 83.0796 94.1405 83.0796C93.5674 83.0796 93.1069 82.6581 93.1111 82.1379C93.1167 81.6162 93.5868 81.1934 94.1627 81.1934C94.7386 81.1934 95.1991 81.6176 95.1921 82.1379Z" fill="#333333"/>
<path d="M111.181 106.483C111.061 105.196 110.75 102.937 107.854 101.02C107.07 100.502 106.387 99.7295 105.337 99.3122C104.113 98.8253 102.701 98.6639 101.267 98.3412C99.5559 97.9545 98.0675 97.6652 97.2426 97.8474C96.2744 98.063 95.8849 98.8559 96.5026 99.6363C97.1202 100.415 98.8228 100.698 99.0385 101.02C99.0385 101.02 96.0282 100.088 95.3828 101.593C94.7373 103.099 99.4683 104.46 99.4683 104.46C99.4683 104.46 94.8806 103.385 94.8806 105.106C94.8806 106.827 99.6477 107.9 99.6477 107.9C99.6477 107.9 95.6999 107.782 95.6999 109.072C95.6999 110.361 99.5086 111.616 102.191 112.559C103.116 114.484 105.166 116.636 106.778 116.717C108.39 116.798 109.654 116.149 110.764 111.662C111.113 110.253 111.334 108.131 111.179 106.482L111.181 106.483Z" fill="white" stroke="#333333" stroke-width="1.39366" stroke-linecap="round" stroke-linejoin="round"/>
<path d="M99.0371 101.021L103.552 102.311L106.493 104.016" fill="white"/>
<path d="M99.0371 101.021L103.552 102.311L106.493 104.016" stroke="#333333" stroke-width="1.39366" stroke-linecap="round" stroke-linejoin="round"/>
<path d="M99.4669 104.462C99.4669 104.462 101.832 104.964 102.047 105.107C102.263 105.251 105.152 106.946 105.152 106.946" fill="white"/>
<path d="M99.4669 104.462C99.4669 104.462 101.832 104.964 102.047 105.107C102.263 105.251 105.152 106.946 105.152 106.946" stroke="#333333" stroke-width="1.39366" stroke-linecap="round" stroke-linejoin="round"/>
<path d="M99.6478 107.901C100.078 107.974 103.903 109.86 103.903 109.86L99.6478 107.901Z" fill="white"/>
<path d="M99.6478 107.901C100.078 107.974 103.903 109.86 103.903 109.86" stroke="#333333" stroke-width="1.39366" stroke-linecap="round" stroke-linejoin="round"/>
<path d="M44.6273 37.2827C47.5277 33.7049 49.2679 29.1465 49.2679 24.1818C49.2679 12.6848 39.9479 3.36621 28.4522 3.36621C16.9566 3.36621 7.63525 12.6862 7.63525 24.1818C7.63525 35.6774 16.9553 44.9974 28.4509 44.9974C32.4696 44.9974 36.2212 43.8568 39.404 41.8843L49.1747 46.8475L44.6273 37.2813V37.2827Z" fill="white"/>
<path d="M44.6273 37.2827C47.5277 33.7049 49.2679 29.1465 49.2679 24.1818C49.2679 12.6848 39.9479 3.36621 28.4523 3.36621C16.9566 3.36621 7.63525 12.6862 7.63525 24.1818C7.63525 35.6774 16.9553 44.9974 28.4509 44.9974C32.4696 44.9974 36.2212 43.8568 39.404 41.8843L49.1747 46.8475L44.6273 37.2813V37.2827Z" stroke="#333333" stroke-width="1.41033" stroke-linecap="round" stroke-linejoin="round"/>
<g clip-path="url(#clip1_123_5613)">
<path d="M37.3601 24.4795V31.7722C37.3601 32.4169 37.1039 33.0352 36.6481 33.4911C36.1922 33.947 35.5739 34.2031 34.9292 34.2031H20.3437C19.699 34.2031 19.0807 33.947 18.6248 33.4911C18.169 33.0352 17.9128 32.4169 17.9128 31.7722V17.1868C17.9128 16.542 18.169 15.9237 18.6248 15.4679C19.0807 15.012 19.699 14.7559 20.3437 14.7559H31.2828" stroke="#333333" stroke-width="2.24054" stroke-linecap="round" stroke-linejoin="round"/>
<path d="M13.3677 20.1997L25.1177 31.4645L29.3578 30.289L41.0177 11.1509L39.7909 10.5023L25.9352 24.9201L16.7227 19.102L13.3677 20.1997Z" fill="#FABE00"/>
</g>
</g>
</g>
<defs>
<clipPath id="clip0_123_5613">
<rect width="120.989" height="108.506" fill="white"/>
</clipPath>
<clipPath id="clip1_123_5613">
<rect width="29.1708" height="29.1708" fill="white" transform="translate(13.0509 9.89404)"/>
</clipPath>
</defs>
</svg>
