<svg width="251" height="104" viewBox="0 0 251 104" fill="none" xmlns="http://www.w3.org/2000/svg">
<rect width="258.633" height="80.9838" transform="matrix(0.995805 -0.0915016 -0.156434 0.987688 -7.3313 23.6654)" fill="url(#paint0_linear_175_2742)" fill-opacity="0.4"/>
<rect width="19.7323" height="53.3165" rx="2.15427" transform="matrix(0.995805 -0.0915016 -0.156434 0.987688 28.8232 33.8077)" fill="white"/>
<path d="M37.7143 37.7605L39.2674 37.8599C38.8367 38.6483 38.3236 39.4214 37.728 40.1794C37.142 40.9364 36.4124 41.6469 35.5391 42.3108C35.4436 42.1336 35.2963 41.9569 35.097 41.7806C34.9088 41.5939 34.7318 41.4574 34.5659 41.371C35.0819 41.0126 35.5353 40.6324 35.9261 40.2303C36.3264 39.8273 36.6763 39.4152 36.9758 38.9941C37.2767 38.5635 37.5229 38.1523 37.7143 37.7605ZM37.9561 38.772L40.767 38.4962L40.5684 39.8027L36.9543 40.1574L37.9561 38.772ZM37.6703 42.0457L38.8893 41.9261C38.7916 42.3834 38.6668 42.8013 38.5151 43.18C38.3633 43.5586 38.1511 43.9012 37.8785 44.2077C37.6073 44.5048 37.2414 44.7739 36.7809 45.0149C36.7356 44.8795 36.6549 44.7288 36.5388 44.563C36.4228 44.3972 36.3105 44.2683 36.2021 44.1764C36.6912 43.9325 37.0327 43.6379 37.2265 43.2924C37.4298 42.946 37.5778 42.5305 37.6703 42.0457ZM39.4257 41.9294L40.6734 41.807L40.4985 42.9573C40.4783 43.0899 40.4757 43.1694 40.4905 43.196C40.5148 43.2216 40.5796 43.2292 40.6848 43.2189C40.723 43.2151 40.7756 43.21 40.8425 43.2034C40.919 43.1959 40.9955 43.1884 41.072 43.1809C41.158 43.1724 41.2154 43.1668 41.2441 43.164C41.3301 43.1555 41.389 43.1404 41.4205 43.1187C41.4631 43.0865 41.4982 43.0411 41.526 42.9824C41.6292 43.0469 41.7802 43.1067 41.9791 43.1618C42.1779 43.2169 42.3605 43.255 42.5268 43.2759C42.4124 43.595 42.255 43.8249 42.0546 43.9658C41.8557 44.0973 41.5937 44.1789 41.2686 44.2108C41.2208 44.2155 41.1539 44.2221 41.0678 44.2305C40.9818 44.239 40.8909 44.2479 40.7953 44.2573C40.6997 44.2667 40.6089 44.2756 40.5228 44.284C40.4464 44.2915 40.3842 44.2976 40.3364 44.3023C39.9826 44.337 39.7159 44.3259 39.5362 44.2689C39.3675 44.2015 39.2641 44.0764 39.226 43.8936C39.1893 43.7014 39.1975 43.4301 39.2508 43.0798L39.4257 41.9294ZM34.079 46.5252L42.9994 45.6498L42.7857 47.0558L33.8653 47.9312L34.079 46.5252ZM39.3285 46.4717C39.4628 47.2606 39.7937 47.8717 40.3212 48.3049C40.8502 48.7287 41.6481 48.9628 42.715 49.0074C42.5185 49.1852 42.303 49.4255 42.0686 49.7283C41.8437 50.0302 41.6669 50.2947 41.5382 50.5219C40.7146 50.4255 40.0482 50.2251 39.5388 49.9206C39.0294 49.6162 38.6395 49.2068 38.3693 48.6923C38.1004 48.1684 37.9191 47.5334 37.8254 46.7871L39.3285 46.4717ZM36.9136 41.1686L42.22 40.6479L42.017 41.9829L36.7107 42.5036L36.1968 45.8837L34.777 46.023L35.4938 41.308L35.5082 41.3066L36.9136 41.1686ZM41.8471 40.6845L43.3099 40.541L42.5952 45.2418L41.1324 45.3854L41.8471 40.6845ZM40.1934 38.5524L40.5519 38.5173L40.8065 38.4223L41.7928 38.9971C41.6062 39.2952 41.3921 39.6193 41.1505 39.9694C40.9199 40.3092 40.6812 40.6404 40.4344 40.9631C40.189 41.2763 39.9574 41.5601 39.7398 41.8147C39.6122 41.7246 39.4445 41.6198 39.2366 41.5003C39.0288 41.3808 38.8452 41.2869 38.6861 41.2186C38.8612 40.9962 39.0413 40.7407 39.2265 40.452C39.4212 40.1625 39.5968 39.8748 39.7533 39.5889C39.9207 39.2927 40.053 39.0419 40.1502 38.8365L40.1934 38.5524ZM37.8967 45.0174L39.4599 44.864C39.2912 45.664 39.0862 46.3929 38.8449 47.0508C38.6036 47.7087 38.2734 48.3007 37.8543 48.8268C37.4353 49.3529 36.8789 49.8226 36.185 50.2357C35.4897 50.6584 34.603 51.0392 33.5249 51.3781C33.4882 51.1859 33.4039 50.9656 33.2722 50.7174C33.1485 50.4777 33.0224 50.2849 32.8939 50.139C33.8472 49.8776 34.6213 49.5871 35.2161 49.2676C35.8124 48.9386 36.278 48.5711 36.6128 48.1652C36.9572 47.7583 37.2202 47.2988 37.4016 46.7867C37.5941 46.2642 37.7591 45.6744 37.8967 45.0174ZM29.7831 45.6037C30.3755 45.4243 31.0843 45.1915 31.9095 44.9054C32.7443 44.6183 33.5853 44.3212 34.4325 44.0143L34.4144 45.527C33.6451 45.817 32.8663 46.1079 32.0779 46.3998C31.299 46.6907 30.5756 46.9576 29.9077 47.2003L29.7831 45.6037ZM30.6884 41.136L35.0768 40.7053L34.8393 42.2676L30.4508 42.6982L30.6884 41.136ZM32.6023 38.3041L34.1798 38.1493L32.4266 49.6812C32.3676 50.0694 32.2778 50.3813 32.1572 50.617C32.0447 50.8612 31.8685 51.0604 31.6284 51.2145C31.3979 51.3677 31.1166 51.4839 30.7843 51.5631C30.4616 51.6414 30.0619 51.6993 29.5853 51.7367C29.5979 51.5303 29.5848 51.2751 29.5463 50.9711C29.5063 50.6766 29.451 50.4209 29.3804 50.204C29.6467 50.1872 29.889 50.1727 30.1075 50.1606C30.3369 50.1381 30.4954 50.1179 30.5829 50.0999C30.669 50.0915 30.7285 50.0717 30.7615 50.0405C30.8055 49.9988 30.8347 49.9307 30.8491 49.836L32.6023 38.3041ZM35.182 54.2311C34.708 54.8093 34.1259 55.4167 33.4357 56.0533C32.7551 56.689 32.0112 57.3076 31.204 57.9092C30.4063 58.5097 29.5838 59.0568 28.7365 59.5503C28.6816 59.4158 28.6049 59.2694 28.5065 59.1112C28.4177 58.952 28.3138 58.799 28.1949 58.6521C28.0855 58.5043 27.978 58.3749 27.8725 58.264C28.7537 57.7952 29.6152 57.2396 30.4569 56.5975C31.3 55.9458 32.0654 55.2784 32.7532 54.5954C33.4506 53.9114 34.02 53.2633 34.4616 52.651L36.2543 52.4751C36.5642 52.9763 36.916 53.4501 37.3096 53.8964C37.7033 54.3428 38.1361 54.748 38.6082 55.1121C39.0803 55.4761 39.5732 55.7962 40.0869 56.0722C40.6006 56.3482 41.1271 56.5717 41.6662 56.7426C41.4132 56.982 41.1702 57.2483 40.9372 57.5416C40.7043 57.835 40.4871 58.1174 40.2857 58.389C39.7839 58.1584 39.279 57.8862 38.771 57.5723C38.2726 57.2575 37.797 56.9171 37.344 56.5512C36.8925 56.1758 36.4799 55.7919 36.1063 55.3995C35.7327 55.0072 35.4246 54.6177 35.182 54.2311ZM31.1972 57.2103L38.411 56.5024L38.1843 57.9936L30.9705 58.7015L31.1972 57.2103ZM29.0358 60.2764L39.6628 59.2336L39.4383 60.7106L28.8112 61.7534L29.0358 60.2764ZM27.6623 64.6641L39.8526 63.4679L39.6302 64.9307L27.4399 66.1269L27.6623 64.6641ZM33.7597 57.5464L35.5811 57.3677L34.4626 64.7243L32.6413 64.903L33.7597 57.5464ZM29.6327 62.2044L31.0958 61.5012C31.2415 61.7201 31.3788 61.9631 31.5077 62.2302C31.6462 62.4965 31.7663 62.7598 31.8679 63.0203C31.9696 63.2808 32.0374 63.5167 32.0712 63.7278L30.4947 64.5261C30.4704 64.314 30.413 64.0724 30.3223 63.8015C30.2331 63.5212 30.1295 63.2422 30.0116 62.9646C29.8937 62.6871 29.7674 62.4337 29.6327 62.2044ZM37.0024 60.9356L38.561 61.3702C38.2079 61.8339 37.8453 62.2985 37.4731 62.7641C37.1024 63.2202 36.765 63.6123 36.4607 63.9406L35.2521 63.5276C35.4491 63.2845 35.6546 63.0171 35.8684 62.7257C36.0837 62.4248 36.2902 62.12 36.4878 61.8115C36.6868 61.4935 36.8583 61.2016 37.0024 60.9356ZM32.3023 67.5042L34.0807 67.3297L33.7784 69.318L32.0001 69.4925L32.3023 67.5042ZM31.0392 75.8123L32.8176 75.6378L32.0533 80.6653L30.2749 80.8398L31.0392 75.8123ZM25.3653 77.2645L38.3299 75.9923L38.0903 77.5687L25.1256 78.8409L25.3653 77.2645ZM27.0304 69.3786L39.0772 68.1964L38.8418 69.7445L26.795 70.9266L27.0304 69.3786ZM37.3674 70.057L38.7919 70.6307C38.3782 70.9978 37.9516 71.3567 37.5121 71.7076C37.074 72.0491 36.6752 72.3494 36.3156 72.6085L35.155 72.0648C35.3994 71.8823 35.6521 71.6756 35.9132 71.4448C36.1839 71.2131 36.4458 70.9775 36.6988 70.7382C36.9628 70.4884 37.1857 70.2614 37.3674 70.057ZM31.7954 70.0022L33.1619 70.3998C32.8189 70.7971 32.4664 71.1955 32.1043 71.5948C31.7517 71.9931 31.4318 72.3323 31.1443 72.6123L30.1399 72.2492C30.3231 72.0353 30.5147 71.7974 30.7147 71.5352C30.9147 71.2731 31.1106 71.0068 31.3024 70.7361C31.4942 70.4655 31.6586 70.2208 31.7954 70.0022ZM33.789 70.8279L35.0299 71.3077C34.5688 71.8006 34.0666 72.3162 33.5233 72.8545C32.9814 73.3833 32.4424 73.8932 31.9062 74.3842C31.3715 74.8657 30.8686 75.2928 30.3976 75.6654L29.4779 75.2101C29.9518 74.8185 30.448 74.3734 30.9665 73.8749C31.4959 73.3659 32.0084 72.8446 32.504 72.311C32.9995 71.7774 33.4279 71.283 33.789 70.8279ZM29.3991 72.4758L30.3491 71.4312C30.6019 71.565 30.8702 71.7205 31.154 71.8978C31.4379 72.0752 31.7074 72.2539 31.9625 72.4341C32.2191 72.6048 32.4253 72.7664 32.5811 72.919L31.5665 74.1098C31.4218 73.9468 31.2273 73.77 30.9831 73.5794C30.7404 73.3794 30.4779 73.186 30.1955 72.9992C29.9145 72.8029 29.649 72.6284 29.3991 72.4758ZM28.9246 74.7607C29.4055 74.6949 29.9534 74.6225 30.5682 74.5435C31.1844 74.455 31.8388 74.3628 32.5315 74.2669C33.2257 74.1615 33.9239 74.0603 34.6262 73.9634L34.4283 75.172C33.4607 75.3415 32.4979 75.5106 31.5398 75.6793C30.5818 75.8479 29.7215 75.9929 28.959 76.1144L28.9246 74.7607ZM33.0132 73.4222L34.3099 72.7913C34.4799 73.0358 34.6416 73.3044 34.7949 73.5971C34.9592 73.8794 35.1043 74.1637 35.2304 74.4497C35.3564 74.7358 35.4389 74.9982 35.478 75.2369L34.0988 75.9458C34.0597 75.7071 33.9819 75.4443 33.8654 75.1573C33.76 74.8598 33.6313 74.56 33.4795 74.2578C33.3386 73.9452 33.1832 73.6667 33.0132 73.4222ZM25.5011 75.3485C25.9817 75.1614 26.5609 74.9134 27.2389 74.6044C27.9265 74.2944 28.6236 73.9835 29.3303 73.6717L29.4415 74.8919C28.8863 75.1982 28.3121 75.5063 27.7187 75.8164C27.1348 76.1255 26.5983 76.402 26.1092 76.6459L25.5011 75.3485ZM26.4085 72.1677L27.694 71.1461C27.9225 71.2543 28.1617 71.3847 28.4116 71.5374C28.6725 71.6797 28.9136 71.8286 29.1348 71.9841C29.3656 72.1386 29.5508 72.2837 29.6903 72.4192L28.3323 73.5458C28.2119 73.4083 28.0418 73.2572 27.822 73.0922C27.6118 72.9263 27.3824 72.7623 27.1339 72.6001C26.8855 72.438 26.6437 72.2938 26.4085 72.1677ZM34.5545 73.9705L35.873 72.9177C36.1736 73.0468 36.4985 73.2014 36.8479 73.3817C37.1972 73.5619 37.5267 73.7487 37.8363 73.9422C38.1474 74.1262 38.404 74.2969 38.6062 74.4542L37.2008 75.6134C37.0288 75.4438 36.7928 75.2617 36.4927 75.0673C36.1926 74.8729 35.8741 74.6757 35.5372 74.4756C35.2003 74.2755 34.8728 74.1071 34.5545 73.9705Z" fill="#18724A"/>
<g filter="url(#filter0_d_175_2742)">
<mask id="path-3-outside-1_175_2742" maskUnits="userSpaceOnUse" x="47.4154" y="22.7715" width="140.264" height="61.5541" fill="black">
<rect fill="white" x="47.4154" y="22.7715" width="140.264" height="61.5541"/>
<path d="M61.394 81.9421C58.545 82.2039 56.1486 81.9196 54.205 81.0892C52.3026 80.2551 50.7804 79.2044 49.6384 77.9372L55.3353 72.0259C56.0119 72.892 56.9622 73.5715 58.1862 74.0644C59.4102 74.5573 60.7035 74.7411 62.0661 74.6159C63.3874 74.4945 64.6921 74.0921 65.9804 73.4087C67.2751 72.6844 68.4598 71.6271 69.5345 70.2369C70.6569 68.802 71.641 66.956 72.4868 64.6989C73.3738 62.4381 74.0735 59.69 74.586 56.4546C75.2022 52.564 75.3203 49.5061 74.9403 47.281C74.6016 45.0521 73.9114 43.5012 72.8696 42.6283C71.8344 41.7145 70.5529 41.3278 69.0251 41.4682C67.9103 41.5706 66.8294 41.9726 65.7824 42.6742C64.7354 43.3758 63.8256 44.3674 63.0529 45.6491C62.3216 46.9271 61.8067 48.508 61.5083 50.3919C61.2294 52.1529 61.2643 53.6026 61.6129 54.7409C61.9681 55.8383 62.5751 56.63 63.434 57.1161C64.3341 57.5984 65.4449 57.7789 66.7662 57.6575C68.0462 57.5398 69.4291 57.0294 70.9149 56.126C72.4007 55.2227 73.847 53.7984 75.2538 51.853L74.7241 57.8948C73.7644 59.0727 72.6417 60.1242 71.3558 61.0496C70.1112 61.9711 68.8546 62.7121 67.5858 63.2726C66.317 63.8331 65.1252 64.1646 64.0104 64.2671C61.4916 64.4985 59.3224 64.1933 57.5026 63.3516C55.6893 62.4689 54.37 61.0364 53.5447 59.054C52.7671 57.0268 52.6346 54.3955 53.147 51.1602C53.64 48.0477 54.7255 45.3045 56.4035 42.9306C58.0881 40.5158 60.1218 38.5935 62.5048 37.1638C64.8878 35.7341 67.38 34.8997 69.9813 34.6607C72.1697 34.4596 74.1628 34.7204 75.9608 35.4431C77.8065 36.121 79.3473 37.3112 80.5832 39.0138C81.8668 40.6716 82.7151 42.894 83.1282 45.6811C83.589 48.4235 83.5081 51.7604 82.8854 55.692C82.2043 59.9922 81.1424 63.7421 79.6998 66.9419C78.2636 70.1007 76.5401 72.7613 74.5294 74.9236C72.5599 77.0821 70.4445 78.7495 68.183 79.9259C65.928 81.0613 63.665 81.7334 61.394 81.9421ZM97.9264 78.5852C95.0774 78.847 92.681 78.5627 90.7374 77.7324C88.835 76.8982 87.3128 75.8475 86.1707 74.5803L91.8677 68.6691C92.5443 69.5351 93.4946 70.2146 94.7186 70.7075C95.9426 71.2004 97.2359 71.3842 98.5985 71.259C99.9198 71.1376 101.225 70.7352 102.513 70.0519C103.807 69.3275 104.992 68.2702 106.067 66.88C107.189 65.4451 108.173 63.5991 109.019 61.3421C109.906 59.0812 110.606 56.3331 111.118 53.0978C111.735 49.2071 111.853 46.1493 111.473 43.9241C111.134 41.6952 110.444 40.1443 109.402 39.2715C108.367 38.3576 107.085 37.9709 105.558 38.1113C104.443 38.2137 103.362 38.6158 102.315 39.3173C101.268 40.0189 100.358 41.0106 99.5853 42.2923C98.854 43.5702 98.3391 45.1511 98.0407 47.035C97.7618 48.796 97.7967 50.2457 98.1453 51.3841C98.5005 52.4814 99.1075 53.2732 99.9664 53.7593C100.867 54.2416 101.977 54.422 103.299 54.3006C104.579 54.183 105.961 53.6725 107.447 52.7692C108.933 51.8659 110.379 50.4415 111.786 48.4961L111.256 54.538C110.297 55.7158 109.174 56.7674 107.888 57.6927C106.644 58.6142 105.387 59.3552 104.118 59.9158C102.849 60.4763 101.658 60.8078 100.543 60.9102C98.024 61.1416 95.8548 60.8365 94.035 59.9948C92.2217 59.1121 90.9024 57.6795 90.0771 55.6971C89.2995 53.6699 89.167 51.0387 89.6794 47.8033C90.1724 44.6908 91.2579 41.9476 92.9359 39.5738C94.6205 37.1589 96.6542 35.2367 99.0372 33.807C101.42 32.3773 103.912 31.5429 106.514 31.3039C108.702 31.1028 110.695 31.3636 112.493 32.0862C114.339 32.7641 115.88 33.9544 117.116 35.6569C118.399 37.3147 119.248 39.5372 119.661 42.3243C120.121 45.0666 120.04 48.4036 119.418 52.3352C118.737 56.6353 117.675 60.3853 116.232 63.585C114.796 66.7439 113.073 69.4044 111.062 71.5667C109.092 73.7252 106.977 75.3927 104.715 76.5691C102.46 77.7045 100.197 78.3765 97.9264 78.5852ZM127.941 75.494C126.939 75.5861 126.167 75.3141 125.626 74.6782C125.085 74.0423 124.893 73.2273 125.051 72.2333C125.216 71.1896 125.677 70.3024 126.435 69.5716C127.193 68.8408 128.073 68.4294 129.075 68.3373C130.052 68.2475 130.813 68.5082 131.358 69.1192C131.903 69.7303 132.093 70.5577 131.928 71.6014C131.77 72.5954 131.311 73.4702 130.549 74.2258C129.788 74.9815 128.918 75.4042 127.941 75.494ZM135.623 74.2739L136.089 71.3264C138.773 69.0296 141.083 66.9151 143.02 64.983C144.98 63.0488 146.524 61.2781 147.651 59.6709C148.782 58.0407 149.452 56.5667 149.661 55.249C149.792 54.4168 149.756 53.7025 149.552 53.1062C149.348 52.5099 148.98 52.0767 148.449 51.8066C147.944 51.5112 147.272 51.4021 146.433 51.4792C145.501 51.5648 144.597 51.9099 143.72 52.5144C142.87 53.0937 142.062 53.7716 141.296 54.5482L138.863 52.0722C140.28 50.6663 141.669 49.5819 143.031 48.8189C144.419 48.0307 145.987 47.5563 147.735 47.3957C149.366 47.2458 150.735 47.4504 151.841 48.0094C152.974 48.5432 153.784 49.3685 154.274 50.4854C154.763 51.6023 154.881 52.9582 154.628 54.5533C154.383 56.1022 153.736 57.7222 152.687 59.4132C151.666 61.079 150.376 62.7694 148.818 64.4844C147.26 66.1994 145.566 67.9042 143.736 69.5987C144.426 69.4441 145.16 69.3084 145.936 69.1915C146.74 69.0493 147.445 68.9504 148.051 68.8947L153.644 68.3807L152.963 72.6805L135.623 74.2739ZM161.858 64.4585C160.947 64.5422 160.177 64.3779 159.549 63.9655C158.92 63.5531 158.48 62.9136 158.227 62.0468C157.978 61.163 157.953 60.0907 158.153 58.8298C158.353 57.569 158.72 56.4774 159.256 55.5551C159.794 54.6157 160.451 53.8837 161.229 53.3589C162.009 52.8171 162.854 52.5044 163.764 52.4207C165.138 52.2944 166.173 52.7115 166.867 53.6719C167.579 54.6308 167.783 56.0644 167.481 57.9727C167.281 59.2336 166.911 60.3422 166.37 61.2986C165.832 62.238 165.173 62.9785 164.393 63.5203C163.63 64.0606 162.785 64.3733 161.858 64.4585ZM162.198 62.3117C162.764 62.2596 163.284 61.918 163.757 61.2869C164.249 60.6372 164.606 59.6138 164.827 58.2166C165.048 56.8194 165.007 55.8493 164.704 55.3063C164.42 54.7447 163.995 54.4899 163.428 54.542C162.878 54.5925 162.359 54.9341 161.869 55.5668C161.4 56.1808 161.054 57.1864 160.833 58.5836C160.612 59.9808 160.641 60.9687 160.922 61.5474C161.223 62.1074 161.648 62.3622 162.198 62.3117ZM174.588 70.8194C173.677 70.9031 172.908 70.7388 172.279 70.3264C171.65 69.914 171.201 69.2753 170.932 68.4101C170.68 67.5433 170.654 66.4795 170.853 65.2187C171.056 63.9408 171.425 62.8407 171.96 61.9183C172.515 60.9774 173.182 60.2446 173.959 59.7198C174.739 59.178 175.584 58.8653 176.494 58.7816C177.405 58.6979 178.174 58.8623 178.803 59.2747C179.435 59.67 179.876 60.301 180.129 61.1678C180.383 62.0175 180.409 63.0813 180.207 64.3592C180.007 65.62 179.638 66.7202 179.1 67.6595C178.562 68.5989 177.903 69.3394 177.123 69.8813C176.343 70.4231 175.498 70.7358 174.588 70.8194ZM174.924 68.6981C175.491 68.646 176.012 68.2959 176.487 67.6478C176.962 66.9997 177.309 65.9856 177.527 64.6054C177.751 63.1912 177.72 62.2118 177.434 61.6672C177.148 61.1226 176.721 60.8764 176.154 60.9285C175.587 60.9806 175.061 61.3144 174.574 61.93C174.104 62.5441 173.757 63.5582 173.533 64.9724C173.315 66.3526 173.346 67.332 173.626 67.9106C173.924 68.4877 174.357 68.7502 174.924 68.6981ZM161.291 72.0412L174.819 51.4049L177.086 51.1966L163.533 71.8352L161.291 72.0412Z"/>
</mask>
<path d="M61.394 81.9421C58.545 82.2039 56.1486 81.9196 54.205 81.0892C52.3026 80.2551 50.7804 79.2044 49.6384 77.9372L55.3353 72.0259C56.0119 72.892 56.9622 73.5715 58.1862 74.0644C59.4102 74.5573 60.7035 74.7411 62.0661 74.6159C63.3874 74.4945 64.6921 74.0921 65.9804 73.4087C67.2751 72.6844 68.4598 71.6271 69.5345 70.2369C70.6569 68.802 71.641 66.956 72.4868 64.6989C73.3738 62.4381 74.0735 59.69 74.586 56.4546C75.2022 52.564 75.3203 49.5061 74.9403 47.281C74.6016 45.0521 73.9114 43.5012 72.8696 42.6283C71.8344 41.7145 70.5529 41.3278 69.0251 41.4682C67.9103 41.5706 66.8294 41.9726 65.7824 42.6742C64.7354 43.3758 63.8256 44.3674 63.0529 45.6491C62.3216 46.9271 61.8067 48.508 61.5083 50.3919C61.2294 52.1529 61.2643 53.6026 61.6129 54.7409C61.9681 55.8383 62.5751 56.63 63.434 57.1161C64.3341 57.5984 65.4449 57.7789 66.7662 57.6575C68.0462 57.5398 69.4291 57.0294 70.9149 56.126C72.4007 55.2227 73.847 53.7984 75.2538 51.853L74.7241 57.8948C73.7644 59.0727 72.6417 60.1242 71.3558 61.0496C70.1112 61.9711 68.8546 62.7121 67.5858 63.2726C66.317 63.8331 65.1252 64.1646 64.0104 64.2671C61.4916 64.4985 59.3224 64.1933 57.5026 63.3516C55.6893 62.4689 54.37 61.0364 53.5447 59.054C52.7671 57.0268 52.6346 54.3955 53.147 51.1602C53.64 48.0477 54.7255 45.3045 56.4035 42.9306C58.0881 40.5158 60.1218 38.5935 62.5048 37.1638C64.8878 35.7341 67.38 34.8997 69.9813 34.6607C72.1697 34.4596 74.1628 34.7204 75.9608 35.4431C77.8065 36.121 79.3473 37.3112 80.5832 39.0138C81.8668 40.6716 82.7151 42.894 83.1282 45.6811C83.589 48.4235 83.5081 51.7604 82.8854 55.692C82.2043 59.9922 81.1424 63.7421 79.6998 66.9419C78.2636 70.1007 76.5401 72.7613 74.5294 74.9236C72.5599 77.0821 70.4445 78.7495 68.183 79.9259C65.928 81.0613 63.665 81.7334 61.394 81.9421ZM97.9264 78.5852C95.0774 78.847 92.681 78.5627 90.7374 77.7324C88.835 76.8982 87.3128 75.8475 86.1707 74.5803L91.8677 68.6691C92.5443 69.5351 93.4946 70.2146 94.7186 70.7075C95.9426 71.2004 97.2359 71.3842 98.5985 71.259C99.9198 71.1376 101.225 70.7352 102.513 70.0519C103.807 69.3275 104.992 68.2702 106.067 66.88C107.189 65.4451 108.173 63.5991 109.019 61.3421C109.906 59.0812 110.606 56.3331 111.118 53.0978C111.735 49.2071 111.853 46.1493 111.473 43.9241C111.134 41.6952 110.444 40.1443 109.402 39.2715C108.367 38.3576 107.085 37.9709 105.558 38.1113C104.443 38.2137 103.362 38.6158 102.315 39.3173C101.268 40.0189 100.358 41.0106 99.5853 42.2923C98.854 43.5702 98.3391 45.1511 98.0407 47.035C97.7618 48.796 97.7967 50.2457 98.1453 51.3841C98.5005 52.4814 99.1075 53.2732 99.9664 53.7593C100.867 54.2416 101.977 54.422 103.299 54.3006C104.579 54.183 105.961 53.6725 107.447 52.7692C108.933 51.8659 110.379 50.4415 111.786 48.4961L111.256 54.538C110.297 55.7158 109.174 56.7674 107.888 57.6927C106.644 58.6142 105.387 59.3552 104.118 59.9158C102.849 60.4763 101.658 60.8078 100.543 60.9102C98.024 61.1416 95.8548 60.8365 94.035 59.9948C92.2217 59.1121 90.9024 57.6795 90.0771 55.6971C89.2995 53.6699 89.167 51.0387 89.6794 47.8033C90.1724 44.6908 91.2579 41.9476 92.9359 39.5738C94.6205 37.1589 96.6542 35.2367 99.0372 33.807C101.42 32.3773 103.912 31.5429 106.514 31.3039C108.702 31.1028 110.695 31.3636 112.493 32.0862C114.339 32.7641 115.88 33.9544 117.116 35.6569C118.399 37.3147 119.248 39.5372 119.661 42.3243C120.121 45.0666 120.04 48.4036 119.418 52.3352C118.737 56.6353 117.675 60.3853 116.232 63.585C114.796 66.7439 113.073 69.4044 111.062 71.5667C109.092 73.7252 106.977 75.3927 104.715 76.5691C102.46 77.7045 100.197 78.3765 97.9264 78.5852ZM127.941 75.494C126.939 75.5861 126.167 75.3141 125.626 74.6782C125.085 74.0423 124.893 73.2273 125.051 72.2333C125.216 71.1896 125.677 70.3024 126.435 69.5716C127.193 68.8408 128.073 68.4294 129.075 68.3373C130.052 68.2475 130.813 68.5082 131.358 69.1192C131.903 69.7303 132.093 70.5577 131.928 71.6014C131.77 72.5954 131.311 73.4702 130.549 74.2258C129.788 74.9815 128.918 75.4042 127.941 75.494ZM135.623 74.2739L136.089 71.3264C138.773 69.0296 141.083 66.9151 143.02 64.983C144.98 63.0488 146.524 61.2781 147.651 59.6709C148.782 58.0407 149.452 56.5667 149.661 55.249C149.792 54.4168 149.756 53.7025 149.552 53.1062C149.348 52.5099 148.98 52.0767 148.449 51.8066C147.944 51.5112 147.272 51.4021 146.433 51.4792C145.501 51.5648 144.597 51.9099 143.72 52.5144C142.87 53.0937 142.062 53.7716 141.296 54.5482L138.863 52.0722C140.28 50.6663 141.669 49.5819 143.031 48.8189C144.419 48.0307 145.987 47.5563 147.735 47.3957C149.366 47.2458 150.735 47.4504 151.841 48.0094C152.974 48.5432 153.784 49.3685 154.274 50.4854C154.763 51.6023 154.881 52.9582 154.628 54.5533C154.383 56.1022 153.736 57.7222 152.687 59.4132C151.666 61.079 150.376 62.7694 148.818 64.4844C147.26 66.1994 145.566 67.9042 143.736 69.5987C144.426 69.4441 145.16 69.3084 145.936 69.1915C146.74 69.0493 147.445 68.9504 148.051 68.8947L153.644 68.3807L152.963 72.6805L135.623 74.2739ZM161.858 64.4585C160.947 64.5422 160.177 64.3779 159.549 63.9655C158.92 63.5531 158.48 62.9136 158.227 62.0468C157.978 61.163 157.953 60.0907 158.153 58.8298C158.353 57.569 158.72 56.4774 159.256 55.5551C159.794 54.6157 160.451 53.8837 161.229 53.3589C162.009 52.8171 162.854 52.5044 163.764 52.4207C165.138 52.2944 166.173 52.7115 166.867 53.6719C167.579 54.6308 167.783 56.0644 167.481 57.9727C167.281 59.2336 166.911 60.3422 166.37 61.2986C165.832 62.238 165.173 62.9785 164.393 63.5203C163.63 64.0606 162.785 64.3733 161.858 64.4585ZM162.198 62.3117C162.764 62.2596 163.284 61.918 163.757 61.2869C164.249 60.6372 164.606 59.6138 164.827 58.2166C165.048 56.8194 165.007 55.8493 164.704 55.3063C164.42 54.7447 163.995 54.4899 163.428 54.542C162.878 54.5925 162.359 54.9341 161.869 55.5668C161.4 56.1808 161.054 57.1864 160.833 58.5836C160.612 59.9808 160.641 60.9687 160.922 61.5474C161.223 62.1074 161.648 62.3622 162.198 62.3117ZM174.588 70.8194C173.677 70.9031 172.908 70.7388 172.279 70.3264C171.65 69.914 171.201 69.2753 170.932 68.4101C170.68 67.5433 170.654 66.4795 170.853 65.2187C171.056 63.9408 171.425 62.8407 171.96 61.9183C172.515 60.9774 173.182 60.2446 173.959 59.7198C174.739 59.178 175.584 58.8653 176.494 58.7816C177.405 58.6979 178.174 58.8623 178.803 59.2747C179.435 59.67 179.876 60.301 180.129 61.1678C180.383 62.0175 180.409 63.0813 180.207 64.3592C180.007 65.62 179.638 66.7202 179.1 67.6595C178.562 68.5989 177.903 69.3394 177.123 69.8813C176.343 70.4231 175.498 70.7358 174.588 70.8194ZM174.924 68.6981C175.491 68.646 176.012 68.2959 176.487 67.6478C176.962 66.9997 177.309 65.9856 177.527 64.6054C177.751 63.1912 177.72 62.2118 177.434 61.6672C177.148 61.1226 176.721 60.8764 176.154 60.9285C175.587 60.9806 175.061 61.3144 174.574 61.93C174.104 62.5441 173.757 63.5582 173.533 64.9724C173.315 66.3526 173.346 67.332 173.626 67.9106C173.924 68.4877 174.357 68.7502 174.924 68.6981ZM161.291 72.0412L174.819 51.4049L177.086 51.1966L163.533 71.8352L161.291 72.0412Z" fill="#FFDA03"/>
<path d="M54.205 81.0892L53.9683 81.463L53.971 81.4641L54.205 81.0892ZM49.6384 77.9372L49.3772 77.7018L49.0886 78.0013L49.3054 78.2419L49.6384 77.9372ZM55.3353 72.0259L55.6806 71.736L55.4326 71.4186L55.0742 71.7905L55.3353 72.0259ZM65.9804 73.4087L66.0985 73.7524L66.1092 73.7464L65.9804 73.4087ZM69.5345 70.2369L69.2345 70.0462L69.2325 70.0487L69.5345 70.2369ZM72.4868 64.6989L72.1101 64.6414L72.1074 64.6484L72.4868 64.6989ZM74.9403 47.281L74.5366 47.4324L74.5376 47.4384L74.9403 47.281ZM72.8696 42.6283L72.5588 42.955L72.5642 42.9596L72.8696 42.6283ZM63.0529 45.6491L62.7147 45.5137L62.7087 45.5243L63.0529 45.6491ZM61.6129 54.7409L61.2196 54.938L61.2211 54.9426L61.6129 54.7409ZM63.434 57.1161L63.1706 57.4765L63.1765 57.4797L63.434 57.1161ZM70.9149 56.126L70.7688 55.7984V55.7984L70.9149 56.126ZM75.2538 51.853L75.6598 51.7879L75.7699 50.5331L74.9411 51.6793L75.2538 51.853ZM74.7241 57.8948L75.0169 58.0944L75.1178 57.9706L75.1302 57.8298L74.7241 57.8948ZM71.3558 61.0496L71.1732 60.7461L71.167 60.7507L71.3558 61.0496ZM67.5858 63.2726L67.5021 62.9123V62.9123L67.5858 63.2726ZM57.5026 63.3516L57.2552 63.7204L57.2605 63.7229L57.5026 63.3516ZM53.5447 59.054L53.1581 59.2709L53.1613 59.2786L53.5447 59.054ZM56.4035 42.9306L56.7197 43.0995L56.7217 43.0966L56.4035 42.9306ZM62.5048 37.1638L62.3615 36.8345L62.3615 36.8345L62.5048 37.1638ZM75.9608 35.4431L75.7327 35.8206L75.7414 35.8238L75.9608 35.4431ZM80.5831 39.0138L80.2319 39.2961L80.2371 39.3028L80.5831 39.0138ZM83.1282 45.6811L82.7243 45.8313L82.7254 45.8377L83.1282 45.6811ZM79.6998 66.9419L80.0662 67.0236L80.0668 67.0222L79.6998 66.9419ZM74.5294 74.9236L74.2612 74.6957L74.2575 74.6997L74.5294 74.9236ZM68.183 79.9259L68.2909 80.2748L68.2972 80.2715L68.183 79.9259ZM61.394 81.9421L61.4573 81.5427C58.6567 81.8001 56.3219 81.5188 54.439 80.7144L54.205 81.0892L53.971 81.4641C55.9753 82.3204 58.4333 82.6077 61.3308 82.3414L61.394 81.9421ZM54.205 81.0892L54.4416 80.7155C52.57 79.8949 51.0827 78.8656 49.9713 77.6325L49.6384 77.9372L49.3054 78.2419C50.4781 79.5432 52.0352 80.6153 53.9683 81.463L54.205 81.0892ZM49.6384 77.9372L49.8995 78.1726L55.5964 72.2613L55.3353 72.0259L55.0742 71.7905L49.3772 77.7018L49.6384 77.9372ZM55.3353 72.0259L54.99 72.3159C55.7012 73.2262 56.6944 73.9328 57.9581 74.4416L58.1862 74.0644L58.4144 73.6871C57.23 73.2101 56.3226 72.5577 55.6806 71.736L55.3353 72.0259ZM58.1862 74.0644L57.9581 74.4416C59.228 74.9531 60.5771 75.1463 62.0028 75.0152L62.0661 74.6159L62.1293 74.2166C60.8299 74.336 59.5924 74.1615 58.4144 73.6871L58.1862 74.0644ZM62.0661 74.6159L62.0028 75.0152C63.3851 74.8882 64.7519 74.4666 66.0985 73.7523L65.9804 73.4087L65.8623 73.0652C64.6324 73.7176 63.3896 74.1007 62.1293 74.2166L62.0661 74.6159ZM65.9804 73.4087L66.1092 73.7464C67.481 72.979 68.7228 71.8656 69.8364 70.4251L69.5345 70.2369L69.2325 70.0487C68.1968 71.3886 67.0692 72.3898 65.8516 73.071L65.9804 73.4087ZM69.5345 70.2369L69.8344 70.4276C71.0015 68.9356 72.0087 67.0376 72.8661 64.7494L72.4868 64.6989L72.1074 64.6484C71.2734 66.8743 70.3123 68.6683 69.2345 70.0462L69.5345 70.2369ZM72.4868 64.6989L72.8634 64.7564C73.7667 62.4542 74.4731 59.6724 74.9886 56.4176L74.586 56.4546L74.1833 56.4916C73.674 59.7076 72.9809 62.4219 72.1101 64.6414L72.4868 64.6989ZM74.586 56.4546L74.9886 56.4176C75.6079 52.5077 75.7323 49.4032 75.343 47.1236L74.9403 47.281L74.5376 47.4384C74.9083 49.6091 74.7965 52.6203 74.1833 56.4916L74.586 56.4546ZM74.9403 47.281L75.344 47.1296C74.9999 44.8652 74.2916 43.2326 73.1751 42.2971L72.8696 42.6283L72.5642 42.9596C73.5311 43.7697 74.2034 45.239 74.5367 47.4324L74.9403 47.281ZM72.8696 42.6283L73.1804 42.3017C72.0844 41.3342 70.7162 40.9192 69.0884 41.0688L69.0251 41.4682L68.9619 41.8675C70.3895 41.7363 71.5844 42.0948 72.5589 42.9549L72.8696 42.6283ZM69.0251 41.4682L69.0884 41.0688C67.894 41.1786 66.7332 41.6109 65.6154 42.3599L65.7824 42.6742L65.9494 42.9885C66.9255 42.3344 67.9265 41.9626 68.9619 41.8675L69.0251 41.4682ZM65.7824 42.6742L65.6154 42.3599C64.486 43.1167 63.5212 44.1762 62.7148 45.5138L63.0529 45.6491L63.391 45.7845C64.13 44.5586 64.9849 43.6348 65.9494 42.9885L65.7824 42.6742ZM63.0529 45.6491L62.7087 45.5243C61.9379 46.871 61.4095 48.511 61.1057 50.4289L61.5083 50.3919L61.9109 50.3549C62.2039 48.505 62.7052 46.9831 63.3972 45.774L63.0529 45.6491ZM61.5083 50.3919L61.1057 50.4289C60.8208 52.2274 60.8516 53.7363 61.2197 54.938L61.6129 54.7409L62.0062 54.5438C61.677 53.4688 61.638 52.0784 61.9109 50.3549L61.5083 50.3919ZM61.6129 54.7409L61.2211 54.9426C61.5951 56.0983 62.2415 56.9507 63.1706 57.4765L63.434 57.1161L63.6974 56.7558C62.9087 56.3094 62.3411 55.5783 62.0048 54.5392L61.6129 54.7409ZM63.434 57.1161L63.1765 57.4797C64.1406 57.9963 65.3213 58.1838 66.7029 58.0568L66.7662 57.6575L66.8294 57.2581C65.5684 57.374 64.5277 57.2006 63.6915 56.7525L63.434 57.1161ZM66.7662 57.6575L66.7029 58.0568C68.0679 57.9314 69.5237 57.3883 71.061 56.4537L70.9149 56.126L70.7688 55.7984C69.3345 56.6704 68.0245 57.1483 66.8294 57.2581L66.7662 57.6575ZM70.9149 56.126L71.061 56.4537C72.6315 55.4989 74.1313 54.0115 75.5665 52.0267L75.2538 51.853L74.9411 51.6793C73.5628 53.5853 72.17 54.9466 70.7688 55.7984L70.9149 56.126ZM75.2538 51.853L74.8477 51.9181L74.318 57.9599L74.7241 57.8948L75.1302 57.8298L75.6598 51.7879L75.2538 51.853ZM74.7241 57.8948L74.4312 57.6953C73.5048 58.8323 72.4198 59.8491 71.1732 60.7461L71.3558 61.0496L71.5384 61.353C72.8635 60.3994 74.024 59.3131 75.0169 58.0944L74.7241 57.8948ZM71.3558 61.0496L71.167 60.7507C69.9528 61.6497 68.7314 62.3693 67.5021 62.9123L67.5858 63.2726L67.6694 63.6329C68.9777 63.0549 70.2696 62.2925 71.5446 61.3484L71.3558 61.0496ZM67.5858 63.2726L67.5021 62.9123C66.2746 63.4546 65.133 63.7704 64.0736 63.8677L64.0104 64.2671L63.9471 64.6664C65.1174 64.5589 66.3594 64.2116 67.6694 63.6329L67.5858 63.2726ZM64.0104 64.2671L64.0736 63.8677C61.6113 64.094 59.5053 63.7947 57.7447 62.9803L57.5026 63.3516L57.2605 63.7229C59.1394 64.592 61.372 64.903 63.9471 64.6664L64.0104 64.2671ZM57.5026 63.3516L57.75 62.9828C56.0031 62.1325 54.7286 60.7523 53.928 58.8293L53.5447 59.054L53.1613 59.2786C54.0114 61.3204 55.3756 62.8054 57.2552 63.7204L57.5026 63.3516ZM53.5447 59.054L53.9312 58.8371C53.1803 56.8796 53.044 54.3158 53.5496 51.1232L53.147 51.1602L52.7444 51.1972C52.2252 54.4753 52.3539 57.174 53.1582 59.2708L53.5447 59.054ZM53.147 51.1602L53.5496 51.1232C54.0336 48.0675 55.0952 45.3976 56.7197 43.0995L56.4035 42.9306L56.0873 42.7618C54.3557 45.2114 53.2463 48.0279 52.7444 51.1972L53.147 51.1602ZM56.4035 42.9306L56.7217 43.0966C58.3633 40.7434 60.3379 38.8792 62.6481 37.4931L62.5048 37.1638L62.3615 36.8345C59.9058 38.3079 57.8129 40.2881 56.0853 42.7646L56.4035 42.9306ZM62.5048 37.1638L62.6481 37.4931C64.9629 36.1043 67.3837 35.2929 69.918 35.0601L69.9813 34.6607L70.0445 34.2614C67.3762 34.5066 64.8127 35.3639 62.3615 36.8345L62.5048 37.1638ZM69.9813 34.6607L69.918 35.0601C72.0487 34.8643 73.9854 35.1181 75.7328 35.8204L75.9608 35.4431L76.1887 35.0657C74.3402 34.3227 72.2906 34.055 70.0445 34.2614L69.9813 34.6607ZM75.9608 35.4431L75.7414 35.8238C77.5273 36.4797 79.025 37.6332 80.232 39.296L80.5831 39.0138L80.9343 38.7316C79.6696 36.9893 78.0857 35.7623 76.1801 35.0624L75.9608 35.4431ZM80.5831 39.0138L80.2371 39.3028C81.4837 40.9127 82.3171 43.0835 82.7243 45.8313L83.1282 45.6811L83.532 45.5309C83.1131 42.7045 82.2499 40.4304 80.9292 38.7248L80.5831 39.0138ZM83.1282 45.6811L82.7254 45.8377C83.1781 48.5319 83.1009 51.8261 82.4827 55.729L82.8854 55.692L83.288 55.655C83.9152 51.6948 83.9999 48.3151 83.531 45.5246L83.1282 45.6811ZM82.8854 55.692L82.4827 55.729C81.806 60.0018 80.7534 63.7106 79.3327 66.8616L79.6998 66.9419L80.0668 67.0222C81.5314 63.7737 82.6026 59.9826 83.288 55.655L82.8854 55.692ZM79.6998 66.9419L79.3334 66.8602C77.9158 69.9782 76.2228 72.5862 74.2612 74.6957L74.5294 74.9236L74.7976 75.1515C76.8575 72.9363 78.6114 70.2232 80.0661 67.0236L79.6998 66.9419ZM74.5294 74.9236L74.2575 74.6997C72.3278 76.8146 70.265 78.4379 68.0688 79.5803L68.183 79.9259L68.2972 80.2715C70.6239 79.0612 72.7921 77.3495 74.8013 75.1474L74.5294 74.9236ZM68.183 79.9259L68.0751 79.5771C65.8748 80.685 63.6702 81.3394 61.4573 81.5427L61.394 81.9421L61.3308 82.3414C63.6598 82.1274 65.9811 81.4377 68.2908 80.2747L68.183 79.9259ZM90.7374 77.7324L90.5007 78.1061L90.5033 78.1072L90.7374 77.7324ZM86.1707 74.5803L85.9096 74.3449L85.621 74.6444L85.8378 74.885L86.1707 74.5803ZM91.8677 68.6691L92.213 68.3791L91.965 68.0617L91.6066 68.4337L91.8677 68.6691ZM102.513 70.0519L102.631 70.3955L102.642 70.3896L102.513 70.0519ZM106.067 66.88L105.767 66.6893L105.765 66.6919L106.067 66.88ZM109.019 61.3421L108.642 61.2846L108.64 61.2916L109.019 61.3421ZM111.473 43.9241L111.069 44.0756L111.07 44.0816L111.473 43.9241ZM109.402 39.2715L109.091 39.5982L109.097 39.6027L109.402 39.2715ZM99.5853 42.2923L99.2471 42.1569L99.2411 42.1674L99.5853 42.2923ZM98.1453 51.3841L97.752 51.5812L97.7535 51.5858L98.1453 51.3841ZM99.9664 53.7593L99.703 54.1197L99.7089 54.1229L99.9664 53.7593ZM107.447 52.7692L107.301 52.4416V52.4416L107.447 52.7692ZM111.786 48.4961L112.192 48.4311L112.302 47.1763L111.473 48.3224L111.786 48.4961ZM111.256 54.538L111.549 54.7375L111.65 54.6137L111.663 54.4729L111.256 54.538ZM107.888 57.6927L107.706 57.3892L107.699 57.3938L107.888 57.6927ZM104.118 59.9158L104.035 59.5555V59.5555L104.118 59.9158ZM94.035 59.9948L93.7876 60.3636L93.7929 60.366L94.035 59.9948ZM90.0771 55.6971L89.6905 55.914L89.6937 55.9217L90.0771 55.6971ZM92.9359 39.5738L93.2521 39.7426L93.2541 39.7398L92.9359 39.5738ZM99.0372 33.807L98.8939 33.4776V33.4776L99.0372 33.807ZM112.493 32.0862L112.265 32.4637L112.274 32.4669L112.493 32.0862ZM117.116 35.6569L116.764 35.9392L116.769 35.9459L117.116 35.6569ZM119.661 42.3243L119.257 42.4745L119.258 42.4808L119.661 42.3243ZM116.232 63.585L116.599 63.6668L116.599 63.6653L116.232 63.585ZM111.062 71.5667L110.794 71.3388L110.79 71.3428L111.062 71.5667ZM104.715 76.5691L104.823 76.9179L104.83 76.9146L104.715 76.5691ZM97.9264 78.5852L97.9896 78.1859C95.189 78.4432 92.8543 78.1619 90.9714 77.3575L90.7374 77.7324L90.5033 78.1072C92.5077 78.9635 94.9657 79.2508 97.8631 78.9846L97.9264 78.5852ZM90.7374 77.7324L90.974 77.3587C89.1024 76.538 87.615 75.5088 86.5037 74.2756L86.1707 74.5803L85.8378 74.885C87.0105 76.1863 88.5676 77.2585 90.5007 78.1061L90.7374 77.7324ZM86.1707 74.5803L86.4318 74.8157L92.1288 68.9045L91.8677 68.6691L91.6066 68.4337L85.9096 74.3449L86.1707 74.5803ZM91.8677 68.6691L91.5223 68.959C92.2336 69.8694 93.2268 70.5759 94.4904 71.0848L94.7186 70.7075L94.9468 70.3302C93.7624 69.8533 92.855 69.2009 92.213 68.3791L91.8677 68.6691ZM94.7186 70.7075L94.4904 71.0848C95.7604 71.5962 97.1095 71.7894 98.5352 71.6584L98.5985 71.259L98.6617 70.8597C97.3623 70.9791 96.1248 70.8046 94.9468 70.3302L94.7186 70.7075ZM98.5985 71.259L98.5352 71.6584C99.9175 71.5314 101.284 71.1097 102.631 70.3954L102.513 70.0519L102.395 69.7083C101.165 70.3607 99.922 70.7439 98.6617 70.8597L98.5985 71.259ZM102.513 70.0519L102.642 70.3896C104.013 69.6221 105.255 68.5087 106.369 67.0682L106.067 66.88L105.765 66.6919C104.729 68.0318 103.602 69.0329 102.384 69.7141L102.513 70.0519ZM106.067 66.88L106.367 67.0708C107.534 65.5788 108.541 63.6808 109.398 61.3926L109.019 61.3421L108.64 61.2916C107.806 63.5174 106.845 65.3114 105.767 66.6893L106.067 66.88ZM109.019 61.3421L109.396 61.3996C110.299 59.0974 111.005 56.3156 111.521 53.0608L111.118 53.0978L110.716 53.1348C110.206 56.3507 109.513 59.0651 108.643 61.2846L109.019 61.3421ZM111.118 53.0978L111.521 53.0608C112.14 49.1509 112.265 46.0464 111.875 43.7667L111.473 43.9241L111.07 44.0816C111.441 46.2522 111.329 49.2634 110.716 53.1348L111.118 53.0978ZM111.473 43.9241L111.876 43.7727C111.532 41.5083 110.824 39.8758 109.707 38.9402L109.402 39.2715L109.097 39.6027C110.064 40.4129 110.736 41.8822 111.069 44.0756L111.473 43.9241ZM109.402 39.2715L109.713 38.9448C108.617 37.9774 107.249 37.5624 105.621 37.712L105.558 38.1113L105.494 38.5107C106.922 38.3795 108.117 38.7379 109.091 39.5981L109.402 39.2715ZM105.558 38.1113L105.621 37.712C104.426 37.8217 103.266 38.254 102.148 39.003L102.315 39.3173L102.482 39.6316C103.458 38.9775 104.459 38.6058 105.494 38.5107L105.558 38.1113ZM102.315 39.3173L102.148 39.003C101.018 39.7599 100.054 40.8193 99.2472 42.1569L99.5853 42.2923L99.9234 42.4276C100.662 41.2018 101.517 40.2779 102.482 39.6316L102.315 39.3173ZM99.5853 42.2923L99.2411 42.1674C98.4703 43.5142 97.9418 45.1542 97.6381 47.072L98.0407 47.035L98.4433 46.998C98.7363 45.1481 99.2376 43.6263 99.9296 42.4171L99.5853 42.2923ZM98.0407 47.035L97.6381 47.072C97.3532 48.8706 97.384 50.3795 97.7521 51.5812L98.1453 51.3841L98.5386 51.1869C98.2094 50.112 98.1704 48.7215 98.4433 46.998L98.0407 47.035ZM98.1453 51.3841L97.7535 51.5858C98.1275 52.7414 98.7739 53.5938 99.703 54.1196L99.9664 53.7593L100.23 53.3989C99.4411 52.9526 98.8735 52.2215 98.5372 51.1823L98.1453 51.3841ZM99.9664 53.7593L99.7089 54.1229C100.673 54.6394 101.854 54.8269 103.235 54.7L103.299 54.3006L103.362 53.9013C102.101 54.0171 101.06 53.8437 100.224 53.3957L99.9664 53.7593ZM103.299 54.3006L103.235 54.7C104.6 54.5745 106.056 54.0315 107.593 53.0968L107.447 52.7692L107.301 52.4416C105.867 53.3136 104.557 53.7914 103.362 53.9013L103.299 54.3006ZM107.447 52.7692L107.593 53.0968C109.164 52.142 110.664 50.6546 112.099 48.6699L111.786 48.4961L111.473 48.3224C110.095 50.2284 108.702 51.5897 107.301 52.4416L107.447 52.7692ZM111.786 48.4961L111.38 48.5612L110.85 54.603L111.256 54.538L111.663 54.4729L112.192 48.4311L111.786 48.4961ZM111.256 54.538L110.964 54.3384C110.037 55.4754 108.952 56.4922 107.706 57.3892L107.888 57.6927L108.071 57.9962C109.396 57.0425 110.556 55.9562 111.549 54.7375L111.256 54.538ZM107.888 57.6927L107.699 57.3938C106.485 58.2928 105.264 59.0124 104.035 59.5555L104.118 59.9158L104.202 60.276C105.51 59.698 106.802 58.9356 108.077 57.9916L107.888 57.6927ZM104.118 59.9158L104.035 59.5555C102.807 60.0978 101.665 60.4135 100.606 60.5109L100.543 60.9102L100.479 61.3095C101.65 61.202 102.892 60.8548 104.202 60.276L104.118 59.9158ZM100.543 60.9102L100.606 60.5109C98.1437 60.7371 96.0377 60.4379 94.2771 59.6235L94.035 59.9948L93.7929 60.366C95.6718 61.2351 97.9043 61.5462 100.479 61.3095L100.543 60.9102ZM94.035 59.9948L94.2824 59.626C92.5354 58.7756 91.261 57.3955 90.4604 55.4725L90.0771 55.6971L89.6937 55.9217C90.5438 57.9636 91.908 59.4485 93.7876 60.3635L94.035 59.9948ZM90.0771 55.6971L90.4635 55.4802C89.7127 53.5227 89.5764 50.9589 90.082 47.7663L89.6794 47.8033L89.2768 47.8403C88.7576 51.1184 88.8863 53.8172 89.6906 55.914L90.0771 55.6971ZM89.6794 47.8033L90.082 47.7663C90.566 44.7106 91.6276 42.0407 93.2521 39.7426L92.9359 39.5738L92.6197 39.4049C90.8881 41.8545 89.7787 44.671 89.2768 47.8403L89.6794 47.8033ZM92.9359 39.5738L93.2541 39.7398C94.8956 37.3866 96.8703 35.5223 99.1805 34.1363L99.0372 33.807L98.8939 33.4776C96.4382 34.951 94.3453 36.9313 92.6177 39.4077L92.9359 39.5738ZM99.0372 33.807L99.1805 34.1363C101.495 32.7475 103.916 31.9361 106.45 31.7032L106.514 31.3039L106.577 30.9045C103.909 31.1497 101.345 32.007 98.8939 33.4776L99.0372 33.807ZM106.514 31.3039L106.45 31.7032C108.581 31.5074 110.518 31.7613 112.265 32.4636L112.493 32.0862L112.721 31.7089C110.873 30.9659 108.823 30.6981 106.577 30.9045L106.514 31.3039ZM112.493 32.0862L112.274 32.4669C114.06 33.1228 115.557 34.2764 116.764 35.9391L117.116 35.6569L117.467 35.3747C116.202 33.6324 114.618 32.4055 112.712 31.7055L112.493 32.0862ZM117.116 35.6569L116.769 35.9459C118.016 37.5559 118.85 39.7267 119.257 42.4745L119.661 42.3243L120.064 42.1741C119.646 39.3477 118.782 37.0736 117.462 35.3679L117.116 35.6569ZM119.661 42.3243L119.258 42.4808C119.71 45.175 119.633 48.4692 119.015 52.3722L119.418 52.3352L119.82 52.2982C120.448 48.338 120.532 44.9582 120.063 42.1677L119.661 42.3243ZM119.418 52.3352L119.015 52.3722C118.338 56.645 117.286 60.3537 115.865 63.5048L116.232 63.585L116.599 63.6653C118.064 60.4169 119.135 56.6257 119.82 52.2982L119.418 52.3352ZM116.232 63.585L115.866 63.5033C114.448 66.6213 112.755 69.2294 110.794 71.3388L111.062 71.5667L111.33 71.7946C113.39 69.5794 115.144 66.8664 116.599 63.6668L116.232 63.585ZM111.062 71.5667L110.79 71.3428C108.86 73.4577 106.797 75.081 104.601 76.2235L104.715 76.5691L104.83 76.9146C107.156 75.7043 109.324 73.9927 111.334 71.7906L111.062 71.5667ZM104.715 76.5691L104.607 76.2202C102.407 77.3281 100.203 77.9825 97.9896 78.1859L97.9264 78.5852L97.8631 78.9846C100.192 78.7706 102.514 78.0809 104.823 76.9179L104.715 76.5691ZM125.626 74.6782L125.288 74.9771V74.9771L125.626 74.6782ZM126.435 69.5716L126.189 69.3213V69.3213L126.435 69.5716ZM131.358 69.1192L131.692 68.8156V68.8156L131.358 69.1192ZM130.549 74.2258L130.801 74.4705L130.801 74.4705L130.549 74.2258ZM127.941 75.494L128.004 75.0946C127.108 75.177 126.439 74.9371 125.964 74.3794L125.626 74.6782L125.288 74.9771C125.896 75.6912 126.77 75.9952 127.878 75.8933L127.941 75.494ZM125.626 74.6782L125.964 74.3794C125.483 73.8143 125.311 73.0947 125.453 72.1963L125.051 72.2333L124.648 72.2703C124.475 73.3599 124.687 74.2702 125.288 74.9771L125.626 74.6782ZM125.051 72.2333L125.453 72.1963C125.604 71.2424 126.018 70.4617 126.681 69.822L126.435 69.5716L126.189 69.3213C125.337 70.1431 124.827 71.1369 124.648 72.2703L125.051 72.2333ZM126.435 69.5716L126.681 69.822C127.344 69.1825 128.111 68.8194 129.011 68.7366L129.075 68.3373L129.138 67.938C128.035 68.0393 127.041 68.4992 126.189 69.3213L126.435 69.5716ZM129.075 68.3373L129.011 68.7366C129.884 68.6565 130.545 68.8862 131.024 69.4229L131.358 69.1192L131.692 68.8156C131.08 68.1301 130.219 67.8386 129.138 67.938L129.075 68.3373ZM131.358 69.1192L131.024 69.4229C131.501 69.9578 131.676 70.6845 131.525 71.6384L131.928 71.6014L132.33 71.5644C132.51 70.4309 132.305 69.5028 131.692 68.8156L131.358 69.1192ZM131.928 71.6014L131.525 71.6384C131.383 72.5368 130.974 73.3098 130.297 73.9812L130.549 74.2258L130.801 74.4705C131.648 73.6306 132.158 72.654 132.33 71.5644L131.928 71.6014ZM130.549 74.2258L130.297 73.9812C129.627 74.6464 128.872 75.0149 128.004 75.0946L127.941 75.494L127.878 75.8933C128.964 75.7935 129.948 75.3165 130.801 74.4705L130.549 74.2258ZM135.623 74.2739L135.22 74.3109L135.157 74.7103L135.559 74.6733L135.623 74.2739ZM136.089 71.3264L135.869 71.0529L135.715 71.1844L135.687 71.3634L136.089 71.3264ZM143.02 64.983L142.769 64.7373L142.767 64.7395L143.02 64.983ZM147.651 59.6709L147.968 59.8381L147.97 59.8358L147.651 59.6709ZM149.552 53.1062L149.942 52.8996V52.8996L149.552 53.1062ZM148.449 51.8066L148.182 52.1648L148.189 52.1692L148.197 52.1731L148.449 51.8066ZM143.72 52.5144L143.891 52.8262L143.893 52.8245L143.72 52.5144ZM141.296 54.5482L140.971 54.8615L141.225 55.1201L141.553 54.7885L141.296 54.5482ZM138.863 52.0722L138.611 51.8276L138.297 52.1396L138.538 52.3855L138.863 52.0722ZM143.031 48.8189L143.16 49.1564L143.162 49.1549L143.031 48.8189ZM151.841 48.0094L151.589 48.3763L151.597 48.3798L151.841 48.0094ZM154.274 50.4854L154.655 50.2558V50.2558L154.274 50.4854ZM152.687 59.4132L152.353 59.272L152.351 59.2743L152.687 59.4132ZM143.736 69.5987L143.498 69.3402L142.5 70.2641L143.728 69.9892L143.736 69.5987ZM145.936 69.1915L145.898 69.588L145.909 69.586L145.936 69.1915ZM153.644 68.3807L154.047 68.3437L154.11 67.9444L153.708 67.9813L153.644 68.3807ZM152.963 72.6805L152.9 73.0799L153.303 73.0429L153.366 72.6435L152.963 72.6805ZM135.623 74.2739L136.025 74.2369L136.492 71.2894L136.089 71.3264L135.687 71.3634L135.22 74.3109L135.623 74.2739ZM136.089 71.3264L136.31 71.6C139.002 69.2961 141.323 67.1715 143.273 65.2265L143.02 64.983L142.767 64.7395C140.843 66.6587 138.544 68.763 135.869 71.0529L136.089 71.3264ZM143.02 64.983L143.271 65.2287C145.247 63.2788 146.816 61.4815 147.968 59.8381L147.651 59.6709L147.334 59.5037C146.232 61.0746 144.713 62.8188 142.769 64.7373L143.02 64.983ZM147.651 59.6709L147.97 59.8358C149.13 58.1636 149.84 56.6189 150.063 55.212L149.661 55.249L149.258 55.286C149.063 56.5146 148.434 57.9177 147.332 59.5061L147.651 59.6709ZM149.661 55.249L150.063 55.212C150.203 54.3318 150.167 53.557 149.942 52.8996L149.552 53.1062L149.162 53.3128C149.345 53.8481 149.382 54.5019 149.258 55.286L149.661 55.249ZM149.552 53.1062L149.942 52.8996C149.715 52.2361 149.301 51.7452 148.701 51.4401L148.449 51.8066L148.197 52.1731C148.659 52.4081 148.981 52.7836 149.162 53.3128L149.552 53.1062ZM148.449 51.8066L148.716 51.4483C148.14 51.1111 147.391 50.9977 146.497 51.0798L146.433 51.4792L146.37 51.8785C147.154 51.8065 147.749 51.9113 148.182 52.1648L148.449 51.8066ZM146.433 51.4792L146.497 51.0798C145.482 51.1731 144.495 51.5505 143.547 52.2044L143.72 52.5144L143.893 52.8245C144.698 52.2694 145.521 51.9566 146.37 51.8785L146.433 51.4792ZM143.72 52.5144L143.549 52.2027C142.667 52.8039 141.831 53.5062 141.04 54.308L141.296 54.5482L141.553 54.7885C142.294 54.037 143.073 53.3835 143.891 52.8262L143.72 52.5144ZM141.296 54.5482L141.621 54.235L139.188 51.759L138.863 52.0722L138.538 52.3855L140.971 54.8615L141.296 54.5482ZM138.863 52.0722L139.115 52.3169C140.505 50.9385 141.853 49.889 143.16 49.1564L143.031 48.8189L142.901 48.4814C141.486 49.2747 140.056 50.3941 138.611 51.8276L138.863 52.0722ZM143.031 48.8189L143.162 49.1549C144.476 48.409 145.976 47.9509 147.672 47.7951L147.735 47.3957L147.798 46.9964C145.998 47.1618 144.361 47.6525 142.899 48.4829L143.031 48.8189ZM147.735 47.3957L147.672 47.7951C149.247 47.6503 150.547 47.8493 151.589 48.3762L151.841 48.0094L152.092 47.6426C150.923 47.0514 149.486 46.8413 147.798 46.9964L147.735 47.3957ZM151.841 48.0094L151.597 48.3798C152.669 48.8849 153.431 49.6621 153.892 50.7149L154.274 50.4854L154.655 50.2558C154.138 49.0749 153.278 48.2014 152.085 47.639L151.841 48.0094ZM154.274 50.4854L153.892 50.7149C154.353 51.7655 154.469 53.0522 154.226 54.5903L154.628 54.5533L155.031 54.5164C155.293 52.8643 155.173 51.439 154.655 50.2558L154.274 50.4854ZM154.628 54.5533L154.226 54.5903C153.992 56.0697 153.372 57.6286 152.353 59.272L152.687 59.4132L153.022 59.5544C154.1 57.8157 154.775 56.1347 155.031 54.5164L154.628 54.5533ZM152.687 59.4132L152.351 59.2743C151.35 60.9061 150.083 62.5685 148.545 64.2615L148.818 64.4844L149.091 64.7073C150.669 62.9702 151.981 61.2518 153.023 59.5521L152.687 59.4132ZM148.818 64.4844L148.545 64.2615C146.999 65.9633 145.317 67.6562 143.498 69.3402L143.736 69.5987L143.973 69.8572C145.815 68.1522 147.521 66.4356 149.091 64.7073L148.818 64.4844ZM143.736 69.5987L143.728 69.9892C144.407 69.8373 145.13 69.7034 145.898 69.5878L145.936 69.1915L145.975 68.7951C145.19 68.9134 144.446 69.051 143.743 69.2081L143.736 69.5987ZM145.936 69.1915L145.909 69.586C146.704 69.4453 147.396 69.3484 147.987 69.294L148.051 68.8947L148.114 68.4953C147.493 68.5524 146.776 68.6532 145.964 68.7969L145.936 69.1915ZM148.051 68.8947L147.987 69.294L153.581 68.78L153.644 68.3807L153.708 67.9813L148.114 68.4953L148.051 68.8947ZM153.644 68.3807L153.242 68.4177L152.561 72.7175L152.963 72.6805L153.366 72.6435L154.047 68.3437L153.644 68.3807ZM152.963 72.6805L153.027 72.2812L135.686 73.8746L135.623 74.2739L135.559 74.6733L152.9 73.0799L152.963 72.6805ZM159.549 63.9655L159.828 63.6148V63.6148L159.549 63.9655ZM158.227 62.0468L157.832 62.2373L157.833 62.2397L158.227 62.0468ZM159.256 55.5551L159.598 55.6828L159.6 55.6801L159.256 55.5551ZM161.229 53.3589L161.397 53.6721L161.403 53.6678L161.229 53.3589ZM166.867 53.6719L166.516 53.9537L166.518 53.9565L166.867 53.6719ZM166.37 61.2986L166.714 61.4237L166.716 61.4211L166.37 61.2986ZM164.393 63.5204L164.218 63.2114L164.214 63.2144L164.393 63.5204ZM163.757 61.2869L163.451 61.1031L163.449 61.1057L163.757 61.2869ZM164.704 55.3063L164.329 55.5503L164.335 55.5607L164.704 55.3063ZM161.869 55.5668L161.568 55.3784L161.566 55.3809L161.869 55.5668ZM160.922 61.5474L160.545 61.7873L160.551 61.7976L160.922 61.5474ZM172.279 70.3264L172.558 69.9757V69.9757L172.279 70.3264ZM170.932 68.4101L170.537 68.603L170.539 68.6085L170.932 68.4101ZM171.96 61.9183L171.619 61.7873L171.617 61.7906L171.96 61.9183ZM173.959 59.7198L174.127 60.033L174.134 60.0287L173.959 59.7198ZM178.803 59.2747L178.524 59.6254L178.529 59.6285L178.803 59.2747ZM180.129 61.1678L179.734 61.3607L179.735 61.3631L180.129 61.1678ZM179.1 67.6595L179.445 67.7846V67.7846L179.1 67.6595ZM177.123 69.8813L177.298 70.1902V70.1902L177.123 69.8813ZM176.487 67.6478L176.176 67.4711V67.4711L176.487 67.6478ZM174.574 61.93L174.276 61.7369L174.27 61.7442L174.574 61.93ZM173.626 67.9106L173.25 68.1505L173.253 68.1568L173.626 67.9106ZM161.291 72.0412L160.964 71.8884L160.562 72.5017L161.228 72.4406L161.291 72.0412ZM174.819 51.4049L174.882 51.0056L174.639 51.028L174.492 51.2522L174.819 51.4049ZM177.086 51.1966L177.413 51.3497L177.816 50.736L177.15 50.7972L177.086 51.1966ZM163.533 71.8352L163.47 72.2346L163.713 72.2122L163.86 71.9884L163.533 71.8352ZM161.858 64.4585L161.921 64.0592C161.086 64.1359 160.393 63.9853 159.828 63.6148L159.549 63.9655L159.269 64.3161C159.962 64.7704 160.809 64.9485 161.794 64.8579L161.858 64.4585ZM159.549 63.9655L159.828 63.6148C159.264 63.2449 158.858 62.6654 158.622 61.8539L158.227 62.0468L157.833 62.2397C158.101 63.1618 158.576 63.8614 159.269 64.3161L159.549 63.9655ZM158.227 62.0468L158.623 61.8563C158.39 61.0307 158.362 60.0135 158.556 58.7929L158.153 58.8298L157.75 58.8668C157.544 60.168 157.566 61.2954 157.832 62.2373L158.227 62.0468ZM158.153 58.8298L158.556 58.7929C158.749 57.5716 159.101 56.5387 159.598 55.6828L159.256 55.5551L158.913 55.4274C158.339 56.416 157.956 57.5664 157.75 58.8668L158.153 58.8298ZM159.256 55.5551L159.6 55.6801C160.103 54.8015 160.704 54.14 161.397 53.6721L161.229 53.3589L161.06 53.0457C160.199 53.6273 159.484 54.43 158.911 55.43L159.256 55.5551ZM161.229 53.3589L161.403 53.6678C162.104 53.181 162.866 52.8968 163.701 52.82L163.764 52.4207L163.827 52.0214C162.842 52.1119 161.913 52.4532 161.054 53.05L161.229 53.3589ZM163.764 52.4207L163.701 52.82C164.957 52.7047 165.884 53.0802 166.516 53.9537L166.867 53.6719L167.219 53.3902C166.461 52.3428 165.32 51.8842 163.827 52.0214L163.764 52.4207ZM166.867 53.6719L166.518 53.9565C167.163 54.8265 167.372 56.1573 167.078 58.0097L167.481 57.9727L167.884 57.9357C168.195 55.9715 167.994 54.4351 167.217 53.3874L166.867 53.6719ZM167.481 57.9727L167.078 58.0097C166.885 59.2303 166.53 60.2827 166.025 61.1762L166.37 61.2986L166.716 61.4211C167.292 60.4017 167.678 59.2368 167.884 57.9357L167.481 57.9727ZM166.37 61.2986L166.026 61.1736C165.522 62.053 164.918 62.7253 164.218 63.2114L164.393 63.5204L164.568 63.8293C165.428 63.2318 166.142 62.4229 166.714 61.4236L166.37 61.2986ZM164.393 63.5204L164.214 63.2144C163.534 63.6958 162.775 63.9807 161.921 64.0592L161.858 64.4585L161.794 64.8579C162.795 64.7659 163.726 64.4253 164.572 63.8263L164.393 63.5204ZM162.198 62.3117L162.134 62.711C162.876 62.6429 163.526 62.1866 164.064 61.4681L163.757 61.2869L163.449 61.1057C163.042 61.6494 162.653 61.8762 162.261 61.9123L162.198 62.3117ZM163.757 61.2869L164.062 61.4707C164.635 60.7148 165.005 59.5942 165.229 58.1796L164.827 58.2166L164.424 58.2536C164.206 59.6334 163.863 60.5596 163.451 61.1031L163.757 61.2869ZM164.827 58.2166L165.229 58.1796C165.453 56.7686 165.431 55.6935 165.073 55.0519L164.704 55.3063L164.335 55.5607C164.583 56.0052 164.643 56.8703 164.424 58.2536L164.827 58.2166ZM164.704 55.3063L165.078 55.0625C164.756 54.4231 164.233 54.0746 163.491 54.1427L163.428 54.542L163.365 54.9414C163.758 54.9053 164.085 55.0663 164.329 55.5502L164.704 55.3063ZM163.428 54.542L163.491 54.1427C162.765 54.2094 162.117 54.6677 161.568 55.3784L161.869 55.5668L162.171 55.7552C162.6 55.2005 162.992 54.9757 163.365 54.9414L163.428 54.542ZM161.869 55.5668L161.566 55.3809C161.012 56.1043 160.653 57.2111 160.43 58.6206L160.833 58.5836L161.235 58.5466C161.455 57.1618 161.787 56.2573 162.173 55.7527L161.869 55.5668ZM160.833 58.5836L160.43 58.6206C160.206 60.0336 160.22 61.1158 160.545 61.7872L160.922 61.5474L161.299 61.3076C161.063 60.8216 161.017 59.9279 161.235 58.5466L160.833 58.5836ZM160.922 61.5474L160.551 61.7976C160.889 62.4267 161.408 62.7777 162.134 62.711L162.198 62.3117L162.261 61.9123C161.888 61.9466 161.557 61.7881 161.293 61.2971L160.922 61.5474ZM174.588 70.8194L174.651 70.4201C173.816 70.4968 173.123 70.3462 172.558 69.9757L172.279 70.3264L172 70.677C172.692 71.1313 173.539 71.3094 174.524 71.2188L174.588 70.8194ZM172.279 70.3264L172.558 69.9757C171.993 69.6048 171.578 69.0241 171.325 68.2117L170.932 68.4101L170.539 68.6085C170.825 69.5265 171.308 70.2233 172 70.677L172.279 70.3264ZM170.932 68.4101L171.326 68.2172C171.092 67.4101 171.063 66.4026 171.256 65.1817L170.853 65.2187L170.451 65.2557C170.245 66.5565 170.268 67.6766 170.537 68.603L170.932 68.4101ZM170.853 65.2187L171.256 65.1817C171.452 63.9425 171.806 62.9014 172.303 62.046L171.96 61.9183L171.617 61.7906C171.043 62.7799 170.659 63.939 170.451 65.2557L170.853 65.2187ZM171.96 61.9183L172.301 62.0494C172.822 61.1666 173.432 60.5022 174.127 60.033L173.959 59.7198L173.79 59.4066C172.931 59.9869 172.209 60.7882 171.619 61.7873L171.96 61.9183ZM173.959 59.7198L174.134 60.0287C174.834 59.5419 175.596 59.2577 176.431 59.1809L176.494 58.7816L176.558 58.3823C175.572 58.4728 174.643 58.8141 173.784 59.4109L173.959 59.7198ZM176.494 58.7816L176.431 59.1809C177.266 59.1042 177.959 59.2548 178.524 59.6253L178.803 59.2747L179.083 58.924C178.39 58.4698 177.543 58.2917 176.558 58.3823L176.494 58.7816ZM178.803 59.2747L178.529 59.6285C179.092 59.9811 179.498 60.55 179.734 61.3607L180.129 61.1678L180.523 60.9749C180.255 60.0521 179.777 59.3589 179.077 58.9208L178.803 59.2747ZM180.129 61.1678L179.735 61.3631C179.971 62.1511 180.001 63.157 179.804 64.3962L180.207 64.3592L180.61 64.3222C180.818 63.0055 180.796 61.8838 180.522 60.9724L180.129 61.1678ZM180.207 64.3592L179.804 64.3962C179.611 65.6171 179.257 66.6598 178.756 67.5345L179.1 67.6595L179.445 67.7846C180.02 66.7806 180.404 65.623 180.61 64.3222L180.207 64.3592ZM179.1 67.6595L178.756 67.5345C178.252 68.4139 177.648 69.0862 176.948 69.5723L177.123 69.8813L177.298 70.1902C178.158 69.5927 178.872 68.7838 179.445 67.7846L179.1 67.6595ZM177.123 69.8813L176.948 69.5723C176.248 70.0591 175.486 70.3434 174.651 70.4201L174.588 70.8194L174.524 71.2188C175.51 71.1282 176.439 70.787 177.298 70.1902L177.123 69.8813ZM174.924 68.6981L174.86 69.0975C175.607 69.0289 176.26 68.5581 176.797 67.8245L176.487 67.6478L176.176 67.4711C175.764 68.0338 175.374 68.2632 174.987 68.2988L174.924 68.6981ZM176.487 67.6478L176.797 67.8245C177.348 67.073 177.709 65.9655 177.93 64.5684L177.527 64.6054L177.125 64.6424C176.909 66.0056 176.575 66.9264 176.176 67.4711L176.487 67.6478ZM177.527 64.6054L177.93 64.5684C178.156 63.143 178.144 62.0613 177.806 61.4192L177.434 61.6672L177.062 61.9152C177.296 62.3624 177.347 63.2394 177.125 64.6424L177.527 64.6054ZM177.434 61.6672L177.806 61.4192C177.479 60.7956 176.953 60.4615 176.218 60.5291L176.154 60.9285L176.091 61.3278C176.489 61.2912 176.817 61.4497 177.062 61.9152L177.434 61.6672ZM176.154 60.9285L176.218 60.5291C175.484 60.5965 174.829 61.0369 174.276 61.7369L174.574 61.93L174.872 62.1232C175.292 61.592 175.691 61.3646 176.091 61.3278L176.154 60.9285ZM174.574 61.93L174.27 61.7442C173.716 62.4681 173.356 63.584 173.131 65.0094L173.533 64.9724L173.936 64.9354C174.158 63.5324 174.492 62.6201 174.877 62.1159L174.574 61.93ZM173.533 64.9724L173.131 65.0094C172.909 66.4065 172.924 67.4795 173.25 68.1504L173.626 67.9106L174.003 67.6708C173.767 67.1844 173.72 66.2986 173.936 64.9354L173.533 64.9724ZM173.626 67.9106L173.253 68.1568C173.588 68.806 174.116 69.1659 174.86 69.0975L174.924 68.6981L174.987 68.2988C174.598 68.3346 174.261 68.1694 174 67.6645L173.626 67.9106ZM161.291 72.0412L161.619 72.194L175.146 51.5577L174.819 51.4049L174.492 51.2522L160.964 71.8884L161.291 72.0412ZM174.819 51.4049L174.755 51.8043L177.023 51.5959L177.086 51.1966L177.15 50.7972L174.882 51.0056L174.819 51.4049ZM177.086 51.1966L176.759 51.0434L163.206 71.6821L163.533 71.8352L163.86 71.9884L177.413 51.3497L177.086 51.1966ZM163.533 71.8352L163.596 71.4359L161.355 71.6419L161.291 72.0412L161.228 72.4406L163.47 72.2346L163.533 71.8352Z" fill="#FFDA03" mask="url(#path-3-outside-1_175_2742)"/>
</g>
<mask id="path-5-inside-2_175_2742" fill="white">
<path d="M148.484 24.5798L194.961 20.3091L192.527 35.6752L146.05 39.9458L148.484 24.5798Z"/>
</mask>
<path d="M148.484 24.5798L148.368 25.3115L194.845 21.0409L194.961 20.3091L195.076 19.5774L148.599 23.8481L148.484 24.5798ZM192.527 35.6752L192.643 34.9435L146.166 39.2141L146.05 39.9458L145.934 40.6776L192.411 36.4069L192.527 35.6752Z" fill="#333333" mask="url(#path-5-inside-2_175_2742)"/>
<path d="M162.547 28.88L162.437 29.6069L167.627 29.0976L167.737 28.3707L162.547 28.88ZM162.734 27.6515L162.625 28.3681L167.815 27.8588L167.924 27.1422L162.734 27.6515ZM162.072 27.1819L168.782 26.5235L168.32 29.5641L161.61 30.2225L162.072 27.1819ZM160.282 30.9176L169.401 30.0228L169.303 30.6678L160.184 31.5625L160.282 30.9176ZM164.688 31.7458L168.358 31.3857L168.264 32.0102L164.593 32.3703L164.688 31.7458ZM161.433 32.1258L163.976 31.8762L163.887 32.4598L161.344 32.7094L161.433 32.1258ZM161.235 33.426L163.778 33.1764L163.691 33.7498L161.148 33.9993L161.235 33.426ZM165.676 32.2136C165.868 32.921 166.24 33.5098 166.793 33.9799C167.354 34.4425 168.056 34.7401 168.898 34.8726C168.842 34.9251 168.778 34.9886 168.706 35.0629C168.632 35.1441 168.563 35.2215 168.497 35.2951C168.438 35.375 168.386 35.4473 168.342 35.5121C167.473 35.3352 166.755 34.9854 166.19 34.4626C165.632 33.9324 165.245 33.2645 165.028 32.4588L165.676 32.2136ZM168.121 31.409L168.265 31.3948L168.404 31.3509L168.85 31.4988C168.517 32.2173 168.101 32.8565 167.602 33.4165C167.102 33.9764 166.553 34.464 165.953 34.8792C165.355 35.2875 164.741 35.6201 164.111 35.8768C164.083 35.7922 164.034 35.6928 163.963 35.5787C163.899 35.464 163.834 35.3762 163.769 35.3154C164.2 35.1588 164.628 34.9554 165.053 34.7053C165.485 34.4545 165.892 34.1692 166.273 33.8494C166.661 33.5289 167.01 33.1753 167.32 32.7885C167.638 32.3943 167.899 31.9754 168.102 31.5319L168.121 31.409ZM159.55 35.1344C159.892 35.0671 160.281 34.9921 160.714 34.9092C161.155 34.8256 161.62 34.7329 162.111 34.6309C162.602 34.529 163.093 34.427 163.583 34.3251L163.497 34.9588C162.781 35.1165 162.075 35.2698 161.38 35.4187C160.685 35.5675 160.065 35.6991 159.518 35.8132L159.55 35.1344ZM163.746 30.7794L164.49 30.7064L163.688 35.9788L162.944 36.0519L163.746 30.7794ZM161.148 31.0545L161.861 30.9845L161.229 35.1411L160.516 35.2111L161.148 31.0545ZM171.848 28.7943L180.946 27.9015L180.826 28.6898L171.729 29.5826L171.848 28.7943ZM176.835 28.6176C176.944 29.4204 177.133 30.1616 177.403 30.841C177.681 31.513 178.056 32.0881 178.526 32.5663C179.003 33.0439 179.574 33.398 180.238 33.6287C180.168 33.6894 180.089 33.7644 180.001 33.8537C179.918 33.9492 179.836 34.0447 179.753 34.1402C179.671 34.2357 179.603 34.323 179.551 34.4021C178.86 34.1203 178.273 33.7173 177.789 33.1933C177.312 32.6686 176.932 32.0403 176.65 31.3083C176.367 30.5763 176.165 29.7658 176.042 28.8769L176.835 28.6176ZM176.419 25.4615L177.256 25.3793C177.189 25.823 177.1 26.3191 176.989 26.8679C176.886 27.4091 176.749 27.9772 176.577 28.5723C176.406 29.1606 176.179 29.761 175.896 30.3738C175.62 30.979 175.272 31.5746 174.85 32.1606C174.436 32.7391 173.935 33.2891 173.347 33.8108C172.758 34.3325 172.062 34.8008 171.259 35.2158C171.213 35.1195 171.14 35.0156 171.042 34.9043C170.949 34.7991 170.857 34.7106 170.766 34.6388C171.545 34.2532 172.215 33.8176 172.778 33.3321C173.347 32.8459 173.83 32.3279 174.226 31.7781C174.622 31.2283 174.948 30.6685 175.204 30.0987C175.461 29.529 175.665 28.9677 175.817 28.4149C175.97 27.8553 176.091 27.3257 176.181 26.8262C176.277 26.3259 176.356 25.871 176.419 25.4615Z" fill="#333333"/>
<defs>
<filter id="filter0_d_175_2742" x="48.3478" y="30.8372" width="137.587" height="57.5268" filterUnits="userSpaceOnUse" color-interpolation-filters="sRGB">
<feFlood flood-opacity="0" result="BackgroundImageFix"/>
<feColorMatrix in="SourceAlpha" type="matrix" values="0 0 0 0 0 0 0 0 0 0 0 0 0 0 0 0 0 0 127 0" result="hardAlpha"/>
<feOffset dx="2.22251" dy="2.96335"/>
<feGaussianBlur stdDeviation="1.48168"/>
<feComposite in2="hardAlpha" operator="out"/>
<feColorMatrix type="matrix" values="0 0 0 0 0 0 0 0 0 0 0 0 0 0 0 0 0 0 0.62 0"/>
<feBlend mode="normal" in2="BackgroundImageFix" result="effect1_dropShadow_175_2742"/>
<feBlend mode="normal" in="SourceGraphic" in2="effect1_dropShadow_175_2742" result="shape"/>
</filter>
<linearGradient id="paint0_linear_175_2742" x1="7.93412" y1="0.363276" x2="227.237" y2="-53.4929" gradientUnits="userSpaceOnUse">
<stop stop-color="#F5F1D9"/>
<stop offset="0.826923" stop-color="#F5F1D9" stop-opacity="0.418269"/>
<stop offset="1" stop-color="#F5F1D9" stop-opacity="0"/>
</linearGradient>
</defs>
</svg>
