<svg width="41" height="48" viewBox="0 0 41 48" fill="none" xmlns="http://www.w3.org/2000/svg">
<path d="M38.7088 14.4822L32.5062 23.3871H30.012L37.0304 13.311C39.2269 10.1567 38.4505 5.80208 35.2981 3.60285C32.1457 1.40509 27.7922 2.18197 25.5957 5.33624L13.0211 23.3871L3.24571 37.4207C1.67388 39.6769 2.22847 42.7932 4.48478 44.3659C6.73962 45.9387 9.85409 45.3823 11.4259 43.1261L25.1768 23.3871L32.1749 13.3402C33.2315 11.8229 32.8579 9.72885 31.3415 8.67012C29.8252 7.61286 27.7309 7.9867 26.6742 9.50396L17.0025 23.3871H14.5097L24.9959 8.33425C26.6976 5.8897 30.0689 5.28805 32.5105 6.99077C34.9522 8.69349 35.5549 12.0683 33.8532 14.5114L27.6696 23.3871L13.1043 44.2958C10.8874 47.4793 6.49589 48.2635 3.3143 46.0453C0.134163 43.8271 -0.649556 39.433 1.56734 36.2495L10.5284 23.3871L23.9173 4.16653C26.7589 0.0849666 32.3894 -0.919724 36.4671 1.9235C40.5463 4.76818 41.5504 10.4021 38.7088 14.4822Z" fill="#F5F1D9" stroke="#F5F1D9" stroke-width="0.613208"/>
</svg>
