<svg width="58" height="32" viewBox="0 0 58 32" fill="none" xmlns="http://www.w3.org/2000/svg">
<path d="M46.1404 26.1714L38.4997 31.7815L38.6959 22.3044L31 16.7706L40.0732 14.0294L42.9573 5L48.3692 12.7817L57.8481 12.7359L52.12 20.2871L55.0917 29.286L46.1404 26.1714Z" fill="#FABE00"/>
<path d="M23.412 12.8945L17.6858 14.2699L20.0765 8.88842L17 3.86702L22.8577 4.4785L26.6809 0L27.9096 5.76052L33.35 8.01406L28.2524 10.961L27.7915 16.832L23.412 12.8945Z" fill="#FABE00"/>
<path d="M6.81205 13.9322L3.74891 16.6087L3.48984 12.5512L0 10.4653L3.77748 8.96226L4.68233 5L7.27875 8.1279L11.3286 7.76406L9.15321 11.2006L10.7514 14.9399L6.81205 13.9322Z" fill="#FABE00"/>
</svg>
