<svg width="110" height="96" viewBox="0 0 110 96" fill="none" xmlns="http://www.w3.org/2000/svg">
<g clip-path="url(#clip0_106_3102)">
<path d="M92.0034 66.1934L105.428 66.3404L94.3404 59.5672C94.1119 59.4282 94.0005 59.1564 94.0633 58.8968C95.3629 53.5698 95.7063 47.9175 94.8979 42.1566C93.1861 29.978 86.7027 19.651 77.6001 12.7907C68.4963 5.93189 56.7822 2.54641 44.6036 4.25815C32.425 5.9699 22.098 12.4533 15.2378 21.556C8.37896 30.6597 4.99348 42.3738 6.70522 54.5524C8.41697 66.731 14.9004 77.058 24.003 83.9182C33.1067 90.777 44.8208 94.1625 56.9994 92.4508C64.8687 91.3447 71.9589 88.2463 77.8447 83.7352C83.7294 79.2256 88.4057 73.3025 91.4362 66.554C91.5367 66.3308 91.7584 66.1887 92.003 66.1909L92.0034 66.1934ZM50.9184 85.7119C49.9283 80.5173 49.6931 80.3401 44.4269 80.8203C49.6215 79.8302 49.7987 79.595 49.3185 74.3288C50.3086 79.5233 50.5438 79.7006 55.81 79.2203C50.6154 80.2104 50.4382 80.4456 50.9184 85.7119ZM70.3935 78.6794C69.4034 73.4848 69.1682 73.3076 63.902 73.7878C69.0965 72.7977 69.2738 72.5625 68.7935 67.2963C69.7836 72.4908 70.0188 72.6681 75.2851 72.1879C70.0905 73.1779 69.9133 73.4132 70.3935 78.6794ZM83.8942 27.9607L83.1437 49.4716L86.2651 59.0771C86.3138 59.2283 86.3006 59.3948 86.2292 59.5368C86.1575 59.6775 86.0292 59.787 85.8792 59.8355L30.3868 77.8662C30.2356 77.9149 30.0691 77.9017 29.9271 77.8303C29.7864 77.7586 29.677 77.6303 29.6284 77.4803L25.816 65.7472L22.2933 66.2424C22.1357 66.2645 21.9743 66.2219 21.8473 66.1274C21.7202 66.0316 21.636 65.888 21.6139 65.7304L18.1333 40.9672C18.1112 40.8096 18.1538 40.6481 18.2483 40.5212C18.3441 40.3941 18.4877 40.3099 18.6452 40.2878L23.9038 39.5486L24.3801 25.8829C24.3922 25.5507 24.6705 25.2908 25.0027 25.3029L55.506 26.3676C53.7102 16.965 53.2393 16.6445 43.6253 17.5216C53.1505 15.706 53.4764 15.2735 52.5959 5.61681C54.4116 15.142 54.844 15.4679 64.5007 14.5875C55.0161 16.3947 54.6531 16.8324 55.5192 26.3683L83.3169 27.339C83.4757 27.3442 83.628 27.4142 83.7356 27.5297C83.8433 27.6452 83.9021 27.8028 83.8969 27.9616L83.8942 27.9607Z" fill="white"/>
<path d="M82.8309 53.3716C82.7154 53.4793 82.5577 53.538 82.3989 53.5329L82.0236 53.5203L83.306 57.4681C83.3547 57.6193 83.3416 57.7857 83.2701 57.9277C83.1984 58.0684 83.0701 58.1779 82.9202 58.2264L31.94 74.7908C31.7888 74.8395 31.6224 74.8263 31.4804 74.7548C31.3397 74.6832 31.2302 74.5549 31.1817 74.4049L28.2575 65.4039L27.0252 65.5771L30.5863 76.5356L84.9344 58.876L83.0189 52.9807C83.0058 53.1289 82.9405 53.2687 82.832 53.3701L82.8309 53.3716Z" fill="white"/>
<path d="M40.2152 63.9989C40.3652 63.9504 40.4577 63.8747 40.4783 63.6863L39.7263 63.792C39.8913 64.0366 40.0342 64.0583 40.2165 63.9987L40.2152 63.9989Z" fill="#FABE00"/>
<path d="M76.2929 58.6521L66.3862 61.8708L65.1519 62.2716C65.1596 61.9831 65.1883 61.6851 65.2342 61.3795C65.2938 60.9858 65.3855 60.5784 65.5002 60.1678L63.7542 60.4132C62.7854 61.6532 61.4479 62.6302 59.8401 63.1527C59.3765 63.3028 58.9096 63.4102 58.442 63.4759C56.5128 63.7471 54.5966 63.311 53.0086 62.3298C52.8384 62.2244 52.6723 62.1118 52.5094 61.9937L48.3615 62.5767C48.3329 62.5872 48.3033 62.5992 48.272 62.6088C48.057 62.6782 47.8499 62.7008 47.6505 62.6766L45.3217 63.0039C45.1639 63.4337 44.864 63.7162 44.4193 63.861C43.8259 64.0541 43.2943 63.8872 42.8109 63.3568L41.5977 63.5273C41.5673 64.3794 41.2273 64.8975 40.5666 65.1131C39.7771 65.3704 39.0967 64.9905 38.4939 63.9636L37.7086 64.074C37.8658 65.3504 37.5408 66.0962 36.7139 66.3653C35.7719 66.6714 34.9879 66.0749 34.3024 64.5527L33.2699 64.6978L33.7513 66.1808L34.2936 66.0053L34.5952 66.9335L32.3029 67.6789L32.0013 66.7507L32.5721 66.5647L32.0222 64.8732L29.4666 65.2324L32.1394 73.4589L78.7932 58.2994L76.2914 58.651L76.2929 58.6521Z" fill="#FABE00"/>
<path d="M36.3627 65.2511C36.63 65.1638 36.7178 64.9895 36.5265 64.2417L35.5593 64.3777C35.8869 65.2395 36.0765 65.3435 36.3627 65.2511Z" fill="#FABE00"/>
<path d="M80.023 53.4505L80.2632 55.1594C80.345 55.221 80.4281 55.2825 80.5061 55.3447C80.9121 55.6678 81.2796 56.0054 81.5967 56.3566L81.765 56.8751L80.743 57.2069L80.5594 57.2666L80.5841 57.4421C80.5978 57.5395 80.5844 57.6393 80.5501 57.7304L81.9756 57.2674L80.7436 53.4746L80.0228 53.4492L80.023 53.4505Z" fill="#FABE00"/>
<path d="M58.2762 62.2859C58.6745 62.2299 59.0732 62.1386 59.4692 62.0097C60.3674 61.7176 61.1653 61.2606 61.8406 60.6836L54.4274 61.7256C55.608 62.2624 56.9388 62.4738 58.2762 62.2859Z" fill="white"/>
<path d="M76.293 58.6523L66.816 59.9843C66.6994 60.3351 66.6006 60.6821 66.5274 61.0164C66.4607 61.3131 66.4148 61.6004 66.3862 61.8709L76.293 58.6523Z" fill="white"/>
<path d="M80.5166 56.9629L80.5593 57.2665L80.7429 57.2067C80.6716 57.1266 80.596 57.0445 80.5166 56.9629Z" fill="white"/>
<path d="M79.3089 57.0134L78.802 53.4074L77.6743 53.3673L77.9519 55.3426C77.974 55.5002 77.9314 55.6617 77.8369 55.7886C77.7411 55.9157 77.5975 55.9999 77.4399 56.022L24.3573 63.483C24.1998 63.5051 24.0383 63.4625 23.9114 63.368C23.7843 63.2722 23.7001 63.1286 23.6779 62.9711L20.8645 42.9539C20.8182 42.6247 21.0472 42.3208 21.3764 42.2745L23.818 41.9314L23.8585 40.7696L19.407 41.3953L22.7199 64.9659L79.3087 57.0121L79.3089 57.0134Z" fill="white"/>
<path d="M23.7754 43.1524L22.1395 43.3823L24.7854 62.2068L76.6754 54.9135L76.4519 53.3237L76.0122 53.3085C76.1752 53.5207 76.3268 53.7345 76.4615 53.9494L76.5375 54.49L59.24 56.9212C59.2616 56.815 59.2858 56.7084 59.3138 56.6013C59.4737 55.9818 59.728 55.3373 60.0529 54.6934C60.38 54.0465 60.7766 53.4016 61.2227 52.7928L59.8653 52.7459C59.6817 53.0748 59.4766 53.391 59.2511 53.6918C57.9927 55.3618 56.0925 56.555 53.8571 56.8692C51.623 57.1832 49.4664 56.5615 47.7963 55.3018C46.7445 54.5104 45.8826 53.4624 45.3097 52.2392L43.9392 52.1914C43.8813 53.5085 43.4315 54.2027 42.5591 54.3253C41.5689 54.4645 40.8953 53.7244 40.4853 52.0708L39.9235 52.0518C40.006 53.8285 39.5629 54.7464 38.547 54.8892C37.4248 55.0469 36.7097 54.0763 36.3238 51.9254L35.8564 51.9088C36.0971 54.1506 35.6775 55.2925 34.5349 55.4531C33.3166 55.6244 32.5792 54.4674 32.2204 51.9144C32.2141 51.8695 32.208 51.826 32.2017 51.7811L31.7515 51.766C31.7601 51.8275 31.7702 51.8901 31.7791 51.9529C32.1426 54.5392 31.75 55.8446 30.5227 56.0171C29.2955 56.1895 28.5671 55.0313 28.2083 52.4783C28.1665 52.1811 28.1351 51.902 28.1138 51.6385L27.1148 51.6039L27.6373 55.3214L28.2009 55.2422L28.3369 56.2093L25.9503 56.5448L25.8144 55.5776L26.4088 55.4941L25.8559 51.5601L24.0875 51.4977C23.9287 51.4926 23.7765 51.4226 23.6688 51.3071C23.5611 51.1916 23.5024 51.0339 23.5075 50.8751L23.7768 43.1535L23.7754 43.1524Z" fill="#FABE00"/>
<path d="M29.6081 53.106C29.8308 54.6906 30.0024 54.9082 30.3688 54.8567C30.7352 54.8052 30.8212 54.5527 30.5983 52.9668L30.4229 51.7191L29.4082 51.6841L29.6082 53.1073L29.6081 53.106Z" fill="#FABE00"/>
<path d="M38.3929 53.7288C38.7465 53.6791 38.8387 53.4428 38.6458 52.0055L37.6311 51.9705L37.6322 51.9781C37.8549 53.5628 38.0266 53.7803 38.3929 53.7288Z" fill="#FABE00"/>
<path d="M42.7377 52.1484L41.7557 52.114C41.9312 53.0652 42.1014 53.2072 42.405 53.1645C42.6894 53.1245 42.805 52.9619 42.7377 52.1484Z" fill="#FABE00"/>
<path d="M34.381 54.2926C34.7474 54.2411 34.8334 53.9887 34.6105 52.4028L34.5345 51.8622L33.5198 51.8271L33.6204 52.5432C33.8431 54.1278 34.0148 54.3454 34.3812 54.2939L34.381 54.2926Z" fill="#FABE00"/>
<path d="M46.6919 52.2866C47.1615 53.0906 47.7845 53.7868 48.5182 54.3408C49.9454 55.4152 51.777 55.9455 53.687 55.677C55.5957 55.4087 57.2101 54.3941 58.2872 52.9677C58.3532 52.8801 58.4176 52.79 58.4806 52.6989L46.6934 52.2877L46.6919 52.2866Z" fill="white"/>
<path d="M75.4716 54.6398C75.2124 54.2177 74.8635 53.7704 74.4506 53.3333C74.4245 53.3056 74.3973 53.2794 74.3712 53.2517L62.7126 52.8447C62.0212 53.6603 61.4102 54.611 60.9834 55.524C60.7865 55.9449 60.6303 56.3574 60.5196 56.7414L75.4703 54.64L75.4716 54.6398Z" fill="white"/>
<path d="M82.6702 28.5203L25.5599 26.5265L24.7297 50.315L81.8401 52.3088L82.6702 28.5203ZM80.7932 50.4272C80.7881 50.586 80.718 50.7382 80.6025 50.8459C80.487 50.9536 80.3294 51.0123 80.1706 51.0072L26.5995 49.1378C26.4407 49.1327 26.2885 49.0627 26.1808 48.9472C26.0732 48.8317 26.0144 48.674 26.0195 48.5152L26.7243 28.3145C26.7364 27.9823 27.0147 27.7224 27.3469 27.7345L30.5383 27.8464C30.8705 27.8585 31.1304 28.1368 31.1183 28.469L32.7619 28.5266L32.7832 27.9254L34.1864 27.9737L34.1651 28.575L35.793 28.6323L35.8143 28.031L37.2176 28.0794L37.1963 28.6806L38.8242 28.7379L38.8455 28.1366L40.2487 28.185L40.2274 28.7863L41.8553 28.8436L41.8766 28.2423L43.2799 28.2906L43.2586 28.8919L44.6777 28.9419C44.6898 28.6097 44.9681 28.3499 45.3003 28.362L80.9209 29.6061C81.0796 29.6112 81.2319 29.6813 81.3396 29.7968C81.4472 29.9123 81.506 30.0699 81.5009 30.2287L80.7961 50.4294L80.7932 50.4272Z" fill="white"/>
<path d="M30.4959 29.0491L27.9058 28.9586L27.2423 47.9569L79.6097 49.7851L80.2731 30.7868L45.2539 29.564C44.9217 29.5519 44.6618 29.2736 44.6739 28.9414L43.2547 28.8913L43.2334 29.4926L41.8302 29.4443L41.8515 28.843L40.2236 28.7857L40.2023 29.387L38.799 29.3386L38.8203 28.7373L37.1924 28.6801L37.1711 29.2814L35.7679 29.233L35.7892 28.6317L34.1613 28.5744L34.14 29.1757L32.7368 29.1274L32.7581 28.5261L31.1144 28.4684C31.1023 28.8006 30.824 29.0605 30.4918 29.0484L30.4959 29.0491ZM31.7825 42.6643L29.3735 42.5797L29.4075 41.6043L30.0075 41.6258L30.1687 37.0193L29.5687 36.9978L29.5968 36.2035L30.7117 35.2317L31.4718 35.2581L31.2482 41.6696L31.8178 41.6888L31.7838 42.6642L31.7825 42.6643ZM79.5489 49.343L78.4751 49.3058L63.3861 48.7787L62.0917 48.7333C62.1311 48.6324 62.1732 48.5325 62.219 48.4307C62.4834 47.8488 62.8471 47.2581 63.278 46.6803C64.1412 45.5257 65.2757 44.4243 66.4795 43.6294C66.9351 43.3302 67.3996 43.0755 67.8684 42.879C67.568 42.5541 67.2999 42.1895 67.0718 41.7931C66.6466 41.0547 66.3551 40.2073 66.2269 39.2953C66.1668 38.8674 66.1425 38.4254 66.1589 37.975C66.1994 36.8041 66.5032 35.7124 67.0033 34.7812C67.5033 33.8501 68.2008 33.078 69.0403 32.5537C69.5987 32.2048 70.221 31.9671 70.8782 31.8748C71.1331 31.8389 71.3936 31.8245 71.6576 31.8345C72.3048 31.8571 72.9232 32.0184 73.4842 32.2923C74.0465 32.566 74.5525 32.9507 74.9876 33.416C75.8569 34.3494 76.4468 35.6093 76.6465 37.0208C76.7066 37.4487 76.7309 37.8907 76.7147 38.3424C76.6728 39.5592 76.3468 40.688 75.8104 41.6399C75.4717 42.2414 75.0475 42.7739 74.5577 43.2111C74.7498 43.3135 74.9407 43.4264 75.1301 43.5474C75.6603 43.8896 76.1783 44.3041 76.6703 44.7653C77.6532 45.6892 78.5283 46.7941 79.1345 47.8911C79.3012 48.1943 79.4469 48.4965 79.5686 48.7955L79.5496 49.339L79.5489 49.343ZM51.0293 34.0728C52.2852 32.6919 54.007 31.7445 55.9362 31.4733C56.4038 31.4076 56.8823 31.3822 57.3692 31.3986C59.3803 31.4687 61.2018 32.2616 62.5829 33.5188C63.9639 34.7747 64.9113 36.4966 65.1824 38.4258C65.2481 38.8933 65.2736 39.3718 65.2571 39.8587C65.1871 41.8699 64.3941 43.6913 63.1369 45.0724C61.881 46.4534 60.1592 47.4008 58.23 47.672C57.7624 47.7377 57.284 47.7631 56.797 47.7467C54.7859 47.6766 52.9645 46.8837 51.5833 45.6265C50.2024 44.3705 49.255 42.6487 48.9838 40.7195C48.9181 40.2519 48.8926 39.7735 48.9091 39.2865C48.9791 37.2754 49.7721 35.454 51.0293 34.0728ZM46.3895 35.6642C47.6196 35.7069 48.1476 36.9076 48.0578 39.4937C47.9661 42.1036 47.3534 43.321 46.114 43.277C44.884 43.2343 44.3584 41.9666 44.4483 39.391C44.538 36.8036 45.1608 35.6214 46.3895 35.6642ZM42.3411 35.5239C43.5711 35.5666 44.0992 36.7673 44.0093 39.3534C43.9176 41.9633 43.305 43.1806 42.0656 43.1367C40.8356 43.094 40.3099 41.8263 40.3999 39.2507C40.4895 36.6633 41.1124 35.4811 42.3411 35.5239ZM38.2925 35.3823C39.5226 35.425 40.0506 36.6257 39.9608 39.2118C39.8691 41.8217 39.2564 43.039 38.017 42.9951C36.787 42.9524 36.2614 41.6847 36.3513 39.1091C36.441 36.5217 37.0638 35.3395 38.2925 35.3823ZM34.2427 35.2409C35.4727 35.2836 36.0007 36.4843 35.9109 39.0704C35.8192 41.6802 35.2065 42.8976 33.9672 42.8537C32.7371 42.811 32.2115 41.5433 32.3014 38.9677C32.3911 36.3803 33.0126 35.1983 34.2427 35.2409Z" fill="#FABE00"/>
<path d="M46.3373 36.9009C45.9671 36.8877 45.8309 37.0988 45.7826 38.4838L45.7204 40.2534C45.6644 41.8537 45.7965 42.0964 46.1655 42.1099C46.5357 42.1231 46.6634 41.8883 46.7195 40.2894L46.7814 38.508C46.8297 37.123 46.7169 36.9155 46.3375 36.9022L46.3373 36.9009Z" fill="#FABE00"/>
<path d="M33.5723 39.8305C33.5163 41.4308 33.6484 41.6735 34.0174 41.687C34.3876 41.7002 34.5153 41.4654 34.5714 39.8665L34.6332 38.0851C34.6816 36.7001 34.5688 36.4926 34.1894 36.4793C33.8191 36.466 33.6829 36.6772 33.6346 38.0622L33.5724 39.8318L33.5723 39.8305Z" fill="#FABE00"/>
<path d="M37.684 38.2008L37.6218 39.9704C37.5659 41.5707 37.698 41.8134 38.0669 41.8268C38.4372 41.8401 38.5649 41.6053 38.621 40.0063L38.6828 38.225C38.7311 36.84 38.6183 36.6325 38.2389 36.6192C37.8687 36.6059 37.7325 36.8171 37.6842 38.2021L37.684 38.2008Z" fill="#FABE00"/>
<path d="M41.7326 38.3421L41.6704 40.1118C41.6145 41.7121 41.7465 41.9548 42.1155 41.9682C42.4858 41.9815 42.6134 41.7467 42.6696 40.1477L42.7314 38.3663C42.7797 36.9814 42.6669 36.7738 42.2875 36.7605C41.9173 36.7473 41.7811 36.9585 41.7327 38.3434L41.7326 38.3421Z" fill="#FABE00"/>
<path d="M50.1129 39.3291C50.0983 39.7452 50.1204 40.1536 50.1764 40.552C50.4074 42.1955 51.2145 43.6627 52.3946 44.7353C53.5748 45.8078 55.1222 46.4825 56.8407 46.5427C57.2568 46.5574 57.6665 46.5351 58.0636 46.4793C59.7071 46.2482 61.1743 45.4411 62.2469 44.261C63.3194 43.0809 63.9941 41.5334 64.0543 39.815C64.069 39.3988 64.0467 38.9891 63.9909 38.592C63.7599 36.9485 62.9527 35.4813 61.7726 34.4088C60.5925 33.3362 59.045 32.6615 57.3266 32.6013C56.9104 32.5866 56.502 32.6088 56.1036 32.6648C54.4601 32.8958 52.9929 33.7029 51.9204 34.883C50.8479 36.0632 50.1731 37.6106 50.1129 39.3291Z" fill="white"/>
<path d="M77.462 47.499C76.7665 46.5191 75.8554 45.5668 74.9347 44.881C74.3218 44.4238 73.7036 44.0874 73.1678 43.9276C72.936 43.8583 72.7694 43.6583 72.7421 43.4178C72.7149 43.1774 72.8338 42.9451 73.0444 42.8267C73.7211 42.4455 74.322 41.832 74.7597 41.052C75.1987 40.2718 75.4738 39.3292 75.5097 38.3026C75.5229 37.9219 75.503 37.5485 75.4526 37.1898C75.328 36.3033 75.0188 35.4977 74.5818 34.8419C74.1446 34.1849 73.5837 33.6798 72.9556 33.3749C72.5364 33.1713 72.0876 33.0541 71.6136 33.0371C71.4206 33.0302 71.2299 33.0401 71.0442 33.0662C70.5638 33.1337 70.1035 33.3068 69.6759 33.5733C69.2496 33.8396 68.8562 34.2006 68.5206 34.6384C67.8481 35.5141 67.4057 36.6971 67.3599 38.0164C67.3468 38.397 67.3664 38.7692 67.4168 39.1279C67.5241 39.8913 67.7679 40.5939 68.1134 41.1932C68.4576 41.7928 68.902 42.2868 69.4079 42.6429C69.6052 42.7824 69.7007 43.025 69.6504 43.262C69.5999 43.4977 69.4127 43.6807 69.1761 43.7257C68.7754 43.803 68.3294 43.9662 67.8704 44.2045C67.4114 44.4427 66.9389 44.7521 66.4787 45.112C65.5582 45.8306 64.6906 46.7494 64.0532 47.6606C63.7865 48.0404 63.5602 48.4197 63.3847 48.7787L78.4737 49.3058C78.4287 49.1907 78.3768 49.0726 78.3208 48.9524C78.1023 48.4854 77.8092 47.9897 77.4609 47.5005L77.462 47.499Z" fill="white"/>
<path d="M55.5164 26.3687C54.6503 16.8328 55.0134 16.3951 64.498 14.5878C54.8413 15.4683 54.4088 15.1424 52.5932 5.61717C53.4737 15.2738 53.1478 15.7063 43.6226 17.5219C53.2366 16.6448 53.7075 16.9653 55.5033 26.3679C55.5118 26.4098 55.5188 26.4506 55.5273 26.4926C55.5241 26.4512 55.5196 26.41 55.5164 26.3687Z" fill="#FABE00"/>
<path d="M68.7937 67.2977C69.2739 72.5639 69.0967 72.7991 63.9021 73.7892C69.1683 73.309 69.4036 73.4862 70.3936 78.6808C69.9134 73.4146 70.0907 73.1793 75.2852 72.1893C70.019 72.6695 69.7838 72.4922 68.7937 67.2977Z" fill="#FABE00"/>
<path d="M49.3184 74.3287C49.7986 79.5949 49.6213 79.8301 44.4268 80.8202C49.693 80.34 49.9282 80.5172 50.9183 85.7118C50.4381 80.4456 50.6153 80.2103 55.8099 79.2203C50.5437 79.7005 50.3084 79.5232 49.3184 74.3287Z" fill="#FABE00"/>
<path d="M44.5139 3.62916C56.8634 1.89343 68.7515 5.32717 77.9818 12.2837L77.9819 12.2846C87.2131 19.2397 93.791 29.7199 95.5268 42.0691C96.326 47.755 96.0142 53.3406 94.7816 58.6161L94.6836 59.0342L95.0503 59.2578L107.664 66.9619L107.665 66.9627C107.668 66.9643 107.67 66.9671 107.672 66.9717C107.673 66.9765 107.674 66.9811 107.673 66.9854C107.671 66.9893 107.669 66.9924 107.665 66.9953C107.661 66.9982 107.657 66.9999 107.653 66.9999L106.507 66.9874L106.508 66.9892L92.3965 66.8347L92.0113 66.8307L91.8504 67.1807C88.772 73.875 84.0943 79.7498 78.2314 84.2433C72.263 88.8171 65.0659 91.9614 57.088 93.0828C44.7386 94.8184 32.8512 91.3835 23.621 84.4271L23.62 84.4273C14.3886 77.4722 7.81075 66.9913 6.07499 54.6419C4.33928 42.2924 7.7733 30.4043 14.7285 21.1742C21.6836 11.9428 32.1645 5.36493 44.5139 3.62916ZM44.5199 3.67171C32.1792 5.40624 21.7138 11.9768 14.7627 21.1999C7.81313 30.4241 4.3821 42.2953 6.11657 54.636C7.85111 66.9768 14.4216 77.4421 23.6448 84.3932C32.869 91.3429 44.7401 94.7739 57.0809 93.0394C64.6969 91.9677 71.5946 89.0536 77.3951 84.8115L77.3976 84.8289L78.2051 84.2105C84.1679 79.6396 88.9059 73.639 91.9766 66.801L91.9773 66.799C91.9796 66.794 91.9862 66.7889 91.9955 66.7885L105.42 66.9351L107.576 66.9585L105.737 65.8354L94.649 59.0617L94.6479 59.0609L94.6398 59.0522C94.638 59.0478 94.6379 59.0432 94.6388 59.0385C95.957 53.6405 96.3047 47.9122 95.4842 42.0751C93.8039 30.12 87.5855 19.9245 78.8133 12.9794L77.956 12.3179C68.7318 5.36826 56.8606 1.93721 44.5199 3.67171Z" fill="#333333" stroke="#333333" stroke-width="1.18711"/>
<path d="M83.3142 27.3381L55.5164 26.3674C55.5196 26.4087 55.5239 26.4486 55.5273 26.4913C55.5188 26.4494 55.5117 26.4085 55.5032 26.3666L24.9999 25.302C24.6677 25.2899 24.3894 25.5498 24.3773 25.882L23.901 39.5477L18.6425 40.2868C18.4849 40.309 18.3415 40.3945 18.2455 40.5203C18.1497 40.6474 18.1084 40.8087 18.1305 40.9662L21.6111 65.7295C21.6332 65.8871 21.7187 66.0305 21.8445 66.1265C21.9716 66.2222 22.1329 66.2636 22.2905 66.2414L25.8133 65.7463L29.6257 77.4794C29.6743 77.6306 29.7836 77.7577 29.9244 77.8293C30.0651 77.901 30.2328 77.914 30.384 77.8653L85.8764 59.8345C86.0277 59.7858 86.1547 59.6765 86.2264 59.5358C86.298 59.3951 86.311 59.2274 86.2623 59.0762L83.1409 49.4706L83.8914 27.9598C83.8965 27.801 83.838 27.6446 83.7301 27.5278C83.6224 27.4124 83.4689 27.3425 83.3114 27.3372L83.3142 27.3381ZM30.5866 76.537L27.0255 65.5785L28.2578 65.4053L31.182 74.4064C31.2306 74.5576 31.3399 74.6846 31.4806 74.7563C31.6213 74.8279 31.7891 74.8409 31.9403 74.7922L82.9204 58.2278C83.0716 58.1791 83.1987 58.0698 83.2703 57.9291C83.342 57.7884 83.355 57.6207 83.3063 57.4695L82.0238 53.5218L82.3992 53.5343C82.558 53.5394 82.7143 53.4809 82.8311 53.373C82.9397 53.2716 83.006 53.1303 83.0181 52.9836L84.9335 58.8789L30.5855 76.5385L30.5866 76.537ZM19.407 41.3955L23.8586 40.7699L23.8181 41.9317L21.3765 42.2748C21.0472 42.3211 20.8182 42.625 20.8645 42.9542L23.678 62.9713C23.7001 63.1289 23.7856 63.2723 23.9114 63.3683C24.0386 63.4641 24.1998 63.5054 24.3574 63.4833L77.4387 56.0225C77.5963 56.0004 77.7397 55.9149 77.8357 55.7891C77.9315 55.6619 77.9728 55.5007 77.9507 55.3431L77.673 53.3678L78.8008 53.4078L79.3076 57.0139L22.7202 64.9675L19.4072 41.3968L19.407 41.3955ZM81.9755 57.2673L80.55 57.7302C80.5828 57.638 80.5977 57.5393 80.584 57.4419L80.5166 56.9628C80.5973 57.0442 80.6714 57.1253 80.7429 57.2067L81.7649 56.8749L81.5967 56.3564C81.2797 56.0065 80.912 55.6676 80.506 55.3445C80.4266 55.2812 80.3449 55.2208 80.2631 55.1592L80.0229 53.4503L80.7437 53.4757L81.9757 57.2685L81.9755 57.2673ZM32.1411 73.4603L29.4682 65.2339L32.0238 64.8747L32.5737 66.5661L32.0029 66.7522L32.3045 67.6804L34.5968 66.935L34.2952 66.0068L33.753 66.1823L33.2715 64.6993L34.304 64.5542C34.9895 66.0764 35.7747 66.6714 36.7155 66.3668C37.5425 66.0977 37.8676 65.3531 37.7102 64.0754L38.4955 63.9651C39.0983 64.992 39.7786 65.3706 40.5682 65.1146C41.2291 64.9002 41.5689 64.3809 41.5994 63.5288L42.8125 63.3583C43.2959 63.8886 43.8275 64.0556 44.4209 63.8625C44.8656 63.7177 45.1655 63.4351 45.3233 63.0054L47.6522 62.6781C47.8515 62.7023 48.0587 62.6797 48.2736 62.6103C48.3036 62.6009 48.3333 62.5889 48.3631 62.5781L52.511 61.9951C52.674 62.1133 52.84 62.2258 53.0103 62.3312C54.5982 63.3125 56.5145 63.7485 58.4437 63.4774C58.9112 63.4117 59.3782 63.3042 59.8417 63.1542C61.4495 62.6317 62.787 61.6546 63.7558 60.4146L65.5018 60.1692C65.3871 60.5799 65.2954 60.9873 65.2358 61.381C65.1899 61.6866 65.1613 61.9845 65.1535 62.273L66.3878 61.8722C66.4164 61.6017 66.4622 61.3144 66.5289 61.0177C66.6021 60.6834 66.701 60.3364 66.8176 59.9856L78.7963 58.3019L32.1425 73.4614L32.1411 73.4603ZM36.3627 65.2511C36.0766 65.3436 35.8856 65.2398 35.5594 64.3777L36.5266 64.2418C36.7179 64.9896 36.63 65.1639 36.3627 65.2511ZM39.7265 63.792L40.4785 63.6863C40.4592 63.8746 40.3654 63.9504 40.2154 63.999C40.0331 64.0586 39.8903 64.0368 39.7252 63.7922L39.7265 63.792ZM61.8407 60.6838C61.1654 61.2608 60.3687 61.7176 59.4693 62.0099C59.0733 62.1387 58.6746 62.23 58.2762 62.286C56.9388 62.474 55.608 62.2626 54.4274 61.7258L61.8407 60.6838ZM23.6674 51.3061C23.7751 51.4216 23.9286 51.4914 24.0861 51.4967L25.8544 51.5591L26.4074 55.4931L25.813 55.5766L25.9489 56.5438L28.3355 56.2084L28.1995 55.2412L27.6359 55.3204L27.1134 51.6029L28.1123 51.6376C28.1337 51.901 28.1651 52.1801 28.2069 52.4773C28.5655 55.0291 29.3031 56.1873 30.5213 56.0161C31.7396 55.8449 32.1412 54.5383 31.7776 51.9519C31.7686 51.8878 31.76 51.8264 31.7501 51.7651L32.2003 51.7802C32.2064 51.8237 32.2127 51.8685 32.219 51.9134C32.5777 54.4652 33.3152 55.6234 34.5335 55.4522C35.6761 55.2916 36.0944 54.1498 35.855 51.9079L36.3224 51.9245C36.7081 54.074 37.4234 55.046 38.5456 54.8882C39.5615 54.7455 40.0046 53.8275 39.9221 52.0508L40.4839 52.0698C40.8939 53.7234 41.5675 54.4635 42.5577 54.3243C43.4301 54.2017 43.8799 53.5075 43.9377 52.1905L45.3083 52.2382C45.8814 53.4627 46.7431 54.5094 47.7949 55.3008C49.4649 56.5592 51.6204 57.1824 53.8557 56.8682C56.0898 56.5542 57.9915 55.3621 59.2497 53.6908C59.4754 53.3913 59.6804 53.0751 59.864 52.7449L61.2213 52.7919C60.7752 53.4006 60.3773 54.0457 60.0515 54.6924C59.7278 55.3362 59.4723 55.9808 59.3124 56.6003C59.2844 56.7074 59.2615 56.8139 59.2385 56.9203L60.5208 56.74C60.6315 56.3561 60.7877 55.9436 60.9846 55.5227C61.4102 54.6098 62.0212 53.6592 62.7138 52.8434L74.3724 53.2504C74.3985 53.2781 74.427 53.3041 74.4518 53.332C74.8634 53.7692 75.2136 54.2164 75.4728 54.6385L76.5373 54.4889L76.4614 53.9483C76.3267 53.7334 76.1764 53.5194 76.012 53.3073L76.4518 53.3226L76.6752 54.9123L24.7852 62.2057L22.1394 43.3812L23.7752 43.1512L23.5059 50.8729C23.5008 51.0317 23.5593 51.188 23.6672 51.3048L23.6674 51.3061ZM30.4229 51.7191L30.5983 52.9668C30.821 54.5514 30.7352 54.8051 30.3688 54.8566C30.0025 54.9081 29.831 54.6918 29.6081 53.1059L29.408 51.6827L30.4227 51.7178L30.4229 51.7191ZM37.6313 51.9704L38.646 52.0055C38.8387 53.4415 38.7466 53.6791 38.3931 53.7288C38.0395 53.7785 37.8552 53.564 37.6323 51.9781L37.6313 51.9704ZM33.6202 52.542L33.5196 51.8259L34.5343 51.861L34.6102 52.4016C34.833 53.9862 34.7471 54.2399 34.3808 54.2914C34.0144 54.3429 33.8429 54.1266 33.62 52.5407L33.6202 52.542ZM41.7547 52.1146L42.7366 52.149C42.8039 52.9625 42.6883 53.1251 42.4039 53.165C42.1003 53.2077 41.9302 53.0657 41.7547 52.1146ZM58.287 52.9665C57.2112 54.3927 55.5968 55.4073 53.6868 55.6758C51.7781 55.9441 49.9453 55.414 48.518 54.3396C47.7846 53.7869 47.1616 53.0907 46.6918 52.2854L58.479 52.6966C58.4173 52.7875 58.3529 52.8776 58.2856 52.9654L58.287 52.9665ZM81.8403 52.3092L24.73 50.3155L25.5601 26.527L82.6705 28.5207L81.8403 52.3092Z" fill="#333333"/>
<path d="M81.4981 30.2265C81.5032 30.0677 81.4446 29.9113 81.3368 29.7946C81.2291 29.6791 81.0756 29.6092 80.9181 29.6039L45.2975 28.3598C44.9653 28.3477 44.687 28.6076 44.6749 28.9398C44.6629 29.272 44.9227 29.5503 45.2549 29.5623L80.2742 30.7852L79.6108 49.7835L27.2434 47.9553L27.9068 28.957L30.4969 29.0475C30.8291 29.0596 31.1074 28.7997 31.1195 28.4675C31.1316 28.1353 30.8717 27.857 30.5395 27.8449L27.3481 27.7331C27.0159 27.721 26.7376 27.9809 26.7256 28.3131L26.0208 48.5138C26.0157 48.6726 26.0742 48.8289 26.1821 48.9457C26.2898 49.0612 26.4433 49.1311 26.6008 49.1364L80.1718 51.0057C80.3306 51.0108 80.487 50.9523 80.6038 50.8444C80.7205 50.7366 80.7891 50.5832 80.7944 50.4257L81.4992 30.225L81.4981 30.2265Z" fill="#333333"/>
<path d="M34.1437 29.1751L34.165 28.5738L34.1863 27.9726L32.7831 27.9242L32.7618 28.5255L32.7405 29.1268L34.1437 29.1751Z" fill="#333333"/>
<path d="M37.1737 29.281L37.195 28.6797L37.2163 28.0785L35.8131 28.0301L35.7918 28.6314L35.7717 29.2325L37.1737 29.281Z" fill="#333333"/>
<path d="M40.2048 29.3866L40.2248 28.7854L40.2461 28.1842L38.8428 28.1358L38.8228 28.7369L38.8015 29.3382L40.2048 29.3866Z" fill="#333333"/>
<path d="M43.235 29.4938L43.2561 28.8912L43.2761 28.2901L41.8741 28.2416L41.8529 28.8429L41.8316 29.4442L43.235 29.4938Z" fill="#333333"/>
<path d="M48.909 39.2869C48.8926 39.7739 48.918 40.2523 48.9837 40.7199C49.2549 42.6491 50.2023 44.3709 51.5832 45.6268C52.9642 46.8827 54.7858 47.677 56.7969 47.747C57.2839 47.7635 57.7623 47.7381 58.2299 47.6723C60.1591 47.4012 61.8809 46.4538 63.1368 45.0728C64.3928 43.6919 65.187 41.8702 65.257 39.8591C65.2735 39.3722 65.2481 38.8937 65.1823 38.4261C64.9112 36.4969 63.9638 34.7751 62.5828 33.5192C61.2019 32.2633 59.3803 31.469 57.3691 31.399C56.8822 31.3825 56.4037 31.408 55.9362 31.4737C54.0069 31.7449 52.2851 32.6923 51.0292 34.0732C49.7733 35.4542 48.9791 37.2758 48.909 39.2869ZM51.9203 34.8833C52.9929 33.7032 54.4613 32.8959 56.1036 32.665C56.502 32.609 56.9104 32.5869 57.3265 32.6016C59.0463 32.6616 60.5924 33.3365 61.7726 34.409C62.9527 35.4816 63.76 36.95 63.9908 38.5923C64.0468 38.9907 64.069 39.3991 64.0543 39.8152C63.9942 41.535 63.3194 43.0811 62.2468 44.2613C61.1743 45.4414 59.7058 46.2487 58.0636 46.4795C57.6652 46.5355 57.2568 46.5577 56.8406 46.543C55.1222 46.4828 53.5747 45.8081 52.3946 44.7355C51.2145 43.663 50.4072 42.1945 50.1763 40.5523C50.1203 40.1539 50.0982 39.7455 50.1129 39.3293C50.1729 37.6096 50.8478 36.0634 51.9203 34.8833Z" fill="#333333"/>
<path d="M79.1337 47.8952C78.5275 46.7982 77.6511 45.6934 76.6695 44.7694C76.1775 44.3081 75.6594 43.8937 75.1293 43.5515C74.9397 43.4292 74.749 43.3176 74.5569 43.2152C75.048 42.7778 75.4709 42.2455 75.8096 41.644C76.3447 40.6923 76.6705 39.5622 76.7138 38.3465C76.73 37.8948 76.7058 37.4528 76.6457 37.0249C76.4472 35.6133 75.8573 34.3533 74.9868 33.4201C74.5515 32.9535 74.0457 32.57 73.4834 32.2964C72.9223 32.0225 72.3038 31.86 71.6568 31.8385C71.393 31.8299 71.1323 31.843 70.8773 31.8789C70.2189 31.9714 69.5978 32.2089 69.0394 32.5578C68.2013 33.0819 67.5027 33.8555 67.0024 34.7853C66.5024 35.7165 66.1999 36.808 66.1581 37.9791C66.1417 38.4295 66.1659 38.8715 66.2261 39.2994C66.3543 40.2114 66.6458 41.0588 67.0709 41.7972C67.2991 42.1936 67.5672 42.5582 67.8676 42.8831C67.3986 43.0783 66.9328 43.3332 66.4786 43.6335C65.2749 44.4284 64.1404 45.5297 63.2772 46.6844C62.8463 47.2622 62.4839 47.8527 62.2182 48.4347C62.1724 48.5365 62.1303 48.6365 62.0909 48.7374L63.3853 48.7828C63.5608 48.4237 63.7871 48.0444 64.0538 47.6647C64.6912 46.7534 65.5588 45.8346 66.4793 45.1161C66.9395 44.7562 67.4118 44.4455 67.871 44.2085C68.33 43.9703 68.7758 43.8057 69.1767 43.7298C69.4133 43.6848 69.6005 43.5017 69.651 43.266C69.7015 43.0303 69.6071 42.7862 69.4085 42.6469C68.904 42.292 68.4595 41.7966 68.114 41.1973C67.7698 40.5977 67.5247 39.8954 67.4174 39.1319C67.367 38.7732 67.3463 38.4025 67.3605 38.0204C67.4063 36.7011 67.8487 35.5181 68.5212 34.6424C68.8568 34.2046 69.2502 33.8437 69.6765 33.5773C70.1041 33.3109 70.5644 33.1377 71.0448 33.0702C71.2318 33.0439 71.4212 33.0343 71.6142 33.0411C72.0882 33.0581 72.537 33.1753 72.9562 33.3789C73.5843 33.6839 74.1454 34.1902 74.5824 34.846C75.0194 35.5017 75.3284 36.3061 75.4532 37.1938C75.5036 37.5525 75.5246 37.9245 75.5103 38.3066C75.4745 39.3345 75.1995 40.2771 74.7603 41.056C74.3213 41.8362 73.7217 42.4496 73.045 42.8307C72.8344 42.9492 72.7155 43.1814 72.7427 43.4219C72.77 43.6623 72.9366 43.8623 73.1684 43.9316C73.7055 44.0913 74.3224 44.4278 74.9353 44.8851C75.8558 45.5695 76.7671 46.5231 77.4626 47.503C77.8109 47.9923 78.1053 48.4878 78.3225 48.955C78.3785 49.0751 78.4291 49.1934 78.4754 49.3084L79.5491 49.3456L79.5681 48.8021C79.4464 48.5031 79.3007 48.2009 79.134 47.8978L79.1337 47.8952Z" fill="#333333"/>
<path d="M31.2467 41.6686L31.4704 35.2584L30.7104 35.232L29.5955 36.2038L29.5686 36.9979L30.1672 37.0183L30.0075 41.6259L29.4075 41.6044L29.3736 42.5811L31.7825 42.6645L31.8165 41.6891L31.2467 41.6686Z" fill="#333333"/>
<path d="M32.3015 38.9676C32.2115 41.5432 32.7372 42.8109 33.9672 42.8536C35.2063 42.8963 35.8192 41.6802 35.9109 39.0703C36.0005 36.483 35.4727 35.2835 34.2427 35.2408C33.0127 35.1982 32.3913 36.3815 32.3015 38.9676ZM34.1905 36.4774C34.5712 36.4905 34.6828 36.6995 34.6344 38.0832L34.5725 39.8646C34.5166 41.4648 34.3887 41.6984 34.0185 41.6851C33.6482 41.6718 33.5174 41.4289 33.5734 39.8287L33.6355 38.059C33.6838 36.674 33.8215 36.464 34.1903 36.4761L34.1905 36.4774Z" fill="#333333"/>
<path d="M36.3513 39.1089C36.2613 41.6846 36.787 42.9523 38.017 42.995C39.2561 43.0376 39.869 41.8215 39.9607 39.2117C40.0503 36.6243 39.5225 35.4249 38.2925 35.3822C37.0638 35.3394 36.4411 36.5229 36.3513 39.1089ZM38.239 36.619C38.6184 36.6322 38.7314 36.8411 38.6829 38.2247L38.621 40.0061C38.5651 41.6064 38.4372 41.8399 38.067 41.8266C37.6968 41.8133 37.5659 41.5705 37.6219 39.9702L37.6841 38.2005C37.7324 36.8156 37.8701 36.6055 38.2388 36.6177L38.239 36.619Z" fill="#333333"/>
<path d="M40.3999 39.2508C40.3099 41.8264 40.8355 43.0941 42.0656 43.1368C43.3047 43.1795 43.9176 41.9634 44.0093 39.3535C44.0989 36.7662 43.5711 35.5667 42.3411 35.524C41.1111 35.4814 40.4897 36.6647 40.3999 39.2508ZM42.2876 36.7608C42.6683 36.7739 42.78 36.9829 42.7315 38.3666L42.6696 40.148C42.6137 41.7482 42.4858 41.9817 42.1156 41.9685C41.7453 41.9552 41.6145 41.7123 41.6705 40.112L41.7326 38.3424C41.781 36.9574 41.9186 36.7473 42.2874 36.7595L42.2876 36.7608Z" fill="#333333"/>
<path d="M44.4484 39.3924C44.3585 41.968 44.8841 43.2358 46.1142 43.2784C47.3533 43.3211 47.9662 42.105 48.0579 39.4951C48.1488 36.9076 47.6197 35.7083 46.3897 35.6656C45.1609 35.6228 44.5383 36.8063 44.4484 39.3924ZM46.7813 38.508L46.7195 40.2894C46.6636 41.8896 46.5357 42.1232 46.1655 42.1099C45.7952 42.0966 45.6644 41.8537 45.7203 40.2535L45.7825 38.4838C45.8308 37.0988 45.9685 36.8888 46.3373 36.9009C46.7167 36.9142 46.8296 37.1231 46.7811 38.5067L46.7813 38.508Z" fill="#333333"/>
</g>
<defs>
<clipPath id="clip0_106_3102">
<rect width="110" height="96" fill="white"/>
</clipPath>
</defs>
</svg>
