<svg width="58" height="32" viewBox="0 0 58 32" fill="none" xmlns="http://www.w3.org/2000/svg">
<path d="M11.7077 5.61005L19.3484 2.60472e-05L19.1522 9.47707L26.8481 15.0109L17.7749 17.7521L14.8909 26.7815L9.47896 18.9998L2.58365e-06 19.0456L5.72814 11.4944L2.75644 2.49549L11.7077 5.61005Z" fill="#FABE00"/>
<path d="M34.4361 18.887L40.1624 17.5116L37.7717 22.8931L40.8481 27.9145L34.9905 27.303L31.1673 31.7815L29.9386 26.021L24.4981 23.7674L29.5957 20.8205L30.0567 14.9495L34.4361 18.887Z" fill="#FABE00"/>
<path d="M51.0361 17.8493L54.0992 15.1728L54.3583 19.2303L57.8481 21.3162L54.0707 22.8192L53.1658 26.7815L50.5694 23.6536L46.5195 24.0174L48.6949 20.5809L47.0967 16.8415L51.0361 17.8493Z" fill="#FABE00"/>
</svg>
