<svg width="116" height="98" viewBox="0 0 116 98" fill="none" xmlns="http://www.w3.org/2000/svg">
<g clip-path="url(#clip0_106_2723)">
<mask id="mask0_106_2723" style="mask-type:luminance" maskUnits="userSpaceOnUse" x="-29" y="0" width="166" height="155">
<path d="M136.2 0.634033H-28.2035V154.848H136.2V0.634033Z" fill="white"/>
</mask>
<g mask="url(#mask0_106_2723)">
<path d="M64.1465 11.9067C64.1465 11.9067 52.9673 8.45326 50.4656 19.9568C48.4292 29.3189 55.5913 37.6454 55.5913 37.6454L64.1465 11.9067Z" fill="#FABE00" stroke="#333333" stroke-width="1.85699" stroke-linecap="round" stroke-linejoin="round"/>
<path d="M83.2149 49.5C87.0552 48.7383 92.5331 46.9956 97.381 54.1591C102.229 61.3225 107.745 69.0111 109.959 68.8064C103.789 70.2712 94.0684 68.8808 89.1528 64.6896C84.2358 60.4984 82.8959 55.951 82.3097 55.5974" fill="#FABE00"/>
<path d="M83.2149 49.5C87.0552 48.7383 92.5331 46.9956 97.381 54.1591C102.229 61.3225 107.745 69.0111 109.959 68.8064C103.789 70.2712 94.0684 68.8808 89.1528 64.6896C84.2358 60.4984 82.8959 55.951 82.3097 55.5974" stroke="#333333" stroke-width="1.85699" stroke-linecap="round" stroke-linejoin="round"/>
<path d="M89.2433 56.873C91.0976 59.844 94.6242 62.2247 96.7178 62.8282L89.2433 56.873Z" fill="#FABE00"/>
<path d="M89.2433 56.873C91.0976 59.844 94.6242 62.2247 96.7178 62.8282" stroke="#333333" stroke-width="1.85699" stroke-linecap="round" stroke-linejoin="round"/>
<path d="M56.032 48.9257C59.073 48.5254 60.9991 44.1059 60.3341 39.0546C59.669 34.0033 56.6647 30.2329 53.6237 30.6333C50.5828 31.0336 48.6567 35.4531 49.3217 40.5044C49.9867 45.5557 52.991 49.3261 56.032 48.9257Z" fill="white" stroke="#333333" stroke-width="1.85699" stroke-linecap="round" stroke-linejoin="round"/>
<path d="M20.2792 66.9263C20.2792 66.9263 19.6039 59.5529 19.1958 57.5855C18.7877 55.6182 17.5076 53.0022 17.368 51.9002C16.827 47.6359 17.0969 41.2049 16.5824 36.5883C16.4203 35.1381 14.1193 35.925 13.6448 37.3474C13.2367 38.5729 12.814 48.9971 12.3142 49.2869C11.8143 49.5767 9.94539 47.2691 8.56959 48.3218C7.38122 49.2311 7.93553 53.1431 6.74051 52.9916C6.74051 52.9916 4.82769 52.8002 4.16305 53.1524C2.95076 53.7945 3.9065 57.309 3.9065 57.309C3.9065 57.309 1.84081 59.0424 2.21168 60.8316C2.58255 62.6195 4.23217 64.5788 5.66247 64.2811C7.09277 63.9847 4.98587 66.5834 8.36488 69.0253C10.513 70.5765 11.9526 70.514 12.9522 70.3559L15.8115 77.8928L22.7835 74.8461L20.2792 66.9263Z" fill="white" stroke="#333333" stroke-width="1.78654" stroke-linecap="round" stroke-linejoin="round"/>
<path d="M15.067 52.1703C15.067 52.1703 12.5268 51.499 11.4953 51.6319C10.4637 51.7649 5.249 54.7929 6.04524 55.9335C6.84147 57.074 10.7017 55.9002 10.7017 55.9002C10.7017 55.9002 11.8183 60.3613 14.3904 61.3768" stroke="#333333" stroke-width="1.78654" stroke-linecap="round" stroke-linejoin="round"/>
<path d="M3.90515 57.3091C3.90515 57.3091 5.2424 60.7625 6.41881 61.6372C7.59521 62.5119 8.98164 61.1347 9.31263 60.6309" fill="white"/>
<path d="M3.90515 57.3091C3.90515 57.3091 5.2424 60.7625 6.41881 61.6372C7.59521 62.5119 8.98164 61.1347 9.31263 60.6309" stroke="#333333" stroke-width="1.78654" stroke-linecap="round" stroke-linejoin="round"/>
<path d="M8.28383 56.8359C8.28383 56.8359 7.75611 59.0066 9.89092 59.4865L8.28383 56.8359Z" fill="white"/>
<path d="M8.28383 56.8359C8.28383 56.8359 7.75611 59.0066 9.89092 59.4865" stroke="#333333" stroke-width="1.78654" stroke-linecap="round" stroke-linejoin="round"/>
<path d="M5.66248 64.2812C5.66248 64.2812 8.05517 63.2257 8.26652 62.7458L5.66248 64.2812Z" fill="white"/>
<path d="M5.66248 64.2812C5.66248 64.2812 8.05517 63.2257 8.26652 62.7458" stroke="#333333" stroke-width="1.78654" stroke-linecap="round" stroke-linejoin="round"/>
<path d="M25.5512 76.2965L22.1575 70.0981L11.9115 75.9961L14.6644 81.0912" fill="white"/>
<path d="M25.5512 76.2965L22.1575 70.0981L11.9115 75.9961L14.6644 81.0912" stroke="#333333" stroke-width="1.85699" stroke-linecap="round" stroke-linejoin="round"/>
<path d="M88.742 119.782C88.8895 120.351 92.4852 136.696 92.4852 136.696C92.4852 136.696 81.7393 141.139 65.7176 140.621C57.9254 140.37 45.6988 136.86 46.0789 136.099C46.4591 135.339 53.7621 120.464 53.2185 116.064C51.5914 102.921 45.304 100.697 47.6302 91.4809C47.6302 91.4809 37.4254 110.904 29.673 107.114C22.7622 103.735 12.0482 80.8162 12.0482 80.8162L25.5882 72.5082C25.5882 72.5082 33.1664 84.4624 34.7682 85.9099C35.2945 86.3858 48.2762 66.3284 48.2762 66.3284C50.6025 64.0022 54.1622 65.1547 59.2587 65.5534C61.7072 65.7449 62.3107 67.1114 63.5323 66.6222C65.0756 65.8924 66.571 65.2185 70.2637 65.2185C72.7561 65.2185 75.7031 65.5122 78.4135 65.8791C78.8655 65.9403 79.3108 66.0041 79.7454 66.0679C79.9634 66.0998 80.1788 66.133 80.3901 66.1649C84.0004 66.7179 86.7879 67.3068 86.7879 67.3068C86.7879 67.3068 88.8284 67.8092 88.8975 67.8278C90.5777 68.2851 96.0902 70.3986 96.8665 70.9011C99.7949 72.7966 97.7784 83.92 96.8997 87.4319C94.0577 98.8025 88.0534 114.57 88.742 119.782Z" fill="#FABE00" stroke="#333333" stroke-width="1.85699" stroke-linecap="round" stroke-linejoin="round"/>
<path d="M58.5835 68.1626C58.5835 68.1626 83.8756 70.4729 83.1166 70.2203C82.3562 69.9677 64.2502 105.833 64.2502 105.833C64.2502 105.833 54.5731 87.8677 55.7668 83.3894C56.9592 78.9098 59.4077 69.9039 58.5835 68.1626Z" fill="#333333"/>
<path d="M74.6318 52.6833C74.6318 52.6833 74.8218 61.2305 77.2903 65.0283C79.7588 68.8273 82.2285 68.067 82.2285 68.067C82.2285 68.067 71.9519 80.7748 66.9073 80.0956C60.3235 79.2089 59.3105 68.6997 59.3105 68.6997C59.3105 68.6997 63.426 69.9665 66.0845 64.8382C68.7431 59.7098 67.0336 52.113 67.0336 52.113" fill="white"/>
<path d="M74.6318 52.6833C74.6318 52.6833 74.8218 61.2305 77.2903 65.0283C79.7588 68.8273 82.2285 68.067 82.2285 68.067C82.2285 68.067 71.9519 80.7748 66.9073 80.0956C60.3235 79.2089 59.3105 68.6997 59.3105 68.6997C59.3105 68.6997 63.426 69.9665 66.0845 64.8382C68.7431 59.7098 67.0336 52.113 67.0336 52.113" stroke="#333333" stroke-width="1.85699" stroke-linecap="round" stroke-linejoin="round"/>
<path d="M79.1912 68.0683C79.1912 68.0683 74.6956 88.7704 70.3276 93.8987C65.9596 99.0271 63.1096 103.269 63.1096 103.269C57.6011 90.3536 61.3749 67.4821 61.5265 67.4981" stroke="#333333" stroke-width="1.85699" stroke-linecap="round" stroke-linejoin="round"/>
<path d="M87.4208 77.8173C87.4208 77.8173 85.7751 65.7887 86.3441 65.7887C86.913 65.7887 78.8736 64.4595 78.8736 64.4595C78.8736 64.4595 76.0874 73.7657 73.9991 77.9449C71.4775 82.9869 64.2489 104.929 64.2489 104.929C64.2489 104.929 70.0738 98.7109 74.1254 94.9131C78.177 91.1141 84.5084 83.391 84.5084 83.391L80.9459 79.8285C84.955 78.5192 87.4195 77.8187 87.4195 77.8187L87.4208 77.8173Z" fill="#FABE00" stroke="#333333" stroke-width="1.85699" stroke-linecap="round" stroke-linejoin="round"/>
<path d="M61.8442 75.014C62.5407 69.6331 66.0859 63.9345 66.0859 63.9345L59.0009 63.7444C59.0009 63.7444 51.3097 76.5519 52.4436 76.4376C53.156 76.3658 54.9958 76.9082 56.9604 78.0048C55.1194 78.8449 52.9819 79.7701 52.9819 79.9828C52.9819 80.363 53.1082 87.4533 55.0077 92.0114C56.9073 96.5695 64.2515 104.927 64.2515 104.927C64.2515 104.927 61.3643 78.7293 61.8455 75.0126L61.8442 75.014Z" fill="#FABE00" stroke="#333333" stroke-width="1.85699" stroke-linecap="round" stroke-linejoin="round"/>
<path d="M55.3759 24.6901C54.3151 28.9664 54.5398 34.1651 54.3191 40.2506C53.9828 49.5076 59.7053 58.9348 68.8534 58.8059C77.37 58.6849 84.6505 52.8428 88.173 45.9146C90.5245 41.29 92.2685 32.1566 90.9406 26.3703C89.6126 20.584 79.4955 10.7899 70.7223 12.7918C61.9491 14.7936 57.294 16.9657 55.3772 24.6901H55.3759Z" fill="white" stroke="#333333" stroke-width="1.85699" stroke-linecap="round" stroke-linejoin="round"/>
<path d="M63.1469 11.4149C62.7268 12.2869 65.5887 21.2834 75.2486 28.3551C84.9084 35.4269 91.903 39.5064 91.903 39.5064C91.903 39.5064 102.818 22.2737 90.0048 10.9297C81.4842 3.38608 66.9858 3.44457 63.1455 11.4149H63.1469Z" fill="#FABE00" stroke="#333333" stroke-width="1.85699" stroke-linecap="round" stroke-linejoin="round"/>
<path d="M79.5686 35.5212C79.7706 36.2908 79.3107 37.0791 78.5411 37.2824C77.7714 37.4845 76.9831 37.0246 76.7798 36.2549C76.5777 35.4853 77.0376 34.697 77.8073 34.4936C78.5769 34.2916 79.3652 34.7515 79.5686 35.5212Z" fill="#333333"/>
<path d="M63.4818 33.3998C63.6838 34.1695 63.2239 34.9577 62.4543 35.1611C61.6846 35.3645 60.8964 34.9032 60.693 34.1336C60.4909 33.3639 60.9508 32.5757 61.7205 32.3723C62.4901 32.1702 63.2784 32.6302 63.4818 33.3998Z" fill="#333333"/>
<path d="M76.3092 19.2109C78.4852 23.2599 83.6588 28.0347 87.3794 29.0077" stroke="#333333" stroke-width="1.85699" stroke-linecap="round" stroke-linejoin="round"/>
<path d="M81.447 17.0706C82.9983 20.2582 86.4105 23.9336 89.4426 24.686" stroke="#333333" stroke-width="1.85699" stroke-linecap="round" stroke-linejoin="round"/>
<path d="M66.1816 35.8826C63.5084 39.7694 61.1051 40.5762 61.1051 40.5762L65.5409 43.0061" fill="white"/>
<path d="M66.1816 35.8826C63.5084 39.7694 61.1051 40.5762 61.1051 40.5762L65.5409 43.0061" stroke="#333333" stroke-width="1.85699" stroke-linecap="round" stroke-linejoin="round"/>
<path d="M73.9792 48.7724C73.9792 48.7724 73.4807 53.9327 70.6281 53.8144C68.3963 53.7213 66.9434 48.7219 66.9434 48.7219C66.9434 48.7219 74.5083 48.9678 73.9792 48.7724Z" fill="white" stroke="#333333" stroke-width="1.85699" stroke-linecap="round" stroke-linejoin="round"/>
<path d="M88.193 38.0032C91.0802 38.3767 93.3798 39.7831 93.0276 42.5134C92.6753 45.2437 90.0487 47.1552 87.1615 46.783" fill="white"/>
<path d="M88.193 38.0032C91.0802 38.3767 93.3798 39.7831 93.0276 42.5134C92.6753 45.2437 90.0487 47.1552 87.1615 46.783" stroke="#333333" stroke-width="1.85699" stroke-linecap="round" stroke-linejoin="round"/>
<path d="M34.7936 85.813L36.7715 88.5885" stroke="#333333" stroke-width="1.85699" stroke-linecap="round" stroke-linejoin="round"/>
<path d="M18.2812 83.4483C18.2812 84.0039 17.8319 84.4532 17.2763 84.4532C16.7207 84.4532 16.2714 84.0039 16.2714 83.4483C16.2714 82.8927 16.7207 82.4434 17.2763 82.4434C17.8319 82.4434 18.2812 82.8927 18.2812 83.4483Z" fill="#333333"/>
<path d="M18.9672 87.7225C19.5222 87.7225 19.9721 87.2726 19.9721 86.7176C19.9721 86.1626 19.5222 85.7126 18.9672 85.7126C18.4122 85.7126 17.9623 86.1626 17.9623 86.7176C17.9623 87.2726 18.4122 87.7225 18.9672 87.7225Z" fill="#333333"/>
<path d="M47.5266 91.9687C48.0663 90.6209 49.2706 86.8285 49.4541 85.6348L47.5266 91.9687Z" fill="#FABE00"/>
<path d="M47.5266 91.9687C48.0663 90.6209 49.2706 86.8285 49.4541 85.6348" stroke="#333333" stroke-width="1.85699" stroke-linecap="round" stroke-linejoin="round"/>
<path d="M91.9096 97.2009L97.0406 109.268L79.7614 117.31C79.7614 117.31 78.3484 120.926 79.4716 124.189C81.3991 129.788 84.6318 130.142 84.6318 130.142C84.6318 130.142 109.265 119.95 110.569 116.022C111.871 112.094 99.4426 74.4478 99.4426 74.4478C99.1169 73.8363 98.8697 72.2518 97.8302 71.5712C96.1779 70.4892 92.5517 69.1121 92.5517 69.1121" fill="#FABE00"/>
<path d="M91.9096 97.2009L97.0406 109.268L79.7614 117.31C79.7614 117.31 78.3484 120.926 79.4716 124.189C81.3991 129.788 84.6318 130.142 84.6318 130.142C84.6318 130.142 109.265 119.95 110.569 116.022C111.871 112.094 99.4426 74.4478 99.4426 74.4478C99.1169 73.8363 98.8697 72.2518 97.8302 71.5712C96.1779 70.4892 92.5517 69.1121 92.5517 69.1121" stroke="#333333" stroke-width="1.69615" stroke-linecap="round" stroke-linejoin="round"/>
<path d="M91.2225 42.9333C91.2225 42.9333 90.8423 49.9187 86.6883 54.4581C83.2601 58.2067 77.8885 60.6858 77.8885 60.6858" stroke="#333333" stroke-width="4.14069" stroke-linecap="round" stroke-linejoin="round"/>
<path d="M91.2225 42.9333C91.2225 42.9333 90.8423 49.9187 86.6883 54.4581C83.2601 58.2067 77.8885 60.6858 77.8885 60.6858" stroke="white" stroke-width="1.10463" stroke-linecap="round" stroke-linejoin="round"/>
<path d="M80.1517 63.1481C82.757 62.4413 84.5138 60.5593 84.0757 58.9445C83.6376 57.3298 81.1705 56.5939 78.5652 57.3007C75.96 58.0076 74.2032 59.8896 74.6413 61.5043C75.0794 63.119 77.5465 63.855 80.1517 63.1481Z" fill="white" stroke="#333333" stroke-width="1.37979" stroke-linecap="round" stroke-linejoin="round"/>
<path d="M96.4343 40.2062C96.8297 35.1267 94.6711 30.816 91.6132 30.578C88.5552 30.34 85.7557 34.2648 85.3604 39.3444C84.9651 44.424 87.1236 48.7347 90.1816 48.9727C93.2396 49.2106 96.039 45.2858 96.4343 40.2062Z" fill="white" stroke="#333333" stroke-width="1.85699" stroke-linecap="round" stroke-linejoin="round"/>
<path d="M94.3195 39.7655C94.5599 36.6761 93.5593 34.0785 92.0844 33.9638C90.6096 33.849 89.2191 36.2605 88.9787 39.3499C88.7382 42.4394 89.7389 45.0369 91.2137 45.1517C92.6886 45.2664 94.0791 42.855 94.3195 39.7655Z" fill="white" stroke="#333333" stroke-width="1.00626" stroke-linecap="round" stroke-linejoin="round"/>
<path d="M52.8318 30.4672C52.7986 17.9641 59.5446 8.63257 72.7323 8.63257C86.9303 8.63257 93.8851 20.8552 93.0622 31.9108C92.6276 37.741 92.1304 38.2102 91.9789 38.9108" stroke="#333333" stroke-width="4.01573" stroke-linecap="round" stroke-linejoin="round"/>
<path d="M52.8318 30.4672C52.7986 17.9641 59.5446 8.63257 72.7323 8.63257C86.9303 8.63257 93.8851 20.8552 93.0622 31.9108C92.6276 37.741 92.1304 38.2102 91.9789 38.9108" stroke="white" stroke-width="1.33858" stroke-linecap="round" stroke-linejoin="round"/>
</g>
<path d="M26.0222 21.0808L25.886 20.8509C22.0027 14.2921 20.6582 13.7437 12.8005 15.5249L12.5251 15.5873L12.7693 15.441C19.7353 11.2684 20.3771 9.92382 19.0032 2.35552L18.9551 2.09023L19.0913 2.32013C22.9746 8.87889 24.3191 9.42734 32.1768 7.64605L32.4522 7.58369L32.208 7.73003C25.242 11.9026 24.6002 13.2472 25.9741 20.8155L26.0222 21.0808Z" fill="#FABE00"/>
<path d="M39.7147 26.0999L39.6101 25.9222C36.6058 20.8478 35.5665 20.4248 29.4883 21.8026L29.2759 21.8513L29.4646 21.7389C34.8542 18.5107 35.3493 17.4714 34.2867 11.6171L34.249 11.4125L34.3535 11.5902C37.3578 16.6646 38.3972 17.0877 44.4753 15.7099L44.6877 15.6612L44.499 15.7736C39.1095 19.0018 38.6143 20.0411 39.677 25.8954L39.7147 26.0999Z" fill="#FABE00"/>
<path d="M26.7016 37.2064L26.5971 37.0287C23.5928 31.9543 22.5534 31.5313 16.4753 32.909L16.2629 32.9577L16.4516 32.8453C21.8411 29.6171 22.3362 28.5778 21.2736 22.7235L21.2359 22.519L21.3404 22.6967C24.3448 27.7711 25.3841 28.1941 31.4622 26.8164L31.6746 26.7677L31.4859 26.8801C26.0964 30.1082 25.6013 31.1476 26.6639 37.0018L26.7016 37.2064Z" fill="#FABE00"/>
</g>
<defs>
<clipPath id="clip0_106_2723">
<rect width="116" height="97.7851" fill="white"/>
</clipPath>
</defs>
</svg>
