<svg width="338" height="202" viewBox="0 0 338 202" fill="none" xmlns="http://www.w3.org/2000/svg">
<g filter="url(#filter0_d_119_1639)">
<rect x="225.333" y="43" width="110.667" height="158.243" rx="4" fill="#18724A" shape-rendering="crispEdges"/>
<rect x="233.333" y="93.6504" width="94.6667" height="26.3383" rx="4" fill="#FFDA03"/>
<path d="M258.337 105.184L258.341 105.758L264.305 105.72L264.301 105.146L258.337 105.184ZM258.327 103.602L258.331 104.162L264.295 104.124L264.291 103.564L258.327 103.602ZM256.71 102.521L265.964 102.462L265.992 106.801L256.738 106.861L256.71 102.521ZM255.089 107.375L267.605 107.295L267.613 108.625L255.098 108.705L255.089 107.375ZM261.527 109.182L266.105 109.153L266.113 110.441L261.535 110.47L261.527 109.182ZM257.257 109.251L260.435 109.231L260.443 110.393L257.265 110.413L257.257 109.251ZM257.268 111.015L260.446 110.995L260.454 112.157L257.276 112.177L257.268 111.015ZM263.242 110.333C263.64 111.189 264.242 111.923 265.048 112.534C265.864 113.144 266.833 113.577 267.955 113.831C267.853 113.934 267.737 114.061 267.607 114.211C267.477 114.371 267.357 114.535 267.246 114.704C267.135 114.872 267.043 115.022 266.969 115.153C265.763 114.797 264.737 114.244 263.892 113.493C263.057 112.742 262.393 111.818 261.901 110.72L263.242 110.333ZM265.601 109.156L265.909 109.154L266.188 109.11L267.227 109.496C266.953 110.468 266.562 111.325 266.053 112.065C265.545 112.796 264.942 113.416 264.245 113.925C263.558 114.442 262.795 114.863 261.957 115.185C261.863 114.981 261.726 114.748 261.547 114.488C261.368 114.237 261.198 114.033 261.039 113.875C261.579 113.704 262.091 113.477 262.574 113.193C263.067 112.91 263.513 112.576 263.912 112.191C264.311 111.806 264.654 111.379 264.94 110.91C265.236 110.442 265.456 109.941 265.602 109.408L265.601 109.156ZM254.999 113.06C255.475 113.029 256.007 112.993 256.595 112.952C257.182 112.901 257.803 112.851 258.456 112.8C259.109 112.74 259.766 112.679 260.429 112.619L260.438 113.991C259.495 114.081 258.558 114.171 257.625 114.261C256.702 114.36 255.872 114.445 255.135 114.515L254.999 113.06ZM259.572 107.781L261.168 107.77L261.215 115.204L259.619 115.214L259.572 107.781ZM256.198 107.83L257.724 107.82L257.761 113.546L256.235 113.556L256.198 107.83ZM274.491 102.533L281.7 102.487L281.71 104.041L274.501 104.087L274.491 102.533ZM273.929 113.317L281.979 113.265L281.989 114.819L273.939 114.871L273.929 113.317ZM275.395 110.409L276.821 110.064C276.944 110.344 277.053 110.646 277.149 110.972C277.244 111.289 277.325 111.601 277.393 111.909C277.469 112.216 277.522 112.491 277.552 112.734L276.042 113.135C276.022 112.893 275.978 112.613 275.911 112.296C275.853 111.979 275.781 111.658 275.695 111.332C275.609 110.996 275.509 110.689 275.395 110.409ZM279.34 109.964L280.98 110.304C280.861 110.65 280.737 110.996 280.609 111.342C280.49 111.688 280.371 112.02 280.251 112.338C280.132 112.647 280.017 112.919 279.907 113.153L278.49 112.826C278.601 112.573 278.706 112.278 278.807 111.942C278.917 111.605 279.017 111.264 279.108 110.918C279.209 110.572 279.286 110.254 279.34 109.964ZM276.589 106.622L276.6 108.316L279.652 108.296L279.641 106.602L276.589 106.622ZM275.039 105.162L281.269 105.122L281.299 109.756L275.069 109.795L275.039 105.162ZM271.283 104.472L272.879 104.461L272.896 107.107C272.9 107.695 272.866 108.344 272.796 109.054C272.726 109.754 272.591 110.469 272.39 111.199C272.189 111.928 271.895 112.635 271.507 113.318C271.129 114.002 270.629 114.612 270.007 115.148C269.932 115.027 269.819 114.888 269.668 114.73C269.527 114.572 269.382 114.424 269.232 114.285C269.081 114.146 268.95 114.039 268.838 113.965C269.404 113.476 269.848 112.946 270.171 112.375C270.504 111.794 270.752 111.195 270.916 110.578C271.08 109.961 271.183 109.358 271.226 108.77C271.279 108.172 271.303 107.617 271.3 107.104L271.283 104.472ZM270.214 103.68L274.442 103.653L274.451 105.179L270.224 105.206L270.214 103.68ZM268.907 107.371L274.633 107.334L274.643 108.888L268.917 108.925L268.907 107.371ZM272.602 109.293C272.696 109.377 272.822 109.507 272.982 109.683C273.142 109.85 273.316 110.04 273.504 110.254C273.701 110.467 273.889 110.685 274.068 110.908C274.247 111.121 274.411 111.316 274.562 111.493C274.712 111.66 274.82 111.78 274.886 111.855L273.817 113.248C273.694 113.024 273.534 112.778 273.336 112.509C273.148 112.23 272.95 111.946 272.743 111.658C272.536 111.37 272.333 111.101 272.136 110.85C271.938 110.59 271.769 110.372 271.627 110.196L272.602 109.293ZM270.091 102.001L271.675 102.299C271.576 102.888 271.44 103.477 271.266 104.066C271.102 104.645 270.914 105.193 270.703 105.707C270.501 106.213 270.284 106.653 270.053 107.028C269.941 106.954 269.795 106.866 269.618 106.764C269.449 106.663 269.271 106.57 269.084 106.488C268.906 106.395 268.751 106.322 268.62 106.267C268.981 105.751 269.285 105.114 269.532 104.357C269.789 103.59 269.975 102.805 270.091 102.001ZM287.318 114.029C286.622 114.034 285.998 113.954 285.445 113.789C284.892 113.637 284.398 113.424 283.965 113.151C283.543 112.865 283.175 112.55 282.861 112.204L284.092 110.522C284.502 110.891 284.948 111.212 285.43 111.485C285.924 111.746 286.471 111.875 287.071 111.871C287.526 111.868 287.922 111.793 288.257 111.647C288.604 111.501 288.867 111.289 289.045 111.012C289.235 110.735 289.329 110.398 289.327 110.002C289.324 109.558 289.213 109.181 288.995 108.87C288.789 108.548 288.422 108.304 287.893 108.14C287.364 107.975 286.619 107.896 285.659 107.902L285.647 105.994C286.463 105.989 287.104 105.9 287.571 105.73C288.038 105.547 288.367 105.304 288.557 105.003C288.759 104.69 288.858 104.335 288.856 103.939C288.853 103.423 288.694 103.022 288.38 102.736C288.066 102.438 287.627 102.291 287.063 102.295C286.595 102.298 286.158 102.408 285.751 102.627C285.357 102.834 284.963 103.118 284.569 103.481L283.19 101.851C283.775 101.356 284.391 100.962 285.037 100.67C285.683 100.365 286.396 100.211 287.176 100.206C288.028 100.2 288.779 100.334 289.429 100.606C290.09 100.877 290.603 101.276 290.966 101.802C291.33 102.327 291.514 102.968 291.519 103.724C291.523 104.444 291.335 105.063 290.954 105.582C290.574 106.1 290.03 106.5 289.324 106.78L289.325 106.87C289.817 106.999 290.263 107.212 290.661 107.51C291.071 107.795 291.391 108.159 291.622 108.602C291.865 109.044 291.988 109.559 291.992 110.147C291.997 110.951 291.785 111.643 291.357 112.221C290.941 112.8 290.373 113.248 289.655 113.564C288.949 113.869 288.17 114.024 287.318 114.029ZM295.707 106.976L303.28 106.927L303.291 108.551L295.717 108.6L295.707 106.976ZM302.72 106.931L304.484 106.919C304.484 106.919 304.485 106.966 304.485 107.059C304.486 107.143 304.486 107.246 304.487 107.367C304.488 107.479 304.484 107.573 304.475 107.648C304.444 108.702 304.408 109.613 304.367 110.378C304.325 111.135 304.273 111.765 304.211 112.269C304.158 112.774 304.09 113.175 304.008 113.475C303.926 113.774 303.825 113.998 303.705 114.149C303.519 114.374 303.324 114.534 303.12 114.628C302.924 114.723 302.691 114.79 302.421 114.829C302.188 114.868 301.88 114.888 301.497 114.891C301.115 114.902 300.713 114.9 300.293 114.884C300.282 114.632 300.224 114.343 300.12 114.017C300.015 113.701 299.887 113.426 299.736 113.194C300.129 113.219 300.493 113.236 300.829 113.243C301.165 113.25 301.417 113.253 301.585 113.252C301.715 113.251 301.823 113.241 301.907 113.222C301.99 113.194 302.074 113.137 302.158 113.052C302.269 112.93 302.356 112.664 302.418 112.253C302.49 111.832 302.552 111.216 302.603 110.404C302.653 109.582 302.693 108.522 302.722 107.225L302.72 106.931ZM297.243 101.996L299.066 102.516C298.726 103.33 298.316 104.117 297.835 104.876C297.364 105.635 296.851 106.334 296.295 106.972C295.748 107.61 295.178 108.164 294.583 108.635C294.48 108.514 294.339 108.37 294.16 108.203C293.982 108.027 293.799 107.856 293.611 107.689C293.433 107.522 293.273 107.388 293.133 107.286C293.709 106.89 294.256 106.42 294.776 105.875C295.304 105.321 295.781 104.716 296.206 104.06C296.631 103.395 296.977 102.707 297.243 101.996ZM302.576 101.934C302.803 102.38 303.077 102.836 303.397 103.3C303.718 103.765 304.066 104.22 304.442 104.666C304.827 105.102 305.217 105.515 305.612 105.904C306.016 106.294 306.41 106.632 306.794 106.919C306.646 107.032 306.479 107.182 306.293 107.37C306.117 107.548 305.946 107.731 305.779 107.919C305.621 108.107 305.487 108.28 305.376 108.44C304.982 108.078 304.583 107.675 304.178 107.229C303.774 106.775 303.374 106.297 302.979 105.795C302.593 105.284 302.226 104.759 301.877 104.22C301.528 103.672 301.212 103.132 300.929 102.602L302.576 101.934ZM298.202 107.436L300.036 107.424C299.975 108.208 299.873 108.974 299.728 109.722C299.584 110.469 299.341 111.176 299 111.841C298.668 112.505 298.182 113.115 297.541 113.67C296.91 114.215 296.073 114.683 295.03 115.072C294.964 114.914 294.87 114.742 294.747 114.556C294.624 114.37 294.493 114.184 294.351 113.998C294.21 113.822 294.069 113.669 293.928 113.539C294.869 113.234 295.614 112.861 296.161 112.419C296.709 111.967 297.121 111.479 297.398 110.955C297.675 110.421 297.862 109.855 297.961 109.257C298.069 108.659 298.15 108.052 298.202 107.436Z" fill="#333333"/>
<path d="M243.338 132.247L245.498 132.233L245.53 137.129C245.532 137.465 245.605 137.675 245.75 137.758C245.906 137.841 246.242 137.88 246.758 137.877C246.866 137.877 247.016 137.876 247.208 137.874C247.412 137.873 247.64 137.872 247.892 137.87C248.156 137.868 248.42 137.867 248.684 137.865C248.948 137.863 249.188 137.862 249.404 137.86C249.62 137.859 249.788 137.858 249.908 137.857C250.208 137.855 250.43 137.806 250.573 137.709C250.729 137.612 250.835 137.413 250.894 137.113C250.964 136.812 251.015 136.368 251.047 135.78C251.276 135.934 251.589 136.088 251.986 136.242C252.383 136.383 252.726 136.483 253.014 136.541C252.935 137.394 252.796 138.061 252.595 138.542C252.394 139.011 252.096 139.337 251.701 139.52C251.306 139.702 250.761 139.796 250.065 139.8C249.957 139.801 249.783 139.802 249.543 139.803C249.315 139.805 249.051 139.807 248.751 139.809C248.463 139.81 248.169 139.812 247.869 139.814C247.569 139.816 247.299 139.818 247.059 139.819C246.831 139.821 246.669 139.822 246.573 139.822C245.733 139.828 245.078 139.754 244.609 139.601C244.152 139.448 243.833 139.174 243.65 138.779C243.467 138.384 243.374 137.845 243.37 137.161L243.338 132.247ZM250.309 132.976L251.921 134.532C251.263 134.8 250.538 135.057 249.748 135.302C248.957 135.535 248.149 135.75 247.322 135.948C246.507 136.145 245.716 136.318 244.949 136.467C244.9 136.239 244.808 135.97 244.674 135.658C244.54 135.347 244.418 135.084 244.309 134.869C245.028 134.708 245.753 134.53 246.484 134.333C247.226 134.124 247.927 133.904 248.585 133.671C249.256 133.427 249.83 133.195 250.309 132.976ZM243.357 140.887L252.159 140.831L252.212 149.003L250.07 149.016L250.029 142.608L245.421 142.638L245.462 149.118L243.41 149.131L243.357 140.887ZM244.456 143.76L250.756 143.72L250.766 145.394L244.467 145.434L244.456 143.76ZM244.402 146.622L250.774 146.582L250.785 148.31L244.413 148.35L244.402 146.622ZM235.981 141.474C236.544 141.351 237.179 141.202 237.886 141.03C238.605 140.857 239.354 140.673 240.133 140.476C240.923 140.267 241.708 140.058 242.487 139.849L242.769 141.827C241.691 142.134 240.601 142.435 239.499 142.73C238.409 143.025 237.415 143.295 236.516 143.541L235.981 141.474ZM236.232 135.676L242.442 135.637L242.455 137.635L236.245 137.674L236.232 135.676ZM238.46 132.26L240.566 132.247L240.659 146.826C240.663 147.354 240.611 147.763 240.505 148.051C240.399 148.34 240.191 148.575 239.88 148.757C239.581 148.915 239.209 149.02 238.766 149.071C238.322 149.121 237.782 149.149 237.146 149.153C237.108 148.877 237.028 148.548 236.906 148.164C236.795 147.781 236.673 147.452 236.54 147.177C236.888 147.186 237.224 147.196 237.548 147.206C237.872 147.204 238.094 147.203 238.214 147.202C238.334 147.189 238.417 147.159 238.465 147.11C238.525 147.062 238.554 146.978 238.554 146.858L238.46 132.26ZM257.593 137.574L267.546 137.51L267.56 139.58L257.606 139.644L257.593 137.574ZM262.606 141.862L268.672 141.823L268.685 143.857L262.619 143.896L262.606 141.862ZM261.452 138.755L263.702 138.741L263.758 147.435L261.506 147.179L261.452 138.755ZM257.162 140.637L259.414 140.856C259.185 142.694 258.788 144.316 258.221 145.724C257.654 147.132 256.857 148.283 255.831 149.177C255.71 149.046 255.541 148.885 255.324 148.695C255.106 148.504 254.877 148.32 254.636 148.141C254.407 147.963 254.208 147.82 254.039 147.713C255.007 146.987 255.733 146.016 256.217 144.801C256.701 143.574 257.016 142.186 257.162 140.637ZM258.923 142.894C259.204 143.708 259.568 144.371 260.015 144.885C260.475 145.386 260.999 145.766 261.589 146.027C262.19 146.275 262.845 146.445 263.554 146.536C264.263 146.628 265.013 146.671 265.805 146.666C265.997 146.664 266.255 146.663 266.579 146.661C266.915 146.659 267.281 146.656 267.677 146.654C268.085 146.651 268.499 146.648 268.919 146.646C269.339 146.631 269.729 146.623 270.089 146.62C270.449 146.606 270.749 146.592 270.988 146.579C270.882 146.759 270.775 146.982 270.669 147.247C270.574 147.499 270.486 147.764 270.404 148.04C270.322 148.317 270.263 148.569 270.229 148.797L269.311 148.803L265.711 148.826C264.667 148.833 263.706 148.767 262.829 148.629C261.952 148.49 261.159 148.231 260.448 147.852C259.75 147.484 259.123 146.948 258.566 146.244C258.022 145.539 257.554 144.618 257.162 143.481L258.923 142.894ZM261.374 132.15L263.678 132.135L263.699 135.411L261.395 135.426L261.374 132.15ZM254.834 134.01L270.295 133.911L270.324 138.429L268.11 138.443L268.094 135.959L256.971 136.03L256.987 138.514L254.863 138.527L254.834 134.01ZM273.463 133.8L287.683 133.71L287.777 148.469L285.419 148.484L285.339 135.921L275.727 135.982L275.807 148.582L273.557 148.596L273.463 133.8ZM274.614 144.899L286.872 144.821L286.886 147.035L274.628 147.113L274.614 144.899ZM299.038 136.103L301.108 136.09L301.18 147.412L299.11 147.425L299.038 136.103ZM294.545 142.9L305.975 142.827L305.987 144.681L294.557 144.754L294.545 142.9ZM293.435 146.543L306.988 146.456L307 148.31L293.447 148.397L293.435 146.543ZM295.836 136.357L297.798 136.489C297.663 137.81 297.37 138.958 296.92 139.933C296.471 140.908 295.846 141.722 295.046 142.375C294.949 142.255 294.798 142.118 294.593 141.964C294.4 141.797 294.201 141.636 293.996 141.481C293.791 141.327 293.611 141.208 293.454 141.125C294.207 140.616 294.767 139.958 295.133 139.152C295.5 138.334 295.734 137.402 295.836 136.357ZM295.585 139.401L296.729 138.116C297.018 138.342 297.32 138.604 297.634 138.902C297.96 139.188 298.268 139.474 298.557 139.76C298.847 140.046 299.077 140.303 299.246 140.53L298.068 141.977C297.898 141.75 297.674 141.488 297.397 141.19C297.119 140.879 296.823 140.569 296.509 140.259C296.195 139.949 295.887 139.663 295.585 139.401ZM303.071 136.311L305.017 136.515C304.833 137.752 304.504 138.852 304.03 139.815C303.556 140.778 302.925 141.568 302.137 142.185C302.028 142.066 301.883 141.929 301.702 141.774C301.521 141.619 301.334 141.464 301.141 141.31C300.948 141.143 300.779 141.012 300.635 140.917C301.352 140.432 301.906 139.793 302.297 138.998C302.688 138.204 302.946 137.308 303.071 136.311ZM302.587 139.356L303.802 138.017C304.14 138.29 304.514 138.594 304.924 138.927C305.334 139.249 305.726 139.57 306.1 139.892C306.486 140.214 306.8 140.5 307.042 140.75L305.791 142.252C305.562 141.989 305.26 141.691 304.886 141.358C304.524 141.012 304.137 140.667 303.727 140.321C303.329 139.964 302.949 139.642 302.587 139.356ZM297.985 131.88L300.235 131.865L300.255 135.051L298.005 135.066L297.985 131.88ZM292.524 133.571L306.779 133.479L306.792 135.477L292.537 135.569L292.524 133.571ZM291.39 133.578L293.496 133.564L293.527 138.478C293.532 139.21 293.513 140.02 293.471 140.909C293.44 141.785 293.362 142.691 293.236 143.628C293.122 144.553 292.948 145.454 292.713 146.332C292.479 147.197 292.172 147.985 291.792 148.696C291.66 148.564 291.479 148.422 291.25 148.267C291.033 148.112 290.804 147.964 290.563 147.821C290.322 147.679 290.117 147.572 289.949 147.501C290.305 146.851 290.582 146.147 290.781 145.39C290.98 144.621 291.125 143.834 291.216 143.029C291.307 142.213 291.362 141.414 291.381 140.634C291.412 139.854 291.425 139.134 291.421 138.474L291.39 133.578ZM315.624 134.485C316.176 134.553 316.795 134.604 317.479 134.635C318.175 134.655 318.877 134.662 319.585 134.658C320.305 134.641 320.995 134.613 321.655 134.572C322.314 134.52 322.884 134.469 323.364 134.418L323.379 136.739C322.827 136.791 322.221 136.837 321.561 136.877C320.902 136.905 320.224 136.922 319.528 136.926C318.832 136.931 318.148 136.923 317.476 136.903C316.815 136.871 316.203 136.833 315.639 136.789L315.624 134.485ZM317.113 142.162C317.043 142.462 316.991 142.732 316.956 142.973C316.922 143.201 316.905 143.435 316.907 143.675C316.908 143.867 316.957 144.047 317.054 144.214C317.151 144.369 317.296 144.507 317.489 144.625C317.694 144.732 317.952 144.814 318.264 144.872C318.589 144.918 318.979 144.94 319.435 144.937C320.239 144.932 320.995 144.891 321.702 144.814C322.41 144.726 323.159 144.601 323.95 144.44L324.001 146.87C323.426 146.981 322.761 147.07 322.005 147.134C321.261 147.199 320.38 147.235 319.36 147.241C317.812 147.251 316.658 147.001 315.899 146.489C315.139 145.966 314.757 145.243 314.751 144.319C314.749 143.971 314.77 143.611 314.816 143.238C314.874 142.854 314.949 142.433 315.042 141.977L317.113 142.162ZM312.844 133.297C312.797 133.417 312.744 133.585 312.686 133.802C312.627 134.018 312.568 134.229 312.51 134.433C312.463 134.637 312.428 134.793 312.405 134.902C312.37 135.154 312.312 135.484 312.231 135.893C312.162 136.289 312.086 136.74 312.006 137.244C311.937 137.737 311.868 138.241 311.799 138.758C311.731 139.274 311.674 139.772 311.629 140.253C311.596 140.733 311.581 141.153 311.583 141.513C311.584 141.681 311.585 141.873 311.587 142.089C311.6 142.305 311.625 142.503 311.662 142.682C311.745 142.478 311.834 142.273 311.928 142.069C312.023 141.864 312.118 141.66 312.213 141.455C312.307 141.238 312.39 141.034 312.461 140.841L313.582 141.716C313.417 142.209 313.247 142.738 313.07 143.303C312.906 143.869 312.753 144.404 312.613 144.908C312.484 145.401 312.384 145.81 312.314 146.134C312.291 146.267 312.268 146.417 312.245 146.585C312.234 146.753 312.229 146.885 312.23 146.981C312.23 147.077 312.231 147.191 312.232 147.323C312.245 147.467 312.258 147.599 312.271 147.719L310.184 147.876C310 147.253 309.832 146.426 309.682 145.395C309.531 144.352 309.452 143.219 309.444 141.995C309.44 141.323 309.465 140.638 309.521 139.942C309.576 139.246 309.644 138.579 309.724 137.943C309.804 137.294 309.878 136.706 309.947 136.177C310.027 135.649 310.097 135.21 310.154 134.862C310.177 134.61 310.205 134.328 310.239 134.015C310.285 133.691 310.313 133.385 310.323 133.097L312.844 133.297ZM252.543 155.855C252.532 155.951 252.515 156.101 252.492 156.305C252.469 156.497 252.447 156.695 252.424 156.899C252.413 157.091 252.402 157.266 252.391 157.422C252.37 157.77 252.348 158.154 252.327 158.574C252.317 158.982 252.308 159.408 252.299 159.852C252.29 160.284 252.28 160.722 252.271 161.166C252.274 161.61 252.277 162.042 252.28 162.462C252.283 162.954 252.292 163.5 252.308 164.1C252.324 164.688 252.34 165.276 252.355 165.864C252.383 166.44 252.398 166.968 252.401 167.448C252.417 167.928 252.425 168.3 252.427 168.564C252.431 169.308 252.351 169.884 252.186 170.293C252.032 170.702 251.806 170.986 251.507 171.144C251.208 171.313 250.861 171.4 250.465 171.402C250.033 171.405 249.57 171.318 249.077 171.141C248.584 170.976 248.12 170.739 247.686 170.43C247.264 170.121 246.914 169.763 246.636 169.357C246.369 168.938 246.234 168.489 246.231 168.009C246.227 167.433 246.44 166.862 246.868 166.295C247.308 165.716 247.887 165.185 248.604 164.7C249.333 164.215 250.116 163.826 250.954 163.533C251.756 163.228 252.583 163.006 253.434 162.869C254.285 162.72 255.053 162.643 255.737 162.638C256.661 162.632 257.496 162.783 258.242 163.09C258.988 163.386 259.584 163.826 260.032 164.411C260.48 164.996 260.706 165.703 260.712 166.531C260.716 167.227 260.588 167.869 260.328 168.459C260.068 169.049 259.645 169.561 259.06 169.997C258.487 170.421 257.721 170.756 256.762 171.002C256.355 171.089 255.947 171.151 255.539 171.19C255.144 171.24 254.766 171.279 254.406 171.305L253.563 168.988C253.971 168.986 254.361 168.977 254.733 168.963C255.117 168.936 255.465 168.898 255.776 168.848C256.268 168.749 256.711 168.602 257.106 168.408C257.5 168.213 257.811 167.959 258.037 167.646C258.263 167.332 258.374 166.96 258.372 166.528C258.369 166.12 258.253 165.772 258.023 165.486C257.805 165.199 257.498 164.979 257.101 164.826C256.704 164.672 256.241 164.597 255.713 164.601C254.957 164.605 254.19 164.688 253.411 164.849C252.644 165.01 251.907 165.231 251.201 165.511C250.674 165.719 250.202 165.962 249.784 166.24C249.365 166.507 249.037 166.785 248.799 167.075C248.561 167.364 248.443 167.641 248.444 167.905C248.445 168.049 248.488 168.187 248.573 168.318C248.67 168.438 248.79 168.545 248.935 168.64C249.08 168.735 249.224 168.812 249.368 168.871C249.525 168.918 249.657 168.941 249.765 168.941C249.933 168.94 250.071 168.891 250.178 168.794C250.285 168.685 250.338 168.481 250.336 168.181C250.334 167.857 250.319 167.395 250.291 166.795C250.275 166.183 250.253 165.505 250.224 164.762C250.207 164.018 250.197 163.28 250.192 162.548C250.189 162.044 250.186 161.534 250.182 161.018C250.191 160.502 250.194 160.01 250.191 159.542C250.188 159.074 250.185 158.66 250.183 158.3C250.193 157.94 250.197 157.658 250.196 157.454C250.195 157.322 250.188 157.154 250.174 156.95C250.161 156.746 250.142 156.542 250.116 156.338C250.103 156.122 250.084 155.966 250.059 155.87L252.543 155.855ZM257.686 157.766C258.143 157.979 258.655 158.24 259.221 158.548C259.799 158.856 260.347 159.165 260.865 159.473C261.395 159.77 261.816 160.037 262.13 160.275L261.062 162.118C260.832 161.928 260.531 161.714 260.157 161.476C259.796 161.238 259.398 160.995 258.965 160.746C258.543 160.496 258.134 160.265 257.736 160.051C257.339 159.826 256.996 159.648 256.707 159.518L257.686 157.766ZM246.658 158.826C247.187 158.883 247.649 158.922 248.045 158.943C248.453 158.953 248.819 158.956 249.143 158.954C249.611 158.951 250.127 158.93 250.691 158.89C251.254 158.839 251.83 158.775 252.418 158.699C253.005 158.612 253.574 158.512 254.126 158.401C254.689 158.289 255.198 158.166 255.653 158.031L255.722 160.262C255.218 160.386 254.673 160.497 254.086 160.597C253.498 160.685 252.905 160.766 252.305 160.842C251.718 160.918 251.154 160.976 250.614 161.015C250.087 161.054 249.625 161.075 249.229 161.078C248.629 161.082 248.137 161.079 247.753 161.069C247.369 161.06 247.02 161.038 246.708 161.004L246.658 158.826ZM270.364 155.831L279.651 155.771L279.663 157.643L270.376 157.703L270.364 155.831ZM272.256 159.041L279.186 158.996L279.197 160.76L272.267 160.805L272.256 159.041ZM270.909 162.253L279.98 162.195L279.992 164.013L270.92 164.071L270.909 162.253ZM269.536 155.836L271.534 155.823L271.567 161.133C271.573 161.925 271.548 162.789 271.494 163.726C271.452 164.65 271.35 165.605 271.188 166.59C271.039 167.575 270.811 168.53 270.505 169.456C270.198 170.37 269.79 171.201 269.279 171.948C269.17 171.817 269.013 171.668 268.808 171.501C268.603 171.346 268.392 171.192 268.175 171.037C267.97 170.894 267.789 170.787 267.633 170.716C268.096 170.029 268.457 169.283 268.716 168.477C268.987 167.66 269.18 166.824 269.294 165.972C269.421 165.119 269.5 164.284 269.53 163.468C269.561 162.64 269.574 161.866 269.57 161.146L269.536 155.836ZM272.158 163.433L274.066 163.421L274.11 170.243L272.203 170.417L272.158 163.433ZM270.813 169.796C271.532 169.684 272.377 169.534 273.348 169.348C274.331 169.162 275.332 168.969 276.35 168.771L276.541 170.48C275.619 170.677 274.702 170.875 273.791 171.073C272.88 171.271 272.041 171.456 271.275 171.629L270.813 169.796ZM278.698 164.364L280.129 165.704C279.639 166.104 279.138 166.509 278.625 166.92C278.111 167.319 277.639 167.652 277.209 167.919L276.14 166.81C276.415 166.604 276.707 166.362 277.017 166.084C277.327 165.806 277.632 165.516 277.93 165.215C278.24 164.901 278.496 164.617 278.698 164.364ZM276.604 163.387C276.767 164.43 276.995 165.395 277.288 166.281C277.594 167.167 278.007 167.938 278.527 168.595C279.048 169.251 279.705 169.757 280.499 170.112C280.344 170.245 280.183 170.414 280.016 170.619C279.85 170.824 279.689 171.041 279.534 171.27C279.392 171.499 279.267 171.704 279.16 171.885C278.257 171.411 277.515 170.779 276.934 169.991C276.365 169.191 275.909 168.258 275.566 167.192C275.235 166.126 274.976 164.933 274.787 163.615L276.604 163.387ZM263.127 164.157C263.846 163.997 264.702 163.781 265.697 163.511C266.703 163.24 267.715 162.958 268.733 162.663L269.016 164.605C268.093 164.887 267.159 165.169 266.213 165.451C265.279 165.733 264.41 165.991 263.608 166.224L263.127 164.157ZM263.379 158.521L268.886 158.486L268.899 160.466L263.391 160.501L263.379 158.521ZM265.247 155.107L267.227 155.095L267.32 169.71C267.323 170.202 267.272 170.593 267.166 170.881C267.072 171.182 266.887 171.417 266.612 171.587C266.349 171.757 266.014 171.873 265.606 171.935C265.211 171.998 264.713 172.025 264.113 172.017C264.087 171.753 264.019 171.424 263.909 171.028C263.798 170.645 263.676 170.31 263.542 170.023C263.878 170.032 264.184 170.042 264.46 170.053C264.748 170.051 264.946 170.044 265.054 170.031C265.162 170.03 265.234 170.012 265.27 169.976C265.318 169.927 265.341 169.843 265.34 169.723L265.247 155.107ZM287.967 155.7L291.783 155.676L291.796 157.728L287.98 157.752L287.967 155.7ZM290.685 155.683L292.953 155.668C293.033 156.952 293.173 158.175 293.372 159.338C293.572 160.5 293.867 161.579 294.257 162.572C294.647 163.554 295.157 164.42 295.786 165.172C296.415 165.924 297.205 166.537 298.156 167.011C297.976 167.132 297.779 167.29 297.565 167.483C297.362 167.676 297.159 167.882 296.957 168.099C296.766 168.304 296.605 168.497 296.474 168.678C295.511 168.108 294.702 167.411 294.049 166.588C293.395 165.752 292.861 164.813 292.447 163.772C292.044 162.73 291.731 161.61 291.507 160.412C291.296 159.213 291.144 157.96 291.051 156.652L290.691 156.655L290.685 155.683ZM290.655 159.445L292.871 159.737C292.5 161.767 291.905 163.541 291.087 165.058C290.269 166.576 289.202 167.807 287.888 168.751C287.78 168.608 287.622 168.435 287.417 168.232C287.224 168.029 287.013 167.827 286.783 167.624C286.566 167.409 286.373 167.243 286.204 167.124C287.459 166.36 288.443 165.321 289.154 164.009C289.878 162.696 290.378 161.175 290.655 159.445ZM285.721 161.979L285.764 168.621L283.658 168.634L283.628 163.99L281.54 164.003L281.527 162.005L285.721 161.979ZM285.758 167.685C286.133 168.27 286.658 168.699 287.332 168.971C288.006 169.242 288.811 169.393 289.747 169.423C290.275 169.444 290.899 169.458 291.619 169.465C292.351 169.46 293.119 169.45 293.923 169.432C294.727 169.415 295.513 169.386 296.28 169.345C297.06 169.304 297.75 169.258 298.35 169.206C298.279 169.375 298.196 169.591 298.102 169.856C298.007 170.12 297.919 170.391 297.837 170.667C297.767 170.944 297.714 171.19 297.68 171.406C297.14 171.446 296.522 171.474 295.826 171.49C295.13 171.519 294.416 171.535 293.684 171.54C292.953 171.557 292.245 171.561 291.56 171.554C290.876 171.546 290.264 171.532 289.724 171.511C288.62 171.47 287.677 171.302 286.895 171.007C286.113 170.724 285.42 170.237 284.815 169.545C284.422 169.883 284.016 170.234 283.598 170.596C283.193 170.959 282.745 171.334 282.255 171.721L281.179 169.478C281.597 169.223 282.034 168.944 282.488 168.641C282.942 168.339 283.378 168.024 283.796 167.697L285.758 167.685ZM281.511 156.713L283.105 155.407C283.479 155.645 283.858 155.924 284.244 156.246C284.63 156.556 284.993 156.877 285.331 157.211C285.669 157.533 285.941 157.831 286.146 158.106L284.446 159.557C284.264 159.27 284.01 158.96 283.684 158.626C283.37 158.292 283.019 157.958 282.633 157.624C282.247 157.279 281.873 156.975 281.511 156.713ZM302.535 156.525C302.787 156.547 303.051 156.57 303.327 156.592C303.615 156.602 303.855 156.607 304.047 156.605C304.311 156.604 304.611 156.596 304.947 156.582C305.295 156.567 305.649 156.553 306.009 156.539C306.369 156.525 306.711 156.504 307.034 156.478C307.358 156.452 307.622 156.433 307.826 156.419C308.042 156.406 308.258 156.375 308.473 156.325C308.701 156.276 308.893 156.22 309.048 156.159L310.496 157.266C310.376 157.411 310.263 157.544 310.156 157.664C310.049 157.773 309.96 157.894 309.888 158.026C309.687 158.363 309.456 158.827 309.195 159.417C308.935 159.994 308.657 160.62 308.361 161.294C308.078 161.968 307.8 162.624 307.528 163.261C307.35 163.67 307.167 164.104 306.978 164.561C306.789 165.018 306.594 165.475 306.393 165.933C306.192 166.378 305.996 166.799 305.807 167.196C305.617 167.582 305.434 167.919 305.255 168.208C304.899 168.75 304.499 169.155 304.057 169.422C303.615 169.676 303.082 169.806 302.458 169.81C301.666 169.815 301.004 169.561 300.473 169.049C299.941 168.536 299.673 167.824 299.667 166.912C299.662 166.192 299.82 165.519 300.14 164.893C300.46 164.267 300.913 163.724 301.498 163.264C302.095 162.792 302.794 162.428 303.597 162.17C304.399 161.913 305.28 161.782 306.24 161.776C307.284 161.769 308.293 161.882 309.267 162.116C310.24 162.35 311.148 162.65 311.99 163.017C312.845 163.383 313.609 163.768 314.284 164.172C314.97 164.564 315.555 164.92 316.037 165.241L314.991 167.75C314.447 167.249 313.838 166.767 313.163 166.303C312.488 165.84 311.766 165.418 310.995 165.039C310.237 164.648 309.425 164.341 308.559 164.119C307.706 163.896 306.817 163.788 305.893 163.794C305.017 163.799 304.268 163.942 303.646 164.222C303.036 164.502 302.57 164.853 302.249 165.275C301.927 165.685 301.768 166.112 301.771 166.556C301.773 166.844 301.846 167.066 301.991 167.221C302.148 167.376 302.328 167.453 302.532 167.451C302.724 167.45 302.886 167.401 303.018 167.304C303.149 167.207 303.298 167.044 303.464 166.815C303.619 166.598 303.767 166.339 303.909 166.039C304.064 165.738 304.217 165.407 304.371 165.046C304.537 164.684 304.696 164.317 304.85 163.944C305.016 163.571 305.175 163.21 305.329 162.861C305.542 162.38 305.761 161.881 305.986 161.363C306.21 160.834 306.423 160.322 306.624 159.829C306.837 159.336 307.032 158.902 307.21 158.529C307.03 158.542 306.808 158.556 306.544 158.57C306.28 158.571 305.998 158.579 305.698 158.593C305.41 158.607 305.122 158.627 304.834 158.652C304.558 158.666 304.318 158.68 304.115 158.693C303.935 158.706 303.701 158.726 303.413 158.752C303.137 158.777 302.885 158.809 302.657 158.846L302.535 156.525ZM314.424 160.715C314.36 161.988 314.235 163.158 314.05 164.228C313.877 165.285 313.589 166.253 313.187 167.131C312.796 167.998 312.255 168.787 311.564 169.5C310.872 170.2 309.988 170.836 308.912 171.407L306.994 169.853C308.095 169.366 308.973 168.808 309.629 168.18C310.297 167.552 310.797 166.894 311.129 166.208C311.472 165.522 311.708 164.855 311.836 164.206C311.964 163.545 312.044 162.95 312.077 162.422C312.098 162.074 312.108 161.732 312.106 161.396C312.104 161.048 312.09 160.736 312.064 160.46L314.424 160.715Z" fill="white"/>
</g>
<rect x="245.567" y="8.9" width="70.2" height="70.2" rx="35.1" fill="white"/>
<rect x="245.567" y="8.9" width="70.2" height="70.2" rx="35.1" stroke="#18724A" stroke-width="1.8"/>
<path d="M256.254 34.8877V58.5127C272.004 58.5127 287.754 58.5127 303.504 58.5127V34.8877H256.254Z" fill="white"/>
<path d="M255.467 34.8876V58.5126C255.467 58.9382 255.827 59.3001 256.254 59.3001C268.526 59.3001 280.798 59.3001 293.07 59.3001C296.548 59.3001 300.026 59.3001 303.504 59.3001C303.93 59.3001 304.292 58.9394 304.292 58.5126V34.8876C304.292 34.462 303.931 34.1001 303.504 34.1001H256.254C255.241 34.1001 255.239 35.6751 256.254 35.6751H303.504L302.717 34.8876V58.5126L303.504 57.7251C291.232 57.7251 278.961 57.7251 266.689 57.7251C263.211 57.7251 259.732 57.7251 256.254 57.7251L257.042 58.5126V34.8876C257.042 33.8741 255.467 33.8725 255.467 34.8876Z" fill="#333333"/>
<path d="M286.072 44.5252C285.909 44.0983 285.747 43.6644 285.526 43.2628C285.305 42.8596 284.991 42.4974 284.702 42.1465C284.61 42.0343 284.514 41.928 284.404 41.8323C284.056 41.5299 283.686 41.2224 283.287 40.9865C282.888 40.7503 282.433 40.5826 282.003 40.4223C281.831 40.3585 281.657 40.3093 281.477 40.277C280.986 40.1884 280.473 40.1034 279.97 40.0872C279.444 40.0703 278.904 40.179 278.391 40.255C278.179 40.2865 277.972 40.329 277.77 40.4002C277.315 40.5609 276.841 40.7404 276.421 40.9861C275.528 41.5098 274.973 42.1367 274.379 42.9569C274.288 43.084 274.206 43.2159 274.138 43.3577C273.938 43.7766 273.737 44.2145 273.602 44.6622C273.507 44.9784 273.478 45.3079 273.434 45.634C273.424 45.7056 273.422 45.7761 273.412 45.847C273.359 46.0954 273.331 46.3522 273.333 46.6156C273.337 47.1869 273.43 47.7705 273.537 48.3264C273.647 48.8958 273.91 49.4427 274.147 49.9621C274.393 50.5003 274.793 50.9842 275.182 51.4182C275.275 51.5217 275.377 51.6127 275.486 51.7001C275.838 51.984 276.198 52.31 276.609 52.5179C277.601 53.0199 278.297 53.1743 279.387 53.29C280.087 53.3645 280.825 53.2452 281.505 53.1117C282.13 52.9888 282.759 52.7187 283.3 52.3947C283.686 52.1635 284.047 51.8643 284.386 51.5749C284.499 51.478 284.602 51.3737 284.699 51.2599C285.444 50.3775 286.092 49.3644 286.271 48.1981C286.364 47.5917 286.469 47.007 286.409 46.3978C286.348 45.7879 286.298 45.1107 286.074 44.524L286.072 44.5252Z" fill="white"/>
<path d="M286.832 44.3161C286.545 43.5644 286.253 42.8497 285.758 42.2079C285.296 41.6071 284.8 41.1062 284.192 40.6514C282.934 39.7116 281.184 39.2194 279.617 39.3056C278.106 39.3887 276.597 39.8175 275.382 40.7432C274.224 41.6256 273.407 42.8379 272.925 44.2031C272.444 45.5682 272.483 47.1396 272.778 48.5371C273.072 49.9345 273.888 51.3992 274.995 52.3123C275.624 52.8313 276.234 53.244 276.993 53.5523C277.633 53.8121 278.293 53.9429 278.976 54.0303C280.522 54.2287 282.185 53.9326 283.547 53.1628C286.564 51.4587 287.983 47.5897 286.832 44.3161C286.498 43.3663 284.976 43.7747 285.313 44.7342C286.114 47.0109 285.448 49.7014 283.57 51.2366C281.74 52.7329 278.907 52.9628 276.854 51.7556C275.815 51.1441 275.079 50.1853 274.612 49.0907C274.134 47.9712 274.083 46.8223 274.221 45.6343C274.482 43.3947 276.283 41.4165 278.521 41.0275C279.965 40.7763 281.425 40.8747 282.737 41.5811C284.012 42.2674 284.808 43.4112 285.313 44.7342C285.465 45.1311 285.844 45.4048 286.282 45.2843C286.662 45.18 286.984 44.7153 286.832 44.3161Z" fill="#333333"/>
<path d="M262.581 46.2357C262.547 46.1448 262.512 46.0518 262.465 45.966C262.418 45.8798 262.351 45.8026 262.289 45.7278C262.269 45.7038 262.249 45.6813 262.225 45.6608C262.151 45.5963 262.071 45.5305 261.986 45.4801C261.901 45.4297 261.804 45.3939 261.712 45.3596C261.675 45.3458 261.638 45.3356 261.6 45.3285C261.495 45.3096 261.385 45.2915 261.278 45.288C261.166 45.2844 261.05 45.3076 260.941 45.3238C260.896 45.3305 260.852 45.3395 260.808 45.3549C260.711 45.3892 260.61 45.4273 260.521 45.4801C260.33 45.5919 260.211 45.7258 260.085 45.901C260.065 45.9282 260.048 45.9565 260.033 45.9865C259.991 46.0759 259.947 46.1696 259.918 46.2649C259.898 46.3322 259.892 46.4027 259.883 46.4724C259.881 46.4877 259.88 46.5027 259.878 46.518C259.866 46.5712 259.861 46.6259 259.861 46.6822C259.862 46.8043 259.881 46.9287 259.905 47.0476C259.928 47.1693 259.984 47.2858 260.035 47.3969C260.087 47.5119 260.173 47.615 260.256 47.7079C260.276 47.73 260.298 47.7497 260.321 47.7682C260.396 47.8288 260.473 47.8985 260.561 47.9426C260.773 48.0497 260.921 48.0828 261.154 48.1076C261.303 48.1234 261.461 48.0982 261.606 48.0694C261.74 48.043 261.874 47.9855 261.989 47.9162C262.071 47.867 262.149 47.8028 262.221 47.741C262.245 47.7202 262.268 47.6981 262.288 47.6737C262.447 47.4855 262.585 47.2689 262.624 47.0201C262.644 46.8905 262.666 46.7657 262.653 46.6358C262.64 46.5054 262.629 46.3609 262.581 46.2357Z" fill="#333333"/>
<path d="M266.291 46.2357C266.257 46.1448 266.222 46.0518 266.175 45.966C266.128 45.8798 266.061 45.8026 265.999 45.7278C265.979 45.7038 265.959 45.6813 265.935 45.6608C265.861 45.5963 265.781 45.5305 265.696 45.4801C265.611 45.4297 265.514 45.3939 265.422 45.3596C265.385 45.3458 265.348 45.3356 265.31 45.3285C265.205 45.3096 265.095 45.2915 264.988 45.288C264.876 45.2844 264.76 45.3076 264.651 45.3238C264.606 45.3305 264.562 45.3395 264.518 45.3549C264.421 45.3892 264.32 45.4273 264.23 45.4801C264.04 45.5919 263.921 45.7258 263.795 45.901C263.775 45.9282 263.758 45.9565 263.743 45.9865C263.7 46.0759 263.657 46.1696 263.628 46.2649C263.608 46.3322 263.602 46.4027 263.593 46.4724C263.591 46.4877 263.59 46.5027 263.588 46.518C263.576 46.5712 263.571 46.6259 263.571 46.6822C263.572 46.8043 263.591 46.9287 263.615 47.0476C263.638 47.1693 263.694 47.2858 263.745 47.3969C263.797 47.5119 263.883 47.615 263.966 47.7079C263.986 47.73 264.008 47.7497 264.031 47.7682C264.106 47.8288 264.183 47.8985 264.271 47.9426C264.482 48.0497 264.631 48.0828 264.864 48.1076C265.013 48.1234 265.171 48.0982 265.316 48.0694C265.45 48.043 265.584 47.9855 265.699 47.9162C265.781 47.867 265.859 47.8028 265.931 47.741C265.955 47.7202 265.978 47.6981 265.998 47.6737C266.157 47.4855 266.295 47.2689 266.334 47.0201C266.354 46.8905 266.376 46.7657 266.363 46.6358C266.35 46.5054 266.34 46.3609 266.292 46.2357H266.291Z" fill="#333333"/>
<path d="M270.001 46.2357C269.967 46.1448 269.932 46.0518 269.885 45.966C269.837 45.8798 269.77 45.8026 269.709 45.7278C269.689 45.7038 269.668 45.6813 269.645 45.6608C269.57 45.5963 269.491 45.5305 269.406 45.4801C269.321 45.4297 269.224 45.3939 269.132 45.3596C269.095 45.3458 269.058 45.3356 269.02 45.3285C268.915 45.3096 268.805 45.2915 268.698 45.288C268.586 45.2844 268.47 45.3076 268.361 45.3238C268.316 45.3305 268.271 45.3395 268.228 45.3549C268.131 45.3892 268.03 45.4273 267.94 45.4801C267.75 45.5919 267.631 45.7258 267.504 45.901C267.485 45.9282 267.467 45.9565 267.453 45.9865C267.41 46.0759 267.367 46.1696 267.338 46.2649C267.318 46.3322 267.312 46.4027 267.302 46.4724C267.3 46.4877 267.3 46.5027 267.298 46.518C267.286 46.5712 267.28 46.6259 267.281 46.6822C267.282 46.8043 267.301 46.9287 267.324 47.0476C267.348 47.1693 267.404 47.2858 267.455 47.3969C267.507 47.5119 267.593 47.615 267.676 47.7079C267.695 47.73 267.717 47.7497 267.741 47.7682C267.816 47.8288 267.893 47.8985 267.98 47.9426C268.192 48.0497 268.341 48.0828 268.573 48.1076C268.723 48.1234 268.881 48.0982 269.026 48.0694C269.159 48.043 269.294 47.9855 269.409 47.9162C269.491 47.867 269.568 47.8028 269.641 47.741C269.665 47.7202 269.687 47.6981 269.708 47.6737C269.867 47.4855 270.005 47.2689 270.044 47.0201C270.064 46.8905 270.086 46.7657 270.073 46.6358C270.06 46.5054 270.05 46.3609 270.002 46.2357H270.001Z" fill="#333333"/>
<path d="M297.547 48.6999C297.776 48.8554 298.001 49.0381 298.21 49.2393C298.611 49.6279 298.961 50.0532 299.25 50.506C299.917 51.553 300.254 52.7327 300.283 53.9171C300.303 54.7951 299.656 55.5039 298.885 55.5039H290.473C289.702 55.5039 289.056 54.7951 289.076 53.9171C289.104 52.7327 289.441 51.553 290.108 50.506C290.393 50.0532 290.747 49.6279 291.148 49.2393C291.361 49.0334 291.586 48.8507 291.819 48.6904" fill="#18724A"/>
<path d="M297.15 49.3799C298.103 50.052 298.835 51.1033 299.195 52.2062C299.381 52.7764 299.932 54.479 298.988 54.7034C298.788 54.751 298.545 54.7164 298.341 54.7164H292.919C292.124 54.7164 291.29 54.7896 290.498 54.7164C289.535 54.6274 289.889 53.215 290.044 52.6165C290.372 51.3423 291.137 50.139 292.217 49.3708C292.563 49.1247 292.728 48.6837 292.5 48.2935C292.3 47.9514 291.77 47.7632 291.422 48.0108C290.23 48.8594 289.33 50.0237 288.792 51.3833C288.332 52.5421 287.937 54.2333 288.717 55.3377C289.527 56.4839 290.855 56.2914 292.074 56.2914H296.748C297.704 56.2914 299.076 56.5087 299.939 55.9996C301.367 55.1578 301.173 53.315 300.766 51.9511C300.294 50.3694 299.293 48.9708 297.946 48.0199C297.116 47.4344 296.328 48.7995 297.151 49.3799H297.15Z" fill="#333333"/>
<path d="M260.827 40.095H264.231C264.643 40.095 265.037 39.7328 265.018 39.3075C264.999 38.8823 264.672 38.52 264.231 38.52H260.827C260.415 38.52 260.02 38.8823 260.039 39.3075C260.058 39.7328 260.385 40.095 260.827 40.095Z" fill="#333333"/>
<path d="M298.182 43.1096C297.811 42.4374 297.235 41.8051 296.572 41.4787C295.991 41.1932 295.632 41.0869 294.99 41.0184C294.571 40.9735 294.145 41.0333 293.733 41.1101C292.986 41.2487 292.172 41.746 291.681 42.3744C291.264 42.9076 291.046 43.3072 290.822 43.9601C290.679 44.3774 290.63 44.8417 290.625 45.2843C290.625 46.093 290.822 46.9687 291.252 47.6401C291.459 47.9621 291.679 48.2842 291.963 48.5311C292.454 48.9572 292.793 49.182 293.396 49.4159C294.114 49.6943 295.033 49.6631 295.767 49.4769C296.459 49.3013 297.209 48.8335 297.671 48.2437C297.907 47.9425 298.141 47.6338 298.292 47.2727C298.559 46.6344 298.664 46.2123 298.722 45.502C298.787 44.6972 298.562 43.7994 298.182 43.11L298.182 43.1096Z" fill="white"/>
<path d="M298.862 42.7121C297.763 40.7874 295.68 39.9082 293.523 40.3508C291.553 40.7551 290.134 42.6506 289.889 44.5828C289.628 46.6378 290.519 48.7223 292.336 49.7834C294.102 50.8151 296.494 50.543 297.958 49.0999C299.64 47.4418 299.951 44.7682 298.862 42.7121C298.388 41.8159 297.027 42.6109 297.502 43.5071C298.175 44.7789 298.062 46.3964 297.208 47.5595C296.395 48.6668 294.846 49.1696 293.55 48.6356C292.242 48.097 291.45 46.8126 291.414 45.4199C291.378 44.0579 292.106 42.5664 293.414 42.0218C294.147 41.7171 295.019 41.721 295.762 41.9805C296.54 42.2526 297.098 42.8007 297.502 43.5074C298.004 44.3875 299.366 43.5945 298.862 42.7121Z" fill="#333333"/>
<rect x="266.667" width="28" height="28" rx="14" fill="#18724A"/>
<path d="M276.579 20.2225C275.879 20.2269 275.261 20.0302 274.727 19.6323C274.202 19.225 273.787 18.6209 273.483 17.8202C273.189 17.0101 273.038 16.0077 273.03 14.813C273.022 13.6277 273.161 12.6422 273.445 11.8563C273.739 11.0611 274.146 10.4658 274.666 10.0705C275.195 9.6751 275.81 9.47517 276.51 9.47069C277.219 9.46616 277.837 9.66288 278.362 10.0609C278.887 10.4495 279.297 11.0349 279.591 11.817C279.895 12.5991 280.05 13.5828 280.058 14.7681C280.065 15.9628 279.923 16.967 279.629 17.7809C279.345 18.5854 278.943 19.1947 278.423 19.6087C277.903 20.0133 277.288 20.2179 276.579 20.2225ZM276.568 18.6125C276.876 18.6105 277.146 18.4921 277.378 18.2573C277.61 18.0225 277.789 17.6293 277.917 17.0779C278.044 16.517 278.104 15.7513 278.098 14.7807C278.092 13.8193 278.022 13.0684 277.887 12.528C277.753 11.9781 277.569 11.5966 277.334 11.3835C277.099 11.161 276.828 11.0507 276.52 11.0527C276.231 11.0545 275.965 11.1682 275.724 11.3938C275.492 11.6099 275.308 11.9938 275.172 12.5453C275.035 13.0875 274.97 13.8393 274.976 14.8006C274.982 15.7713 275.057 16.5361 275.201 17.0952C275.344 17.645 275.533 18.0358 275.768 18.2676C276.012 18.4994 276.279 18.6144 276.568 18.6125ZM284.528 20.1717C283.987 20.1751 283.501 20.1129 283.071 19.985C282.641 19.8664 282.257 19.7008 281.92 19.4883C281.592 19.2664 281.306 19.0209 281.061 18.7518L282.019 17.4436C282.338 17.7309 282.685 17.9807 283.06 18.193C283.444 18.3959 283.869 18.4958 284.336 18.4929C284.69 18.4906 284.998 18.4326 285.258 18.319C285.528 18.2052 285.733 18.0406 285.871 17.825C286.019 17.6094 286.092 17.3476 286.09 17.0396C286.088 16.6943 286.002 16.4008 285.833 16.1592C285.672 15.9083 285.387 15.7188 284.975 15.5907C284.564 15.4627 283.984 15.401 283.238 15.4058L283.228 13.9218C283.863 13.9178 284.362 13.8493 284.725 13.7163C285.088 13.574 285.344 13.3856 285.491 13.1514C285.649 12.9077 285.726 12.6319 285.724 12.3239C285.722 11.9225 285.598 11.6106 285.354 11.3882C285.11 11.1564 284.769 11.0419 284.33 11.0447C283.966 11.0471 283.626 11.1332 283.31 11.3033C283.003 11.4639 282.696 11.6852 282.39 11.9672L281.318 10.7C281.773 10.3144 282.251 10.008 282.754 9.78079C283.256 9.54424 283.811 9.42403 284.418 9.42015C285.08 9.41592 285.664 9.51952 286.17 9.73096C286.684 9.94234 287.083 10.2525 287.366 10.6613C287.648 11.0702 287.791 11.5686 287.795 12.1566C287.799 12.7166 287.652 13.1982 287.356 13.6015C287.06 14.0047 286.638 14.3154 286.088 14.5336L286.089 14.6036C286.472 14.7038 286.818 14.8696 287.128 15.1009C287.447 15.3229 287.696 15.606 287.875 15.9502C288.064 16.2943 288.16 16.695 288.163 17.1524C288.167 17.7777 288.002 18.3154 287.669 18.7656C287.346 19.2156 286.904 19.5638 286.346 19.81C285.797 20.0469 285.191 20.1674 284.528 20.1717Z" fill="white"/>
<g filter="url(#filter1_d_119_1639)">
<rect x="112.667" y="43" width="110.667" height="158.243" rx="4" fill="#4FA668" shape-rendering="crispEdges"/>
<path d="M149.803 117.71L159.324 117.649L159.364 123.823L157.24 123.836L157.213 119.696L149.816 119.744L149.803 117.71ZM148.955 123.025L160.708 122.95L160.721 124.966L148.967 125.041L148.955 123.025ZM152.791 114.937L154.951 114.923L154.991 121.223C154.997 122.195 154.95 123.173 154.848 124.158C154.746 125.142 154.524 126.104 154.182 127.042C153.852 127.968 153.342 128.847 152.651 129.68C151.96 130.5 151.029 131.244 149.857 131.912C149.724 131.757 149.549 131.584 149.332 131.393C149.127 131.202 148.91 131.012 148.68 130.821C148.451 130.643 148.24 130.5 148.048 130.393C149.148 129.798 150.02 129.151 150.663 128.45C151.307 127.738 151.782 126.991 152.089 126.209C152.408 125.415 152.613 124.598 152.703 123.757C152.794 122.917 152.837 122.07 152.831 121.218L152.791 114.937ZM156 124.114C156.392 125.42 157 126.586 157.822 127.613C158.657 128.639 159.7 129.413 160.951 129.933C160.784 130.066 160.605 130.241 160.414 130.458C160.224 130.687 160.039 130.923 159.861 131.164C159.694 131.405 159.558 131.628 159.451 131.832C158.055 131.157 156.921 130.205 156.049 128.974C155.177 127.732 154.495 126.278 154.005 124.613L156 124.114ZM144.774 116.644L145.934 115.052C146.306 115.194 146.698 115.366 147.107 115.567C147.528 115.768 147.926 115.976 148.299 116.189C148.684 116.403 148.992 116.617 149.221 116.831L147.99 118.603C147.773 118.389 147.483 118.163 147.122 117.925C146.76 117.687 146.369 117.456 145.947 117.23C145.538 117.005 145.147 116.81 144.774 116.644ZM143.761 121.564L144.903 119.919C145.287 120.049 145.691 120.208 146.112 120.397C146.533 120.587 146.936 120.788 147.322 121.002C147.707 121.215 148.02 121.423 148.262 121.626L147.031 123.434C146.814 123.231 146.518 123.017 146.145 122.791C145.772 122.554 145.374 122.328 144.953 122.115C144.543 121.901 144.146 121.718 143.761 121.564ZM144.321 130.291C144.618 129.821 144.95 129.273 145.318 128.647C145.686 128.008 146.054 127.334 146.422 126.624C146.801 125.913 147.15 125.203 147.47 124.493L149.135 125.832C148.839 126.47 148.525 127.126 148.193 127.8C147.873 128.474 147.548 129.13 147.216 129.769C146.884 130.407 146.552 131.027 146.22 131.629L144.321 130.291ZM167.057 116.465L178.469 116.393L178.481 118.246L167.069 118.319L167.057 116.465ZM169.714 123.829L176.032 123.788L176.043 125.57L169.726 125.611L169.714 123.829ZM169.751 126.852L176.105 126.812L176.117 128.594L169.763 128.634L169.751 126.852ZM171.619 114.816L173.833 114.802L173.848 117.232L171.634 117.246L171.619 114.816ZM175.001 123.039L177.143 123.025L177.198 131.629L175.056 131.643L175.001 123.039ZM174.894 117.531L176.914 118.077C176.32 119.076 175.533 119.927 174.554 120.63C173.586 121.32 172.492 121.885 171.271 122.325C170.049 122.764 168.756 123.127 167.389 123.411C167.328 123.256 167.237 123.064 167.116 122.837C166.994 122.598 166.867 122.365 166.733 122.138C166.6 121.911 166.473 121.731 166.352 121.6C167.623 121.412 168.821 121.152 169.947 120.821C171.085 120.478 172.084 120.039 172.945 119.506C173.805 118.96 174.455 118.302 174.894 117.531ZM162.773 116.529L163.933 114.937C164.306 115.079 164.697 115.251 165.107 115.452C165.528 115.653 165.925 115.861 166.299 116.074C166.684 116.288 166.991 116.502 167.221 116.716L165.99 118.488C165.773 118.274 165.483 118.048 165.122 117.81C164.76 117.572 164.369 117.341 163.947 117.115C163.538 116.89 163.146 116.694 162.773 116.529ZM161.761 121.449L162.902 119.804C163.287 119.934 163.69 120.093 164.111 120.282C164.533 120.472 164.936 120.673 165.321 120.887C165.707 121.1 166.02 121.308 166.261 121.511L165.031 123.319C164.813 123.116 164.518 122.902 164.145 122.676C163.771 122.439 163.374 122.213 162.952 122C162.543 121.786 162.146 121.603 161.761 121.449ZM162.339 130.176C162.636 129.706 162.968 129.158 163.336 128.532C163.704 127.893 164.078 127.219 164.457 126.508C164.837 125.798 165.192 125.088 165.524 124.377L167.17 125.717C166.874 126.355 166.56 127.011 166.229 127.685C165.909 128.359 165.577 129.021 165.233 129.671C164.901 130.31 164.569 130.924 164.237 131.514L162.339 130.176ZM168.521 123.026L170.573 123.013L170.587 125.155C170.59 125.623 170.563 126.151 170.507 126.74C170.45 127.316 170.334 127.917 170.158 128.542C169.994 129.167 169.74 129.769 169.396 130.347C169.064 130.937 168.611 131.462 168.038 131.922C167.905 131.814 167.736 131.683 167.531 131.529C167.326 131.386 167.115 131.243 166.899 131.101C166.682 130.958 166.489 130.851 166.321 130.78C166.81 130.369 167.203 129.923 167.5 129.441C167.809 128.947 168.034 128.441 168.174 127.925C168.315 127.408 168.408 126.909 168.453 126.429C168.51 125.936 168.537 125.498 168.534 125.114L168.521 123.026ZM170.123 117.4C170.885 118.295 171.717 118.998 172.621 119.508C173.536 120.006 174.516 120.384 175.562 120.641C176.619 120.886 177.743 121.089 178.932 121.25C178.705 121.491 178.479 121.793 178.254 122.154C178.04 122.515 177.88 122.864 177.774 123.201C176.537 122.969 175.359 122.677 174.241 122.324C173.122 121.959 172.069 121.45 171.081 120.796C170.105 120.142 169.199 119.26 168.364 118.149L170.123 117.4ZM184.21 130.27C183.286 130.276 182.493 130.107 181.83 129.763C181.18 129.419 180.685 128.967 180.346 128.405C180.006 127.831 179.834 127.202 179.83 126.518C179.825 125.798 179.971 125.185 180.268 124.679C180.565 124.173 180.946 123.733 181.411 123.358C181.877 122.983 182.373 122.644 182.899 122.34C183.425 122.037 183.921 121.74 184.387 121.449C184.865 121.158 185.247 120.849 185.533 120.523C185.831 120.186 185.979 119.795 185.976 119.351C185.974 119.135 185.937 118.937 185.864 118.757C185.791 118.578 185.682 118.44 185.537 118.345C185.393 118.25 185.207 118.204 184.979 118.205C184.583 118.207 184.259 118.36 184.009 118.661C183.759 118.951 183.636 119.336 183.639 119.816C183.642 120.368 183.808 120.961 184.136 121.594C184.464 122.216 184.894 122.844 185.426 123.476C185.958 124.097 186.55 124.687 187.202 125.247C187.865 125.807 188.534 126.3 189.209 126.728C189.763 127.073 190.299 127.363 190.817 127.6C191.334 127.825 191.809 127.978 192.242 128.059L191.625 130.223C190.989 130.083 190.327 129.865 189.641 129.569C188.967 129.262 188.293 128.882 187.618 128.43C186.81 127.871 186.038 127.24 185.302 126.537C184.577 125.834 183.925 125.1 183.344 124.336C182.763 123.559 182.302 122.788 181.961 122.022C181.632 121.244 181.465 120.519 181.461 119.847C181.457 119.223 181.597 118.659 181.882 118.153C182.167 117.635 182.566 117.224 183.08 116.921C183.594 116.606 184.205 116.446 184.913 116.441C185.861 116.435 186.613 116.7 187.168 117.237C187.736 117.761 188.022 118.462 188.028 119.338C188.031 119.913 187.897 120.43 187.624 120.888C187.351 121.346 186.993 121.762 186.552 122.137C186.122 122.512 185.668 122.863 185.19 123.19C184.712 123.517 184.253 123.844 183.811 124.171C183.381 124.485 183.029 124.818 182.755 125.167C182.481 125.517 182.346 125.908 182.348 126.34C182.351 126.712 182.443 127.041 182.625 127.328C182.819 127.615 183.078 127.835 183.403 127.989C183.728 128.143 184.1 128.219 184.52 128.216C185.012 128.213 185.498 128.084 185.976 127.829C186.454 127.574 186.914 127.229 187.355 126.794C187.892 126.251 188.356 125.624 188.747 124.913C189.151 124.202 189.464 123.408 189.686 122.531L192.116 122.515C191.823 123.525 191.433 124.488 190.947 125.403C190.472 126.318 189.884 127.174 189.181 127.97C188.585 128.658 187.869 129.215 187.032 129.64C186.206 130.053 185.266 130.263 184.21 130.27ZM126.568 140.481C127.228 140.561 127.973 140.616 128.801 140.646C129.629 140.677 130.517 140.69 131.465 140.683C132.065 140.68 132.677 140.664 133.301 140.636C133.925 140.608 134.531 140.574 135.118 140.534C135.706 140.482 136.228 140.437 136.683 140.398L136.699 142.792C136.279 142.819 135.769 142.852 135.169 142.892C134.582 142.932 133.964 142.966 133.316 142.994C132.68 143.022 132.074 143.038 131.498 143.041C130.562 143.047 129.692 143.035 128.888 143.004C128.084 142.961 127.315 142.918 126.583 142.875L126.568 140.481ZM128.129 148.103C128.047 148.415 127.976 148.722 127.918 149.022C127.86 149.323 127.832 149.623 127.834 149.923C127.838 150.511 128.129 150.989 128.707 151.357C129.298 151.714 130.241 151.888 131.537 151.879C132.353 151.874 133.139 151.839 133.894 151.774C134.662 151.709 135.381 151.627 136.053 151.526C136.724 151.414 137.323 151.284 137.85 151.137L137.884 153.657C137.369 153.78 136.782 153.892 136.122 153.992C135.475 154.092 134.773 154.169 134.018 154.221C133.274 154.286 132.482 154.321 131.642 154.327C130.262 154.335 129.115 154.187 128.201 153.881C127.288 153.586 126.595 153.159 126.123 152.598C125.664 152.025 125.431 151.324 125.426 150.496C125.422 149.98 125.461 149.506 125.543 149.073C125.624 148.629 125.693 148.238 125.751 147.902L128.129 148.103ZM137.14 138.559C137.297 138.774 137.461 139.031 137.631 139.33C137.813 139.629 137.988 139.928 138.158 140.227C138.328 140.526 138.474 140.789 138.595 141.016L137.142 141.655C136.959 141.284 136.734 140.86 136.467 140.381C136.212 139.903 135.964 139.491 135.721 139.144L137.14 138.559ZM139.277 137.735C139.434 137.962 139.604 138.225 139.786 138.524C139.967 138.823 140.143 139.122 140.313 139.421C140.495 139.708 140.641 139.959 140.75 140.174L139.314 140.795C139.12 140.425 138.889 140.006 138.622 139.54C138.355 139.061 138.094 138.655 137.84 138.321L139.277 137.735ZM142.109 141.497L158.02 141.396L158.034 143.592L142.123 143.693L142.109 141.497ZM145.851 149.628L154.22 149.574L154.235 151.77L145.865 151.824L145.851 149.628ZM148.872 137.962L151.158 137.948L151.266 154.849L148.98 154.864L148.872 137.962ZM148.252 142.25L150.236 142.868C149.728 144.167 149.112 145.407 148.387 146.587C147.663 147.768 146.848 148.841 145.942 149.807C145.048 150.761 144.081 151.577 143.041 152.256C142.92 152.076 142.763 151.879 142.57 151.665C142.376 151.438 142.183 151.217 141.989 151.002C141.808 150.776 141.627 150.597 141.446 150.466C142.187 150.053 142.898 149.551 143.578 148.958C144.259 148.366 144.89 147.708 145.474 146.984C146.069 146.26 146.598 145.501 147.061 144.706C147.536 143.899 147.933 143.08 148.252 142.25ZM151.852 142.281C152.291 143.334 152.861 144.369 153.564 145.384C154.278 146.388 155.088 147.301 155.993 148.123C156.899 148.945 157.851 149.617 158.85 150.139C158.671 150.284 158.474 150.471 158.26 150.7C158.057 150.93 157.861 151.171 157.67 151.424C157.48 151.665 157.319 151.888 157.189 152.093C156.141 151.452 155.157 150.666 154.24 149.736C153.333 148.794 152.517 147.743 151.789 146.584C151.062 145.424 150.43 144.21 149.894 142.942L151.852 142.281ZM166.514 138.263L168.998 138.248C168.978 138.752 168.94 139.4 168.885 140.192C168.83 140.985 168.722 141.867 168.56 142.84C168.41 143.801 168.176 144.811 167.859 145.869C167.542 146.927 167.105 147.986 166.547 149.045C166.002 150.093 165.3 151.099 164.443 152.065C163.597 153.018 162.564 153.871 161.345 154.623C161.151 154.348 160.885 154.056 160.547 153.746C160.221 153.436 159.877 153.156 159.516 152.906C160.712 152.227 161.715 151.452 162.525 150.583C163.336 149.714 163.996 148.804 164.506 147.852C165.016 146.889 165.405 145.927 165.675 144.965C165.945 143.991 166.137 143.072 166.252 142.207C166.366 141.342 166.433 140.568 166.453 139.884C166.472 139.2 166.493 138.66 166.514 138.263ZM168.911 138.734C168.925 138.962 168.951 139.322 168.99 139.814C169.03 140.305 169.105 140.893 169.218 141.576C169.33 142.259 169.497 143.002 169.718 143.805C169.951 144.596 170.256 145.41 170.634 146.247C171.011 147.085 171.478 147.904 172.035 148.704C172.592 149.505 173.263 150.244 174.048 150.924C174.844 151.602 175.772 152.191 176.831 152.688C176.484 152.942 176.162 153.238 175.865 153.576C175.579 153.914 175.347 154.233 175.169 154.534C174.061 153.989 173.091 153.342 172.258 152.591C171.437 151.828 170.73 151.005 170.136 150.12C169.555 149.224 169.069 148.315 168.679 147.394C168.289 146.472 167.971 145.568 167.725 144.682C167.492 143.783 167.312 142.95 167.188 142.183C167.063 141.416 166.974 140.75 166.923 140.187C166.883 139.623 166.851 139.215 166.825 138.963L168.911 138.734ZM186.961 146.449L193.693 146.406L193.703 147.99L186.971 148.033L186.961 146.449ZM186.979 149.293L193.711 149.25L193.721 150.834L186.989 150.877L186.979 149.293ZM186.962 152.155L194.575 152.106L194.587 153.87L186.973 153.919L186.962 152.155ZM184.234 139.41L194.404 139.345L194.425 142.621L192.499 142.633L192.489 141.157L186.064 141.199L186.073 142.674L184.255 142.686L184.234 139.41ZM189.381 144.921L191.361 144.909L191.413 152.973L189.433 152.985L189.381 144.921ZM187.608 143.457L194.07 143.415L194.081 145.197L187.619 145.239L187.679 154.616L185.645 154.629L185.586 145.342L187.41 143.458L187.608 143.457ZM188.507 137.673L190.562 138.056C190.094 140.003 189.415 141.741 188.525 143.271C187.635 144.801 186.533 146.056 185.219 147.036C185.122 146.905 184.983 146.738 184.802 146.535C184.632 146.32 184.451 146.111 184.258 145.908C184.064 145.705 183.895 145.544 183.751 145.425C184.969 144.614 185.977 143.539 186.772 142.202C187.567 140.865 188.146 139.355 188.507 137.673ZM190.476 141.62L192.459 142.022C192.234 142.515 192.003 142.997 191.766 143.466C191.541 143.924 191.334 144.321 191.144 144.658L189.521 144.254C189.687 143.881 189.864 143.448 190.053 142.955C190.242 142.462 190.383 142.017 190.476 141.62ZM177.894 138.839L184.374 138.797L184.387 140.759L177.907 140.801L177.894 138.839ZM179.944 144.118L184.138 144.091L184.192 152.461L179.998 152.488L179.986 150.634L182.362 150.618L182.332 145.956L179.956 145.972L179.944 144.118ZM179.755 139.871L181.773 140.164C181.613 141.461 181.393 142.734 181.113 143.984C180.833 145.222 180.475 146.388 180.038 147.483C179.613 148.566 179.103 149.517 178.508 150.337C178.447 150.169 178.343 149.954 178.198 149.691C178.064 149.428 177.918 149.165 177.761 148.902C177.615 148.639 177.476 148.43 177.343 148.274C177.806 147.611 178.191 146.835 178.498 145.945C178.816 145.055 179.074 144.093 179.271 143.06C179.481 142.027 179.642 140.964 179.755 139.871ZM179.098 144.123L180.844 144.112L180.907 153.886L179.161 153.897L179.098 144.123ZM205.796 139.038L207.74 139.026C207.661 139.746 207.539 140.473 207.376 141.206C207.225 141.927 206.989 142.625 206.669 143.299C206.35 143.961 205.922 144.588 205.385 145.179C204.861 145.758 204.18 146.267 203.343 146.704C203.234 146.453 203.058 146.178 202.816 145.88C202.574 145.581 202.344 145.349 202.127 145.182C202.845 144.829 203.431 144.418 203.884 143.947C204.337 143.476 204.693 142.969 204.954 142.428C205.214 141.886 205.403 141.327 205.519 140.75C205.647 140.173 205.74 139.603 205.796 139.038ZM202.702 142.136L203.7 140.636C204.301 140.8 204.915 141.012 205.54 141.272C206.178 141.532 206.78 141.804 207.346 142.088C207.924 142.373 208.411 142.64 208.809 142.889L207.794 144.57C207.408 144.284 206.926 143.993 206.348 143.697C205.782 143.389 205.18 143.098 204.542 142.826C203.917 142.542 203.303 142.312 202.702 142.136ZM209.913 138.256L211.929 138.243C211.929 138.243 211.93 138.297 211.93 138.405C211.931 138.501 211.926 138.615 211.914 138.747C211.915 138.867 211.91 138.963 211.898 139.035C211.859 140.404 211.806 141.526 211.74 142.402C211.673 143.267 211.588 143.939 211.483 144.42C211.39 144.889 211.266 145.22 211.111 145.413C210.933 145.642 210.748 145.805 210.556 145.902C210.377 145.999 210.161 146.067 209.909 146.104C209.694 146.154 209.412 146.185 209.064 146.2C208.716 146.202 208.344 146.198 207.948 146.189C207.934 145.889 207.872 145.559 207.762 145.2C207.663 144.829 207.541 144.511 207.396 144.248C207.708 144.282 207.99 144.304 208.242 144.315C208.494 144.313 208.692 144.312 208.836 144.311C209.064 144.322 209.244 144.248 209.375 144.092C209.458 143.971 209.534 143.725 209.604 143.352C209.673 142.968 209.73 142.391 209.773 141.623C209.828 140.855 209.875 139.84 209.915 138.58L209.913 138.256ZM204.72 148.009L206.699 147.997L206.725 151.921C206.726 152.173 206.751 152.335 206.8 152.406C206.848 152.466 206.956 152.495 207.124 152.494C207.16 152.494 207.22 152.494 207.304 152.493C207.388 152.492 207.478 152.492 207.574 152.491C207.67 152.491 207.76 152.49 207.844 152.49C207.94 152.489 208.006 152.488 208.042 152.488C208.162 152.487 208.252 152.445 208.311 152.361C208.371 152.276 208.418 152.102 208.452 151.838C208.486 151.561 208.508 151.147 208.516 150.595C208.637 150.69 208.799 150.791 209.004 150.898C209.221 150.993 209.437 151.081 209.654 151.164C209.882 151.234 210.087 151.299 210.267 151.358C210.212 152.138 210.108 152.745 209.955 153.178C209.813 153.623 209.605 153.924 209.33 154.082C209.067 154.252 208.72 154.338 208.288 154.341C208.204 154.341 208.09 154.342 207.946 154.343C207.814 154.344 207.676 154.345 207.532 154.346C207.388 154.346 207.25 154.347 207.118 154.348C206.986 154.349 206.878 154.35 206.794 154.35C206.242 154.354 205.816 154.279 205.515 154.124C205.226 153.982 205.026 153.738 204.916 153.39C204.806 153.043 204.749 152.569 204.745 151.969L204.72 148.009ZM202.888 148.723L204.601 149.162C204.556 149.69 204.482 150.225 204.377 150.766C204.273 151.306 204.132 151.817 203.955 152.298C203.778 152.768 203.541 153.183 203.243 153.545L201.653 152.601C201.903 152.287 202.11 151.926 202.276 151.517C202.441 151.096 202.57 150.645 202.663 150.165C202.768 149.684 202.843 149.203 202.888 148.723ZM205.126 146.765L206.359 145.497C206.745 145.686 207.142 145.912 207.552 146.173C207.961 146.423 208.347 146.69 208.709 146.976C209.083 147.25 209.384 147.512 209.614 147.762L208.273 149.175C208.067 148.912 207.79 148.638 207.44 148.352C207.102 148.066 206.728 147.787 206.318 147.513C205.909 147.228 205.511 146.978 205.126 146.765ZM209.1 148.971L210.841 148.258C211.168 148.712 211.465 149.202 211.733 149.729C212 150.255 212.231 150.781 212.427 151.308C212.622 151.823 212.763 152.29 212.85 152.71L210.947 153.514C210.896 153.082 210.779 152.609 210.596 152.094C210.412 151.567 210.193 151.028 209.937 150.478C209.682 149.928 209.403 149.426 209.1 148.971ZM202.929 138.301L210.831 138.25L210.843 140.05L202.941 140.101L202.929 138.301ZM196.408 143.166L201.682 143.133L201.693 144.771L196.419 144.804L196.408 143.166ZM196.449 138.216L201.615 138.183L201.625 139.803L196.459 139.836L196.449 138.216ZM196.424 145.632L201.698 145.599L201.708 147.219L196.435 147.252L196.424 145.632ZM195.582 140.634L202.152 140.592L202.163 142.302L195.593 142.344L195.582 140.634ZM197.376 148.11L201.75 148.082L201.785 153.572L197.411 153.6L197.4 151.89L199.974 151.874L199.961 149.804L197.387 149.82L197.376 148.11ZM196.404 148.117L198.186 148.105L198.226 154.297L196.444 154.308L196.404 148.117Z" fill="white"/>
<path d="M228.332 120.821C229.077 121.595 229.077 122.82 228.332 123.594L221.858 130.323C220.609 131.62 218.417 130.736 218.417 128.936L218.417 115.479C218.417 113.679 220.609 112.795 221.858 114.092L228.332 120.821Z" fill="#4FA668"/>
</g>
<rect x="132.9" y="8.9" width="70.2" height="70.2" rx="35.1" fill="white"/>
<rect x="132.9" y="8.9" width="70.2" height="70.2" rx="35.1" stroke="#4FA668" stroke-width="1.8"/>
<path d="M183.754 33.8631H149.989C148.375 33.8631 147.066 35.1723 147.066 36.7868C147.066 44.6738 147.066 52.5992 147.066 56.5884C147.066 58.2029 148.375 59.5098 149.989 59.5098C161.244 59.5098 172.499 59.5098 183.754 59.5098C185.369 59.5098 186.678 58.2009 186.678 56.5864V36.7861C186.678 35.1716 185.369 33.8628 183.754 33.8628V33.8631Z" fill="white"/>
<path d="M186.678 37.7446V41.7058H147.066V37.7446H186.678Z" fill="#4FA668"/>
<path d="M183.754 33.2031H156.321C154.253 33.2031 152.184 33.1965 150.116 33.2031C149.471 33.2051 148.847 33.3319 148.275 33.6398C147.663 33.9686 147.136 34.5027 146.818 35.1203C146.434 35.865 146.406 36.619 146.406 37.4399C146.406 41.2697 146.406 45.0999 146.406 48.9297C146.406 50.5006 146.406 52.0715 146.406 53.6421C146.406 54.2838 146.406 54.9252 146.406 55.5669C146.406 56.1879 146.364 56.8249 146.507 57.4343C146.836 58.8389 148.052 59.9256 149.473 60.1269C150.419 60.2609 151.423 60.1701 152.377 60.1701C153.393 60.1701 154.409 60.1701 155.424 60.1701C163.55 60.1701 171.676 60.1701 179.801 60.1701C180.817 60.1701 181.833 60.1701 182.848 60.1701C183.696 60.1701 184.489 60.1857 185.275 59.8288C186.538 59.2548 187.314 57.9535 187.338 56.585C187.351 55.8277 187.338 55.0692 187.338 54.3119V38.3461C187.338 37.3554 187.439 36.2952 187.039 35.3656C186.471 34.0502 185.175 33.2305 183.754 33.2031C182.904 33.1866 182.904 34.507 183.754 34.5235C185.005 34.5476 185.997 35.533 186.018 36.7867C186.021 36.9715 186.018 37.1564 186.018 37.3412V55.9871C186.018 56.1865 186.021 56.3859 186.018 56.5853C185.998 57.7238 185.143 58.7369 183.983 58.8415C183.043 58.9263 182.063 58.8504 181.119 58.8504C180.131 58.8504 179.142 58.8504 178.154 58.8504C176.178 58.8504 174.201 58.8504 172.225 58.8504C168.299 58.8504 164.374 58.8504 160.448 58.8504C158.499 58.8504 156.55 58.8504 154.601 58.8504C153.613 58.8504 152.625 58.8504 151.637 58.8504C150.848 58.8504 149.933 58.9894 149.179 58.7039C148.632 58.4969 148.181 58.0694 147.933 57.5413C147.688 57.0171 147.726 56.4566 147.726 55.8937C147.726 54.5895 147.726 53.2856 147.726 51.9814C147.726 48.5385 147.726 45.0956 147.726 41.6526C147.726 40.6831 147.726 39.7137 147.726 38.7442C147.726 38.2549 147.726 37.7661 147.726 37.2769C147.726 36.9055 147.708 36.5464 147.807 36.1856C148.08 35.1943 148.984 34.5394 149.999 34.5235C151.662 34.4978 153.327 34.5235 154.989 34.5235H183.754C184.604 34.5235 184.605 33.2031 183.754 33.2031Z" fill="#333333"/>
<path d="M151.468 45.8003C151.468 48.6728 151.468 51.5585 151.468 51.5965C153.4 51.5965 155.332 51.5965 157.264 51.5965C157.264 50.9551 157.264 48.3628 157.264 45.8003H151.468Z" fill="#4FA668"/>
<path d="M150.807 45.8008C150.807 47.7329 150.807 49.6649 150.807 51.597C150.807 51.9538 151.11 52.2572 151.468 52.2572C153.4 52.2572 155.332 52.2572 157.264 52.2572C157.621 52.2572 157.924 51.9548 157.924 51.597C157.924 49.6649 157.924 47.7329 157.924 45.8008C157.924 45.444 157.622 45.1406 157.264 45.1406H151.468C150.618 45.1406 150.617 46.461 151.468 46.461H157.264L156.604 45.8008C156.604 47.7329 156.604 49.6649 156.604 51.597L157.264 50.9368C155.332 50.9368 153.4 50.9368 151.468 50.9368L152.128 51.597C152.128 49.6649 152.128 47.7329 152.128 45.8008C152.128 44.9511 150.807 44.9498 150.807 45.8008Z" fill="#333333"/>
<path d="M147.856 42.3653H186.677C187.527 42.3653 187.528 41.0449 186.677 41.0449H147.856C147.006 41.0449 147.005 42.3653 147.856 42.3653Z" fill="#333333"/>
<path d="M147.856 38.4039H186.677C187.527 38.4039 187.528 37.0835 186.677 37.0835H147.856C147.006 37.0835 147.005 38.4039 147.856 38.4039Z" fill="#333333"/>
<path d="M168.102 54.6036C172.76 54.6036 177.418 54.6036 182.076 54.6036C182.926 54.6036 182.927 53.2832 182.076 53.2832C177.418 53.2832 172.76 53.2832 168.102 53.2832C167.252 53.2832 167.251 54.6036 168.102 54.6036Z" fill="#333333"/>
<rect x="154" width="28" height="28" rx="14" fill="#4FA668"/>
<path d="M163.912 20.2225C163.212 20.2269 162.595 20.0302 162.06 19.6323C161.535 19.225 161.12 18.6209 160.816 17.8202C160.522 17.0101 160.371 16.0077 160.363 14.813C160.356 13.6277 160.494 12.6422 160.778 11.8563C161.072 11.0611 161.479 10.4658 161.999 10.0705C162.528 9.6751 163.143 9.47517 163.843 9.47069C164.552 9.46616 165.17 9.66288 165.695 10.0609C166.22 10.4495 166.63 11.0349 166.924 11.817C167.228 12.5991 167.384 13.5828 167.391 14.7681C167.399 15.9628 167.256 16.967 166.962 17.7809C166.678 18.5854 166.276 19.1947 165.756 19.6087C165.236 20.0133 164.621 20.2179 163.912 20.2225ZM163.902 18.6125C164.21 18.6105 164.48 18.4921 164.711 18.2573C164.943 18.0225 165.123 17.6293 165.25 17.0779C165.377 16.517 165.437 15.7513 165.431 14.7807C165.425 13.8193 165.355 13.0684 165.221 12.528C165.087 11.9781 164.902 11.5966 164.667 11.3835C164.433 11.161 164.161 11.0507 163.853 11.0527C163.564 11.0545 163.299 11.1682 163.057 11.3938C162.825 11.6099 162.641 11.9938 162.505 12.5453C162.368 13.0875 162.303 13.8393 162.309 14.8006C162.315 15.7713 162.39 16.5361 162.534 17.0952C162.677 17.645 162.867 18.0358 163.101 18.2676C163.346 18.4994 163.612 18.6144 163.902 18.6125ZM168.64 19.9962L168.633 18.8063C169.57 17.9603 170.368 17.1758 171.026 16.4529C171.693 15.73 172.202 15.0594 172.553 14.4411C172.904 13.8135 173.077 13.2338 173.074 12.7018C173.072 12.3658 173.009 12.0722 172.886 11.8209C172.763 11.5697 172.585 11.3795 172.351 11.2504C172.126 11.1118 171.845 11.0436 171.509 11.0457C171.136 11.0481 170.791 11.1577 170.475 11.3743C170.169 11.5816 169.886 11.8308 169.626 12.1218L168.471 11.0231C168.953 10.4974 169.445 10.1022 169.947 9.83769C170.459 9.56374 171.065 9.42454 171.765 9.42006C172.418 9.41589 172.988 9.54758 173.475 9.81514C173.972 10.0733 174.357 10.4395 174.63 10.9138C174.904 11.388 175.043 11.9472 175.047 12.5911C175.051 13.2165 174.897 13.8568 174.583 14.5122C174.28 15.1581 173.868 15.8047 173.35 16.4521C172.831 17.0994 172.257 17.7378 171.626 18.3671C171.896 18.3281 172.186 18.2982 172.493 18.2776C172.811 18.2476 173.09 18.2318 173.333 18.2302L175.573 18.2159L175.584 19.9519L168.64 19.9962Z" fill="white"/>
<g filter="url(#filter2_d_119_1639)">
<rect y="43" width="110.667" height="158.243" rx="4" fill="#42B96F" shape-rendering="crispEdges"/>
<rect x="8" y="94.0962" width="94.6667" height="48.4465" rx="4" fill="#FFDA03"/>
<path d="M31.4651 114.472L31.4553 112.942C32.6604 111.854 33.686 110.846 34.5321 109.916C35.3901 108.987 36.0446 108.124 36.4956 107.329C36.9464 106.523 37.1697 105.777 37.1653 105.093C37.1625 104.661 37.0821 104.284 36.924 103.961C36.766 103.638 36.5364 103.393 36.2353 103.227C35.9462 103.049 35.5856 102.961 35.1536 102.964C34.6736 102.967 34.2305 103.108 33.8243 103.386C33.43 103.653 33.066 103.973 32.7324 104.347L31.2474 102.935C31.8671 102.259 32.4998 101.751 33.1457 101.411C33.8034 101.059 34.5823 100.88 35.4823 100.874C36.3223 100.868 37.0554 101.038 37.6816 101.382C38.3197 101.714 38.8147 102.185 39.1666 102.794C39.5185 103.404 39.6971 104.123 39.7024 104.951C39.7076 105.755 39.5088 106.578 39.1062 107.421C38.7155 108.251 38.1868 109.083 37.5201 109.915C36.8534 110.747 36.1146 111.568 35.3038 112.377C35.6515 112.327 36.0233 112.289 36.4191 112.262C36.8269 112.223 37.1867 112.203 37.4987 112.201L40.3787 112.183L40.3929 114.415L31.4651 114.472ZM47.374 114.37L47.3216 106.18C47.3192 105.796 47.3283 105.34 47.3489 104.812C47.3694 104.272 47.3904 103.804 47.4119 103.408L47.3219 103.408C47.1682 103.769 47.0025 104.13 46.8248 104.491C46.6471 104.853 46.4635 105.22 46.2739 105.593L44.2251 108.918L51.3889 108.872L51.4018 110.888L41.664 110.951L41.6525 109.151L46.5687 101.037L49.7547 101.017L49.8399 114.354L47.374 114.37ZM57.8505 103.901L65.0183 103.855L65.0276 105.311L57.8598 105.357L57.8505 103.901ZM57.4057 106.592L65.4415 106.54L65.4509 108.01L57.415 108.062L57.4057 106.592ZM57.4507 109.252L65.3605 109.201L65.3699 110.671L57.46 110.722L57.4507 109.252ZM60.5427 102.372L62.2087 102.361L62.2416 107.513L60.5757 107.524L60.5427 102.372ZM62.3565 107.96L64.0085 107.95L64.0455 113.746C64.0481 114.147 63.9987 114.46 63.8975 114.684C63.7963 114.918 63.6108 115.102 63.341 115.234C63.0711 115.357 62.7403 115.434 62.3485 115.464C61.966 115.504 61.5135 115.526 60.9908 115.529C60.952 115.296 60.8803 115.026 60.7757 114.718C60.6711 114.42 60.5621 114.164 60.4487 113.951C60.7941 113.958 61.1302 113.965 61.4569 113.972C61.7836 113.97 62.0029 113.969 62.1149 113.968C62.2176 113.967 62.2875 113.953 62.3246 113.925C62.371 113.887 62.3939 113.817 62.3933 113.714L62.3565 107.96ZM58.0261 111.67L59.3512 110.891C59.5765 111.105 59.8021 111.346 60.0278 111.615C60.2535 111.884 60.4606 112.154 60.649 112.423C60.8374 112.693 60.9836 112.939 61.0877 113.162L59.6372 114.026C59.5611 113.802 59.4335 113.556 59.2545 113.286C59.0754 113.007 58.8776 112.729 58.6611 112.45C58.4539 112.162 58.2423 111.902 58.0261 111.67ZM53.5345 103.298L57.1324 103.276L57.1937 112.851L53.5957 112.874L53.5862 111.376L55.6301 111.363L55.5881 104.783L53.5441 104.796L53.5345 103.298ZM53.6439 107.274L56.3599 107.257L56.3693 108.726L53.6533 108.744L53.6439 107.274ZM52.7365 103.304L54.2905 103.294L54.3597 114.115L52.8057 114.125L52.7365 103.304ZM70.9853 110.873L74.8072 110.849L74.8148 112.039L70.9929 112.063L70.9853 110.873ZM70.874 108.788L75.5919 108.758L75.6263 114.148L70.9084 114.178L70.9004 112.932L74.0364 112.912L74.0179 110.014L70.8819 110.034L70.874 108.788ZM70.174 108.792L71.6999 108.783L71.739 114.886L70.213 114.896L70.174 108.792ZM67.8106 104.831L71.3105 104.809L71.3178 105.943L67.8179 105.965L67.8106 104.831ZM74.3065 104.79L77.8344 104.767L77.8417 105.901L74.3137 105.924L74.3065 104.79ZM77.136 102.826L78.8299 102.815L78.8979 113.441C78.9007 113.889 78.8517 114.244 78.7507 114.506C78.6497 114.768 78.4596 114.969 78.1805 115.111C77.8921 115.253 77.538 115.344 77.1182 115.384C76.7078 115.424 76.1993 115.446 75.5926 115.45C75.5729 115.282 75.5344 115.095 75.4771 114.89C75.4197 114.686 75.3531 114.476 75.277 114.262C75.2011 114.057 75.1206 113.88 75.0356 113.731C75.2878 113.748 75.5352 113.761 75.7779 113.769C76.0299 113.767 76.2539 113.766 76.4499 113.764C76.6552 113.754 76.7951 113.748 76.8698 113.748C77.0004 113.747 77.089 113.723 77.1353 113.676C77.1817 113.629 77.2045 113.545 77.2037 113.423L77.136 102.826ZM67.9242 102.885L72.3621 102.856L72.3946 107.938L67.9567 107.966L67.949 106.762L70.8049 106.744L70.7879 104.084L67.932 104.102L67.9242 102.885ZM78.032 102.82L78.0397 104.038L74.9038 104.058L74.921 106.746L78.0569 106.726L78.0646 107.93L73.3327 107.96L73.3001 102.85L78.032 102.82ZM66.9582 102.891L68.6242 102.88L68.7048 115.494L67.0388 115.504L66.9582 102.891ZM25.7982 136.76C25.1022 136.765 24.4777 136.685 23.9247 136.52C23.3717 136.368 22.8783 136.155 22.4445 135.882C22.0227 135.597 21.6547 135.281 21.3405 134.935L22.5717 133.253C22.9821 133.622 23.4282 133.944 23.9099 134.216C24.4036 134.477 24.9504 134.606 25.5504 134.602C26.0064 134.599 26.402 134.525 26.737 134.378C27.0841 134.232 27.3468 134.021 27.525 133.743C27.7152 133.466 27.8091 133.13 27.8065 132.734C27.8037 132.29 27.6933 131.912 27.4753 131.602C27.2692 131.279 26.9017 131.035 26.3726 130.871C25.8435 130.706 25.099 130.627 24.139 130.633L24.1268 128.725C24.9428 128.72 25.5843 128.632 26.0512 128.461C26.518 128.278 26.8465 128.036 27.0366 127.734C27.2386 127.421 27.3383 127.066 27.3358 126.67C27.3325 126.154 27.1739 125.753 26.8601 125.467C26.5462 125.169 26.1072 125.022 25.5432 125.026C25.0752 125.029 24.6379 125.14 24.2313 125.358C23.8366 125.565 23.4424 125.849 23.0488 126.212L21.6703 124.583C22.2552 124.087 22.8707 123.693 23.5168 123.401C24.1629 123.097 24.8759 122.942 25.6559 122.937C26.5079 122.932 27.2587 123.065 27.9085 123.337C28.5702 123.608 29.0828 124.007 29.4462 124.533C29.8095 125.059 29.9936 125.699 29.9985 126.455C30.0031 127.175 29.815 127.795 29.4343 128.313C29.0536 128.831 28.5102 129.231 27.8039 129.511L27.8045 129.601C28.2974 129.73 28.7427 129.943 29.1406 130.241C29.5505 130.526 29.8708 130.89 30.1016 131.333C30.3445 131.775 30.4678 132.291 30.4715 132.879C30.4767 133.682 30.2651 134.374 29.8368 134.953C29.4204 135.531 28.8533 135.979 28.1353 136.296C27.4292 136.6 26.6502 136.755 25.7982 136.76ZM37.1892 136.688C36.5652 136.692 35.9584 136.564 35.3687 136.303C34.791 136.043 34.2785 135.644 33.831 135.107C33.3835 134.558 33.0251 133.864 32.7557 133.026C32.4983 132.176 32.3658 131.162 32.3583 129.986C32.3504 128.75 32.4815 127.682 32.7518 126.78C33.034 125.878 33.4133 125.144 33.8897 124.576C34.366 123.997 34.9093 123.568 35.5195 123.288C36.1417 123.008 36.7948 122.866 37.4788 122.862C38.2948 122.856 38.9978 123.002 39.5877 123.298C40.1895 123.582 40.6897 123.933 41.0884 124.35L39.6946 125.943C39.4649 125.681 39.1634 125.455 38.7902 125.265C38.417 125.076 38.0384 124.982 37.6544 124.984C37.1144 124.988 36.6234 125.147 36.1814 125.462C35.7514 125.777 35.4067 126.295 35.1473 127.017C34.8879 127.738 34.7622 128.723 34.7702 129.971C34.7776 131.123 34.8855 132.046 35.0939 132.741C35.3143 133.424 35.5995 133.92 35.9495 134.23C36.2994 134.539 36.6904 134.693 37.1224 134.69C37.4584 134.688 37.7578 134.596 38.0207 134.414C38.2954 134.221 38.5157 133.943 38.6814 133.582C38.847 133.209 38.9281 132.752 38.9246 132.212C38.9212 131.684 38.8345 131.253 38.6643 130.918C38.5062 130.583 38.2826 130.333 37.9935 130.166C37.7165 130 37.3859 129.918 37.0019 129.921C36.6419 129.923 36.2647 130.039 35.8701 130.27C35.4755 130.488 35.112 130.875 34.7795 131.429L34.6421 129.648C34.88 129.31 35.1601 129.02 35.4826 128.778C35.8171 128.536 36.1579 128.354 36.5051 128.232C36.8644 128.11 37.188 128.047 37.476 128.046C38.2199 128.041 38.8809 128.187 39.4588 128.483C40.0487 128.779 40.5076 129.232 40.8355 129.842C41.1634 130.452 41.3304 131.237 41.3366 132.197C41.3424 133.109 41.1555 133.902 40.7758 134.577C40.408 135.239 39.9073 135.758 39.2737 136.134C38.64 136.498 37.9452 136.683 37.1892 136.688ZM47.1042 136.624C46.3962 136.629 45.7657 136.549 45.2126 136.384C44.6595 136.22 44.1661 136.001 43.7324 135.728C43.2986 135.455 42.9127 135.157 42.5746 134.835L43.7878 133.135C44.0414 133.386 44.3129 133.612 44.6022 133.814C44.9035 134.016 45.2285 134.176 45.5772 134.294C45.938 134.412 46.3224 134.469 46.7304 134.467C47.1864 134.464 47.5877 134.365 47.9345 134.171C48.2933 133.977 48.5735 133.699 48.7752 133.338C48.9768 132.964 49.076 132.52 49.0727 132.004C49.0678 131.236 48.854 130.643 48.4313 130.226C48.0206 129.808 47.4793 129.602 46.8073 129.606C46.4233 129.608 46.0937 129.665 45.8184 129.774C45.543 129.872 45.2081 130.048 44.8137 130.303L43.6028 129.537L43.9214 123.054L51.0492 123.009L51.0635 125.241L46.2216 125.272L45.9877 128.099C46.2509 127.978 46.5083 127.886 46.7599 127.824C47.0115 127.763 47.2873 127.731 47.5873 127.729C48.3313 127.724 49.0163 127.87 49.6422 128.166C50.268 128.45 50.7689 128.903 51.1449 129.524C51.5209 130.146 51.712 130.943 51.7182 131.915C51.7245 132.899 51.5079 133.746 51.0684 134.457C50.6409 135.156 50.0743 135.693 49.3687 136.07C48.675 136.434 47.9202 136.619 47.1042 136.624ZM54.819 125.277L64.5908 125.214L64.6682 137.324L62.8622 137.336L62.7957 126.92L56.5518 126.96L56.6185 137.403L54.8966 137.414L54.819 125.277ZM56.025 129.973L63.5569 129.925L63.5674 131.577L56.0356 131.625L56.025 129.973ZM56.0558 134.789L63.6017 134.741L63.6125 136.435L56.0666 136.483L56.0558 134.789ZM72.8947 136.431C71.8493 136.438 70.9251 136.199 70.122 135.713C69.3295 135.217 68.7063 134.506 68.2523 133.581C67.7984 132.656 67.5673 131.548 67.5591 130.257C67.5509 128.977 67.7679 127.883 68.2101 126.973C68.6523 126.064 69.2665 125.366 70.0528 124.881C70.8497 124.396 71.7708 124.15 72.8161 124.144C73.8721 124.137 74.7963 124.376 75.5888 124.862C76.3811 125.337 77.0042 126.026 77.458 126.93C77.9117 127.823 78.1427 128.91 78.1509 130.19C78.1591 131.48 77.9422 132.591 77.5002 133.522C77.0581 134.453 76.444 135.171 75.6579 135.678C74.8717 136.173 73.9506 136.425 72.8947 136.431ZM72.8816 134.383C73.4682 134.38 73.9738 134.206 74.3983 133.862C74.8334 133.518 75.1663 133.036 75.397 132.415C75.6277 131.785 75.7403 131.048 75.7349 130.205C75.7295 129.363 75.6076 128.643 75.3691 128.047C75.1306 127.441 74.7916 126.979 74.3522 126.662C73.9235 126.334 73.4158 126.172 72.8291 126.176C72.2424 126.179 71.7315 126.348 71.2963 126.681C70.8717 127.004 70.544 127.47 70.3132 128.08C70.093 128.679 69.9856 129.399 69.991 130.242C69.9964 131.085 70.1131 131.82 70.3411 132.448C70.5798 133.065 70.9135 133.543 71.3423 133.881C71.7818 134.22 72.2949 134.387 72.8816 134.383ZM80.5016 136.159L80.4258 124.303L82.7937 124.288L82.8267 129.44L82.8747 129.44L86.7617 124.263L89.3696 124.246L85.7835 128.941L90.0854 136.098L87.4934 136.114L84.3874 130.806L82.8482 132.816L82.8695 136.144L80.5016 136.159Z" fill="#333333"/>
<path d="M27.1365 155.409C27.1251 155.505 27.108 155.655 27.0853 155.859C27.0626 156.051 27.0398 156.249 27.0171 156.454C27.0064 156.646 26.9955 156.82 26.9845 156.976C26.9627 157.324 26.9411 157.708 26.9198 158.128C26.9104 158.536 26.9012 158.962 26.892 159.406C26.8828 159.838 26.8736 160.277 26.8644 160.721C26.8672 161.165 26.87 161.597 26.8727 162.017C26.8758 162.509 26.8853 163.055 26.9011 163.654C26.9169 164.242 26.9327 164.83 26.9484 165.418C26.9761 165.994 26.9915 166.522 26.9945 167.002C27.0096 167.482 27.018 167.854 27.0197 168.118C27.0244 168.862 26.9441 169.438 26.7787 169.847C26.6253 170.256 26.3991 170.54 26.1001 170.698C25.8012 170.868 25.4538 170.954 25.0578 170.956C24.6258 170.959 24.1632 170.872 23.6701 170.695C23.177 170.53 22.7135 170.293 22.2795 169.984C21.8575 169.675 21.5072 169.317 21.2286 168.911C20.9619 168.493 20.8271 168.043 20.824 167.563C20.8203 166.987 21.0327 166.416 21.4611 165.849C21.9014 165.27 22.48 164.739 23.1969 164.254C23.9258 163.769 24.7094 163.38 25.5475 163.087C26.3496 162.782 27.1762 162.561 28.0273 162.423C28.8784 162.274 29.6459 162.197 30.3299 162.193C31.2539 162.187 32.0888 162.337 32.8348 162.645C33.5807 162.94 34.1775 163.38 34.6253 163.965C35.073 164.55 35.2996 165.257 35.3049 166.085C35.3093 166.781 35.1814 167.424 34.9212 168.013C34.6609 168.603 34.2382 169.116 33.653 169.551C33.0797 169.975 32.3138 170.31 31.3553 170.556C30.9479 170.643 30.5403 170.705 30.1325 170.744C29.7368 170.794 29.3591 170.833 28.9992 170.859L28.1564 168.543C28.5644 168.54 28.9544 168.531 29.3263 168.517C29.7101 168.491 30.0579 168.452 30.3696 168.402C30.8609 168.303 31.304 168.156 31.6988 167.962C32.0935 167.767 32.4039 167.513 32.6299 167.2C32.8559 166.886 32.9675 166.514 32.9648 166.082C32.9622 165.674 32.846 165.326 32.6161 165.04C32.3983 164.753 32.0909 164.533 31.6939 164.38C31.2969 164.226 30.8344 164.151 30.3064 164.155C29.5504 164.16 28.7829 164.242 28.004 164.403C27.237 164.564 26.5004 164.785 25.7941 165.066C25.2675 165.273 24.795 165.516 24.3768 165.795C23.9585 166.061 23.6302 166.339 23.3921 166.629C23.1539 166.918 23.0357 167.195 23.0374 167.459C23.0383 167.603 23.0812 167.741 23.166 167.872C23.2628 167.992 23.3835 168.099 23.5281 168.194C23.6727 168.289 23.8172 168.366 23.9616 168.425C24.1179 168.472 24.25 168.495 24.358 168.495C24.526 168.494 24.6637 168.445 24.7711 168.348C24.8784 168.239 24.9311 168.035 24.9292 167.735C24.9271 167.411 24.9122 166.949 24.8843 166.349C24.8684 165.737 24.8461 165.06 24.8173 164.316C24.8006 163.572 24.7899 162.834 24.7852 162.102C24.782 161.598 24.7787 161.088 24.7754 160.572C24.7841 160.056 24.787 159.564 24.784 159.096C24.781 158.628 24.7783 158.214 24.776 157.854C24.7857 157.494 24.7899 157.212 24.7886 157.008C24.7878 156.876 24.7807 156.708 24.7674 156.504C24.7541 156.3 24.7348 156.096 24.7095 155.892C24.6961 155.676 24.6771 155.52 24.6525 155.425L27.1365 155.409ZM32.2788 157.32C32.7361 157.533 33.2478 157.794 33.8138 158.102C34.3918 158.41 34.9398 158.719 35.4577 159.028C35.9877 159.324 36.4094 159.592 36.7229 159.83L35.6547 161.672C35.4254 161.482 35.1241 161.268 34.7505 161.03C34.389 160.793 33.9914 160.549 33.5578 160.3C33.1362 160.051 32.7268 159.819 32.3294 159.606C31.9319 159.38 31.5888 159.202 31.2999 159.072L32.2788 157.32ZM21.2513 158.38C21.7797 158.437 22.242 158.476 22.6381 158.498C23.0462 158.507 23.4122 158.511 23.7362 158.509C24.2042 158.506 24.7201 158.484 25.2838 158.445C25.8475 158.393 26.4231 158.329 27.0106 158.254C27.5981 158.166 28.1675 158.066 28.7188 157.955C29.2821 157.843 29.7913 157.72 30.2464 157.585L30.3147 159.817C29.8115 159.94 29.2662 160.051 28.6788 160.151C28.0913 160.239 27.4979 160.321 26.8983 160.396C26.3108 160.472 25.7472 160.53 25.2074 160.569C24.6796 160.609 24.2178 160.63 23.8218 160.632C23.2218 160.636 22.7298 160.633 22.3457 160.624C21.9616 160.614 21.6135 160.592 21.3012 160.558L21.2513 158.38ZM39.0453 157.061L53.643 156.967L53.7114 167.677L51.4615 167.692L51.4062 159.052L41.2184 159.117L41.2742 167.847L39.1143 167.86L39.0453 157.061ZM40.4921 160.94L52.4798 160.863L52.4926 162.861L40.5048 162.937L40.4921 160.94ZM40.4989 164.828L52.5407 164.751L52.5539 166.821L40.5122 166.898L40.4989 164.828ZM45.0957 154.61L47.3637 154.595L47.4717 171.497L45.2037 171.512L45.0957 154.61ZM62.5602 155.254L66.3761 155.23L66.3892 157.282L62.5733 157.306L62.5602 155.254ZM65.2781 155.237L67.5461 155.222C67.6263 156.506 67.7661 157.729 67.9655 158.892C68.165 160.055 68.4599 161.133 68.8502 162.126C69.2405 163.108 69.7501 163.975 70.3789 164.727C71.0077 165.479 71.7976 166.092 72.7487 166.565C72.5695 166.687 72.3725 166.844 72.1577 167.037C71.9549 167.231 71.7522 167.436 71.5496 167.653C71.3589 167.858 71.1982 168.051 71.0673 168.232C70.1036 167.662 69.2952 166.966 68.6419 166.142C67.9885 165.306 67.4545 164.367 67.0399 163.326C66.6372 162.284 66.324 161.164 66.1004 159.966C65.8887 158.767 65.7367 157.514 65.6443 156.207L65.2843 156.209L65.2781 155.237ZM65.2482 158.999L67.4641 159.291C67.0931 161.322 66.4984 163.095 65.6801 164.613C64.8617 166.13 63.7956 167.361 62.4816 168.305C62.3727 168.162 62.2156 167.989 62.0103 167.786C61.817 167.583 61.6057 167.381 61.3764 167.178C61.159 166.964 60.9659 166.797 60.7972 166.678C62.0523 165.914 63.0357 164.876 63.7473 163.563C64.4709 162.25 64.9712 160.729 65.2482 158.999ZM60.3143 161.533L60.3567 168.175L58.2508 168.188L58.2211 163.544L56.1331 163.558L56.1204 161.56L60.3143 161.533ZM60.3507 167.239C60.7265 167.824 61.2512 168.253 61.925 168.525C62.5987 168.796 63.4037 168.947 64.3399 168.977C64.8681 168.998 65.4922 169.012 66.2122 169.019C66.9442 169.015 67.7122 169.004 68.5161 168.987C69.32 168.969 70.1058 168.94 70.8736 168.9C71.6533 168.859 72.343 168.812 72.9427 168.76C72.8718 168.929 72.7892 169.145 72.6949 169.41C72.6006 169.674 72.5123 169.945 72.43 170.222C72.3598 170.498 72.3074 170.744 72.2728 170.961C71.733 171 71.1152 171.028 70.4193 171.044C69.7234 171.073 69.0095 171.089 68.2775 171.094C67.5456 171.111 66.8376 171.115 66.1536 171.108C65.4695 171.1 64.8574 171.086 64.3173 171.065C63.213 171.025 62.2699 170.857 61.488 170.562C60.7062 170.279 60.013 169.791 59.4086 169.099C59.0148 169.437 58.609 169.788 58.1913 170.151C57.7856 170.513 57.338 170.888 56.8485 171.275L55.7721 169.032C56.1905 168.777 56.6267 168.499 57.0808 168.196C57.5349 167.893 57.9709 167.578 58.3888 167.251L60.3507 167.239ZM56.1045 156.268L57.6982 154.961C58.0717 155.199 58.4515 155.479 58.8376 155.8C59.2236 156.11 59.5856 156.431 59.9238 156.765C60.2619 157.087 60.5338 157.385 60.7395 157.66L59.0388 159.111C58.8569 158.824 58.6029 158.514 58.2768 158.18C57.9627 157.846 57.6125 157.512 57.2264 157.178C56.8402 156.833 56.4662 156.529 56.1045 156.268ZM77.1278 156.079C77.3799 156.102 77.644 156.124 77.9202 156.146C78.2083 156.156 78.4483 156.161 78.6403 156.16C78.9043 156.158 79.2042 156.15 79.5402 156.136C79.8881 156.122 80.242 156.107 80.6019 156.093C80.9618 156.079 81.3037 156.059 81.6275 156.033C81.9514 156.006 82.2153 155.987 82.4192 155.973C82.6351 155.96 82.8509 155.929 83.0666 155.879C83.2943 155.83 83.4859 155.775 83.6415 155.714L85.0887 156.82C84.9696 156.965 84.8564 157.098 84.7492 157.219C84.6419 157.327 84.5527 157.448 84.4815 157.58C84.2796 157.918 84.0486 158.381 83.7884 158.971C83.5281 159.548 83.25 160.174 82.9544 160.848C82.6707 161.522 82.3928 162.178 82.1209 162.816C81.9435 163.225 81.7603 163.658 81.5712 164.115C81.3821 164.572 81.187 165.03 80.986 165.487C80.7848 165.932 80.5895 166.353 80.4 166.751C80.2105 167.136 80.0266 167.473 79.8485 167.762C79.4919 168.304 79.0925 168.709 78.6502 168.976C78.2078 169.231 77.6746 169.36 77.0507 169.364C76.2587 169.369 75.597 169.115 75.0658 168.603C74.5345 168.09 74.2659 167.378 74.2601 166.466C74.2555 165.746 74.4132 165.073 74.7332 164.447C75.0532 163.821 75.5057 163.278 76.0908 162.818C76.6878 162.346 77.3875 161.982 78.1899 161.725C78.9922 161.467 79.8734 161.336 80.8334 161.33C81.8774 161.323 82.8861 161.437 83.8596 161.67C84.8331 161.904 85.7411 162.204 86.5834 162.571C87.4378 162.938 88.2023 163.323 88.8769 163.726C89.5634 164.118 90.1477 164.474 90.6297 164.795L89.5837 167.304C89.0405 166.803 88.4314 166.321 87.7565 165.858C87.0815 165.394 86.3588 164.972 85.5883 164.593C84.8298 164.202 84.0178 163.895 83.1524 163.673C82.299 163.45 81.4103 163.342 80.4863 163.348C79.6103 163.354 78.8612 163.496 78.239 163.776C77.6287 164.056 77.163 164.407 76.8417 164.829C76.5203 165.239 76.361 165.666 76.3638 166.11C76.3657 166.398 76.4391 166.62 76.5841 166.775C76.7411 166.93 76.9216 167.007 77.1256 167.006C77.3176 167.004 77.4793 166.955 77.6107 166.858C77.742 166.762 77.891 166.599 78.0575 166.37C78.2122 166.153 78.3605 165.894 78.5026 165.593C78.6567 165.292 78.8106 164.961 78.9642 164.6C79.1299 164.239 79.2896 163.872 79.4432 163.499C79.6088 163.126 79.7685 162.765 79.9223 162.416C80.1352 161.934 80.354 161.435 80.5787 160.917C80.8034 160.388 81.0161 159.877 81.217 159.383C81.4298 158.89 81.625 158.457 81.8027 158.083C81.6227 158.097 81.4008 158.11 81.1369 158.124C80.8729 158.125 80.5909 158.133 80.291 158.147C80.0031 158.161 79.7152 158.181 79.4274 158.207C79.1515 158.22 78.9116 158.234 78.7076 158.247C78.5277 158.26 78.2938 158.28 78.006 158.306C77.7302 158.331 77.4784 158.363 77.2506 158.401L77.1278 156.079ZM89.0168 160.269C88.9529 161.542 88.8284 162.713 88.6432 163.782C88.47 164.839 88.1822 165.807 87.7798 166.685C87.3893 167.552 86.8483 168.341 86.1569 169.054C85.4653 169.754 84.5814 170.39 83.505 170.961L81.587 169.407C82.6879 168.92 83.5664 168.362 84.2224 167.734C84.8904 167.106 85.3902 166.449 85.7218 165.763C86.0654 165.076 86.3012 164.409 86.429 163.76C86.5568 163.099 86.637 162.505 86.6696 161.976C86.6914 161.628 86.7012 161.286 86.6991 160.95C86.6969 160.602 86.6829 160.29 86.6571 160.014L89.0168 160.269Z" fill="white"/>
<path d="M115.666 120.821C116.411 121.595 116.411 122.82 115.666 123.594L109.191 130.323C107.943 131.62 105.75 130.736 105.75 128.936L105.75 115.479C105.75 113.679 107.943 112.795 109.191 114.092L115.666 120.821Z" fill="#42B96F"/>
</g>
<rect x="20.0931" y="8.75974" width="70.4805" height="70.4805" rx="35.2403" fill="white"/>
<rect x="20.0931" y="8.75974" width="70.4805" height="70.4805" rx="35.2403" stroke="#42B96F" stroke-width="1.51948"/>
<path d="M37.3397 39.4355C37.3378 45.8275 37.3353 54.11 37.3334 60.5516C37.3332 60.8315 37.3882 61.1087 37.4953 61.3673C37.6024 61.6259 37.7594 61.8608 37.9574 62.0587C38.1553 62.2565 38.3904 62.4134 38.649 62.5203C38.9077 62.6272 39.1849 62.6821 39.4648 62.6818C46.8699 62.684 62.6378 62.6912 70.3812 62.6924C70.661 62.6926 70.938 62.6377 71.1965 62.5307C71.4551 62.4238 71.69 62.2669 71.8878 62.0691C72.0856 61.8713 72.2425 61.6364 72.3495 61.3779C72.4565 61.1194 72.5115 60.8424 72.5113 60.5626C72.5113 54.1229 72.5139 45.8413 72.5176 39.4478C72.518 39.168 72.4633 38.8909 72.3565 38.6324C72.2497 38.3738 72.0929 38.1389 71.8952 37.941C71.6975 37.743 71.4627 37.5861 71.2043 37.479C70.9458 37.3719 70.6688 37.3169 70.3891 37.317C63.895 37.3148 46.7071 37.3085 39.4717 37.3066C39.1918 37.3062 38.9147 37.3609 38.656 37.4677C38.3973 37.5745 38.1622 37.7312 37.9642 37.929C37.7662 38.1267 37.6091 38.3616 37.5019 38.6201C37.3948 38.8786 37.3396 39.1557 37.3397 39.4355Z" fill="white"/>
<path d="M37.3735 39.3447C37.3722 43.998 37.3708 48.6511 37.3692 53.304V56.8089C37.3692 57.8668 37.2824 58.9664 37.3789 60.0198C37.4224 60.5196 37.6041 60.9974 37.9037 61.3997C38.2034 61.8021 38.6091 62.1131 39.0755 62.2978C39.7958 62.584 40.6461 62.482 41.4078 62.4823L52.0473 62.486L63.8309 62.4905H68.788C69.6212 62.4905 70.4849 62.5773 71.2502 62.1818C71.6861 61.9462 72.0494 61.596 72.3007 61.169C72.552 60.7419 72.6818 60.2543 72.6762 59.7589C72.7148 55.0944 72.6762 50.4278 72.6789 45.7633L72.6807 42.3369V40.6665C72.7037 40.142 72.6982 39.6165 72.6643 39.0926C72.6123 38.594 72.4225 38.1198 72.1159 37.7231C71.8094 37.3265 71.3984 37.0231 70.929 36.8471C70.28 36.6036 69.5366 36.6812 68.8537 36.6812L59.3427 36.6782L48.1518 36.6751L43.1628 36.6736H41.0647C40.2896 36.6736 39.5121 36.6127 38.8 36.982C38.3727 37.2123 38.015 37.553 37.7641 37.9685C37.5132 38.3841 37.3783 38.8593 37.3735 39.3447C37.3537 40.1286 38.5714 40.1283 38.5912 39.3447C38.5948 38.9689 38.7423 38.6089 39.0033 38.3386C39.2643 38.0683 39.6189 37.9083 39.9943 37.8916C40.6087 37.8703 41.2276 37.8916 41.8425 37.8916H46.2991L56.8878 37.8953L66.7766 37.8986H68.683C69.241 37.8986 69.9269 37.7979 70.462 37.9702C70.806 38.0827 71.0955 38.3197 71.2737 38.6347C71.4479 39.0273 71.5134 39.4594 71.4633 39.8859C71.4633 40.9352 71.4628 41.9845 71.4618 43.0338C71.4594 47.5655 71.4579 52.0973 71.4575 56.629C71.4575 57.6723 71.4661 58.7159 71.4575 59.7589C71.4684 60.1445 71.3276 60.519 71.0654 60.8019C70.8031 61.0848 70.4403 61.2536 70.055 61.2719C68.5938 61.3212 67.1218 61.2719 65.6593 61.2719L54.6173 61.2682L43.7817 61.264H41.5682H40.5523C40.2124 61.2941 39.8698 61.2644 39.5401 61.1763C39.1842 61.0459 38.893 60.7821 38.7282 60.4408C38.5832 60.0283 38.5344 59.5882 38.5854 59.154V55.9803C38.5866 51.4493 38.5879 46.9186 38.5894 42.3881V39.3438C38.5915 38.5611 37.3738 38.5598 37.3735 39.3447Z" fill="#333333"/>
<path d="M40.0679 41.9331C43.7857 45.2239 47.5662 48.4424 51.4094 51.5885C51.8876 51.9794 52.3673 52.3688 52.8485 52.7569C53.2731 53.147 53.7272 53.5037 54.2067 53.8241C54.4497 53.9611 54.7204 54.0416 54.9988 54.0599C55.2772 54.0781 55.5561 54.0336 55.8149 53.9295C56.3569 53.7109 56.8197 53.2368 57.274 52.8769C59.3629 51.2235 61.4218 49.5328 63.4507 47.8049C65.7485 45.8572 68.0192 43.8794 70.2629 41.8714C70.8857 41.3161 69.9683 40.4041 69.3483 40.9565C65.5314 44.3588 61.6608 47.703 57.6763 50.9104C57.2387 51.2624 56.7998 51.6128 56.3598 51.9614C56.1218 52.1499 55.8851 52.3407 55.6438 52.5254C55.4942 52.68 55.2901 52.7701 55.075 52.7766C54.8638 52.7254 54.6726 52.6129 54.5252 52.4532C54.3079 52.2793 54.0907 52.1047 53.8736 51.9297C53.4306 51.5729 52.9886 51.2148 52.5477 50.8554C50.6798 49.3329 48.8279 47.7903 46.9919 46.2277C44.9716 44.5112 42.9684 42.7748 40.9824 41.0186C40.3612 40.4688 39.4431 41.3801 40.0679 41.9331Z" fill="#333333"/>
<path d="M59.8264 39.7339C59.8264 39.3882 59.8264 39.0747 59.8264 38.8082C61.0557 38.8082 63.0067 38.7926 64.264 38.7926C61.7702 36.1018 58.3337 32.6369 55.6332 29.7183C52.886 32.6279 49.5836 36.0516 46.9799 38.8127C48.2423 38.8092 50.221 38.8369 51.4393 38.8358C51.4365 42.3557 51.4462 42.0006 51.4462 44.9546C53.8961 44.9546 57.2258 44.9656 59.8119 44.9656C59.8101 43.9462 59.8236 42.4424 59.8264 39.7339Z" fill="#42B96F"/>
<path d="M60.5176 39.7336C60.5176 39.4247 60.5176 39.1162 60.5176 38.8078L59.8262 39.4992C61.3054 39.4992 62.7846 39.4843 64.2639 39.4836C64.3989 39.48 64.5301 39.4373 64.6414 39.3608C64.7527 39.2842 64.8395 39.177 64.8912 39.0522C64.9429 38.9273 64.9574 38.7902 64.9328 38.6573C64.9082 38.5244 64.8456 38.4015 64.7527 38.3034C61.9142 35.2424 58.9589 32.2919 56.1218 29.2291C55.9913 29.101 55.8157 29.0293 55.6328 29.0293C55.45 29.0293 55.2744 29.101 55.1439 29.2291C52.2715 32.2712 49.3625 35.2787 46.4909 38.3228C46.3977 38.4208 46.335 38.5438 46.3102 38.6768C46.2855 38.8098 46.2999 38.9471 46.3516 39.0721C46.4034 39.197 46.4902 39.3043 46.6017 39.3809C46.7132 39.4575 46.8445 39.5002 46.9797 39.5037C48.4662 39.5006 49.9526 39.5272 51.4391 39.5268L50.7477 38.8355C50.7477 40.875 50.7543 42.9146 50.7546 44.9542C50.7572 45.1367 50.8309 45.3111 50.96 45.4402C51.0891 45.5693 51.2635 45.643 51.446 45.6456C54.2343 45.6456 57.0227 45.6566 59.8117 45.6566C59.9943 45.654 60.1686 45.5804 60.2977 45.4513C60.4268 45.3221 60.5005 45.1478 60.5031 44.9652C60.5031 43.2219 60.5173 41.479 60.5193 39.7356C60.5193 38.8458 59.1366 38.8444 59.1366 39.7356C59.1345 41.479 59.1207 43.2219 59.1203 44.9652L59.8117 44.2739C57.0234 44.2739 54.235 44.2631 51.446 44.2628L52.1374 44.9542C52.1374 42.9146 52.1291 40.875 52.1305 38.8355C52.128 38.6529 52.0543 38.4785 51.9252 38.3493C51.7961 38.2202 51.6217 38.1466 51.4391 38.1441C49.9526 38.1441 48.4662 38.1178 46.9797 38.1209L47.4685 39.3011C50.3405 36.259 53.2491 33.2515 56.1218 30.2074H55.1439C57.9809 33.2702 60.9366 36.2224 63.7754 39.2821L64.2642 38.1016C62.785 38.1016 61.3058 38.1154 59.8266 38.1171C59.644 38.1198 59.4697 38.1935 59.3407 38.3226C59.2116 38.4517 59.1379 38.626 59.1352 38.8085C59.1352 39.1173 59.1352 39.4259 59.1352 39.7343C59.1338 40.6234 60.5166 40.6248 60.5176 39.7336Z" fill="#42B96F"/>
<rect x="41.3334" width="28" height="28" rx="14" fill="#42B96F"/>
<path d="M51.2453 20.2225C50.5453 20.2269 49.928 20.0302 49.3934 19.6323C48.8682 19.225 48.4536 18.6209 48.1498 17.8202C47.8553 17.0101 47.7042 16.0077 47.6966 14.813C47.689 13.6277 47.8274 12.6422 48.1117 11.8563C48.4053 11.0611 48.8122 10.4658 49.3323 10.0705C49.8618 9.6751 50.4766 9.47517 51.1765 9.47069C51.8859 9.46616 52.5031 9.66288 53.0283 10.0609C53.5535 10.4495 53.9633 11.0349 54.2576 11.817C54.5613 12.5991 54.7169 13.5828 54.7245 14.7681C54.7321 15.9628 54.5892 16.967 54.2957 17.7809C54.0115 18.5854 53.6094 19.1947 53.0894 19.6087C52.5693 20.0133 51.9546 20.2179 51.2453 20.2225ZM51.235 18.6125C51.543 18.6105 51.8129 18.4921 52.0447 18.2573C52.2766 18.0225 52.456 17.6293 52.5832 17.0779C52.7103 16.517 52.7707 15.7513 52.7645 14.7807C52.7584 13.8193 52.6882 13.0684 52.5541 12.528C52.4199 11.9781 52.2355 11.5966 52.0008 11.3835C51.766 11.161 51.4946 11.0507 51.1866 11.0527C50.8973 11.0545 50.632 11.1682 50.3908 11.3938C50.1589 11.6099 49.9746 11.9938 49.8382 12.5453C49.7016 13.0875 49.6364 13.8393 49.6426 14.8006C49.6488 15.7713 49.7237 16.5361 49.8672 17.0952C50.0108 17.645 50.1999 18.0358 50.4347 18.2676C50.6789 18.4994 50.9456 18.6144 51.235 18.6125ZM56.5197 19.9928L56.509 18.3128L58.7489 18.2985L58.7071 11.7606L56.8172 11.7727L56.8089 10.4847C57.331 10.388 57.7783 10.2732 58.1508 10.1401C58.5325 9.99769 58.8861 9.81809 59.2113 9.60134L60.7373 9.59159L60.7929 18.2854L62.7388 18.273L62.7496 19.9529L56.5197 19.9928Z" fill="white"/>
<defs>
<filter id="filter0_d_119_1639" x="225.333" y="43" width="112.667" height="158.243" filterUnits="userSpaceOnUse" color-interpolation-filters="sRGB">
<feFlood flood-opacity="0" result="BackgroundImageFix"/>
<feColorMatrix in="SourceAlpha" type="matrix" values="0 0 0 0 0 0 0 0 0 0 0 0 0 0 0 0 0 0 127 0" result="hardAlpha"/>
<feOffset dx="2"/>
<feComposite in2="hardAlpha" operator="out"/>
<feColorMatrix type="matrix" values="0 0 0 0 1 0 0 0 0 1 0 0 0 0 1 0 0 0 1 0"/>
<feBlend mode="normal" in2="BackgroundImageFix" result="effect1_dropShadow_119_1639"/>
<feBlend mode="normal" in="SourceGraphic" in2="effect1_dropShadow_119_1639" result="shape"/>
</filter>
<filter id="filter1_d_119_1639" x="112.667" y="43" width="118.224" height="158.243" filterUnits="userSpaceOnUse" color-interpolation-filters="sRGB">
<feFlood flood-opacity="0" result="BackgroundImageFix"/>
<feColorMatrix in="SourceAlpha" type="matrix" values="0 0 0 0 0 0 0 0 0 0 0 0 0 0 0 0 0 0 127 0" result="hardAlpha"/>
<feOffset dx="2"/>
<feComposite in2="hardAlpha" operator="out"/>
<feColorMatrix type="matrix" values="0 0 0 0 1 0 0 0 0 1 0 0 0 0 1 0 0 0 1 0"/>
<feBlend mode="normal" in2="BackgroundImageFix" result="effect1_dropShadow_119_1639"/>
<feBlend mode="normal" in="SourceGraphic" in2="effect1_dropShadow_119_1639" result="shape"/>
</filter>
<filter id="filter2_d_119_1639" x="0" y="43" width="118.224" height="158.243" filterUnits="userSpaceOnUse" color-interpolation-filters="sRGB">
<feFlood flood-opacity="0" result="BackgroundImageFix"/>
<feColorMatrix in="SourceAlpha" type="matrix" values="0 0 0 0 0 0 0 0 0 0 0 0 0 0 0 0 0 0 127 0" result="hardAlpha"/>
<feOffset dx="2"/>
<feComposite in2="hardAlpha" operator="out"/>
<feColorMatrix type="matrix" values="0 0 0 0 1 0 0 0 0 1 0 0 0 0 1 0 0 0 1 0"/>
<feBlend mode="normal" in2="BackgroundImageFix" result="effect1_dropShadow_119_1639"/>
<feBlend mode="normal" in="SourceGraphic" in2="effect1_dropShadow_119_1639" result="shape"/>
</filter>
</defs>
</svg>
