<svg width="28" height="55" viewBox="0 0 28 55" fill="none" xmlns="http://www.w3.org/2000/svg">
<rect width="19.7323" height="53.3165" rx="2.15427" transform="matrix(0.995805 -0.0915016 -0.156434 0.987688 8.34058 1.80554)" fill="white"/>
<path d="M17.2317 5.75831L18.7847 5.85773C18.354 6.64613 17.8409 7.4193 17.2453 8.17724C16.6593 8.93425 15.9297 9.64472 15.0565 10.3087C14.961 10.1315 14.8136 9.95477 14.6144 9.77846C14.4261 9.59174 14.2491 9.45522 14.0833 9.3689C14.5993 9.01049 15.0526 8.63024 15.4434 8.22815C15.8437 7.82513 16.1937 7.41306 16.4931 6.99195C16.7941 6.56138 17.0402 6.15016 17.2317 5.75831ZM17.4734 6.76985L20.2844 6.49401L20.0857 7.80059L16.4717 8.15523L17.4734 6.76985ZM17.1876 10.0436L18.4067 9.92396C18.3089 10.3812 18.1841 10.7992 18.0324 11.1778C17.8806 11.5564 17.6684 11.899 17.3958 12.2056C17.1246 12.5027 16.7588 12.7717 16.2983 13.0128C16.2529 12.8773 16.1722 12.7267 16.0562 12.5609C15.9401 12.3951 15.8279 12.2662 15.7194 12.1742C16.2085 11.9304 16.55 11.6357 16.7438 11.2903C16.9472 10.9439 17.0951 10.5283 17.1876 10.0436ZM18.943 9.92728L20.1907 9.80485L20.0158 10.9552C19.9957 11.0878 19.993 11.1673 20.0078 11.1938C20.0322 11.2194 20.0969 11.227 20.2021 11.2167C20.2404 11.213 20.2929 11.2078 20.3599 11.2012C20.4364 11.1937 20.5128 11.1862 20.5893 11.1787C20.6754 11.1703 20.7327 11.1647 20.7614 11.1618C20.8475 11.1534 20.9063 11.1383 20.9378 11.1165C20.9804 11.0844 21.0156 11.039 21.0433 10.9803C21.1465 11.0448 21.2976 11.1046 21.4964 11.1597C21.6952 11.2148 21.8778 11.2528 22.0441 11.2738C21.9297 11.5928 21.7723 11.8228 21.5719 11.9637C21.373 12.0951 21.111 12.1768 20.7859 12.2087C20.7381 12.2134 20.6712 12.2199 20.5852 12.2284C20.4991 12.2368 20.4083 12.2457 20.3127 12.2551C20.2171 12.2645 20.1262 12.2734 20.0402 12.2819C19.9637 12.2894 19.9015 12.2955 19.8537 12.3002C19.5 12.3349 19.2333 12.3237 19.0535 12.2668C18.8848 12.1994 18.7814 12.0743 18.7433 11.8915C18.7066 11.6992 18.7149 11.428 18.7681 11.0776L18.943 9.92728ZM13.5964 14.523L22.5168 13.6477L22.303 15.0537L13.3826 15.929L13.5964 14.523ZM18.8458 14.4696C18.9802 15.2585 19.3111 15.8696 19.8386 16.3028C20.3675 16.7266 21.1654 16.9607 22.2324 17.0052C22.0358 17.1831 21.8203 17.4234 21.5859 17.7262C21.3611 18.0281 21.1843 18.2926 21.0556 18.5197C20.232 18.4233 19.5655 18.2229 19.0561 17.9185C18.5467 17.6141 18.1569 17.2046 17.8866 16.6902C17.6178 16.1663 17.4365 15.5312 17.3427 14.785L18.8458 14.4696ZM16.431 9.16651L21.7373 8.64581L21.5343 9.98078L16.228 10.5015L15.7141 13.8815L14.2943 14.0209L15.0111 9.30583L15.0255 9.30442L16.431 9.16651ZM21.3644 8.6824L22.8273 8.53885L22.1126 13.2397L20.6498 13.3832L21.3644 8.6824ZM19.7107 6.55031L20.0692 6.51512L20.3238 6.42019L21.3102 6.99493C21.1236 7.29304 20.9095 7.61716 20.6679 7.96731C20.4373 8.30704 20.1985 8.63825 19.9517 8.96092C19.7063 9.27413 19.4748 9.558 19.2571 9.81252C19.1296 9.72245 18.9618 9.61766 18.754 9.49816C18.5461 9.37865 18.3626 9.28474 18.2034 9.21642C18.3785 8.99405 18.5586 8.73854 18.7438 8.4499C18.9385 8.16032 19.1141 7.87262 19.2706 7.58679C19.4381 7.29055 19.5704 7.03974 19.6675 6.83434L19.7107 6.55031ZM17.414 13.0152L18.9772 12.8618C18.8085 13.6618 18.6035 14.3908 18.3622 15.0487C18.1209 15.7066 17.7907 16.2986 17.3717 16.8247C16.9526 17.3508 16.3962 17.8204 15.7023 18.2336C15.0071 18.6562 14.1204 19.037 13.0422 19.376C13.0055 19.1837 12.9213 18.9635 12.7895 18.7153C12.6658 18.4756 12.5397 18.2828 12.4112 18.1368C13.3645 17.8754 14.1386 17.5849 14.7335 17.2654C15.3297 16.9364 15.7953 16.569 16.1302 16.1631C16.4746 15.7562 16.7375 15.2967 16.919 14.7846C17.1114 14.2621 17.2764 13.6723 17.414 13.0152ZM9.30042 13.6015C9.89279 13.4222 10.6016 13.1894 11.4268 12.9032C12.2616 12.6161 13.1026 12.3191 13.9498 12.0121L13.9318 13.5248C13.1625 13.8148 12.3836 14.1058 11.5952 14.3976C10.8163 14.6886 10.0929 14.9554 9.425 15.1982L9.30042 13.6015ZM10.2057 9.13384L14.5942 8.7032L14.3567 10.2654L9.96818 10.696L10.2057 9.13384ZM12.1196 6.30191L13.6972 6.14711L11.944 17.679C11.885 18.0672 11.7951 18.3792 11.6746 18.6148C11.5621 18.859 11.3858 19.0582 11.1458 19.2123C10.9153 19.3655 10.6339 19.4817 10.3016 19.561C9.97891 19.6393 9.57925 19.6972 9.10264 19.7346C9.11518 19.5282 9.10218 19.273 9.06363 18.969C9.02365 18.6744 8.96834 18.4187 8.89772 18.2018C9.16398 18.185 9.40635 18.1706 9.62481 18.1584C9.85428 18.1359 10.0128 18.1157 10.1002 18.0978C10.1863 18.0894 10.2458 18.0695 10.2788 18.0383C10.3228 17.9967 10.352 17.9285 10.3664 17.8339L12.1196 6.30191ZM14.6994 22.229C14.2253 22.8071 13.6432 23.4145 12.9531 24.0512C12.2725 24.6869 11.5286 25.3055 10.7213 25.907C9.92365 26.5076 9.10114 27.0546 8.2538 27.5481C8.19891 27.4136 8.12227 27.2673 8.02388 27.109C7.93506 26.9499 7.83118 26.7968 7.71223 26.65C7.60285 26.5021 7.49537 26.3728 7.38979 26.2619C8.27105 25.793 9.13252 25.2375 9.9742 24.5953C10.8173 23.9436 11.5828 23.2763 12.2706 22.5932C12.9679 21.9092 13.5374 21.2611 13.9789 20.6489L15.7716 20.473C16.0815 20.9742 16.4333 21.4479 16.827 21.8943C17.2206 22.3407 17.6535 22.7459 18.1256 23.1099C18.5976 23.474 19.0905 23.794 19.6043 24.07C20.118 24.3461 20.6444 24.5695 21.1835 24.7405C20.9305 24.9798 20.6875 25.2462 20.4546 25.5395C20.2216 25.8328 20.0044 26.1153 19.803 26.3869C19.3012 26.1563 18.7963 25.8841 18.2884 25.5702C17.79 25.2553 17.3143 24.915 16.8613 24.549C16.4098 24.1736 15.9973 23.7898 15.6237 23.3974C15.2501 23.005 14.942 22.6156 14.6994 22.229ZM10.7145 25.2082L17.9283 24.5003L17.7016 25.9915L10.4878 26.6994L10.7145 25.2082ZM8.55311 28.2742L19.1801 27.2314L18.9556 28.7084L8.32856 29.7512L8.55311 28.2742ZM7.17967 32.662L19.3699 31.4658L19.1475 32.9286L6.95728 34.1248L7.17967 32.662ZM13.277 25.5443L15.0984 25.3656L13.98 32.7222L12.1586 32.9009L13.277 25.5443ZM9.15003 30.2022L10.6132 29.4991C10.7589 29.7179 10.8961 29.961 11.0251 30.2281C11.1635 30.4943 11.2836 30.7577 11.3853 31.0182C11.487 31.2787 11.5547 31.5145 11.5885 31.7257L10.012 32.5239C9.98777 32.3118 9.9303 32.0703 9.83963 31.7994C9.7504 31.519 9.64683 31.2401 9.52891 30.9625C9.411 30.6849 9.2847 30.4315 9.15003 30.2022ZM16.5197 28.9335L18.0783 29.3681C17.7252 29.8318 17.3626 30.2964 16.9905 30.7619C16.6198 31.218 16.2823 31.6102 15.9781 31.9385L14.7694 31.5255C14.9665 31.2823 15.1719 31.015 15.3858 30.7235C15.6011 30.4226 15.8075 30.1179 16.0051 29.8094C16.2041 29.4914 16.3757 29.1994 16.5197 28.9335ZM11.8197 35.5021L13.598 35.3276L13.2957 37.3158L11.5174 37.4903L11.8197 35.5021ZM10.5566 43.8102L12.3349 43.6357L11.5706 48.6632L9.79225 48.8377L10.5566 43.8102ZM4.88259 45.2623L17.8473 43.9901L17.6076 45.5665L4.64293 46.8387L4.88259 45.2623ZM6.54769 37.3764L18.5945 36.1943L18.3592 37.7423L6.31235 38.9244L6.54769 37.3764ZM16.8848 38.0549L18.3092 38.6286C17.8955 38.9956 17.4689 39.3546 17.0294 39.7055C16.5913 40.0469 16.1925 40.3472 15.8329 40.6063L14.6723 40.0627C14.9167 39.8802 15.1694 39.6735 15.4306 39.4427C15.7013 39.2109 15.9631 38.9754 16.2161 38.736C16.4801 38.4863 16.703 38.2592 16.8848 38.0549ZM11.3127 38.0001L12.6792 38.3976C12.3362 38.795 11.9837 39.1933 11.6216 39.5926C11.2691 39.9909 10.9491 40.3301 10.6616 40.6102L9.65728 40.247C9.84048 40.0332 10.0321 39.7952 10.232 39.5331C10.432 39.271 10.6279 39.0046 10.8197 38.734C11.0116 38.4633 11.1759 38.2187 11.3127 38.0001ZM13.3063 38.8257L14.5473 39.3055C14.0862 39.7984 13.584 40.3141 13.0406 40.8524C12.4987 41.3812 11.9597 41.8911 11.4236 42.3821C10.8889 42.8636 10.386 43.2906 9.91492 43.6633L8.99522 43.2079C9.46916 42.8163 9.96536 42.3713 10.4838 41.8727C11.0133 41.3637 11.5258 40.8425 12.0213 40.3088C12.5168 39.7752 12.9452 39.2809 13.3063 38.8257ZM8.91646 40.4736L9.8664 39.4291C10.1192 39.5628 10.3875 39.7184 10.6714 39.8957C10.9552 40.073 11.2247 40.2518 11.4799 40.4319C11.7365 40.6026 11.9427 40.7642 12.0984 40.9168L11.0838 42.1076C10.9391 41.9446 10.7446 41.7678 10.5005 41.5773C10.2578 41.3773 9.99519 41.1839 9.71278 40.997C9.43182 40.8008 9.16638 40.6263 8.91646 40.4736ZM8.44192 42.7586C8.92285 42.6927 9.47071 42.6203 10.0855 42.5414C10.7017 42.4529 11.3562 42.3607 12.0489 42.2647C12.743 42.1593 13.4412 42.0582 14.1435 41.9613L13.9456 43.1698C12.978 43.3394 12.0152 43.5085 11.0571 43.6771C10.0991 43.8458 9.23881 43.9908 8.47629 44.1122L8.44192 42.7586ZM12.5305 41.4201L13.8272 40.7892C13.9973 41.0336 14.1589 41.3022 14.3122 41.595C14.4765 41.8773 14.6217 42.1615 14.7477 42.4476C14.8737 42.7337 14.9563 42.9961 14.9953 43.2347L13.6161 43.9437C13.577 43.705 13.4993 43.4421 13.3828 43.1551C13.2773 42.8577 13.1486 42.5579 12.9968 42.2557C12.856 41.9431 12.7005 41.6645 12.5305 41.4201ZM5.01847 43.3463C5.49899 43.1593 6.07825 42.9113 6.75626 42.6022C7.44384 42.2923 8.14097 41.9814 8.84766 41.6695L8.95883 42.8897C8.40367 43.196 7.82939 43.5042 7.23599 43.8143C6.65215 44.1234 6.11566 44.3999 5.6265 44.6437L5.01847 43.3463ZM5.92588 40.1655L7.21138 39.144C7.43982 39.2522 7.67899 39.3826 7.92891 39.5353C8.18983 39.6775 8.43091 39.8264 8.65215 39.9819C8.88295 40.1365 9.0681 40.2815 9.2076 40.4171L7.84962 41.5436C7.72924 41.4062 7.55915 41.255 7.33935 41.09C7.12911 40.9241 6.89976 40.7601 6.65128 40.598C6.4028 40.4358 6.161 40.2917 5.92588 40.1655ZM14.0718 41.9683L15.3903 40.9156C15.6909 41.0446 16.0159 41.1993 16.3652 41.3795C16.7145 41.5598 17.044 41.7466 17.3537 41.9401C17.6648 42.124 17.9214 42.2947 18.1235 42.4521L16.7182 43.6113C16.5462 43.4416 16.3101 43.2596 16.01 43.0652C15.71 42.8708 15.3915 42.6736 15.0546 42.4734C14.7177 42.2733 14.3901 42.105 14.0718 41.9683Z" fill="#18724A"/>
</svg>
