<svg width="31" height="70" viewBox="0 0 31 70" fill="none" xmlns="http://www.w3.org/2000/svg">
<rect width="19.8282" height="68.3162" rx="2.15427" transform="matrix(0.995805 -0.0915016 -0.156434 0.987688 10.687 1.81431)" fill="white"/>
<path d="M23.8561 7.92145C23.7873 8.00282 23.6866 8.13861 23.554 8.32882C23.4325 8.50863 23.3268 8.67756 23.2368 8.83561C22.9889 9.28896 22.6765 9.79528 22.2995 10.3546C21.9321 10.9129 21.5305 11.4793 21.0947 12.0537C20.6589 12.6281 20.2049 13.1669 19.7328 13.6703C19.1368 14.307 18.4809 14.9356 17.7649 15.5562C17.0585 16.1757 16.3197 16.7612 15.5483 17.3126C14.7784 17.8545 14.0049 18.3267 13.2279 18.7294L12.0183 17.3931C12.8168 17.035 13.6022 16.6082 14.3745 16.1127C15.1482 15.6077 15.8744 15.0748 16.553 14.5139C17.2331 13.9435 17.8249 13.3958 18.3286 12.8707C18.6974 12.4894 19.0506 12.0864 19.3883 11.6615C19.7275 11.2272 20.0325 10.8009 20.3033 10.3826C20.5741 9.96428 20.7865 9.58902 20.9406 9.25679C20.8355 9.26711 20.6586 9.28447 20.41 9.30886C20.171 9.33232 19.8889 9.35999 19.5639 9.39189C19.2388 9.42379 18.8946 9.45757 18.5313 9.49322C18.1775 9.52793 17.8381 9.56124 17.513 9.59314C17.188 9.62504 16.9011 9.65318 16.6525 9.67758C16.4135 9.70103 16.2414 9.71792 16.1362 9.72824C15.945 9.747 15.7387 9.77191 15.5174 9.80295C15.3056 9.83306 15.1027 9.86697 14.9086 9.90467C14.7255 9.93196 14.5806 9.9555 14.474 9.97529L14.7655 8.05803C14.8869 8.06477 15.0521 8.06256 15.261 8.05138C15.4699 8.04021 15.6781 8.03377 15.8855 8.03207C16.0944 8.0209 16.2658 8.00874 16.3997 7.99561C16.5239 7.98341 16.7152 7.96465 16.9733 7.93932C17.2315 7.91398 17.5326 7.88443 17.8768 7.85066C18.221 7.81688 18.57 7.78264 18.9238 7.74792C19.2871 7.71227 19.636 7.67803 19.9707 7.64519C20.3053 7.61235 20.5969 7.58374 20.8455 7.55934C21.0941 7.53495 21.271 7.51759 21.3761 7.50727C21.6821 7.47725 21.9663 7.43537 22.2288 7.38164C22.4927 7.31843 22.6999 7.25613 22.8505 7.19471L23.8561 7.92145ZM20.0941 12.5016C20.4128 12.7595 20.7442 13.058 21.0882 13.3974C21.4321 13.7367 21.774 14.0902 22.1136 14.4579C22.4547 14.8161 22.7693 15.163 23.0574 15.4985C23.3454 15.834 23.5833 16.1277 23.771 16.3798L21.9697 17.9136C21.6975 17.4739 21.3796 17.0248 21.0161 16.5662C20.654 16.0981 20.2666 15.6418 19.8538 15.1973C19.4425 14.7433 19.0228 14.3135 18.5947 13.9078L20.0941 12.5016ZM21.0023 22.3252C20.9678 22.5524 21.0203 22.7338 21.1598 22.8693C21.2993 23.0049 21.4742 23.0623 21.6845 23.0417C21.9044 23.0201 22.1024 22.9261 22.2784 22.7596C22.464 22.5921 22.574 22.3948 22.6086 22.1676C22.6417 21.9498 22.5885 21.7732 22.449 21.6376C22.3205 21.4917 22.1463 21.4295 21.9264 21.4511C21.716 21.4717 21.5174 21.5705 21.3303 21.7474C21.1448 21.9148 21.0354 22.1074 21.0023 22.3252ZM20.1418 22.4096C20.1879 22.1066 20.3061 21.8246 20.4965 21.5634C20.6884 21.2927 20.9194 21.0742 21.1896 20.9078C21.4707 20.731 21.7595 20.628 22.0559 20.599C22.3619 20.5689 22.6276 20.6175 22.8532 20.7446C23.0897 20.8612 23.2651 21.0399 23.3792 21.2805C23.4947 21.5117 23.5295 21.7787 23.4834 22.0817C23.4373 22.3847 23.3184 22.6715 23.1266 22.9421C22.9362 23.2033 22.7004 23.4223 22.4192 23.5991C22.149 23.7656 21.8609 23.8638 21.555 23.8938C21.2586 23.9229 20.9921 23.8791 20.7556 23.7624C20.53 23.6353 20.3595 23.4562 20.2439 23.225C20.1298 22.9844 20.0958 22.7126 20.1418 22.4096ZM14.6122 22.1688C14.5519 22.3799 14.4905 22.6284 14.4282 22.9143C14.3674 23.1908 14.3225 23.4237 14.2938 23.613C14.2722 23.755 14.2347 24.0012 14.1815 24.3515C14.1282 24.7018 14.0663 25.109 13.9958 25.5729C13.9253 26.0368 13.8511 26.5244 13.7734 27.0357C13.6971 27.5375 13.623 28.0251 13.551 28.4985C13.479 28.9719 13.415 29.3932 13.3589 29.7625C13.3042 30.1222 13.2631 30.3921 13.2358 30.572C13.1912 30.8655 13.2319 31.062 13.3581 31.1615C13.4842 31.2611 13.7007 31.3238 14.0076 31.3496C14.2041 31.3583 14.4395 31.3585 14.7139 31.3503C14.9897 31.3325 15.2854 31.3082 15.6009 31.2772C15.9642 31.2416 16.3672 31.1927 16.8099 31.1306C17.2526 31.0685 17.7015 30.9965 18.1566 30.9145C18.6132 30.8231 19.0465 30.7292 19.4567 30.633C19.8669 30.5368 20.2212 30.4368 20.5196 30.3329L20.2151 32.3353C19.7652 32.4448 19.2506 32.5466 18.6712 32.6407C18.0999 32.7434 17.5116 32.8338 16.9064 32.9118C16.3012 32.9899 15.7356 33.0547 15.2098 33.1063C14.7604 33.1504 14.3371 33.178 13.9399 33.189C13.5426 33.2 13.1946 33.1968 12.8959 33.1795C12.3094 33.1344 11.874 32.9626 11.5897 32.6641C11.3069 32.3561 11.2108 31.9039 11.3015 31.3074C11.3418 31.0423 11.3944 30.6967 11.4591 30.2706C11.5254 29.8351 11.5973 29.3617 11.6751 28.8504C11.7528 28.3392 11.832 27.8184 11.9126 27.2882C11.9932 26.758 12.0695 26.2562 12.1414 25.7828C12.2148 25.3 12.2782 24.8834 12.3314 24.5331C12.3847 24.1828 12.4221 23.9366 12.4437 23.7946C12.4639 23.662 12.4828 23.5063 12.5006 23.3273C12.5184 23.1484 12.5307 22.9746 12.5375 22.8061C12.5553 22.6271 12.5632 22.4818 12.5614 22.37L14.6122 22.1688ZM13.0509 26.491C13.5051 26.3532 13.9957 26.1931 14.5226 26.0109C15.0495 25.8286 15.5778 25.6368 16.1075 25.4356C16.6387 25.2249 17.146 25.0166 17.6294 24.8106C18.1224 24.6037 18.562 24.4067 18.9484 24.2195C19.2128 24.091 19.4732 23.9582 19.7295 23.8211C19.9872 23.6746 20.2717 23.5067 20.583 23.3176L21.0632 24.9913C20.7782 25.1312 20.4782 25.2772 20.1631 25.4294C19.859 25.5711 19.585 25.7006 19.3411 25.8178C18.907 26.0096 18.4133 26.2213 17.8601 26.4528C17.3179 26.6739 16.747 26.8978 16.1475 27.1245C15.5479 27.3512 14.9593 27.5675 14.3818 27.7734C13.8056 27.9699 13.2754 28.1431 12.7911 28.2933L13.0509 26.491ZM12.5136 45.1722C12.5338 45.0397 12.564 44.8409 12.6043 44.5757C12.646 44.3012 12.6943 43.984 12.749 43.6242C12.8051 43.255 12.8641 42.8668 12.926 42.4597C12.9879 42.0525 13.0498 41.6454 13.1117 41.2383C13.1846 40.8208 13.2498 40.4227 13.3074 40.0439C13.365 39.6652 13.4161 39.3291 13.4607 39.0356C13.5053 38.7421 13.5413 38.5054 13.5687 38.3255C13.6061 38.0793 13.6481 37.7721 13.6947 37.4038C13.7412 37.0355 13.7548 36.6984 13.7354 36.3925C13.9362 36.3728 14.18 36.3489 14.4668 36.3207C14.7536 36.2926 15.0357 36.2649 15.3129 36.2377C15.5902 36.2105 15.8053 36.1894 15.9583 36.1744C15.8534 36.4925 15.7634 36.8371 15.6881 37.2082C15.6239 37.5689 15.5723 37.8771 15.5334 38.1327C15.5075 38.3031 15.4715 38.5398 15.4255 38.8428C15.3809 39.1363 15.3298 39.4724 15.2722 39.8511C15.216 40.2204 15.1563 40.6133 15.093 41.0299C15.0296 41.4465 14.967 41.8583 14.9051 42.2655C14.8432 42.6726 14.7849 43.056 14.7302 43.4158C14.6755 43.7756 14.6273 44.0928 14.5856 44.3673C14.5438 44.6419 14.5129 44.8455 14.4927 44.978C14.4711 45.12 14.4388 45.3331 14.3956 45.6171C14.3538 45.8917 14.3173 46.1937 14.2861 46.5232C14.2548 46.8527 14.236 47.1623 14.2296 47.4521C14.0384 47.4709 13.8042 47.4938 13.5269 47.5211C13.2592 47.5473 12.9915 47.5736 12.7238 47.5999C12.4561 47.6261 12.2218 47.6491 12.021 47.6688C12.1039 47.3716 12.1732 47.071 12.2288 46.7671C12.2954 46.4527 12.3503 46.1536 12.3935 45.8695C12.4462 45.5846 12.4863 45.3521 12.5136 45.1722ZM15.164 51.6211C15.269 51.7974 15.3793 52.001 15.4949 52.2322C15.6104 52.4634 15.7253 52.6992 15.8394 52.9399C15.9549 53.171 16.0447 53.3861 16.1086 53.585L14.824 54.2287C14.7363 53.9388 14.6475 53.6864 14.5577 53.4713C14.468 53.2563 14.372 53.0512 14.2698 52.8561C14.1691 52.6514 14.0554 52.4387 13.9289 52.218L15.164 51.6211ZM17.0998 50.6897C17.2158 50.8555 17.3316 51.054 17.4472 51.2852C17.5737 51.5059 17.6948 51.7319 17.8103 51.963C17.9369 52.1838 18.0321 52.3936 18.0961 52.5925L16.8481 53.2746C16.7397 52.9961 16.6352 52.7545 16.5344 52.5499C16.4447 52.3349 16.3439 52.1302 16.2322 51.936C16.13 51.7409 16.0101 51.5381 15.8726 51.3278L17.0998 50.6897ZM8.22334 61.3118C8.25213 61.1224 8.29675 60.8289 8.3572 60.4313C8.41766 60.0336 8.48819 59.5697 8.5688 59.0395C8.6494 58.5093 8.73361 57.9554 8.82141 57.3779C8.90922 56.8003 8.99342 56.2464 9.07403 55.7162C9.15608 55.1766 9.22805 54.7032 9.28994 54.296C9.35328 53.8795 9.40006 53.5717 9.43029 53.3729C9.46771 53.1268 9.49511 52.8536 9.51249 52.5534C9.54087 52.2429 9.54987 51.9668 9.53949 51.7254L11.7194 51.5115C11.6533 51.7604 11.5836 52.0331 11.5103 52.3294C11.448 52.6153 11.3952 52.9003 11.352 53.1843C11.3132 53.44 11.2606 53.7856 11.1944 54.2211C11.1282 54.6566 11.0541 55.1442 10.972 55.6839C10.89 56.2235 10.8058 56.7774 10.7194 57.3455C10.6345 57.9041 10.5532 58.439 10.4754 58.9503C10.3977 59.4616 10.3301 59.9066 10.2725 60.2853C10.2149 60.664 10.1724 60.9433 10.1451 61.1232C10.1264 61.2463 10.1045 61.421 10.0795 61.6473C10.0546 61.8736 10.0322 62.1136 10.0125 62.3673C10.0037 62.6107 9.98973 62.8266 9.9705 63.015L7.80494 63.2275C7.88493 62.9492 7.96183 62.6292 8.03565 62.2675C8.12047 61.8955 8.18303 61.5769 8.22334 61.3118ZM10.6468 55.1282C11.0966 55.2053 11.5891 55.3109 12.1244 55.4449C12.6693 55.578 13.2168 55.7248 13.7669 55.8853C14.328 56.0354 14.8461 56.1898 15.3212 56.3483C15.8073 56.4965 16.2094 56.6389 16.5277 56.7755L15.4475 58.7702C15.0761 58.6108 14.672 58.4499 14.2352 58.2876C13.7984 58.1253 13.3458 57.9738 12.8774 57.8332C12.42 57.6823 11.9701 57.5445 11.5275 57.4201C11.0945 57.2947 10.7001 57.1935 10.3445 57.1165L10.6468 55.1282Z" fill="#18724A"/>
</svg>
