<svg width="160" height="180" viewBox="0 0 160 180" fill="none" xmlns="http://www.w3.org/2000/svg">
<g clip-path="url(#clip0_106_2312)">
<path d="M80 20.0796C96.0366 20.0796 111.703 24.8992 124.967 33.9131C138.23 42.9271 148.479 55.7192 154.382 70.6296L80 100.08L80 20.0796Z" fill="#179948"/>
<path d="M154.397 70.6676C159.821 84.3881 161.346 99.3413 158.802 113.874C156.258 128.407 149.744 141.953 139.982 153.015C130.219 164.077 117.588 172.224 103.484 176.555C89.3804 180.886 74.3537 181.232 60.0653 177.556L80 100.08L154.397 70.6676Z" fill="#29A95A"/>
<path d="M60.0391 177.549C46.9901 174.187 35.0019 167.583 25.1868 158.351C15.3716 149.118 8.0477 137.556 3.89453 124.736C-0.258637 111.917 -1.10645 98.2567 1.42977 85.0224C3.96598 71.7881 9.80404 59.4089 18.4022 49.0334L80 100.08L60.0391 177.549Z" fill="#3DB46A"/>
<path d="M18.412 49.0216C31.3984 33.3569 49.8659 23.2293 70.0558 20.7L80 100.08L18.412 49.0216Z" fill="#6C9D7E"/>
<path d="M70.1057 23.5827C73.3898 23.1707 76.6968 22.9643 80.0071 22.9646L80 101.465L70.1057 23.5827Z" fill="#849289"/>
<rect x="86.6" y="40.5839" width="44.1382" height="20.9785" rx="10.4893" fill="#18724A"/>
<rect x="86.6" y="40.5839" width="44.1382" height="20.9785" rx="10.4893" stroke="#FFDA03" stroke-width="0.8"/>
<path d="M95.6881 57.1562L95.6803 55.9321C96.6445 55.0617 97.4651 54.2547 98.1421 53.5111C98.8286 52.7673 99.3523 52.0775 99.7131 51.4414C100.074 50.7958 100.253 50.1994 100.249 49.6521C100.247 49.3064 100.182 49.0044 100.056 48.7459C99.9295 48.4875 99.7458 48.2918 99.5049 48.1589C99.2736 48.0164 98.9851 47.9462 98.6394 47.9484C98.2554 47.9509 97.9008 48.0636 97.5758 48.2865C97.2603 48.4998 96.9691 48.7561 96.7021 49.0554L95.5139 47.9252C96.0097 47.3843 96.516 46.9778 97.0328 46.7057C97.5591 46.4238 98.1823 46.2806 98.9024 46.276C99.5745 46.2717 100.161 46.4072 100.662 46.6825C101.173 46.9481 101.569 47.3248 101.85 47.8127C102.132 48.3006 102.275 48.8758 102.279 49.5383C102.283 50.1816 102.124 50.8403 101.802 51.5145C101.489 52.179 101.066 52.8443 100.533 53.5102C99.9995 54.1761 99.4084 54.8328 98.7596 55.4803C99.0378 55.4401 99.3352 55.4094 99.6519 55.3882C99.9782 55.3573 100.266 55.341 100.516 55.3395L102.82 55.3247L102.832 57.1106L95.6881 57.1562ZM107.814 57.2804C107.094 57.285 106.459 57.0826 105.909 56.6732C105.368 56.2542 104.942 55.6328 104.629 54.8091C104.326 53.9756 104.171 52.9444 104.163 51.7155C104.155 50.4961 104.298 49.4822 104.59 48.6737C104.892 47.8557 105.311 47.2433 105.846 46.8366C106.391 46.4298 107.023 46.2241 107.743 46.2195C108.473 46.2149 109.108 46.4172 109.648 46.8267C110.188 47.2265 110.61 47.8287 110.913 48.6333C111.225 49.4379 111.385 50.4499 111.393 51.6692C111.401 52.8982 111.254 53.9314 110.952 54.7687C110.66 55.5963 110.246 56.223 109.711 56.6489C109.176 57.0652 108.543 57.2757 107.814 57.2804ZM107.803 55.6241C108.12 55.6221 108.398 55.5003 108.636 55.2587C108.875 55.0172 109.059 54.6127 109.19 54.0454C109.321 53.4684 109.383 52.6807 109.377 51.6821C109.37 50.6932 109.298 49.9207 109.16 49.3647C109.022 48.799 108.832 48.4066 108.591 48.1873C108.349 47.9584 108.07 47.8449 107.753 47.847C107.456 47.8489 107.183 47.9658 106.935 48.1979C106.696 48.4202 106.507 48.8151 106.366 49.3825C106.226 49.9403 106.159 50.7137 106.165 51.7027C106.171 52.7012 106.248 53.4881 106.396 54.0632C106.544 54.6288 106.738 55.0308 106.98 55.2693C107.231 55.5078 107.506 55.626 107.803 55.6241ZM115.523 51.7622L121.772 50.8889L121.954 52.0503L115.705 52.9441L115.523 51.7622ZM119.373 48.9188L120.295 48.3368C120.474 48.4933 120.661 48.6705 120.854 48.8681C121.047 49.0658 121.227 49.2635 121.393 49.4614C121.559 49.6524 121.69 49.8298 121.787 49.9938L120.793 50.6277C120.71 50.4705 120.589 50.293 120.43 50.0951C120.271 49.8903 120.098 49.6857 119.911 49.4811C119.732 49.2765 119.552 49.0891 119.373 48.9188ZM114.925 48.3814L116.111 48.7544C115.854 49.3665 115.549 49.9754 115.196 50.5812C114.85 51.1869 114.473 51.7552 114.065 52.2859C113.664 52.8165 113.249 53.2821 112.819 53.6827C112.784 53.58 112.725 53.4501 112.642 53.2929C112.558 53.1357 112.468 52.9785 112.371 52.8214C112.281 52.6642 112.198 52.5344 112.122 52.432C112.497 52.1142 112.858 51.7381 113.205 51.3038C113.552 50.8695 113.875 50.4045 114.174 49.9087C114.472 49.4062 114.723 48.897 114.925 48.3814ZM113.884 51.3406L115.131 50.0672L115.152 50.0877L115.202 57.9368L113.927 57.945L113.884 51.3406ZM117.425 48.4374L118.68 48.4294C118.701 49.5266 118.756 50.5516 118.844 51.5043C118.939 52.4502 119.068 53.2827 119.23 54.0018C119.393 54.7209 119.592 55.2923 119.828 55.716C120.064 56.1329 120.336 56.3609 120.645 56.4001C120.762 56.4062 120.853 56.2753 120.92 56.0074C120.987 55.7395 121.039 55.3208 121.077 54.7513C121.153 54.8331 121.256 54.9216 121.387 55.0168C121.518 55.1119 121.649 55.2003 121.78 55.2817C121.91 55.3563 122.014 55.414 122.089 55.4546C122.004 56.1205 121.888 56.6322 121.739 56.9897C121.597 57.3473 121.438 57.5884 121.26 57.7129C121.083 57.8444 120.898 57.9039 120.706 57.8914C120.219 57.8465 119.799 57.6708 119.447 57.3645C119.096 57.0581 118.798 56.6313 118.554 56.0842C118.318 55.537 118.122 54.8833 117.966 54.123C117.817 53.3627 117.702 52.5061 117.62 51.5533C117.539 50.5937 117.474 49.555 117.425 48.4374Z" fill="#FFDA03"/>
<path d="M96.2498 77.3803L96.2387 75.652L98.5431 75.6373L98.5001 68.9115L96.5558 68.9239L96.5473 67.5989C97.0844 67.4994 97.5445 67.3813 97.9277 67.2444C98.3205 67.0979 98.6842 66.9131 99.0188 66.6901L100.589 66.6801L100.646 75.6238L102.648 75.611L102.659 77.3393L96.2498 77.3803ZM107.238 77.5117C106.575 77.5159 105.998 77.3996 105.507 77.1627C105.025 76.9257 104.625 76.645 104.306 76.3206L105.421 75.0316C105.615 75.2512 105.866 75.432 106.174 75.5741C106.482 75.7161 106.795 75.7862 107.111 75.7841C107.419 75.7822 107.711 75.7131 107.989 75.5769C108.266 75.4311 108.505 75.2039 108.704 74.8954C108.914 74.5772 109.074 74.1585 109.186 73.6393C109.308 73.12 109.366 72.4811 109.361 71.7226C109.355 70.8105 109.264 70.0861 109.088 69.5495C108.921 69.0129 108.698 68.6302 108.418 68.4016C108.138 68.1633 107.82 68.0453 107.465 68.0476C107.206 68.0493 106.966 68.1228 106.747 68.2682C106.527 68.4137 106.35 68.6308 106.218 68.9197C106.095 69.2086 106.035 69.5738 106.038 70.0155C106.04 70.4284 106.105 70.7736 106.231 71.0513C106.358 71.3193 106.532 71.5198 106.754 71.6528C106.985 71.7858 107.254 71.8513 107.562 71.8493C107.859 71.8474 108.166 71.7542 108.482 71.5698C108.797 71.3853 109.083 71.0762 109.34 70.6425L109.45 72.0677C109.269 72.3281 109.045 72.5552 108.777 72.7489C108.519 72.9426 108.251 73.0931 107.973 73.2005C107.696 73.3079 107.427 73.3625 107.168 73.3641C106.582 73.3679 106.058 73.2512 105.596 73.0141C105.133 72.7674 104.766 72.4001 104.494 71.9121C104.232 71.4145 104.098 70.7864 104.093 70.0279C104.089 69.2982 104.238 68.6683 104.542 68.1383C104.846 67.5987 105.251 67.1832 105.758 66.8919C106.265 66.6006 106.821 66.453 107.426 66.4492C107.935 66.4459 108.416 66.5484 108.868 66.7568C109.331 66.9555 109.741 67.2697 110.099 67.6995C110.466 68.1196 110.753 68.6651 110.959 69.3359C111.174 69.9971 111.285 70.7885 111.291 71.7103C111.297 72.7184 111.193 73.588 110.976 74.3192C110.76 75.0407 110.457 75.6379 110.066 76.1109C109.685 76.5838 109.25 76.9371 108.762 77.1707C108.274 77.3946 107.766 77.5083 107.238 77.5117ZM114.406 74.2396C114.042 74.242 113.719 74.148 113.437 73.9578C113.154 73.7675 112.933 73.4912 112.773 73.1287C112.613 72.7594 112.531 72.321 112.528 71.8135C112.525 71.306 112.601 70.8734 112.756 70.5157C112.912 70.1513 113.129 69.8755 113.409 69.6886C113.689 69.4947 114.011 69.3967 114.375 69.3943C114.923 69.3908 115.37 69.5972 115.716 70.0133C116.068 70.4294 116.247 71.0215 116.252 71.7897C116.255 72.2972 116.179 72.7366 116.024 73.1079C115.868 73.4724 115.651 73.7516 115.371 73.9454C115.098 74.1392 114.776 74.2373 114.406 74.2396ZM114.4 73.3755C114.626 73.3741 114.814 73.2528 114.964 73.0118C115.12 72.7639 115.196 72.3588 115.192 71.7964C115.189 71.2341 115.107 70.8368 114.948 70.6046C114.796 70.3655 114.606 70.2467 114.38 70.2482C114.161 70.2496 113.973 70.3708 113.817 70.6118C113.667 70.846 113.594 71.2442 113.598 71.8066C113.601 72.369 113.68 72.7731 113.832 73.0191C113.991 73.2581 114.181 73.3769 114.4 73.3755ZM119.991 77.28C119.627 77.2823 119.304 77.1883 119.022 76.9981C118.739 76.8079 118.515 76.5315 118.348 76.1691C118.188 75.8066 118.106 75.3716 118.103 74.8641C118.1 74.3498 118.176 73.9138 118.331 73.5561C118.493 73.1916 118.715 72.9158 118.995 72.7289C119.274 72.5351 119.596 72.437 119.96 72.4347C120.323 72.4323 120.646 72.5263 120.929 72.7165C121.211 72.8999 121.432 73.1728 121.592 73.5353C121.752 73.8909 121.834 74.3259 121.837 74.8403C121.84 75.3478 121.764 75.7838 121.609 76.1483C121.453 76.5127 121.236 76.7919 120.956 76.9857C120.676 77.1796 120.354 77.2776 119.991 77.28ZM119.985 76.4261C120.212 76.4247 120.399 76.3 120.549 76.0522C120.698 75.8043 120.771 75.4026 120.767 74.8471C120.764 74.2779 120.686 73.8771 120.533 73.6449C120.381 73.4127 120.192 73.2973 119.965 73.2988C119.739 73.3002 119.548 73.418 119.391 73.6522C119.242 73.8864 119.169 74.2881 119.173 74.8573C119.176 75.4128 119.254 75.8135 119.407 76.0595C119.566 76.3053 119.759 76.4276 119.985 76.4261ZM114.682 77.3139L118.788 69.3661L119.693 69.3603L115.577 77.3082L114.682 77.3139Z" fill="white"/>
<rect x="92.6" y="107.68" width="44.1382" height="20.9785" rx="10.4893" fill="#18724A"/>
<rect x="92.6" y="107.68" width="44.1382" height="20.9785" rx="10.4893" stroke="#FFDA03" stroke-width="0.8"/>
<path d="M105.002 124.432C104.445 124.436 103.945 124.372 103.503 124.24C103.06 124.118 102.666 123.948 102.318 123.729C101.981 123.501 101.686 123.249 101.435 122.972L102.42 121.626C102.749 121.922 103.106 122.178 103.491 122.397C103.886 122.606 104.324 122.708 104.804 122.705C105.168 122.703 105.485 122.643 105.753 122.526C106.031 122.409 106.241 122.24 106.384 122.018C106.536 121.797 106.611 121.527 106.609 121.21C106.607 120.855 106.518 120.553 106.344 120.305C106.179 120.046 105.885 119.851 105.461 119.72C105.038 119.588 104.442 119.525 103.674 119.53L103.665 118.003C104.317 117.999 104.831 117.928 105.204 117.791C105.578 117.645 105.841 117.451 105.993 117.21C106.154 116.96 106.234 116.676 106.232 116.359C106.229 115.946 106.103 115.625 105.851 115.396C105.6 115.158 105.249 115.04 104.798 115.043C104.423 115.046 104.073 115.134 103.748 115.309C103.432 115.474 103.117 115.702 102.802 115.992L101.699 114.688C102.167 114.292 102.659 113.977 103.176 113.743C103.693 113.499 104.264 113.376 104.888 113.372C105.57 113.367 106.17 113.474 106.69 113.692C107.22 113.909 107.63 114.228 107.921 114.649C108.211 115.069 108.359 115.582 108.363 116.187C108.366 116.763 108.216 117.259 107.911 117.673C107.607 118.088 107.172 118.408 106.607 118.632L106.607 118.704C107.002 118.807 107.358 118.978 107.676 119.216C108.004 119.444 108.26 119.735 108.445 120.09C108.639 120.444 108.738 120.856 108.741 121.326C108.745 121.97 108.576 122.523 108.233 122.986C107.9 123.449 107.446 123.807 106.872 124.06C106.307 124.304 105.684 124.428 105.002 124.432ZM113.814 124.376C113.094 124.381 112.459 124.178 111.909 123.769C111.368 123.35 110.942 122.729 110.629 121.905C110.326 121.071 110.171 120.04 110.163 118.811C110.155 117.592 110.298 116.578 110.59 115.769C110.892 114.951 111.311 114.339 111.846 113.932C112.391 113.526 113.023 113.32 113.743 113.315C114.473 113.311 115.108 113.513 115.648 113.922C116.188 114.322 116.61 114.924 116.913 115.729C117.225 116.534 117.385 117.546 117.393 118.765C117.401 119.994 117.254 121.027 116.952 121.864C116.66 122.692 116.246 123.319 115.711 123.745C115.176 124.161 114.543 124.371 113.814 124.376ZM113.803 122.72C114.12 122.718 114.398 122.596 114.636 122.354C114.875 122.113 115.059 121.708 115.19 121.141C115.321 120.564 115.383 119.776 115.377 118.778C115.37 117.789 115.298 117.016 115.16 116.46C115.022 115.895 114.832 115.502 114.591 115.283C114.349 115.054 114.07 114.941 113.753 114.943C113.456 114.945 113.183 115.062 112.935 115.294C112.696 115.516 112.507 115.911 112.366 116.478C112.226 117.036 112.159 117.809 112.165 118.798C112.171 119.797 112.248 120.584 112.396 121.159C112.544 121.724 112.738 122.127 112.98 122.365C113.231 122.603 113.506 122.722 113.803 122.72ZM121.523 118.858L127.772 117.985L127.954 119.146L121.705 120.04L121.523 118.858ZM125.373 116.014L126.295 115.432C126.474 115.589 126.661 115.766 126.854 115.964C127.047 116.162 127.227 116.359 127.393 116.557C127.559 116.748 127.69 116.926 127.787 117.09L126.793 117.723C126.71 117.566 126.589 117.389 126.43 117.191C126.271 116.986 126.098 116.781 125.911 116.577C125.732 116.372 125.552 116.185 125.373 116.014ZM120.925 115.477L122.111 115.85C121.854 116.462 121.549 117.071 121.196 117.677C120.85 118.283 120.473 118.851 120.065 119.382C119.664 119.912 119.249 120.378 118.819 120.778C118.784 120.676 118.725 120.546 118.642 120.389C118.558 120.231 118.468 120.074 118.371 119.917C118.281 119.76 118.198 119.63 118.122 119.528C118.497 119.21 118.858 118.834 119.205 118.399C119.552 117.965 119.875 117.5 120.174 117.004C120.472 116.502 120.723 115.993 120.925 115.477ZM119.884 118.436L121.131 117.163L121.152 117.183L121.202 125.033L119.927 125.041L119.884 118.436ZM123.425 115.533L124.68 115.525C124.701 116.622 124.756 117.647 124.844 118.6C124.939 119.546 125.068 120.378 125.23 121.097C125.393 121.817 125.592 122.388 125.828 122.812C126.064 123.229 126.336 123.457 126.645 123.496C126.762 123.502 126.853 123.371 126.92 123.103C126.987 122.835 127.039 122.416 127.077 121.847C127.153 121.929 127.256 122.017 127.387 122.112C127.518 122.208 127.649 122.296 127.78 122.377C127.91 122.452 128.014 122.51 128.089 122.55C128.004 123.216 127.888 123.728 127.739 124.085C127.597 124.443 127.438 124.684 127.26 124.809C127.083 124.94 126.898 125 126.706 124.987C126.219 124.942 125.799 124.767 125.447 124.46C125.096 124.154 124.798 123.727 124.554 123.18C124.318 122.633 124.122 121.979 123.966 121.219C123.817 120.458 123.702 119.602 123.62 118.649C123.539 117.689 123.474 116.651 123.425 115.533Z" fill="#FFDA03"/>
<path d="M105.002 144.66C104.445 144.664 103.945 144.6 103.503 144.468C103.06 144.346 102.666 144.176 102.318 143.957C101.981 143.729 101.686 143.476 101.435 143.199L102.42 141.854C102.749 142.149 103.106 142.406 103.491 142.624C103.886 142.833 104.324 142.936 104.804 142.933C105.168 142.931 105.485 142.871 105.753 142.754C106.031 142.637 106.241 142.468 106.384 142.246C106.536 142.024 106.611 141.755 106.609 141.438C106.607 141.083 106.518 140.781 106.344 140.532C106.179 140.274 105.885 140.079 105.461 139.947C105.038 139.816 104.442 139.752 103.674 139.757L103.665 138.231C104.317 138.226 104.831 138.156 105.204 138.019C105.578 137.873 105.841 137.679 105.993 137.438C106.154 137.187 106.234 136.903 106.232 136.587C106.229 136.174 106.103 135.853 105.852 135.624C105.6 135.386 105.249 135.268 104.798 135.271C104.423 135.273 104.073 135.362 103.748 135.537C103.432 135.702 103.117 135.93 102.802 136.22L101.699 134.916C102.167 134.519 102.659 134.204 103.176 133.97C103.693 133.727 104.264 133.603 104.888 133.599C105.57 133.595 106.17 133.702 106.69 133.919C107.22 134.137 107.63 134.456 107.921 134.876C108.211 135.297 108.359 135.81 108.363 136.415C108.366 136.991 108.216 137.486 107.911 137.901C107.607 138.316 107.172 138.635 106.607 138.86L106.607 138.932C107.002 139.035 107.358 139.206 107.676 139.444C108.004 139.672 108.26 139.963 108.445 140.317C108.639 140.671 108.738 141.083 108.741 141.554C108.745 142.197 108.576 142.75 108.233 143.213C107.9 143.676 107.446 144.035 106.872 144.288C106.307 144.532 105.684 144.656 105.002 144.66ZM113.555 144.605C112.988 144.609 112.484 144.545 112.041 144.413C111.598 144.282 111.204 144.107 110.857 143.888C110.51 143.669 110.201 143.431 109.93 143.174L110.901 141.814C111.104 142.014 111.321 142.195 111.553 142.357C111.794 142.519 112.054 142.647 112.333 142.741C112.621 142.835 112.929 142.881 113.255 142.879C113.62 142.877 113.941 142.798 114.219 142.642C114.506 142.487 114.73 142.265 114.892 141.975C115.053 141.677 115.132 141.321 115.13 140.908C115.126 140.294 114.955 139.819 114.616 139.486C114.288 139.152 113.855 138.986 113.317 138.99C113.01 138.992 112.746 139.037 112.526 139.124C112.305 139.203 112.037 139.344 111.722 139.547L110.753 138.934L111.008 133.748L116.711 133.711L116.723 135.497L112.848 135.522L112.661 137.784C112.872 137.687 113.078 137.613 113.279 137.564C113.48 137.515 113.701 137.489 113.941 137.488C114.536 137.484 115.084 137.601 115.585 137.837C116.086 138.065 116.487 138.427 116.788 138.924C117.088 139.422 117.241 140.059 117.246 140.837C117.251 141.624 117.078 142.302 116.726 142.871C116.384 143.43 115.931 143.86 115.366 144.162C114.811 144.453 114.207 144.601 113.555 144.605ZM120.406 141.335C120.042 141.338 119.719 141.244 119.437 141.053C119.154 140.863 118.933 140.587 118.773 140.224C118.613 139.855 118.531 139.417 118.528 138.909C118.525 138.402 118.601 137.969 118.756 137.611C118.912 137.247 119.129 136.971 119.409 136.784C119.689 136.59 120.011 136.492 120.375 136.49C120.923 136.487 121.37 136.693 121.716 137.109C122.068 137.525 122.247 138.117 122.252 138.885C122.255 139.393 122.179 139.832 122.024 140.204C121.868 140.568 121.651 140.847 121.371 141.041C121.098 141.235 120.776 141.333 120.406 141.335ZM120.4 140.471C120.626 140.47 120.814 140.349 120.964 140.108C121.12 139.86 121.196 139.454 121.192 138.892C121.189 138.33 121.107 137.932 120.948 137.7C120.796 137.461 120.606 137.342 120.38 137.344C120.161 137.345 119.973 137.467 119.817 137.708C119.667 137.942 119.594 138.34 119.598 138.902C119.601 139.465 119.68 139.869 119.832 140.115C119.991 140.354 120.181 140.473 120.4 140.471ZM125.991 144.376C125.627 144.378 125.304 144.284 125.022 144.094C124.739 143.904 124.515 143.627 124.348 143.265C124.188 142.902 124.106 142.467 124.103 141.96C124.1 141.445 124.176 141.009 124.331 140.652C124.493 140.287 124.715 140.012 124.995 139.825C125.274 139.631 125.596 139.533 125.96 139.53C126.323 139.528 126.646 139.622 126.929 139.812C127.211 139.996 127.432 140.269 127.592 140.631C127.752 140.987 127.834 141.422 127.837 141.936C127.84 142.443 127.764 142.879 127.609 143.244C127.453 143.608 127.236 143.888 126.956 144.081C126.676 144.275 126.354 144.373 125.991 144.376ZM125.985 143.522C126.212 143.52 126.399 143.396 126.549 143.148C126.698 142.9 126.771 142.498 126.767 141.943C126.764 141.374 126.686 140.973 126.533 140.741C126.381 140.508 126.192 140.393 125.965 140.394C125.739 140.396 125.548 140.514 125.391 140.748C125.242 140.982 125.169 141.384 125.173 141.953C125.176 142.509 125.254 142.909 125.407 143.155C125.566 143.401 125.759 143.523 125.985 143.522ZM120.682 144.41L124.788 136.462L125.693 136.456L121.577 144.404L120.682 144.41Z" fill="white"/>
<rect x="16.6" y="99.6859" width="44.1382" height="20.9785" rx="10.4893" fill="#18724A"/>
<rect x="16.6" y="99.6859" width="44.1382" height="20.9785" rx="10.4893" stroke="#FFDA03" stroke-width="0.8"/>
<path d="M29.9223 116.231L29.8804 109.678C29.8785 109.371 29.8857 109.006 29.9022 108.584C29.9187 108.151 29.9355 107.777 29.9527 107.46L29.8807 107.46C29.7577 107.749 29.6251 108.038 29.4829 108.327C29.3407 108.616 29.1938 108.91 29.0421 109.208L27.4028 111.869L33.1348 111.832L33.1451 113.445L25.3536 113.495L25.3444 112.055L29.278 105.563L31.8272 105.547L31.8954 116.219L29.9223 116.231ZM37.8137 116.382C37.0936 116.387 36.4586 116.185 35.9087 115.775C35.3683 115.356 34.9419 114.735 34.6293 113.911C34.3264 113.078 34.1709 112.046 34.1631 110.818C34.1553 109.598 34.2976 108.584 34.5901 107.776C34.8922 106.958 35.3107 106.345 35.8458 105.939C36.3905 105.532 37.0229 105.326 37.743 105.322C38.4728 105.317 39.1078 105.519 39.6481 105.929C40.1883 106.329 40.6099 106.931 40.9127 107.735C41.2251 108.54 41.3852 109.552 41.393 110.771C41.4008 112 41.2538 113.033 40.9519 113.871C40.6595 114.698 40.2458 115.325 39.7109 115.751C39.1758 116.167 38.5435 116.378 37.8137 116.382ZM37.8032 114.726C38.12 114.724 38.3977 114.602 38.6362 114.361C38.8747 114.119 39.0593 113.715 39.1901 113.147C39.3209 112.57 39.383 111.783 39.3767 110.784C39.3703 109.795 39.2982 109.023 39.1602 108.467C39.0222 107.901 38.8324 107.509 38.591 107.289C38.3495 107.06 38.0703 106.947 37.7534 106.949C37.4558 106.951 37.1829 107.068 36.9347 107.3C36.6961 107.522 36.5066 107.917 36.3662 108.485C36.2257 109.042 36.1587 109.816 36.165 110.805C36.1714 111.803 36.2484 112.59 36.3961 113.165C36.5438 113.731 36.7384 114.133 36.9799 114.371C37.2311 114.61 37.5055 114.728 37.8032 114.726ZM45.5228 110.864L51.7722 109.991L51.9545 111.152L45.7053 112.046L45.5228 110.864ZM49.3728 108.021L50.295 107.439C50.4743 107.595 50.6606 107.773 50.8539 107.97C51.0472 108.168 51.2268 108.366 51.3927 108.563C51.5585 108.754 51.69 108.932 51.787 109.096L50.7932 109.73C50.7099 109.573 50.5887 109.395 50.4297 109.197C50.2706 108.992 50.0979 108.788 49.9114 108.583C49.7318 108.379 49.5522 108.191 49.3728 108.021ZM44.9251 107.483L46.1106 107.856C45.8539 108.469 45.5491 109.077 45.1964 109.683C44.8505 110.289 44.4735 110.857 44.0653 111.388C43.6641 111.919 43.2487 112.384 42.8192 112.785C42.7842 112.682 42.7251 112.552 42.6418 112.395C42.5585 112.238 42.4683 112.081 42.3713 111.923C42.2811 111.766 42.198 111.636 42.1219 111.534C42.4971 111.216 42.8582 110.84 43.2052 110.406C43.5522 109.972 43.875 109.507 44.1736 109.011C44.4722 108.508 44.7227 107.999 44.9251 107.483ZM43.8844 110.443L45.1314 109.169L45.1521 109.19L45.2022 117.039L43.9266 117.047L43.8844 110.443ZM47.4254 107.539L48.6804 107.531C48.7012 108.629 48.7557 109.654 48.8441 110.606C48.9393 111.552 49.0681 112.385 49.2304 113.104C49.3928 113.823 49.5919 114.394 49.8278 114.818C50.0636 115.235 50.336 115.463 50.6449 115.502C50.7615 115.508 50.8533 115.377 50.9201 115.109C50.987 114.842 51.0392 114.423 51.0767 113.853C51.1527 113.935 51.2561 114.024 51.387 114.119C51.518 114.214 51.6488 114.302 51.7797 114.384C51.9105 114.458 52.0137 114.516 52.0894 114.557C52.0045 115.223 51.8877 115.734 51.7391 116.092C51.5974 116.449 51.4378 116.69 51.2602 116.815C51.0828 116.946 50.898 117.006 50.7059 116.993C50.2186 116.949 49.7991 116.773 49.4474 116.467C49.0957 116.16 48.798 115.733 48.5545 115.186C48.3178 114.639 48.1216 113.985 47.9658 113.225C47.8169 112.465 47.7017 111.608 47.6202 110.655C47.5386 109.696 47.4737 108.657 47.4254 107.539Z" fill="#FFDA03"/>
<path d="M29.0019 136.666C28.445 136.67 27.9453 136.606 27.5028 136.474C27.0603 136.352 26.6655 136.182 26.3185 135.963C25.981 135.735 25.6865 135.483 25.4351 135.206L26.4203 133.86C26.7486 134.155 27.1055 134.412 27.491 134.631C27.886 134.84 28.3235 134.942 28.8036 134.939C29.1685 134.937 29.4849 134.877 29.753 134.76C30.0308 134.643 30.2409 134.474 30.3835 134.252C30.5357 134.03 30.6108 133.761 30.6088 133.444C30.6065 133.089 30.5182 132.787 30.3438 132.539C30.1789 132.28 29.8848 132.085 29.4615 131.954C29.0381 131.822 28.4424 131.759 27.6743 131.764L27.6645 130.237C28.3174 130.233 28.8307 130.162 29.2043 130.025C29.5778 129.879 29.8406 129.685 29.9927 129.444C30.1543 129.194 30.2342 128.91 30.2321 128.593C30.2295 128.18 30.1026 127.859 29.8515 127.63C29.6003 127.392 29.2491 127.274 28.7978 127.277C28.4234 127.279 28.0735 127.368 27.7481 127.543C27.4323 127.708 27.1169 127.936 26.8019 128.226L25.699 126.922C26.1669 126.526 26.6594 126.211 27.1764 125.977C27.6934 125.733 28.2639 125.61 28.888 125.606C29.5697 125.601 30.1705 125.708 30.6904 125.926C31.2199 126.143 31.63 126.462 31.9207 126.883C32.2115 127.303 32.3588 127.816 32.3626 128.421C32.3663 128.997 32.2159 129.492 31.9112 129.907C31.6066 130.322 31.1718 130.642 30.6067 130.866L30.6072 130.938C31.0015 131.041 31.3579 131.212 31.6763 131.45C32.0042 131.678 32.2605 131.969 32.4452 132.324C32.6395 132.678 32.7381 133.09 32.7411 133.56C32.7453 134.204 32.576 134.757 32.2333 135.22C31.9002 135.683 31.4464 136.041 30.8719 136.294C30.3069 136.538 29.6836 136.662 29.0019 136.666ZM34.1831 136.432L34.1753 135.207C35.1395 134.337 35.9601 133.53 36.6371 132.786C37.3237 132.043 37.8474 131.353 38.2082 130.717C38.5689 130.071 38.7475 129.475 38.744 128.927C38.7418 128.582 38.6775 128.28 38.551 128.021C38.4245 127.763 38.2408 127.567 38 127.434C37.7686 127.292 37.4801 127.222 37.1344 127.224C36.7504 127.226 36.3958 127.339 36.0708 127.562C35.7553 127.775 35.4641 128.031 35.1971 128.331L34.0089 127.201C34.5047 126.66 35.011 126.253 35.5278 125.981C36.0541 125.699 36.6773 125.556 37.3974 125.551C38.0695 125.547 38.6561 125.683 39.1571 125.958C39.6677 126.223 40.0638 126.6 40.3454 127.088C40.627 127.576 40.7699 128.151 40.7741 128.814C40.7782 129.457 40.6192 130.116 40.297 130.79C39.9844 131.454 39.5614 132.12 39.0279 132.786C38.4945 133.451 37.9034 134.108 37.2546 134.756C37.5328 134.715 37.8303 134.685 38.147 134.664C38.4732 134.633 38.7612 134.616 39.0108 134.615L41.3152 134.6L41.3266 136.386L34.1831 136.432ZM44.4056 133.342C44.0421 133.344 43.7192 133.25 43.4367 133.06C43.1543 132.87 42.9331 132.593 42.773 132.231C42.6129 131.861 42.5313 131.423 42.528 130.916C42.5248 130.408 42.6009 129.975 42.7563 129.618C42.9117 129.253 43.1295 128.978 43.4095 128.791C43.6894 128.597 44.0111 128.499 44.3746 128.496C44.9233 128.493 45.3704 128.699 45.716 129.115C46.0684 129.531 46.2471 130.124 46.252 130.892C46.2552 131.399 46.1792 131.839 46.0238 132.21C45.8684 132.574 45.6507 132.854 45.3707 133.047C45.0976 133.241 44.7759 133.339 44.4056 133.342ZM44.4001 132.478C44.6264 132.476 44.8142 132.355 44.9636 132.114C45.1197 131.866 45.196 131.461 45.1924 130.898C45.1888 130.336 45.1074 129.939 44.9482 129.707C44.7958 129.468 44.6064 129.349 44.3801 129.35C44.1606 129.352 43.9728 129.473 43.8166 129.714C43.6672 129.948 43.5943 130.346 43.5979 130.909C43.6015 131.471 43.6795 131.875 43.832 132.121C43.9912 132.36 44.1806 132.479 44.4001 132.478ZM49.9907 136.382C49.6272 136.384 49.3042 136.29 49.0218 136.1C48.7394 135.91 48.5147 135.634 48.3478 135.271C48.1877 134.909 48.1061 134.474 48.1029 133.966C48.0996 133.452 48.1757 133.016 48.3311 132.658C48.4934 132.294 48.7145 132.018 48.9945 131.831C49.2745 131.637 49.5962 131.539 49.9597 131.537C50.3232 131.534 50.6461 131.628 50.9285 131.819C51.2109 132.002 51.4321 132.275 51.5922 132.637C51.7522 132.993 51.8338 133.428 51.8371 133.942C51.8404 134.45 51.7643 134.886 51.6089 135.25C51.4535 135.615 51.2358 135.894 50.9558 136.088C50.6759 136.282 50.3541 136.38 49.9907 136.382ZM49.9852 135.528C50.2115 135.527 50.3993 135.402 50.5486 135.154C50.6979 134.906 50.7708 134.505 50.7673 133.949C50.7636 133.38 50.6856 132.979 50.5332 132.747C50.3809 132.515 50.1915 132.399 49.9652 132.401C49.7389 132.402 49.5476 132.52 49.3914 132.754C49.242 132.988 49.1691 133.39 49.1727 133.959C49.1763 134.515 49.2543 134.916 49.4067 135.162C49.5661 135.407 49.7589 135.53 49.9852 135.528ZM44.6824 136.416L48.7879 128.468L49.6931 128.462L45.5774 136.41L44.6824 136.416Z" fill="white"/>
<rect x="26.6" y="40.5839" width="44.1382" height="20.9785" rx="10.4893" fill="#18724A"/>
<rect x="26.6" y="40.5839" width="44.1382" height="20.9785" rx="10.4893" stroke="#FFDA03" stroke-width="0.8"/>
<path d="M39.0595 57.3363C38.493 57.34 37.9885 57.276 37.546 57.1444C37.1034 57.0128 36.7086 56.8377 36.3616 56.619C36.0145 56.4004 35.7057 56.1623 35.4352 55.9048L36.4059 54.5448C36.6089 54.7451 36.8261 54.9262 37.0575 55.0879C37.2986 55.2496 37.5587 55.3776 37.8377 55.4718C38.1264 55.566 38.4339 55.612 38.7604 55.6099C39.1252 55.6076 39.4464 55.5287 39.7239 55.3733C40.0109 55.2179 40.2351 54.9956 40.3965 54.7065C40.5579 54.4078 40.6372 54.052 40.6346 53.6392C40.6306 53.0247 40.4596 52.5505 40.1214 52.2166C39.7928 51.8826 39.3596 51.7173 38.822 51.7208C38.5147 51.7228 38.2509 51.7676 38.0307 51.8555C37.8103 51.9337 37.5424 52.0746 37.2268 52.2783L36.2579 51.6652L36.5128 46.4785L42.2161 46.4421L42.2275 48.228L38.3533 48.2527L38.1661 50.5151C38.3767 50.4178 38.5827 50.3445 38.784 50.2952C38.9854 50.2459 39.206 50.2204 39.4461 50.2189C40.0414 50.2151 40.5894 50.3316 41.0902 50.5685C41.591 50.7957 41.9918 51.158 42.2926 51.6554C42.5934 52.1528 42.7463 52.7903 42.7513 53.568C42.7563 54.3553 42.583 55.0334 42.2314 55.6021C41.8893 56.1612 41.436 56.5914 40.8714 56.8927C40.3164 57.1843 39.7124 57.3322 39.0595 57.3363ZM47.8137 57.2804C47.0936 57.285 46.4586 57.0826 45.9087 56.6732C45.3683 56.2542 44.9419 55.6328 44.6293 54.8091C44.3264 53.9756 44.1709 52.9444 44.1631 51.7155C44.1553 50.4961 44.2976 49.4822 44.5901 48.6737C44.8922 47.8557 45.3107 47.2433 45.8458 46.8366C46.3905 46.4298 47.0229 46.2241 47.743 46.2195C48.4728 46.2149 49.1078 46.4172 49.6481 46.8267C50.1883 47.2265 50.6099 47.8287 50.9127 48.6333C51.2251 49.4379 51.3852 50.4499 51.393 51.6692C51.4008 52.8982 51.2538 53.9314 50.9519 54.7687C50.6595 55.5963 50.2458 56.223 49.7109 56.6489C49.1758 57.0652 48.5435 57.2757 47.8137 57.2804ZM47.8032 55.6241C48.12 55.6221 48.3977 55.5003 48.6362 55.2587C48.8747 55.0172 49.0593 54.6127 49.1901 54.0454C49.3209 53.4684 49.383 52.6807 49.3767 51.6821C49.3703 50.6932 49.2982 49.9207 49.1602 49.3647C49.0222 48.799 48.8324 48.4066 48.591 48.1873C48.3495 47.9584 48.0703 47.8449 47.7534 47.847C47.4558 47.8489 47.1829 47.9658 46.9347 48.1979C46.6961 48.4202 46.5066 48.8151 46.3662 49.3825C46.2257 49.9403 46.1587 50.7137 46.165 51.7027C46.1714 52.7012 46.2484 53.4881 46.3961 54.0632C46.5438 54.6288 46.7384 55.0308 46.9799 55.2693C47.2311 55.5078 47.5055 55.626 47.8032 55.6241ZM55.5228 51.7622L61.7722 50.8889L61.9545 52.0503L55.7053 52.9441L55.5228 51.7622ZM59.3728 48.9188L60.295 48.3368C60.4743 48.4933 60.6606 48.6705 60.8539 48.8681C61.0472 49.0658 61.2268 49.2635 61.3927 49.4614C61.5585 49.6524 61.69 49.8298 61.787 49.9938L60.7932 50.6277C60.7099 50.4705 60.5887 50.293 60.4297 50.0951C60.2706 49.8903 60.0979 49.6857 59.9114 49.4811C59.7318 49.2765 59.5522 49.0891 59.3728 48.9188ZM54.9251 48.3814L56.1106 48.7544C55.8539 49.3665 55.5491 49.9754 55.1964 50.5812C54.8505 51.1869 54.4735 51.7552 54.0653 52.2859C53.6641 52.8165 53.2487 53.2821 52.8192 53.6827C52.7842 53.58 52.7251 53.4501 52.6418 53.2929C52.5585 53.1357 52.4683 52.9785 52.3713 52.8214C52.2811 52.6642 52.198 52.5344 52.1219 52.432C52.4971 52.1142 52.8582 51.7381 53.2052 51.3038C53.5522 50.8695 53.875 50.4045 54.1736 49.9087C54.4722 49.4062 54.7227 48.897 54.9251 48.3814ZM53.8844 51.3406L55.1314 50.0672L55.1521 50.0877L55.2022 57.9368L53.9266 57.945L53.8844 51.3406ZM57.4254 48.4374L58.6804 48.4294C58.7012 49.5266 58.7557 50.5516 58.8441 51.5043C58.9393 52.4502 59.0681 53.2827 59.2304 54.0018C59.3928 54.7209 59.5919 55.2923 59.8278 55.716C60.0636 56.1329 60.336 56.3609 60.6449 56.4001C60.7615 56.4062 60.8533 56.2753 60.9201 56.0074C60.987 55.7395 61.0392 55.3208 61.0767 54.7513C61.1527 54.8331 61.2561 54.9216 61.387 55.0168C61.518 55.1119 61.6488 55.2003 61.7797 55.2817C61.9105 55.3563 62.0137 55.414 62.0894 55.4546C62.0045 56.1205 61.8877 56.6322 61.7391 56.9897C61.5974 57.3473 61.4378 57.5884 61.2602 57.7129C61.0828 57.8444 60.898 57.9039 60.7059 57.8914C60.2186 57.8465 59.7991 57.6708 59.4474 57.3645C59.0957 57.0581 58.798 56.6313 58.5545 56.0842C58.3178 55.537 58.1216 54.8833 57.9658 54.123C57.8169 53.3627 57.7017 52.5061 57.6202 51.5533C57.5386 50.5937 57.4737 49.555 57.4254 48.4374Z" fill="#FFDA03"/>
<path d="M44.2798 77.3289L44.2688 75.6007L46.5731 75.5859L46.5301 68.8601L44.5858 68.8726L44.5774 67.5476C45.1144 67.4481 45.5746 67.33 45.9578 67.1931C46.3505 67.0465 46.7142 66.8618 47.0488 66.6388L48.6187 66.6288L48.6758 75.5725L50.6777 75.5597L50.6888 77.288L44.2798 77.3289ZM52.2131 77.2782L52.2053 76.054C53.1695 75.1837 53.9901 74.3767 54.6671 73.633C55.3537 72.8893 55.8774 72.1994 56.2382 71.5634C56.5989 70.9178 56.7776 70.3213 56.7741 69.774C56.7718 69.4284 56.7075 69.1264 56.581 68.8679C56.4546 68.6095 56.2709 68.4138 56.03 68.2809C55.7986 68.1384 55.5101 68.0682 55.1645 68.0704C54.7804 68.0729 54.4259 68.1856 54.1008 68.4085C53.7853 68.6217 53.4941 68.878 53.2272 69.1774L52.0389 68.0472C52.5348 67.5063 53.0411 67.0998 53.5578 66.8276C54.0841 66.5458 54.7073 66.4026 55.4274 66.398C56.0995 66.3937 56.6861 66.5292 57.1872 66.8044C57.6978 67.07 58.0938 67.4468 58.3754 67.9347C58.657 68.4226 58.7999 68.9978 58.8041 69.6603C58.8082 70.3036 58.6492 70.9623 58.3271 71.6365C58.0144 72.301 57.5914 72.9662 57.058 73.6322C56.5245 74.2981 55.9334 74.9548 55.2846 75.6023C55.5628 75.5621 55.8603 75.5314 56.177 75.5102C56.5033 75.4793 56.7912 75.463 57.0408 75.4614L59.3452 75.4467L59.3566 77.2326L52.2131 77.2782ZM62.4356 74.1883C62.0721 74.1906 61.7492 74.0967 61.4668 73.9064C61.1844 73.7162 60.9631 73.4399 60.8031 73.0774C60.6429 72.7081 60.5613 72.2696 60.558 71.7621C60.5548 71.2546 60.6309 70.8221 60.7864 70.4644C60.9418 70.0999 61.1595 69.8242 61.4395 69.6372C61.7194 69.4434 62.0412 69.3453 62.4046 69.343C62.9533 69.3395 63.4004 69.5458 63.746 69.962C64.0984 70.3781 64.2771 70.9702 64.282 71.7383C64.2853 72.2458 64.2092 72.6853 64.0538 73.0566C63.8984 73.4211 63.6807 73.7003 63.4008 73.8941C63.1277 74.0879 62.8059 74.1859 62.4356 74.1883ZM62.4301 73.3242C62.6564 73.3227 62.8442 73.2015 62.9936 72.9605C63.1497 72.7126 63.226 72.3075 63.2224 71.7451C63.2188 71.1827 63.1374 70.7855 62.9782 70.5533C62.8258 70.3142 62.6364 70.1954 62.4101 70.1969C62.1906 70.1983 62.0028 70.3195 61.8466 70.5605C61.6972 70.7947 61.6243 71.1929 61.6279 71.7553C61.6315 72.3177 61.7095 72.7218 61.862 72.9677C62.0213 73.2068 62.2106 73.3256 62.4301 73.3242ZM68.0207 77.2286C67.6572 77.231 67.3342 77.137 67.0518 76.9468C66.7694 76.7565 66.5447 76.4802 66.3778 76.1178C66.2178 75.7553 66.1361 75.3203 66.1329 74.8128C66.1296 74.2984 66.2057 73.8624 66.3611 73.5048C66.5234 73.1403 66.7445 72.8645 67.0245 72.6776C67.3045 72.4837 67.6262 72.3857 67.9897 72.3833C68.3532 72.381 68.6761 72.475 68.9585 72.6652C69.2409 72.8486 69.4621 73.1215 69.6222 73.484C69.7822 73.8396 69.8639 74.2746 69.8671 74.7889C69.8704 75.2964 69.7943 75.7324 69.6389 76.0969C69.4835 76.4614 69.2658 76.7406 68.9858 76.9344C68.7059 77.1282 68.3842 77.2263 68.0207 77.2286ZM68.0152 76.3748C68.2415 76.3733 68.4293 76.2487 68.5786 76.0008C68.7279 75.753 68.8008 75.3513 68.7973 74.7958C68.7936 74.2265 68.7156 73.8258 68.5633 73.5936C68.4109 73.3614 68.2215 73.246 67.9952 73.2475C67.7689 73.2489 67.5776 73.3667 67.4214 73.6009C67.272 73.8351 67.1991 74.2367 67.2027 74.806C67.2063 75.3615 67.2843 75.7622 67.4368 76.0081C67.5961 76.254 67.7889 76.3762 68.0152 76.3748ZM62.7124 77.2626L66.8179 69.3148L67.7231 69.309L63.6074 77.2568L62.7124 77.2626Z" fill="white"/>
<rect x="0.6" y="3.48647" width="39.9076" height="20.9722" rx="10.4861" fill="#18724A"/>
<rect x="0.6" y="3.48647" width="39.9076" height="20.9722" rx="10.4861" stroke="#FFDA03" stroke-width="0.8"/>
<path d="M11.7742 20.2245C11.2897 20.2276 10.8185 20.1281 10.3606 19.926C9.91206 19.7239 9.51405 19.4143 9.16661 18.9972C8.81912 18.5708 8.54079 18.0321 8.33163 17.3812C8.13172 16.7209 8.02885 15.9341 8.02302 15.021C8.01688 14.0613 8.11874 13.2313 8.32858 12.5311C8.54774 11.8308 8.84228 11.2605 9.21219 10.8202C9.58205 10.3706 10.0039 10.0371 10.4777 9.81973C10.9609 9.60232 11.468 9.49192 11.9991 9.48852C12.6327 9.48447 13.1786 9.59746 13.6366 9.82749C14.104 10.0481 14.4924 10.3205 14.802 10.6447L13.7197 11.8816C13.5413 11.6778 13.3072 11.5022 13.0174 11.355C12.7276 11.2077 12.4336 11.1351 12.1355 11.137C11.7162 11.1397 11.3349 11.2632 10.9917 11.5077C10.6578 11.7521 10.3902 12.1545 10.1887 12.7149C9.98732 13.2752 9.8897 14.04 9.8959 15.009C9.90161 15.9035 9.9854 16.6205 10.1473 17.1599C10.3184 17.69 10.5398 18.0752 10.8116 18.3158C11.0833 18.5563 11.3869 18.6755 11.7224 18.6734C11.9833 18.6717 12.2158 18.6003 12.4199 18.4592C12.6332 18.3088 12.8042 18.0934 12.9329 17.813C13.0615 17.5233 13.1245 17.1688 13.1218 16.7495C13.1192 16.3396 13.0518 16.0045 12.9197 15.7445C12.7969 15.4843 12.6233 15.2898 12.3988 15.1607C12.1837 15.0317 11.927 14.9681 11.6288 14.97C11.3493 14.9718 11.0564 15.0622 10.75 15.2412C10.4436 15.4109 10.1613 15.7108 9.90313 16.1411L9.79645 14.7581C9.98114 14.496 10.1987 14.2709 10.4491 14.083C10.7088 13.895 10.9734 13.7535 11.2431 13.6586C11.522 13.5636 11.7733 13.5154 11.9969 13.514C12.5746 13.5103 13.0878 13.6235 13.5366 13.8536C13.9946 14.0836 14.351 14.4354 14.6056 14.909C14.8602 15.3826 14.9899 15.9921 14.9947 16.7376C14.9992 17.4457 14.854 18.0616 14.5592 18.5853C14.2736 19.0997 13.8848 19.5028 13.3929 19.7948C12.9008 20.0775 12.3613 20.2208 11.7742 20.2245ZM19.7248 20.1737C19.026 20.1782 18.4097 19.9818 17.876 19.5845C17.3516 19.1778 16.9378 18.5748 16.6345 17.7754C16.3404 16.9666 16.1896 15.9658 16.182 14.7732C16.1744 13.5898 16.3126 12.6058 16.5964 11.8213C16.8895 11.0274 17.2957 10.4331 17.815 10.0384C18.3436 9.64365 18.9574 9.44405 19.6562 9.43958C20.3643 9.43506 20.9806 9.63146 21.505 10.0288C22.0293 10.4168 22.4383 11.0012 22.7322 11.7821C23.0354 12.5629 23.1907 13.5449 23.1983 14.7283C23.2059 15.921 23.0632 16.9236 22.7702 17.7362C22.4865 18.5393 22.0851 19.1476 21.5659 19.5609C21.0466 19.9649 20.433 20.1692 19.7248 20.1737ZM19.7145 18.5664C20.022 18.5644 20.2915 18.4462 20.5229 18.2118C20.7544 17.9773 20.9336 17.5848 21.0605 17.0342C21.1874 16.4743 21.2477 15.7099 21.2416 14.7408C21.2354 13.7811 21.1654 13.0314 21.0315 12.4918C20.8975 11.9429 20.7134 11.562 20.4791 11.3492C20.2447 11.1271 19.9738 11.017 19.6663 11.019C19.3774 11.0208 19.1126 11.1343 18.8718 11.3595C18.6402 11.5753 18.4563 11.9585 18.32 12.5091C18.1837 13.0505 18.1186 13.801 18.1247 14.7607C18.1309 15.7298 18.2057 16.4934 18.349 17.0516C18.4923 17.6004 18.6812 17.9906 18.9156 18.222C19.1594 18.4534 19.4257 18.5682 19.7145 18.5664ZM27.2062 14.8185L33.2709 13.9711L33.4478 15.0981L27.3832 15.9655L27.2062 14.8185ZM30.9424 12.0591L31.8374 11.4943C32.0114 11.6462 32.1922 11.8181 32.3798 12.01C32.5674 12.2018 32.7416 12.3937 32.9026 12.5857C33.0635 12.771 33.1911 12.9432 33.2853 13.1024L32.3208 13.7176C32.24 13.565 32.1224 13.3927 31.9681 13.2007C31.8137 13.002 31.646 12.8034 31.4651 12.6048C31.2908 12.4063 31.1165 12.2244 30.9424 12.0591ZM26.6261 11.5376L27.7766 11.8996C27.5274 12.4936 27.2317 13.0845 26.8893 13.6724C26.5537 14.2603 26.1878 14.8117 25.7917 15.3267C25.4023 15.8417 24.9992 16.2936 24.5824 16.6823C24.5484 16.5827 24.4911 16.4566 24.4102 16.304C24.3294 16.1514 24.2419 15.9989 24.1477 15.8464C24.0602 15.6939 23.9795 15.5679 23.9057 15.4686C24.2698 15.1601 24.6202 14.7951 24.957 14.3736C25.2937 13.9522 25.607 13.5009 25.8968 13.0198C26.1865 12.5321 26.4296 12.038 26.6261 11.5376ZM25.6161 14.4094L26.8263 13.1736L26.8463 13.1935L26.895 20.8108L25.6571 20.8187L25.6161 14.4094ZM29.0525 11.5919L30.2705 11.5841C30.2906 12.649 30.3435 13.6437 30.4293 14.5683C30.5217 15.4862 30.6467 16.2941 30.8042 16.9919C30.9618 17.6898 31.155 18.2443 31.3839 18.6555C31.6128 19.0601 31.8771 19.2813 32.1769 19.3194C32.2901 19.3253 32.3791 19.1983 32.444 18.9383C32.5089 18.6783 32.5596 18.272 32.596 17.7193C32.6697 17.7987 32.7701 17.8846 32.8971 17.9769C33.0242 18.0693 33.1512 18.155 33.2782 18.2341C33.4051 18.3065 33.5053 18.3624 33.5787 18.4019C33.4964 19.048 33.383 19.5446 33.2388 19.8916C33.1013 20.2386 32.9464 20.4726 32.7741 20.5935C32.6018 20.721 32.4225 20.7788 32.2361 20.7666C31.7632 20.7231 31.3561 20.5526 31.0148 20.2553C30.6734 19.958 30.3846 19.5438 30.1482 19.0129C29.9185 18.4819 29.7281 17.8474 29.577 17.1096C29.4325 16.3717 29.3207 15.5405 29.2416 14.6158C29.1624 13.6845 29.0994 12.6765 29.0525 11.5919Z" fill="#FFDA03"/>
<path d="M43.1969 20.0268L43.1893 18.8388C44.125 17.9942 44.9214 17.211 45.5784 16.4893C46.2447 15.7676 46.7529 15.0981 47.103 14.4808C47.4531 13.8543 47.6265 13.2754 47.6231 12.7443C47.6209 12.4089 47.5585 12.1157 47.4358 11.8649C47.313 11.6141 47.1348 11.4243 46.901 11.2953C46.6765 11.157 46.3965 11.0889 46.061 11.091C45.6883 11.0934 45.3442 11.2027 45.0288 11.4191C44.7226 11.626 44.44 11.8748 44.181 12.1653L43.0278 11.0685C43.509 10.5436 44.0003 10.1491 44.5018 9.88494C45.0126 9.61145 45.6174 9.47247 46.3162 9.468C46.9685 9.46384 47.5377 9.59531 48.024 9.86243C48.5195 10.1202 48.9039 10.4858 49.1771 10.9593C49.4504 11.4327 49.5891 11.991 49.5932 12.6339C49.5972 13.2582 49.4428 13.8975 49.1302 14.5517C48.8268 15.1966 48.4163 15.8422 47.8986 16.4885C47.3809 17.1347 46.8073 17.772 46.1776 18.4004C46.4476 18.3614 46.7363 18.3316 47.0437 18.311C47.3603 18.281 47.6397 18.2652 47.882 18.2637L50.1183 18.2494L50.1293 19.9825L43.1969 20.0268ZM53.1174 17.0282C52.7646 17.0304 52.4512 16.9393 52.1772 16.7546C51.9031 16.57 51.6884 16.3018 51.5331 15.9501C51.3777 15.5916 51.2984 15.1662 51.2953 14.6737C51.2921 14.1812 51.366 13.7614 51.5168 13.4143C51.6677 13.0606 51.8789 12.793 52.1507 12.6115C52.4224 12.4234 52.7346 12.3283 53.0873 12.326C53.6198 12.3226 54.0537 12.5228 54.3891 12.9267C54.7311 13.3305 54.9045 13.9051 54.9092 14.6506C54.9124 15.1431 54.8386 15.5695 54.6878 15.9299C54.537 16.2836 54.3257 16.5545 54.054 16.7426C53.789 16.9307 53.4768 17.0259 53.1174 17.0282ZM53.112 16.1896C53.3317 16.1882 53.5139 16.0705 53.6589 15.8366C53.8104 15.5961 53.8845 15.2029 53.881 14.6571C53.8775 14.1114 53.7985 13.7258 53.6439 13.5005C53.496 13.2685 53.3123 13.1532 53.0926 13.1546C52.8796 13.156 52.6974 13.2736 52.5458 13.5076C52.4008 13.7348 52.3301 14.1213 52.3335 14.667C52.337 15.2128 52.4127 15.605 52.5607 15.8437C52.7153 16.0756 52.899 16.1909 53.112 16.1896ZM58.5375 19.9787C58.1847 19.9809 57.8713 19.8898 57.5972 19.7051C57.3232 19.5205 57.1051 19.2524 56.9432 18.9006C56.7878 18.5489 56.7086 18.1267 56.7054 17.6342C56.7022 17.1351 56.7761 16.7119 56.9269 16.3649C57.0844 16.0111 57.299 15.7435 57.5708 15.562C57.8424 15.3739 58.1547 15.2788 58.5074 15.2765C58.8602 15.2743 59.1736 15.3654 59.4476 15.5501C59.7217 15.728 59.9363 15.9929 60.0917 16.3446C60.247 16.6897 60.3262 17.1119 60.3294 17.6111C60.3325 18.1036 60.2587 18.5267 60.1079 18.8804C59.9571 19.2341 59.7458 19.505 59.4741 19.6931C59.2024 19.8812 58.8902 19.9764 58.5375 19.9787ZM58.5322 19.1501C58.7518 19.1487 58.9341 19.0277 59.079 18.7872C59.2238 18.5466 59.2946 18.1568 59.2911 17.6177C59.2876 17.0653 59.2119 16.6764 59.064 16.451C58.9162 16.2257 58.7324 16.1137 58.5128 16.1151C58.2931 16.1165 58.1075 16.2309 57.9559 16.4581C57.8109 16.6854 57.7402 17.0752 57.7437 17.6276C57.7471 18.1667 57.8228 18.5556 57.9708 18.7942C58.1254 19.0329 58.3125 19.1515 58.5322 19.1501ZM53.386 20.0116L57.3702 12.2986L58.2487 12.293L54.2546 20.0061L53.386 20.0116Z" fill="#333333"/>
<path d="M74.5582 31.3921C73.6898 32.1884 73.6313 33.5379 74.4276 34.4063C75.2238 35.2747 76.5733 35.3332 77.4417 34.537C78.3102 33.7407 78.3687 32.3912 77.5724 31.5228C76.7762 30.6544 75.4267 30.5959 74.5582 31.3921ZM74 13.9646L74.3978 13.9227L74.3601 13.5646L74 13.5646L74 13.9646ZM66.5 13.9644L66.5 14.3644L74 14.3646L74 13.9646L74 13.5646L66.5 13.5644L66.5 13.9644ZM74 13.9646L73.6022 14.0065L75.6022 33.0064L76 32.9646L76.3978 32.9227L74.3978 13.9227L74 13.9646Z" fill="black"/>
</g>
<defs>
<clipPath id="clip0_106_2312">
<rect width="160" height="180" fill="white"/>
</clipPath>
</defs>
</svg>
