<svg width="25" height="57" viewBox="0 0 25 57" fill="none" xmlns="http://www.w3.org/2000/svg">
<path d="M11.1869 4.85611C11.1918 4.80775 11.1967 4.75958 11.2012 4.71169V4.70641C11.2324 4.3808 11.2515 4.06574 11.1666 3.79293C11.08 3.52364 10.8895 3.28956 10.5085 3.12763C9.78463 2.82842 9.12828 2.41481 8.50484 1.89735C8.19138 1.64038 7.88832 1.35525 7.58179 1.04372C7.50386 0.966274 7.42766 0.887071 7.35146 0.806109L7.34614 0.800579C7.26991 0.72138 7.19206 0.6405 7.11421 0.55794C7.06635 0.504885 7.01372 0.450443 6.96017 0.395048C6.92857 0.362362 6.89627 0.328949 6.86483 0.29569L6.80075 0.228808L6.72629 0.158406L6.65182 0.086243C6.64489 0.0809629 6.63277 0.0686424 6.63277 0.0686424L6.53406 0C6.54098 0.0149605 6.54748 0.0299211 6.55397 0.0448816C6.56047 0.0598421 6.56696 0.0748026 6.57389 0.0897632C6.57735 0.0991419 6.58216 0.109106 6.58703 0.119201C6.59677 0.139394 6.60679 0.16018 6.60679 0.177766C6.61714 0.232095 6.62762 0.287131 6.63796 0.343212C6.66047 0.455838 6.68299 0.568519 6.69685 0.681144C6.72036 0.840911 6.74477 1.00428 6.76942 1.16931L6.79902 1.36757C6.87002 1.83046 6.94969 2.29864 7.05533 2.74922C7.26834 3.65037 7.57313 4.48464 8.10653 5.06722C8.64165 5.64804 9.15599 6.02469 9.71883 6.25702C9.99591 6.37847 10.2851 6.46471 10.5899 6.52455C10.8913 6.59143 11.2082 6.63191 11.5459 6.65832C11.2826 6.36614 11.1822 6.04405 11.1545 5.70964C11.1294 5.42718 11.1585 5.13826 11.1869 4.85611Z" fill="#FFE75B"/>
<path d="M15.1074 7.88191C15.1308 7.84 15.154 7.79826 15.1769 7.75663L15.1751 7.75311C15.3327 7.46798 15.4747 7.18813 15.5042 6.903C15.5319 6.62139 15.4505 6.32922 15.1647 6.02649C14.6192 5.45799 14.1811 4.81205 13.8139 4.08338C13.6286 3.71905 13.4641 3.33536 13.3048 2.92526C13.2632 2.82318 13.2251 2.71934 13.187 2.61373C13.1472 2.5065 13.1073 2.39887 13.0675 2.28988C13.0458 2.22457 13.0203 2.15673 12.9944 2.08788C12.9771 2.0417 12.9595 1.99506 12.9428 1.94843L12.9117 1.86043L12.8718 1.76538L12.832 1.66858L12.8294 1.66152C12.8273 1.6557 12.8254 1.65027 12.8216 1.64394L12.8008 1.6105L12.7593 1.54185V1.64042C12.7587 1.65098 12.7589 1.66232 12.7591 1.67366C12.7595 1.69635 12.7599 1.71903 12.7541 1.73546L12.7177 1.90091L12.7117 1.92866C12.6894 2.03079 12.6666 2.13513 12.6381 2.23356L12.6242 2.2863C12.5714 2.48802 12.5171 2.69534 12.4614 2.90414C12.3454 3.35648 12.2311 3.81761 12.1514 4.27347C11.9921 5.18694 11.9419 6.07401 12.2016 6.82556C12.4631 7.57535 12.7853 8.12977 13.2095 8.57154C13.4174 8.79683 13.6477 8.9922 13.904 9.17172C14.1534 9.35477 14.4287 9.52022 14.7266 9.68214C14.5984 9.30725 14.6348 8.96932 14.7404 8.65251C14.8293 8.38167 14.97 8.12883 15.1074 7.88191Z" fill="#FFE75B"/>
<path d="M8.39575 9.02912C8.2624 8.96224 8.12386 8.90592 7.98185 8.85311C7.83985 8.80559 7.69264 8.76159 7.54544 8.73167C7.47271 8.71759 7.39824 8.70527 7.32377 8.69471C7.25105 8.68767 7.18005 8.68591 7.10906 8.68415C7.71692 8.30397 8.51178 7.9854 9.29802 7.84988C10.0877 7.71259 10.8774 7.77243 11.468 8.14733C12.062 8.5187 12.4464 8.9904 12.7097 9.4885C12.8395 9.74018 12.9348 10.0007 13.0127 10.2594C13.0889 10.5217 13.1409 10.7892 13.1859 11.0497C12.9348 10.8138 12.6404 10.7329 12.3269 10.7346C12.0283 10.7346 11.717 10.8033 11.4187 10.8692L11.3744 10.8789C10.7527 11.0127 10.1951 11.1254 9.9232 10.5586C9.65996 10.0253 9.26685 9.58354 8.77675 9.25265C8.65379 9.17168 8.52564 9.09776 8.39229 9.02912H8.39575Z" fill="#FFE75B"/>
<path d="M18.3994 13.9813C18.4282 13.9481 18.4572 13.9146 18.4855 13.8816L18.4838 13.8764C18.6968 13.6282 18.8959 13.3835 18.9964 13.1072C19.0466 12.9699 19.0726 12.8238 19.0639 12.6654C19.0553 12.507 19.0085 12.3398 18.9133 12.1585C18.2015 10.7628 17.6733 9.23683 17.7304 7.39053C17.2681 8.06815 16.7485 8.90066 16.3727 9.74549C16.1857 10.1679 16.0212 10.6026 15.9242 11.0233C15.8289 11.444 15.7787 11.8646 15.8185 12.2641C15.8636 12.6637 15.9259 13.0245 16.0246 13.3483C16.0731 13.5103 16.132 13.6652 16.1978 13.8112C16.2601 13.9608 16.3294 14.1016 16.4074 14.2372C16.726 14.7757 17.1364 15.2334 17.6508 15.6734C17.5651 14.9443 17.9955 14.4476 18.3994 13.9813Z" fill="#FFE75B"/>
<path d="M9.89388 12.7059C10.6022 12.5035 11.4629 12.324 12.2786 12.3222C13.1012 12.3152 13.8822 12.4859 14.4364 12.9312C14.7065 13.1565 14.9334 13.3958 15.1101 13.6493C15.2832 13.9045 15.4166 14.1685 15.5188 14.436C15.6192 14.7036 15.6763 14.9799 15.7196 15.2527C15.7404 15.3882 15.756 15.5238 15.7664 15.6593C15.7733 15.7966 15.7768 15.9321 15.7768 16.0659C15.6712 15.9303 15.5499 15.83 15.4148 15.7596C15.278 15.6892 15.1291 15.647 14.975 15.6223C14.6781 15.5749 14.3587 15.5927 14.0525 15.6098L14.0173 15.6118C13.6986 15.6311 13.399 15.6452 13.141 15.5871C12.8847 15.529 12.6803 15.397 12.5643 15.1137C12.1106 14.0383 11.2655 13.0808 9.89562 12.7077L9.89388 12.7059Z" fill="#FFE75B"/>
<path d="M20.5164 20.6168L20.5899 20.5628L20.5882 20.5593C21.1198 20.165 21.5961 19.769 21.4662 18.9576C21.446 18.8235 21.4201 18.6894 21.394 18.5547L21.3939 18.554C21.3821 18.4927 21.3702 18.4313 21.3588 18.3698C21.3225 18.1726 21.2878 17.972 21.2567 17.7714C21.2452 17.6877 21.2333 17.604 21.2214 17.5202C21.1757 17.1987 21.1297 16.8755 21.1077 16.5446C21.0939 16.3369 21.0869 16.1257 21.0904 15.9127C21.0904 15.7015 21.0956 15.4885 21.1146 15.2703C21.1493 14.8373 21.2428 14.385 21.3727 13.9256C20.7752 14.4906 20.079 15.1999 19.5179 15.9532C19.3777 16.1415 19.246 16.3334 19.1248 16.527C19.0019 16.7224 18.8858 16.9195 18.7871 17.1184C18.588 17.5161 18.4546 17.9139 18.3957 18.3205C18.3317 18.7271 18.3161 19.0984 18.3403 19.4452C18.3628 19.7919 18.4096 20.1175 18.5031 20.4238C18.5481 20.5769 18.6035 20.7265 18.6659 20.8726C18.723 21.0204 18.7888 21.1647 18.8616 21.3056C19.0088 21.5889 19.1854 21.8617 19.3863 22.1328C19.469 21.3853 20.0027 20.9937 20.5164 20.6168Z" fill="#FFE75B"/>
<path d="M15.7851 20.7124L15.7578 20.7094C15.139 20.6402 14.5475 20.5741 14.3581 20.0207C14.2697 19.7479 14.1503 19.4769 14.0238 19.2111C13.9598 19.0773 13.8905 18.9453 13.8177 18.8169C13.7415 18.6884 13.6532 18.5634 13.5614 18.442C13.4697 18.3205 13.3692 18.2044 13.2636 18.0917C13.2099 18.0354 13.1545 17.9808 13.0973 17.928C13.0384 17.8752 12.9744 17.8242 12.9103 17.7767C12.6505 17.5813 12.3526 17.4123 12.008 17.2821C12.7458 17.1853 13.6221 17.1342 14.4533 17.2434C14.8707 17.2962 15.2586 17.3947 15.6188 17.5408C15.9756 17.6869 16.3029 17.8823 16.5419 18.1427C16.786 18.4015 16.9835 18.6708 17.1307 18.9471C17.2709 19.2269 17.3679 19.5103 17.4337 19.7937C17.5047 20.0753 17.5169 20.3622 17.5186 20.6403C17.5151 20.9184 17.4961 21.1912 17.4528 21.4552C17.1065 20.8628 16.4327 20.7878 15.806 20.7181L15.7868 20.716L15.7851 20.7124Z" fill="#FFE75B"/>
<path d="M22.9264 22.9354C22.968 22.7242 23.0217 22.513 23.0892 22.3L23.0858 22.2965C23.1533 22.0835 23.2347 21.8706 23.3351 21.6576C23.4356 21.4429 23.5551 21.2281 23.6832 21.0152C23.5031 21.119 23.3161 21.2317 23.1256 21.3496C22.9316 21.4693 22.7359 21.5942 22.5385 21.7262C22.1454 21.9885 21.7505 22.2754 21.3851 22.5816C21.2016 22.7348 21.0267 22.8932 20.8604 23.0551C20.7773 23.1378 20.6976 23.2188 20.6197 23.3033C20.54 23.3877 20.4621 23.4722 20.3894 23.5585C20.095 23.9052 19.8577 24.2678 19.7036 24.6515C19.6785 24.7151 19.6557 24.7781 19.6331 24.8402C19.6214 24.8726 19.6098 24.9047 19.5979 24.9366C19.5616 25.0299 19.5304 25.1232 19.5009 25.2147C19.4421 25.3977 19.397 25.5773 19.3641 25.7515C19.2966 26.1 19.2879 26.4362 19.2879 26.7635C19.2966 27.0909 19.3451 27.4095 19.4265 27.7228C19.4473 27.8002 19.4698 27.8794 19.494 27.9569C19.5165 28.0343 19.539 28.1117 19.5633 28.1892C19.6135 28.3441 19.6707 28.499 19.733 28.6521C19.8716 28.2825 20.114 28.0343 20.3772 27.846C20.6217 27.6733 20.9056 27.551 21.186 27.4301L21.2622 27.3972C21.567 27.2669 21.8648 27.1314 22.1038 26.929C22.2233 26.8287 22.3272 26.709 22.4104 26.5646C22.4519 26.4907 22.4883 26.4133 22.5177 26.327C22.5454 26.2426 22.5645 26.1493 22.5766 26.0472C22.6111 25.7653 22.636 25.4763 22.6612 25.1834C22.6714 25.0648 22.6817 24.9454 22.6926 24.8257C22.7052 24.7099 22.7124 24.5941 22.7196 24.478C22.7253 24.3859 22.731 24.2936 22.7394 24.2009C22.7567 23.9914 22.7792 23.782 22.8104 23.5708C22.8398 23.3596 22.8814 23.1466 22.9264 22.9354Z" fill="#FFE75B"/>
<path d="M17.902 23.9615C17.9782 24.1111 18.0422 24.2607 18.0942 24.4103C18.1981 24.7113 18.2674 25.0087 18.2847 25.3044C18.2985 25.5984 18.2795 25.887 18.2379 26.1651C18.2172 26.3041 18.1894 26.4397 18.1583 26.5734C18.1252 26.7013 18.0825 26.826 18.041 26.9475L18.0353 26.9642C17.9747 26.8022 17.895 26.6685 17.7877 26.5558C17.6803 26.4432 17.5539 26.3534 17.4171 26.2777C17.1434 26.1264 16.8265 26.0331 16.5183 25.9433L16.4978 25.9374C16.1967 25.8497 15.9033 25.7643 15.6662 25.6318C15.545 25.5649 15.4411 25.484 15.3545 25.3872C15.2644 25.2886 15.1969 25.1724 15.1536 25.0299C15.1124 24.8921 15.0751 24.753 15.0375 24.6133C14.9993 24.471 14.9609 24.328 14.9181 24.185C14.8228 23.9034 14.7172 23.6218 14.5821 23.3508C14.454 23.0797 14.2652 22.8227 14.0401 22.5887C13.8097 22.3546 13.5448 22.1434 13.1828 21.9726C13.9465 21.992 14.8246 22.0782 15.6385 22.3141C16.0438 22.432 16.4386 22.5851 16.7763 22.784C17.1105 22.9847 17.3997 23.2276 17.618 23.5197C17.7236 23.6658 17.8275 23.8119 17.9002 23.9615H17.902Z" fill="#FFE75B"/>
<path d="M16.3099 31.3256C16.8883 31.6125 17.4858 31.917 17.6417 32.6017H17.6451C17.891 32.1264 18.0919 31.5773 18.1491 30.9789C18.1664 30.6797 18.1491 30.3681 18.0867 30.0496C18.0556 29.8912 18.014 29.731 17.9586 29.5691C17.9014 29.4072 17.8218 29.2452 17.7334 29.0833C17.5551 28.7594 17.2988 28.4708 16.9905 28.2174C16.9143 28.154 16.8346 28.0924 16.7515 28.0343C16.6667 27.9745 16.5766 27.9181 16.4865 27.8636C16.3047 27.7545 16.1142 27.6541 15.9185 27.5626C15.1357 27.1948 14.2629 26.9589 13.5165 26.8093C13.8577 27.0346 14.1105 27.2898 14.3028 27.5608C14.398 27.6964 14.4794 27.8354 14.5504 27.978C14.6127 28.1205 14.663 28.2649 14.7063 28.411C14.7929 28.7031 14.8483 29.0006 14.902 29.298L14.913 29.3847C14.9471 29.6529 14.9809 29.9194 15.0388 30.1816C15.1748 30.766 15.7216 31.0356 16.2997 31.3206L16.3099 31.3256Z" fill="#FFE75B"/>
<path d="M22.906 31.5944L22.8971 31.6231C22.8595 31.7388 22.8213 31.854 22.7832 31.9689C22.7547 32.0549 22.7261 32.1409 22.698 32.2268C22.5681 32.6263 22.4382 33.0206 22.2737 33.3902C21.9118 34.1294 21.2641 34.2579 20.606 34.3793L20.5745 34.3851C20.2558 34.4429 19.9348 34.5012 19.6431 34.6222C19.4959 34.6838 19.3452 34.7665 19.2084 34.8739C19.0716 34.9813 18.9452 35.115 18.8344 35.2822C18.8084 35.115 18.7876 34.9478 18.7755 34.7824C18.7685 34.6997 18.7651 34.617 18.7616 34.5342C18.7547 34.4515 18.7512 34.3705 18.7495 34.2878C18.7426 33.9604 18.7685 33.6331 18.8396 33.3057C18.8742 33.142 18.9209 32.9783 18.9781 32.8146C19.0283 32.6492 19.0889 32.4837 19.1634 32.3183C19.3123 31.9874 19.5132 31.6548 19.773 31.3168C20.2666 30.6392 21.0597 30.1165 21.9412 29.6923C22.8019 29.2681 23.7527 28.9443 24.5614 28.7084C24.17 29.0639 23.8791 29.4371 23.6539 29.8243C23.4115 30.2097 23.2366 30.6093 23.0928 31.0123L23.0946 31.0141C23.0253 31.2069 22.9654 31.4014 22.906 31.5944Z" fill="#FFE75B"/>
<path d="M15.8094 37.0388C15.9999 37.2834 16.1177 37.5597 16.1159 37.903L16.1194 37.9047C16.4814 37.5228 16.7965 37.0352 16.9559 36.4597C17.0286 36.1711 17.0823 35.8666 17.0598 35.5427C17.0511 35.3808 17.0321 35.2171 16.9992 35.0517C16.9697 34.8862 16.9091 34.7155 16.845 34.5465C16.7775 34.3776 16.6892 34.2139 16.5835 34.0572C16.4779 33.9006 16.3463 33.7351 16.206 33.5855C15.9237 33.281 15.586 33.0047 15.2223 32.7565C14.495 32.2602 13.6655 31.8783 12.9312 31.5984C13.016 31.6723 13.094 31.7445 13.1667 31.8184C13.2342 31.8923 13.2966 31.9663 13.3537 32.0402C13.468 32.188 13.5581 32.3394 13.6326 32.4925C13.7798 32.797 13.8594 33.1085 13.9044 33.4148C13.9235 33.5486 13.9356 33.6823 13.9443 33.8179C13.9462 33.8555 13.9487 33.8934 13.9512 33.9315C13.9576 34.0286 13.9641 34.1266 13.9616 34.2227C13.9616 34.3582 13.9633 34.492 13.972 34.6292C13.9755 34.6979 13.9824 34.7665 13.9893 34.8352C13.9945 34.9021 14.0014 34.9725 14.0101 35.0411C14.0465 35.3174 14.2006 35.555 14.3997 35.7698C14.5787 35.9643 14.8059 36.1445 15.0364 36.3272L15.108 36.384C15.3626 36.5864 15.6172 36.7941 15.8094 37.0388Z" fill="#FFE75B"/>
<path d="M20.0413 40.8211C19.7226 41.1256 19.3971 41.2559 19.0576 41.2911C18.7217 41.328 18.3822 41.2805 18.0463 41.2295C17.7086 41.1784 17.3778 41.1291 17.0436 41.145C16.7111 41.1626 16.3837 41.2523 16.0651 41.4882C16.1222 41.1573 16.2088 40.837 16.3249 40.5237C16.4305 40.2051 16.5812 39.9024 16.7561 39.6049C16.8427 39.4553 16.9396 39.3092 17.0488 39.1667C17.0942 39.1056 17.1434 39.047 17.1931 38.9878L17.2202 38.9555C17.2773 38.8833 17.338 38.8129 17.4003 38.7443C17.5267 38.6052 17.667 38.4697 17.8211 38.3359L17.8586 38.3038C18.0006 38.182 18.1454 38.0578 18.3078 37.9381C18.4827 37.8079 18.6766 37.6935 18.8793 37.5879C19.0767 37.4805 19.288 37.3872 19.5096 37.301C19.7313 37.2165 19.9616 37.1408 20.1989 37.074C20.4361 37.0071 20.6717 36.9437 20.9158 36.8909C21.4025 36.7835 21.9012 36.7026 22.3879 36.641C22.8745 36.5811 23.3369 36.5354 23.7647 36.5072C22.7671 37.0792 22.1662 37.822 21.6519 38.6087C21.522 38.804 21.392 38.9996 21.2674 39.1966C21.227 39.2591 21.1876 39.3219 21.1483 39.3846C21.0649 39.5179 20.9817 39.6505 20.8899 39.7774C20.6266 40.1541 20.3651 40.5202 20.0378 40.8211H20.0413Z" fill="#FFE75B"/>
<path d="M11.9094 35.2734C12.0584 35.4441 12.1779 35.6114 12.2696 35.775L12.2714 35.7768C12.358 35.9387 12.4203 36.0954 12.4636 36.2503C12.5052 36.4034 12.5346 36.5547 12.5381 36.7008C12.5415 36.8469 12.5329 36.9895 12.5156 37.1303C12.5069 37.2007 12.4982 37.2711 12.4861 37.3415C12.4769 37.3872 12.4661 37.433 12.4553 37.4787C12.45 37.5015 12.4445 37.5247 12.4394 37.5474L12.3406 37.961L12.3324 37.9957C12.2692 38.2624 12.2053 38.532 12.1986 38.8323C12.1596 39.401 12.527 39.9029 12.8903 40.3993L12.9606 40.4955C13.1546 40.7613 13.3434 41.0288 13.4663 41.3157C13.5893 41.6026 13.6447 41.9106 13.5546 42.245C13.6672 42.1711 13.7815 42.0937 13.8889 42.0057C13.9945 41.9177 14.1002 41.8209 14.2006 41.7188C14.2993 41.6149 14.3998 41.5076 14.4881 41.3879C14.5747 41.2682 14.6578 41.1415 14.7323 41.0077C15.0336 40.4762 15.1912 39.8126 15.0994 39.0681C15.0024 38.3201 14.54 37.5756 13.9252 36.9226C13.6187 36.5952 13.2862 36.2943 12.9364 36.0162C12.5883 35.7398 12.2367 35.4899 11.9094 35.2734Z" fill="#FFE75B"/>
<path d="M14.8731 47.1521C14.5392 47.079 14.2289 46.9336 13.9206 46.7891L13.9103 46.7842L13.8801 46.77C13.58 46.6285 13.2781 46.4862 12.9664 46.4146C12.6426 46.339 12.3101 46.3407 11.9395 46.4727C12.0832 46.1805 12.2443 45.8884 12.4452 45.6226C12.6426 45.3533 12.8642 45.0928 13.1309 44.864C13.3873 44.6264 13.6851 44.417 14.0194 44.2322C14.1856 44.1389 14.3623 44.0509 14.551 43.9734C14.6463 43.9347 14.7432 43.8977 14.8437 43.8625C14.9424 43.8256 15.0446 43.7921 15.1485 43.7587C15.9936 43.507 16.9807 43.5264 17.9852 43.6725C18.9792 43.8097 19.9854 44.0773 20.8132 44.3325C20.2226 44.3976 19.7377 44.5578 19.31 44.7743C19.0935 44.8781 18.8909 44.9978 18.7004 45.128C18.6051 45.1932 18.5116 45.26 18.4216 45.3304L18.3477 45.3854C18.2807 45.4352 18.2138 45.4849 18.148 45.5364C17.9696 45.6772 17.7947 45.8215 17.6232 45.9676C17.4703 46.0979 17.3133 46.2197 17.1558 46.3419L17.0985 46.3865C16.9218 46.5202 16.7452 46.654 16.5564 46.7649C16.3677 46.8775 16.1737 46.9796 15.9711 47.0623C15.5745 47.2295 15.2091 47.2225 14.8731 47.1521Z" fill="#FFE75B"/>
<path d="M8.88755 42.7132C8.82694 43.0441 8.86677 43.3591 8.96202 43.6689L8.96375 43.6707C9.04868 43.9469 9.17628 44.2175 9.30361 44.4875L9.34994 44.5859C9.63742 45.1931 9.89372 45.788 9.61317 46.441C9.86082 46.3337 10.1137 46.1964 10.3544 46.0239C10.5899 45.8461 10.8185 45.6402 11.0194 45.3955C11.2134 45.1456 11.3917 44.8693 11.5181 44.549C11.5805 44.3888 11.6342 44.2198 11.6757 44.0438C11.6965 43.9558 11.7156 43.8643 11.7294 43.7728C11.7433 43.6795 11.7519 43.5827 11.7589 43.4859C11.7814 43.0934 11.7294 42.6903 11.5995 42.2749C11.4731 41.8613 11.2844 41.4477 11.061 41.0482C10.6072 40.2438 10.0046 39.4923 9.47463 38.8939C9.91104 39.7792 9.82099 40.4198 9.59585 40.9831C9.53871 41.1239 9.47463 41.2612 9.41055 41.3984C9.38213 41.4562 9.35279 41.5133 9.32344 41.5705C9.28303 41.6492 9.24259 41.728 9.20447 41.8085C9.13866 41.9458 9.07805 42.0919 9.02263 42.2397C8.96721 42.3876 8.91872 42.5442 8.88755 42.7132Z" fill="#FFE75B"/>
<path d="M6.82977 50.6018C7.022 50.3466 7.24021 50.0949 7.49305 49.8749C7.74416 49.6531 8.02125 49.4437 8.3347 49.2765C8.64469 49.1022 8.98586 48.9614 9.36165 48.8611C9.73399 48.7555 10.1462 48.6992 10.5895 48.6833C11.0328 48.6657 11.4987 48.7414 11.9663 48.8593C12.4339 48.9808 12.9101 49.1585 13.3777 49.3697C14.3094 49.7869 15.2065 50.329 15.9338 50.8148C14.7527 50.5596 13.9076 50.8394 13.111 51.2055C12.9588 51.2754 12.8097 51.3505 12.6612 51.4252C12.6154 51.4483 12.5697 51.4713 12.5239 51.4941C12.3282 51.5892 12.1325 51.6825 11.9351 51.7687C11.542 51.9447 11.1281 52.0697 10.6865 52.1137C9.85154 52.1804 9.28986 51.7566 8.74854 51.3481L8.70184 51.3129C8.1442 50.8852 7.60562 50.4909 6.8315 50.6035L6.82977 50.6018Z" fill="#FFE75B"/>
<path d="M7.58304 47.2207C7.74064 46.427 7.57612 45.51 7.254 44.6159L7.25574 44.6176C6.93535 43.7235 6.4747 42.8611 6.05214 42.1588C6.34135 43.1832 6.11102 43.8203 5.77159 44.3659C5.68062 44.5107 5.58088 44.6485 5.48063 44.787C5.39195 44.9095 5.30288 45.0326 5.21915 45.1615C5.03384 45.429 4.87279 45.7265 4.76888 46.0855C4.57688 46.741 4.77674 47.3743 4.96914 47.984L5.00094 48.0849C5.20183 48.7256 5.38194 49.3557 5.02172 49.9752C5.28842 49.9013 5.55684 49.7887 5.82181 49.6408C6.08851 49.4965 6.34135 49.3064 6.57687 49.0811C7.04446 48.6288 7.42026 48.0093 7.58304 47.2207Z" fill="#FFE75B"/>
<path d="M0.0397949 52.7561C0.448498 52.1559 0.33593 51.5258 0.19219 50.8588L0.175915 50.7843C0.0348129 50.14 -0.11207 49.4693 0.126383 48.7643C0.256268 48.3806 0.453691 48.0884 0.668432 47.8209C0.774963 47.6929 0.885622 47.5711 0.995773 47.4499C1.11125 47.3229 1.22616 47.1965 1.33518 47.0641C1.7612 46.5484 2.0885 45.9306 1.91359 44.8094C2.2461 45.5698 2.60978 46.5044 2.83145 47.453C3.04792 48.3947 3.12758 49.361 2.88859 50.1547C2.41408 51.7511 1.13083 52.5484 0.0397949 52.7579V52.7561Z" fill="#FFE75B"/>
<path d="M4.05049 52.6171C3.65564 52.6505 3.28677 52.7315 2.9456 52.8529V52.8564C2.25982 53.0941 1.68486 53.4848 1.23632 53.9319C2.02083 53.9407 2.49534 54.4071 2.9889 54.9192C3.00572 54.9366 3.02255 54.954 3.03942 54.9714C3.51735 55.4649 4.01783 55.9816 4.85924 56.1108C5.60549 56.2175 6.27271 56.0159 6.94183 55.8137C7.08948 55.7691 7.23722 55.7245 7.38593 55.6831C7.59201 55.625 7.80156 55.5793 8.0163 55.5441C8.22931 55.5071 8.44925 55.4895 8.67958 55.4948C9.14023 55.5089 9.6338 55.611 10.1966 55.8873C9.57665 55.2554 8.79907 54.5285 7.95569 53.9195C7.11057 53.3088 6.20484 52.823 5.31297 52.6716C4.8679 52.6012 4.44361 52.5801 4.05049 52.6171Z" fill="#FFE75B"/>
</svg>
