<svg width="324" height="53" viewBox="0 0 324 53" fill="none" xmlns="http://www.w3.org/2000/svg">
<path d="M30.9576 2.06065C44.561 2.06065 54.6786 13.0581 53.5536 26.6258C52.4285 40.1934 40.4872 51.1909 26.8839 51.1909C13.2806 51.1908 3.16395 40.1933 4.28891 26.6258C5.41391 13.0582 17.3543 2.06073 30.9576 2.06065Z" fill="white" stroke="#4FA668" stroke-width="1.9586"/>
<path d="M35.58 44.5556C45.9894 39.9477 51.3543 28.1059 47.563 18.1061C43.7716 8.10637 32.2596 3.73534 21.8503 8.34319C11.4409 12.951 6.07595 24.7929 9.86732 34.7926C13.6587 44.7924 25.1707 49.1634 35.58 44.5556Z" fill="#4FA668"/>
<mask id="path-3-outside-1_175_2734" maskUnits="userSpaceOnUse" x="7.25483" y="18.7287" width="37.6527" height="19.9316" fill="black">
<rect fill="white" x="7.25483" y="18.7287" width="37.6527" height="19.9316"/>
<path d="M10.311 35.6706L11.5277 20.9968H16.3563C17.4425 20.9968 18.4041 21.142 19.2411 21.4324C20.0913 21.7229 20.7402 22.2047 21.1878 22.878C21.6497 23.5381 21.8325 24.449 21.7362 25.6108C21.6442 26.7198 21.3098 27.6373 20.733 28.3634C20.1705 29.0763 19.4445 29.6043 18.5549 29.9476C17.6787 30.2908 16.7106 30.4625 15.6509 30.4625H13.6837L13.2518 35.6706H10.311ZM13.8758 28.1455H15.6443C16.6511 28.1455 17.417 27.9343 17.9422 27.5119C18.4806 27.0894 18.7849 26.4557 18.8549 25.6108C18.925 24.7659 18.7087 24.1784 18.2062 23.8484C17.7181 23.5051 16.9639 23.3335 15.9439 23.3335H14.2748L13.8758 28.1455ZM24.8465 35.8768C23.8809 35.8768 23.0473 35.6509 22.3457 35.1992C21.6548 34.7377 21.1378 34.0797 20.7948 33.2254C20.4518 32.3711 20.3295 31.3498 20.4281 30.1616C20.5258 28.9832 20.8162 27.9766 21.2992 27.1419C21.7823 26.3072 22.4067 25.6689 23.1726 25.227C23.9482 24.7851 24.8189 24.5642 25.7846 24.5642C26.7601 24.5642 27.5937 24.79 28.2854 25.2417C28.9779 25.6836 29.4965 26.3219 29.8412 27.1566C30.1866 27.9815 30.3105 28.9832 30.2128 30.1616C30.1143 31.3498 29.8227 32.3711 29.338 33.2254C28.8533 34.0797 28.2272 34.7377 27.4598 35.1992C26.6931 35.6509 25.822 35.8768 24.8465 35.8768ZM25.0029 33.9914C25.5448 33.9914 26.0259 33.8342 26.4461 33.52C26.8762 33.2058 27.2232 32.7639 27.4872 32.1943C27.752 31.6149 27.9166 30.9373 27.9809 30.1616C28.0453 29.3858 27.9918 28.7229 27.8206 28.173C27.6503 27.6133 27.3753 27.1861 26.9957 26.8915C26.6268 26.5871 26.1714 26.4349 25.6294 26.4349C25.0875 26.4349 24.6019 26.5871 24.1726 26.8915C23.7541 27.1861 23.4132 27.6133 23.15 28.173C22.8975 28.7229 22.739 29.3858 22.6747 30.1616C22.6104 30.9373 22.6577 31.6149 22.8166 32.1943C22.9861 32.7639 23.2549 33.2058 23.623 33.52C24.001 33.8342 24.4609 33.9914 25.0029 33.9914ZM30.434 35.6706L31.6507 20.9968H36.4793C37.5655 20.9968 38.5271 21.142 39.3641 21.4324C40.2144 21.7229 40.8633 22.2047 41.3108 22.878C41.7727 23.5381 41.9555 24.449 41.8592 25.6108C41.7672 26.7198 41.4328 27.6373 40.856 28.3634C40.2935 29.0763 39.5675 29.6043 38.6779 29.9476C37.8017 30.2908 36.8336 30.4625 35.7739 30.4625H33.8067L33.3748 35.6706H30.434ZM33.9988 28.1455H35.7673C36.7741 28.1455 37.54 27.9343 38.0652 27.5119C38.6036 27.0894 38.9079 26.4557 38.9779 25.6108C39.048 24.7659 38.8318 24.1784 38.3292 23.8484C37.8411 23.5051 37.087 23.3335 36.0669 23.3335H34.3978L33.9988 28.1455Z"/>
</mask>
<path d="M10.311 35.6706L11.5277 20.9968H16.3563C17.4425 20.9968 18.4041 21.142 19.2411 21.4324C20.0913 21.7229 20.7402 22.2047 21.1878 22.878C21.6497 23.5381 21.8325 24.449 21.7362 25.6108C21.6442 26.7198 21.3098 27.6373 20.733 28.3634C20.1705 29.0763 19.4445 29.6043 18.5549 29.9476C17.6787 30.2908 16.7106 30.4625 15.6509 30.4625H13.6837L13.2518 35.6706H10.311ZM13.8758 28.1455H15.6443C16.6511 28.1455 17.417 27.9343 17.9422 27.5119C18.4806 27.0894 18.7849 26.4557 18.8549 25.6108C18.925 24.7659 18.7087 24.1784 18.2062 23.8484C17.7181 23.5051 16.9639 23.3335 15.9439 23.3335H14.2748L13.8758 28.1455ZM24.8465 35.8768C23.8809 35.8768 23.0473 35.6509 22.3457 35.1992C21.6548 34.7377 21.1378 34.0797 20.7948 33.2254C20.4518 32.3711 20.3295 31.3498 20.4281 30.1616C20.5258 28.9832 20.8162 27.9766 21.2992 27.1419C21.7823 26.3072 22.4067 25.6689 23.1726 25.227C23.9482 24.7851 24.8189 24.5642 25.7846 24.5642C26.7601 24.5642 27.5937 24.79 28.2854 25.2417C28.9779 25.6836 29.4965 26.3219 29.8412 27.1566C30.1866 27.9815 30.3105 28.9832 30.2128 30.1616C30.1143 31.3498 29.8227 32.3711 29.338 33.2254C28.8533 34.0797 28.2272 34.7377 27.4598 35.1992C26.6931 35.6509 25.822 35.8768 24.8465 35.8768ZM25.0029 33.9914C25.5448 33.9914 26.0259 33.8342 26.4461 33.52C26.8762 33.2058 27.2232 32.7639 27.4872 32.1943C27.752 31.6149 27.9166 30.9373 27.9809 30.1616C28.0453 29.3858 27.9918 28.7229 27.8206 28.173C27.6503 27.6133 27.3753 27.1861 26.9957 26.8915C26.6268 26.5871 26.1714 26.4349 25.6294 26.4349C25.0875 26.4349 24.6019 26.5871 24.1726 26.8915C23.7541 27.1861 23.4132 27.6133 23.15 28.173C22.8975 28.7229 22.739 29.3858 22.6747 30.1616C22.6104 30.9373 22.6577 31.6149 22.8166 32.1943C22.9861 32.7639 23.2549 33.2058 23.623 33.52C24.001 33.8342 24.4609 33.9914 25.0029 33.9914ZM30.434 35.6706L31.6507 20.9968H36.4793C37.5655 20.9968 38.5271 21.142 39.3641 21.4324C40.2144 21.7229 40.8633 22.2047 41.3108 22.878C41.7727 23.5381 41.9555 24.449 41.8592 25.6108C41.7672 26.7198 41.4328 27.6373 40.856 28.3634C40.2935 29.0763 39.5675 29.6043 38.6779 29.9476C37.8017 30.2908 36.8336 30.4625 35.7739 30.4625H33.8067L33.3748 35.6706H30.434ZM33.9988 28.1455H35.7673C36.7741 28.1455 37.54 27.9343 38.0652 27.5119C38.6036 27.0894 38.9079 26.4557 38.9779 25.6108C39.048 24.7659 38.8318 24.1784 38.3292 23.8484C37.8411 23.5051 37.087 23.3335 36.0669 23.3335H34.3978L33.9988 28.1455Z" fill="white"/>
<path d="M10.311 35.6706H8.15037L7.97183 37.8238H10.1324L10.311 35.6706ZM11.5277 20.9968L11.7062 18.8436H9.54563L9.36709 20.9968H11.5277ZM19.2411 21.4324L18.3793 23.472L18.3885 23.4751L19.2411 21.4324ZM21.1878 22.878L19.3486 24.1645L19.3613 24.1836L19.3744 24.2023L21.1878 22.878ZM20.733 28.3634L19.0738 27.1179L19.0688 27.1242L20.733 28.3634ZM18.5549 29.9476L17.9183 27.9484L17.9071 27.9527L18.5549 29.9476ZM13.6837 30.4625L13.8622 28.3093H11.7016L11.5231 30.4625H13.6837ZM13.2518 35.6706L13.0733 37.8238H15.2339L15.4124 35.6706H13.2518ZM13.8758 28.1455H11.7152L11.5366 30.2988H13.6972L13.8758 28.1455ZM17.9422 27.5119L16.6871 25.8648L16.6754 25.874L16.6639 25.8833L17.9422 27.5119ZM18.2062 23.8484L16.8592 25.6399L16.8842 25.6575L16.9097 25.6743L18.2062 23.8484ZM14.2748 23.3335L14.4533 21.1803H12.2927L12.1142 23.3335H14.2748ZM10.311 35.6706H12.4716L13.6883 20.9968H11.5277H9.36709L8.15037 35.6706H10.311ZM11.5277 20.9968L11.3491 23.15H16.1777L16.3563 20.9968L16.5348 18.8436H11.7062L11.5277 20.9968ZM16.3563 20.9968L16.1777 23.15C17.073 23.15 17.7968 23.2698 18.3793 23.472L19.2411 21.4324L20.1029 19.3929C19.0115 19.0141 17.812 18.8436 16.5348 18.8436L16.3563 20.9968ZM19.2411 21.4324L18.3885 23.4751C18.8713 23.64 19.1578 23.8775 19.3486 24.1645L21.1878 22.878L23.027 21.5915C22.3227 20.532 21.3114 19.8057 20.0937 19.3897L19.2411 21.4324ZM21.1878 22.878L19.3744 24.2023C19.4857 24.3614 19.6473 24.7459 19.5756 25.6108H21.7362H23.8968C24.0177 24.1522 23.8137 22.7148 23.0012 21.5537L21.1878 22.878ZM21.7362 25.6108H19.5756C19.5114 26.3843 19.2971 26.8368 19.0738 27.1179L20.733 28.3634L22.3922 29.6089C23.3225 28.4378 23.777 27.0552 23.8968 25.6108H21.7362ZM20.733 28.3634L19.0688 27.1242C18.7919 27.4751 18.4317 27.7503 17.9183 27.9484L18.5549 29.9476L19.1916 31.9468C20.4572 31.4584 21.549 30.6775 22.3972 29.6025L20.733 28.3634ZM18.5549 29.9476L17.9071 27.9527C17.3366 28.1762 16.6539 28.3093 15.8294 28.3093L15.6509 30.4625L15.4723 32.6157C16.7673 32.6157 18.0207 32.4055 19.2027 31.9425L18.5549 29.9476ZM15.6509 30.4625L15.8294 28.3093H13.8622L13.6837 30.4625L13.5051 32.6157H15.4723L15.6509 30.4625ZM13.6837 30.4625H11.5231L11.0912 35.6706H13.2518H15.4124L15.8443 30.4625H13.6837ZM13.2518 35.6706L13.4304 33.5174H10.4895L10.311 35.6706L10.1324 37.8238H13.0733L13.2518 35.6706ZM13.8758 28.1455L13.6972 30.2988H15.4657L15.6443 28.1455L15.8228 25.9923H14.0543L13.8758 28.1455ZM15.6443 28.1455L15.4657 30.2988C16.7174 30.2988 18.0959 30.0451 19.2205 29.1405L17.9422 27.5119L16.6639 25.8833C16.7036 25.8513 16.6901 25.8787 16.5569 25.9154C16.4177 25.9538 16.1822 25.9923 15.8228 25.9923L15.6443 28.1455ZM17.9422 27.5119L19.1973 29.1589C20.3997 28.2155 20.9091 26.8939 21.0155 25.6108H18.8549H16.6943C16.6766 25.8248 16.6368 25.9152 16.631 25.9273C16.6286 25.9321 16.6327 25.9227 16.6461 25.906C16.6597 25.8889 16.6748 25.8745 16.6871 25.8648L17.9422 27.5119ZM18.8549 25.6108H21.0155C21.1227 24.3187 20.8091 22.8804 19.5027 22.0224L18.2062 23.8484L16.9097 25.6743C16.8661 25.6456 16.8189 25.6043 16.7773 25.5512C16.7361 25.4986 16.7129 25.4504 16.7014 25.4192C16.6808 25.3632 16.7116 25.402 16.6943 25.6108H18.8549ZM18.2062 23.8484L19.5533 22.0568C18.577 21.3704 17.3211 21.1803 16.1225 21.1803L15.9439 23.3335L15.7654 25.4867C16.1604 25.4867 16.4399 25.5205 16.6278 25.5633C16.8159 25.6061 16.8714 25.6485 16.8592 25.6399L18.2062 23.8484ZM15.9439 23.3335L16.1225 21.1803H14.4533L14.2748 23.3335L14.0962 25.4867H15.7654L15.9439 23.3335ZM14.2748 23.3335H12.1142L11.7152 28.1455H13.8758H16.0364L16.4354 23.3335H14.2748ZM22.3457 35.1992L21.0366 37.0168L21.0502 37.0259L21.0639 37.0347L22.3457 35.1992ZM20.7948 33.2254L18.7715 34.1615V34.1615L20.7948 33.2254ZM21.2992 27.1419L19.4413 26.1881L19.4413 26.1881L21.2992 27.1419ZM23.1726 25.227L22.214 23.3806L22.2025 23.3873L23.1726 25.227ZM28.2854 25.2417L26.9931 27.0704L27.0017 27.076L27.0103 27.0815L28.2854 25.2417ZM29.8412 27.1566L27.825 28.1105L27.8288 28.1196L29.8412 27.1566ZM29.338 33.2254L31.2061 34.1615V34.1615L29.338 33.2254ZM27.4598 35.1992L28.4488 37.0279L28.4581 37.0224L28.4674 37.0168L27.4598 35.1992ZM26.4461 33.52L25.2575 31.8226L25.2466 31.8305L25.2358 31.8386L26.4461 33.52ZM27.4872 32.1943L29.4441 32.958L29.4493 32.9466L27.4872 32.1943ZM27.8206 28.173L25.7406 28.9483L25.7444 28.9603L27.8206 28.173ZM26.9957 26.8915L25.5311 28.5934L25.5532 28.6116L25.5758 28.6292L26.9957 26.8915ZM24.1726 26.8915L25.3262 28.6141L25.3333 28.609L24.1726 26.8915ZM23.15 28.173L21.1986 27.3977L21.1941 27.4073L21.1897 27.417L23.15 28.173ZM22.8166 32.1943L20.7212 32.9163L20.7269 32.9372L20.7331 32.9579L22.8166 32.1943ZM23.623 33.52L22.1339 35.2014L22.1434 35.2094L22.1529 35.2174L23.623 33.52ZM24.8465 35.8768L25.0251 33.7236C24.4114 33.7236 23.9706 33.5846 23.6275 33.3637L22.3457 35.1992L21.0639 37.0347C22.1239 37.7172 23.3503 38.03 24.668 38.03L24.8465 35.8768ZM22.3457 35.1992L23.6548 33.3816C23.3181 33.1567 23.0314 32.8205 22.8182 32.2893L20.7948 33.2254L18.7715 34.1615C19.2442 35.3389 19.9915 36.3186 21.0366 37.0168L22.3457 35.1992ZM20.7948 33.2254L22.8182 32.2893C22.6181 31.7911 22.5104 31.1053 22.5887 30.1616H20.4281H18.2675C18.1487 31.5942 18.2855 32.951 18.7715 34.1615L20.7948 33.2254ZM20.4281 30.1616H22.5887C22.666 29.2285 22.8852 28.5657 23.1572 28.0958L21.2992 27.1419L19.4413 26.1881C18.7471 27.3875 18.3855 28.7378 18.2675 30.1616H20.4281ZM21.2992 27.1419L23.1572 28.0958C23.4491 27.5914 23.7793 27.2764 24.1426 27.0668L23.1726 25.227L22.2025 23.3873C21.0342 24.0614 20.1155 25.023 19.4413 26.1881L21.2992 27.1419ZM23.1726 25.227L24.1311 27.0734C24.5132 26.8557 24.9836 26.7174 25.606 26.7174L25.7846 24.5642L25.9631 22.411C24.6542 22.411 23.3833 22.7145 22.214 23.3807L23.1726 25.227ZM25.7846 24.5642L25.606 26.7174C26.2346 26.7174 26.6687 26.8586 26.9931 27.0704L28.2854 25.2417L29.5777 23.4131C28.5186 22.7215 27.2855 22.411 25.9631 22.411L25.7846 24.5642ZM28.2854 25.2417L27.0103 27.0815C27.3388 27.2911 27.6168 27.6061 27.825 28.1105L29.8412 27.1566L31.8573 26.2028C31.3763 25.0378 30.6171 24.0761 29.5606 23.402L28.2854 25.2417ZM29.8412 27.1566L27.8288 28.1196C28.0192 28.5742 28.1297 29.2274 28.0522 30.1616H30.2128H32.3734C32.4913 28.7389 32.354 27.3889 31.8535 26.1937L29.8412 27.1566ZM30.2128 30.1616H28.0522C27.9739 31.1053 27.7525 31.7911 27.4699 32.2893L29.338 33.2254L31.2061 34.1615C31.8928 32.951 32.2546 31.5942 32.3734 30.1616H30.2128ZM29.338 33.2254L27.4699 32.2893C27.1685 32.8205 26.8261 33.1567 26.4521 33.3816L27.4598 35.1992L28.4674 37.0168C29.6283 36.3186 30.5381 35.3389 31.2061 34.1615L29.338 33.2254ZM27.4598 35.1992L26.4707 33.3705C26.1112 33.5824 25.6537 33.7236 25.0251 33.7236L24.8465 35.8768L24.668 38.03C25.9904 38.03 27.275 37.7195 28.4488 37.0279L27.4598 35.1992ZM25.0029 33.9914L24.8243 36.1446C25.8182 36.1446 26.7967 35.8443 27.6564 35.2014L26.4461 33.52L25.2358 31.8386C25.2318 31.8416 25.2323 31.8408 25.2369 31.8384C25.2416 31.836 25.2463 31.834 25.2496 31.833C25.2528 31.8319 25.2506 31.833 25.2411 31.8345C25.2314 31.836 25.212 31.8382 25.1814 31.8382L25.0029 33.9914ZM26.4461 33.52L27.6347 35.2174C28.4555 34.6177 29.0424 33.8244 29.444 32.9579L27.4872 32.1943L25.5304 31.4307C25.404 31.7034 25.2968 31.7939 25.2575 31.8226L26.4461 33.52ZM27.4872 32.1943L29.4493 32.9466C29.8481 32.074 30.0611 31.1314 30.1415 30.1616H27.9809H25.8203C25.7721 30.7433 25.656 31.1558 25.5251 31.442L27.4872 32.1943ZM27.9809 30.1616H30.1415C30.2216 29.1963 30.1664 28.2514 29.8969 27.3857L27.8206 28.173L25.7444 28.9603C25.8173 29.1945 25.8689 29.5753 25.8203 30.1616H27.9809ZM27.8206 28.173L29.9006 27.3977C29.6371 26.5319 29.1676 25.7374 28.4157 25.1538L26.9957 26.8915L25.5758 28.6292C25.583 28.6348 25.6635 28.6946 25.7407 28.9483L27.8206 28.173ZM26.9957 26.8915L28.4604 25.1896C27.7056 24.5667 26.7849 24.2817 25.808 24.2817L25.6294 26.4349L25.4509 28.5881C25.4848 28.5881 25.5072 28.5904 25.5201 28.5924C25.5266 28.5934 25.531 28.5944 25.5337 28.595C25.535 28.5953 25.536 28.5956 25.5366 28.5957C25.5372 28.5959 25.5375 28.596 25.5375 28.596C25.5375 28.596 25.5373 28.5959 25.5369 28.5958C25.5365 28.5956 25.536 28.5954 25.5353 28.5951C25.534 28.5946 25.5326 28.5939 25.5312 28.5931C25.5281 28.5914 25.528 28.5909 25.5311 28.5934L26.9957 26.8915ZM25.6294 26.4349L25.808 24.2817C24.8307 24.2817 23.8686 24.5665 23.012 25.174L24.1726 26.8915L25.3333 28.609C25.3417 28.6031 25.3462 28.6008 25.3474 28.6002C25.3486 28.5996 25.3499 28.599 25.3528 28.5981C25.3564 28.5969 25.385 28.5881 25.4509 28.5881L25.6294 26.4349ZM24.1726 26.8915L23.0191 25.1689C22.187 25.7546 21.5995 26.5451 21.1986 27.3977L23.15 28.173L25.1014 28.9483C25.2268 28.6815 25.3212 28.6176 25.3262 28.6141L24.1726 26.8915ZM23.15 28.173L21.1897 27.417C20.7968 28.2724 20.5934 29.2058 20.5141 30.1616H22.6747H24.8353C24.8847 29.5658 24.9981 29.1735 25.1103 28.9291L23.15 28.173ZM22.6747 30.1616H20.5141C20.4345 31.1219 20.4846 32.0535 20.7212 32.9163L22.8166 32.1943L24.9119 31.4723C24.8308 31.1763 24.7863 30.7528 24.8353 30.1616H22.6747ZM22.8166 32.1943L20.7331 32.9579C20.9872 33.8117 21.4299 34.6003 22.1339 35.2014L23.623 33.52L25.1122 31.8386C25.08 31.8112 24.985 31.716 24.9 31.4307L22.8166 32.1943ZM23.623 33.52L22.1529 35.2174C22.9074 35.8447 23.8304 36.1446 24.8243 36.1446L25.0029 33.9914L25.1814 31.8382C25.1509 31.8382 25.131 31.836 25.1199 31.8342C25.1089 31.8325 25.1043 31.8309 25.1041 31.8308C25.1037 31.8307 25.1039 31.8307 25.1042 31.8309C25.1046 31.8311 25.1048 31.8312 25.1046 31.8311C25.1044 31.831 25.1035 31.8304 25.1018 31.8292C25.1 31.828 25.0971 31.8259 25.0931 31.8226L23.623 33.52ZM30.434 35.6706H28.2734L28.0948 37.8238H30.2554L30.434 35.6706ZM31.6507 20.9968L31.8292 18.8436H29.6686L29.4901 20.9968H31.6507ZM39.3641 21.4324L38.5023 23.472L38.5115 23.4751L39.3641 21.4324ZM41.3108 22.878L39.4716 24.1645L39.4843 24.1836L39.4974 24.2023L41.3108 22.878ZM40.856 28.3634L39.1968 27.1179L39.1918 27.1242L40.856 28.3634ZM38.6779 29.9476L38.0413 27.9484L38.0302 27.9527L38.6779 29.9476ZM33.8067 30.4625L33.9852 28.3093H31.8246L31.6461 30.4625H33.8067ZM33.3748 35.6706L33.1963 37.8238H35.3569L35.5354 35.6706H33.3748ZM33.9988 28.1455H31.8382L31.6597 30.2988H33.8202L33.9988 28.1455ZM38.0652 27.5119L36.8101 25.8648L36.7984 25.874L36.7869 25.8833L38.0652 27.5119ZM38.3292 23.8484L36.9822 25.6399L37.0072 25.6575L37.0327 25.6743L38.3292 23.8484ZM34.3978 23.3335L34.5763 21.1803H32.4157L32.2372 23.3335H34.3978ZM30.434 35.6706H32.5946L33.8113 20.9968H31.6507H29.4901L28.2734 35.6706H30.434ZM31.6507 20.9968L31.4722 23.15H36.3007L36.4793 20.9968L36.6578 18.8436H31.8292L31.6507 20.9968ZM36.4793 20.9968L36.3007 23.15C37.196 23.15 37.9198 23.2698 38.5023 23.472L39.3641 21.4324L40.2259 19.3929C39.1345 19.0141 37.935 18.8436 36.6578 18.8436L36.4793 20.9968ZM39.3641 21.4324L38.5115 23.4751C38.9943 23.64 39.2808 23.8775 39.4716 24.1645L41.3108 22.878L43.15 21.5915C42.4457 20.532 41.4344 19.8057 40.2167 19.3897L39.3641 21.4324ZM41.3108 22.878L39.4974 24.2023C39.6087 24.3614 39.7703 24.7459 39.6986 25.6108H41.8592H44.0198C44.1407 24.1522 43.9367 22.7148 43.1243 21.5537L41.3108 22.878ZM41.8592 25.6108H39.6986C39.6344 26.3843 39.4201 26.8368 39.1968 27.1179L40.856 28.3634L42.5152 29.6089C43.4455 28.4378 43.9 27.0552 44.0198 25.6108H41.8592ZM40.856 28.3634L39.1918 27.1242C38.9149 27.4751 38.5548 27.7503 38.0413 27.9484L38.6779 29.9476L39.3146 31.9468C40.5802 31.4584 41.672 30.6775 42.5202 29.6025L40.856 28.3634ZM38.6779 29.9476L38.0302 27.9527C37.4596 28.1762 36.7769 28.3093 35.9524 28.3093L35.7739 30.4625L35.5953 32.6157C36.8903 32.6157 38.1438 32.4055 39.3257 31.9425L38.6779 29.9476ZM35.7739 30.4625L35.9524 28.3093H33.9852L33.8067 30.4625L33.6281 32.6157H35.5953L35.7739 30.4625ZM33.8067 30.4625H31.6461L31.2142 35.6706H33.3748H35.5354L35.9673 30.4625H33.8067ZM33.3748 35.6706L33.5534 33.5174H30.6125L30.434 35.6706L30.2554 37.8238H33.1963L33.3748 35.6706ZM33.9988 28.1455L33.8202 30.2988H35.5887L35.7673 28.1455L35.9458 25.9923H34.1773L33.9988 28.1455ZM35.7673 28.1455L35.5887 30.2988C36.8404 30.2988 38.2189 30.0451 39.3435 29.1405L38.0652 27.5119L36.7869 25.8833C36.8266 25.8513 36.8131 25.8787 36.6799 25.9154C36.5407 25.9538 36.3053 25.9923 35.9458 25.9923L35.7673 28.1455ZM38.0652 27.5119L39.3204 29.1589C40.5227 28.2155 41.0321 26.8939 41.1385 25.6108H38.9779H36.8173C36.7996 25.8248 36.7598 25.9152 36.754 25.9273C36.7516 25.9321 36.7557 25.9227 36.7691 25.906C36.7827 25.8889 36.7978 25.8745 36.8101 25.8648L38.0652 27.5119ZM38.9779 25.6108H41.1385C41.2457 24.3187 40.9321 22.8804 39.6257 22.0224L38.3292 23.8484L37.0327 25.6743C36.9891 25.6456 36.9419 25.6043 36.9003 25.5512C36.8591 25.4986 36.8359 25.4504 36.8244 25.4192C36.8038 25.3632 36.8346 25.402 36.8173 25.6108H38.9779ZM38.3292 23.8484L39.6763 22.0568C38.7 21.3704 37.4442 21.1803 36.2455 21.1803L36.0669 23.3335L35.8884 25.4867C36.2834 25.4867 36.563 25.5205 36.7508 25.5633C36.9389 25.6061 36.9944 25.6485 36.9822 25.6399L38.3292 23.8484ZM36.0669 23.3335L36.2455 21.1803H34.5763L34.3978 23.3335L34.2193 25.4867H35.8884L36.0669 23.3335ZM34.3978 23.3335H32.2372L31.8382 28.1455H33.9988H36.1594L36.5584 23.3335H34.3978Z" fill="#4FA668" mask="url(#path-3-outside-1_175_2734)"/>
<path d="M88.1643 8.84674C88.1268 9.49262 88.3201 10.0402 88.7441 10.4895C89.1697 10.9108 89.706 11.1214 90.353 11.1214C90.9719 11.1214 91.5185 10.9108 91.993 10.4895C92.4692 10.0402 92.726 9.49262 92.7634 8.84674C92.7993 8.22894 92.6052 7.69538 92.1812 7.24607C91.7572 6.79676 91.2358 6.57211 90.6169 6.57211C89.9699 6.57211 89.4084 6.79676 88.9323 7.24607C88.4561 7.69538 88.2002 8.22894 88.1643 8.84674ZM85.5905 8.84674C85.6426 7.94812 85.9008 7.13374 86.3651 6.40361C86.8576 5.67349 87.4825 5.08377 88.2399 4.63446C89.0254 4.18515 89.8683 3.96049 90.7684 3.96049C91.6685 3.96049 92.4713 4.18515 93.1766 4.63446C93.8818 5.08377 94.4243 5.67349 94.8039 6.40361C95.2116 7.13374 95.3894 7.94812 95.3372 8.84674C95.2851 9.74536 95.012 10.5738 94.518 11.332C94.0537 12.0621 93.4428 12.6518 92.6854 13.1011C91.9296 13.5224 91.1016 13.733 90.2015 13.733C89.3014 13.733 88.4838 13.5224 87.7487 13.1011C87.0435 12.6518 86.487 12.0621 86.0792 11.332C85.7013 10.5738 85.5384 9.74536 85.5905 8.84674ZM79.8631 7.20395C79.8236 7.40052 79.7626 7.72346 79.6803 8.17277C79.598 8.62208 79.514 9.09947 79.4284 9.60495C79.3445 10.0823 79.2919 10.5036 79.2708 10.8686C79.2219 11.7111 79.1681 12.6378 79.1095 13.6487C79.0508 14.6597 78.9922 15.6706 78.9335 16.6816C78.8765 17.6644 78.8244 18.5631 78.7772 19.3774C78.7446 19.9391 78.699 20.7254 78.6403 21.7363C78.5817 22.7473 78.5157 23.8846 78.4424 25.1483C78.3691 26.4119 78.2925 27.7318 78.2127 29.1078C78.1345 30.4557 78.0579 31.7756 77.983 33.0674C77.9097 34.331 77.8429 35.4824 77.7826 36.5214C77.724 37.5324 77.6776 38.3327 77.6434 38.9224C77.5733 40.1299 77.1522 41.0847 76.3802 41.7868C75.6346 42.5169 74.5164 42.882 73.0255 42.882C72.266 42.882 71.4933 42.8679 70.7073 42.8398C69.9213 42.8118 69.1502 42.7696 68.394 42.7135C67.6378 42.6573 66.8964 42.5871 66.17 42.5029L65.9666 37.2796C66.857 37.4481 67.7217 37.5745 68.5606 37.6587C69.4278 37.743 70.1145 37.7851 70.6208 37.7851C71.1834 37.7851 71.5837 37.6728 71.8218 37.4481C72.0615 37.1954 72.2109 36.8022 72.2699 36.2687C72.2846 36.0159 72.3164 35.4684 72.3652 34.6259C72.4422 33.7834 72.5141 32.7865 72.5809 31.6352C72.6477 30.4838 72.7186 29.2623 72.7935 27.9705C72.8684 26.6787 72.9401 25.4431 73.0085 24.2637C73.077 23.0842 73.1364 22.0593 73.1869 21.1887C73.2374 20.3182 73.2724 19.7144 73.292 19.3774C73.3213 18.872 73.3653 18.1138 73.4239 17.1028C73.4842 16.0638 73.5477 14.9686 73.6145 13.8172C73.6813 12.6659 73.7383 11.683 73.7856 10.8686C73.8182 10.307 73.8142 9.64707 73.7738 8.88886C73.7351 8.10257 73.6833 7.54093 73.6184 7.20395H79.8631ZM58.7997 13.9015C59.4418 13.9857 60.112 14.07 60.8103 14.1542C61.5103 14.2104 62.1978 14.2385 62.8729 14.2385C63.2105 14.2385 63.8856 14.2385 64.8982 14.2385C65.939 14.2385 67.1767 14.2385 68.6112 14.2385C70.0458 14.2385 71.5789 14.2385 73.2104 14.2385C74.87 14.2385 76.5296 14.2385 78.1892 14.2385C79.8769 14.2385 81.4381 14.2385 82.8727 14.2385C84.3354 14.2385 85.6012 14.2385 86.6701 14.2385C87.739 14.2385 88.4844 14.2385 88.9064 14.2385C89.4971 14.2385 90.1879 14.2104 90.9788 14.1542C91.7978 14.098 92.5051 14.0278 93.1007 13.9436L92.7806 19.4617C92.1368 19.4055 91.4352 19.3774 90.6758 19.3774C89.9179 19.3494 89.2436 19.3353 88.6529 19.3353C88.231 19.3353 87.4856 19.3353 86.4166 19.3353C85.3759 19.3353 84.1241 19.3353 82.6614 19.3353C81.2268 19.3353 79.6797 19.3353 78.0201 19.3353C76.3605 19.3353 74.7009 19.3353 73.0413 19.3353C71.3817 19.3353 69.8346 19.3353 68.4 19.3353C66.9654 19.3353 65.7277 19.3353 64.6869 19.3353C63.6743 19.3353 62.9711 19.3353 62.5772 19.3353C61.9584 19.3353 61.2684 19.3494 60.5073 19.3774C59.7743 19.4055 59.0968 19.4476 58.4747 19.5038L58.7997 13.9015ZM68.8969 25.3168C68.3633 26.2715 67.7272 27.2965 66.9885 28.3917C66.2499 29.4869 65.455 30.5821 64.6039 31.6773C63.7809 32.7725 62.976 33.7975 62.1892 34.7523C61.4041 35.679 60.6983 36.4512 60.0717 37.069L55.6957 33.9519C56.4363 33.306 57.1976 32.5478 57.9795 31.6773C58.7911 30.7787 59.577 29.8379 60.3373 28.8551C61.1256 27.8722 61.8437 26.8893 62.4914 25.9065C63.1673 24.9236 63.7563 23.9829 64.2585 23.0842L68.8969 25.3168ZM87.177 22.9579C87.6723 23.6318 88.2166 24.4322 88.8098 25.3589C89.4311 26.2856 90.0484 27.2825 90.6616 28.3496C91.2764 29.3886 91.8499 30.4136 92.3819 31.4246C92.9156 32.4074 93.3715 33.278 93.7494 34.0362L88.6142 36.732C88.2162 35.8334 87.7521 34.8646 87.2216 33.8256C86.7193 32.7865 86.1889 31.7475 85.6303 30.7085C85.0717 29.6694 84.5091 28.7006 83.9424 27.802C83.4054 26.8753 82.9025 26.089 82.4337 25.4431L87.177 22.9579ZM109.009 18.9872C109.155 19.3724 109.34 19.9262 109.564 20.6485C109.812 21.3467 110.07 22.1051 110.336 22.9236C110.603 23.7181 110.837 24.4765 111.036 25.1988C111.235 25.9211 111.395 26.4869 111.516 26.8962L107.087 28.4129C107.017 27.9555 106.882 27.3777 106.681 26.6795C106.481 25.9813 106.258 25.247 106.013 24.4765C105.77 23.682 105.525 22.9236 105.277 22.2014C105.03 21.4791 104.811 20.8772 104.622 20.3957L109.009 18.9872ZM122.204 21.6235C121.978 22.2014 121.78 22.6949 121.612 23.1042C121.468 23.5135 121.325 23.8987 121.183 24.2598C120.619 26.0896 119.886 27.9194 118.984 29.7491C118.083 31.5548 116.972 33.2522 115.65 34.8412C113.836 37.008 111.812 38.8498 109.577 40.3666C107.368 41.8593 105.18 43.0029 103.012 43.7974L99.4373 39.9333C100.785 39.5721 102.214 39.0424 103.726 38.3442C105.239 37.622 106.712 36.7552 108.145 35.744C109.578 34.7329 110.825 33.6133 111.885 32.3855C112.765 31.3502 113.557 30.1705 114.261 28.8463C114.99 27.4981 115.604 26.0655 116.102 24.5488C116.625 23.0079 117.003 21.4911 117.234 19.9984L122.204 21.6235ZM100.505 20.9013C100.72 21.3587 100.951 21.9486 101.198 22.6708C101.47 23.3931 101.74 24.1515 102.007 24.946C102.274 25.7405 102.531 26.5109 102.777 27.2573C103.047 28.0036 103.252 28.6296 103.392 29.1352L98.8821 30.7964C98.7654 30.3149 98.5846 29.689 98.3399 28.9185C98.1193 28.1481 97.8647 27.3416 97.5759 26.4989C97.2886 25.6322 97.0091 24.8377 96.7375 24.1154C96.49 23.3931 96.2689 22.8394 96.0742 22.4542L100.505 20.9013ZM153.065 9.56282C153.026 10.2368 153.232 10.8125 153.682 11.2899C154.135 11.7392 154.684 11.9638 155.331 11.9638C156.006 11.9638 156.596 11.7392 157.1 11.2899C157.606 10.8125 157.879 10.2368 157.918 9.56282C157.957 8.88886 157.751 8.31318 157.301 7.83579C156.85 7.3584 156.287 7.1197 155.612 7.1197C154.965 7.1197 154.389 7.3584 153.883 7.83579C153.377 8.31318 153.104 8.88886 153.065 9.56282ZM150.449 9.56282C150.503 8.63612 150.777 7.79367 151.271 7.03546C151.795 6.24916 152.45 5.63136 153.235 5.18205C154.021 4.73274 154.864 4.50809 155.764 4.50809C156.692 4.50809 157.523 4.73274 158.256 5.18205C159.018 5.63136 159.601 6.24916 160.005 7.03546C160.411 7.79367 160.587 8.63612 160.534 9.56282C160.482 10.4614 160.208 11.2899 159.714 12.0481C159.22 12.8063 158.566 13.4241 157.75 13.9015C156.965 14.3508 156.108 14.5754 155.18 14.5754C154.28 14.5754 153.463 14.3508 152.729 13.9015C151.998 13.4241 151.415 12.8063 150.98 12.0481C150.574 11.2899 150.397 10.4614 150.449 9.56282ZM155.362 12.8905C155.142 13.2837 154.946 13.7611 154.772 14.3227C154.601 14.8563 154.432 15.3477 154.265 15.797C153.98 16.836 153.617 18.0014 153.176 19.2932C152.737 20.5569 152.224 21.8767 151.638 23.2527C151.052 24.6287 150.368 25.9907 149.587 27.3387C148.834 28.6866 147.987 29.9503 147.046 31.1297C145.683 32.8146 144.115 34.3872 142.342 35.8475C140.57 37.3077 138.609 38.6276 136.459 39.807C134.309 40.9864 131.958 41.9833 129.408 42.7977L125.102 37.743C127.954 37.069 130.421 36.2406 132.503 35.2577C134.586 34.2749 136.409 33.1516 137.973 31.8879C139.565 30.6242 140.98 29.2763 142.216 27.8441C143.213 26.6647 144.074 25.387 144.801 24.0109C145.556 22.6349 146.184 21.2589 146.686 19.8829C147.218 18.4788 147.603 17.173 147.842 15.9655C147.42 15.9655 146.717 15.9655 145.732 15.9655C144.776 15.9655 143.636 15.9655 142.314 15.9655C141.02 15.9655 139.656 15.9655 138.222 15.9655C136.815 15.9655 135.451 15.9655 134.129 15.9655C132.807 15.9655 131.611 15.9655 130.542 15.9655C129.502 15.9655 128.728 15.9655 128.222 15.9655C127.237 15.9655 126.28 15.9795 125.35 16.0076C124.448 16.0357 123.729 16.0778 123.191 16.134L123.535 10.1947C123.954 10.2508 124.457 10.307 125.045 10.3632C125.66 10.4193 126.277 10.4614 126.894 10.4895C127.539 10.5176 128.087 10.5316 128.537 10.5316C128.987 10.5316 129.62 10.5316 130.436 10.5316C131.279 10.5316 132.25 10.5316 133.347 10.5316C134.444 10.5316 135.583 10.5316 136.765 10.5316C137.974 10.5316 139.17 10.5316 140.351 10.5316C141.561 10.5316 142.686 10.5316 143.727 10.5316C144.767 10.5316 145.667 10.5316 146.427 10.5316C147.186 10.5316 147.735 10.5316 148.073 10.5316C148.494 10.5316 149.002 10.5176 149.594 10.4895C150.214 10.4614 150.811 10.3632 151.383 10.1947L155.362 12.8905ZM172.85 10.3632C172.773 9.74536 172.665 9.18372 172.526 8.67825C172.414 8.17277 172.303 7.6673 172.192 7.16183L178.197 6.193C178.229 6.61423 178.254 7.14778 178.273 7.79367C178.322 8.41147 178.388 8.97311 178.471 9.47858C178.504 9.87173 178.589 10.6019 178.724 11.669C178.859 12.7361 179.023 14.0278 179.216 15.5443C179.409 17.0607 179.623 18.7035 179.858 20.4726C180.123 22.2137 180.372 23.9829 180.605 25.7801C180.84 27.5493 181.066 29.2342 181.283 30.8348C181.527 32.4355 181.726 33.8536 181.88 35.0892C182.061 36.3249 182.191 37.2375 182.269 37.8272C182.374 38.445 182.504 39.119 182.658 39.8491C182.813 40.5793 182.969 41.2813 183.127 41.9553L176.945 43.0505C176.878 42.2642 176.838 41.506 176.824 40.7758C176.809 40.0738 176.748 39.4139 176.644 38.7961C176.564 38.2344 176.445 37.3779 176.286 36.2266C176.158 35.0471 175.984 33.6711 175.766 32.0985C175.576 30.5259 175.364 28.8551 175.129 27.0859C174.894 25.3168 174.659 23.5476 174.424 21.7784C174.189 20.0093 173.962 18.3525 173.742 16.8079C173.55 15.2634 173.374 13.9296 173.215 12.8063C173.056 11.6549 172.935 10.8406 172.85 10.3632ZM161.021 15.7128C161.697 15.6847 162.36 15.6566 163.009 15.6285C163.659 15.5723 164.31 15.5021 164.962 15.4179C165.586 15.3337 166.464 15.2213 167.597 15.0809C168.732 14.9124 170.037 14.7299 171.511 14.5333C172.987 14.3087 174.506 14.07 176.067 13.8172C177.657 13.5645 179.19 13.3258 180.666 13.1011C182.143 12.8484 183.45 12.6237 184.587 12.4272C185.751 12.2306 186.66 12.0762 187.314 11.9638C187.997 11.8234 188.709 11.683 189.448 11.5426C190.189 11.3741 190.817 11.2197 191.331 11.0792L192.024 16.5973C191.572 16.6254 190.963 16.6956 190.197 16.8079C189.431 16.9203 188.737 17.0186 188.113 17.1028C187.347 17.2151 186.339 17.3696 185.09 17.5662C183.869 17.7627 182.506 17.9874 181.001 18.2401C179.497 18.4648 177.964 18.7035 176.402 18.9562C174.842 19.1809 173.351 19.4196 171.93 19.6723C170.511 19.897 169.262 20.0935 168.183 20.262C167.104 20.4305 166.295 20.5569 165.756 20.6411C165.073 20.7815 164.432 20.9219 163.833 21.0624C163.236 21.1747 162.566 21.3291 161.823 21.5257L161.021 15.7128ZM160.345 28.0969C160.909 28.0688 161.615 28.0126 162.464 27.9284C163.343 27.816 164.108 27.7178 164.76 27.6335C165.526 27.5212 166.547 27.3667 167.824 27.1702C169.102 26.9736 170.535 26.7489 172.125 26.4962C173.743 26.2435 175.403 25.9907 177.106 25.738C178.81 25.4572 180.472 25.1763 182.091 24.8955C183.711 24.6147 185.188 24.362 186.523 24.1373C187.858 23.9127 188.938 23.7301 189.762 23.5897C190.587 23.4212 191.371 23.2527 192.112 23.0842C192.881 22.9158 193.552 22.7473 194.124 22.5788L194.941 28.139C194.377 28.1671 193.683 28.2513 192.859 28.3917C192.065 28.504 191.256 28.6304 190.432 28.7708C189.523 28.9112 188.388 29.0938 187.024 29.3184C185.661 29.5431 184.156 29.7958 182.508 30.0766C180.89 30.3294 179.229 30.5961 177.525 30.877C175.822 31.1297 174.19 31.3965 172.626 31.6773C171.064 31.93 169.659 32.1547 168.41 32.3513C167.161 32.5478 166.181 32.7163 165.469 32.8567C164.559 33.0252 163.735 33.1797 162.995 33.3201C162.284 33.4605 161.685 33.6009 161.199 33.7413L160.345 28.0969ZM206.568 17.5066C206.616 17.9158 206.675 18.3613 206.743 18.8428C206.837 19.3002 206.919 19.7697 206.987 20.2512C207.164 20.9494 207.365 21.8523 207.59 22.9597C207.839 24.0672 208.106 25.2831 208.391 26.6072C208.676 27.9314 208.959 29.2797 209.242 30.652C209.549 32.0002 209.848 33.3003 210.137 34.5523C210.427 35.7802 210.677 36.8756 210.887 37.8386C211.097 38.7776 211.261 39.4999 211.376 40.0055C211.461 40.1981 211.541 40.487 211.615 40.8722C211.689 41.2574 211.775 41.6426 211.874 42.0279C211.996 42.4131 212.098 42.7261 212.181 42.9668L207.19 44.1947C207.147 43.6891 207.093 43.1594 207.029 42.6057C206.965 42.0519 206.863 41.5223 206.723 41.0167C206.609 40.487 206.448 39.7286 206.24 38.7415C206.034 37.7303 205.798 36.5867 205.535 35.3107C205.271 34.0347 204.986 32.7105 204.68 31.3382C204.398 29.9658 204.126 28.6296 203.863 27.3295C203.603 26.0053 203.346 24.8136 203.094 23.7543C202.868 22.6708 202.675 21.8282 202.517 21.2263C202.425 20.7448 202.294 20.2873 202.127 19.854C201.983 19.4206 201.825 19.0233 201.653 18.6622L206.568 17.5066ZM223.609 23.0681C223.201 23.8626 222.654 24.7654 221.968 25.7766C221.307 26.7878 220.584 27.8231 219.799 28.8824C219.014 29.9418 218.232 30.9529 217.452 31.916C216.674 32.8549 215.94 33.6735 215.248 34.3717L211.384 32.3855C212.043 31.8317 212.745 31.1576 213.491 30.3631C214.236 29.5686 214.934 28.7741 215.583 27.9796C216.257 27.161 216.756 26.4628 217.079 25.885C216.811 25.9331 216.299 26.0294 215.543 26.1739C214.811 26.3183 213.92 26.4989 212.87 26.7156C211.821 26.9323 210.673 27.173 209.428 27.4379C208.208 27.6786 206.976 27.9314 205.73 28.1963C204.485 28.4611 203.301 28.7139 202.178 28.9546C201.056 29.1713 200.067 29.376 199.212 29.5686C198.358 29.7371 197.711 29.8695 197.271 29.9658L196.401 25.6322C196.983 25.584 197.541 25.5238 198.076 25.4516C198.611 25.3794 199.17 25.2951 199.755 25.1988C200.047 25.1507 200.558 25.0664 201.289 24.946C202.043 24.8256 202.933 24.6691 203.957 24.4765C205.005 24.2839 206.126 24.0793 207.32 23.8626C208.516 23.6218 209.723 23.3931 210.941 23.1764C212.161 22.9357 213.307 22.719 214.38 22.5264C215.453 22.3097 216.392 22.1291 217.196 21.9847C218.002 21.8161 218.588 21.6837 218.956 21.5874C219.272 21.5393 219.602 21.467 219.945 21.3707C220.29 21.2504 220.586 21.13 220.834 21.0096L223.609 23.0681ZM239.22 18.9872C239.366 19.3724 239.551 19.9262 239.774 20.6485C240.023 21.3467 240.281 22.1051 240.547 22.9236C240.814 23.7181 241.048 24.4765 241.247 25.1988C241.446 25.9211 241.606 26.4869 241.727 26.8962L237.298 28.4129C237.228 27.9555 237.093 27.3777 236.892 26.6795C236.692 25.9813 236.469 25.247 236.224 24.4765C235.981 23.682 235.736 22.9236 235.488 22.2014C235.241 21.4791 235.022 20.8772 234.833 20.3957L239.22 18.9872ZM252.415 21.6235C252.189 22.2014 251.991 22.6949 251.823 23.1042C251.679 23.5135 251.536 23.8987 251.394 24.2598C250.83 26.0896 250.097 27.9194 249.195 29.7491C248.294 31.5548 247.183 33.2522 245.86 34.8412C244.047 37.008 242.023 38.8498 239.788 40.3666C237.579 41.8593 235.391 43.0029 233.222 43.7974L229.648 39.9333C230.996 39.5721 232.425 39.0424 233.937 38.3442C235.45 37.622 236.923 36.7552 238.356 35.744C239.789 34.7329 241.036 33.6133 242.096 32.3855C242.976 31.3502 243.768 30.1705 244.472 28.8463C245.201 27.4981 245.815 26.0655 246.313 24.5488C246.836 23.0079 247.214 21.4911 247.445 19.9984L252.415 21.6235ZM230.716 20.9013C230.931 21.3587 231.162 21.9486 231.409 22.6708C231.681 23.3931 231.95 24.1515 232.218 24.946C232.485 25.7405 232.742 26.5109 232.988 27.2573C233.258 28.0036 233.463 28.6296 233.603 29.1352L229.093 30.7964C228.976 30.3149 228.796 29.689 228.551 28.9185C228.33 28.1481 228.076 27.3416 227.787 26.4989C227.5 25.6322 227.22 24.8377 226.948 24.1154C226.701 23.3931 226.48 22.8394 226.285 22.4542L230.716 20.9013ZM265.067 7.07758C265.719 7.47072 266.466 7.93408 267.307 8.46763C268.148 9.00119 269.002 9.54878 269.87 10.1104C270.765 10.6721 271.592 11.2197 272.348 11.7532C273.135 12.2587 273.798 12.708 274.338 13.1011L270.902 17.7768C270.364 17.3555 269.702 16.8782 268.917 16.3446C268.133 15.811 267.321 15.2634 266.481 14.7018C265.642 14.1402 264.801 13.6066 263.958 13.1011C263.145 12.5676 262.398 12.1042 261.718 11.7111L265.067 7.07758ZM255.484 36.9848C257.104 36.704 258.726 36.367 260.353 35.9738C262.009 35.5526 263.656 35.0331 265.295 34.4153C266.963 33.7975 268.579 33.0814 270.146 32.267C272.615 30.9191 274.925 29.4027 277.076 27.7178C279.255 26.0328 281.216 24.2356 282.958 22.326C284.729 20.4165 286.234 18.4648 287.475 16.471L290.392 22.1997C288.253 25.1202 285.661 27.8722 282.613 30.4557C279.594 33.0393 276.297 35.3279 272.722 37.3218C271.24 38.1361 269.621 38.8943 267.864 39.5964C266.135 40.2984 264.427 40.9022 262.738 41.4077C261.075 41.9412 259.605 42.3203 258.326 42.545L255.484 36.9848ZM258.012 16.6816C258.692 17.0747 259.453 17.5381 260.294 18.0716C261.165 18.5771 262.034 19.1107 262.902 19.6723C263.769 20.2339 264.582 20.7675 265.34 21.273C266.127 21.7784 266.776 22.2278 267.288 22.6209L263.934 27.3387C263.339 26.9174 262.663 26.4541 261.905 25.9486C261.148 25.415 260.336 24.8674 259.468 24.3058C258.631 23.7161 257.79 23.1685 256.948 22.663C256.133 22.1575 255.371 21.7223 254.661 21.3572L258.012 16.6816ZM313.148 23.2125C313.038 23.4533 312.95 23.7181 312.885 24.007C312.82 24.296 312.758 24.5367 312.699 24.7293C312.597 25.2349 312.448 25.9331 312.252 26.8239C312.079 27.7147 311.877 28.7018 311.646 29.7853C311.439 30.8446 311.221 31.916 310.989 32.9994C310.757 34.0828 310.543 35.0699 310.347 35.9607C310.175 36.8515 310.025 37.5618 309.898 38.0914H304.942C305.068 37.5859 305.213 36.9478 305.378 36.1774C305.545 35.3829 305.727 34.5282 305.925 33.6133C306.148 32.6744 306.347 31.7354 306.523 30.7964C306.722 29.8575 306.893 28.9908 307.035 28.1963C307.178 27.4017 307.275 26.7637 307.327 26.2822C306.989 26.2822 306.471 26.2822 305.772 26.2822C305.096 26.2822 304.325 26.2822 303.456 26.2822C302.612 26.2822 301.768 26.2822 300.924 26.2822C300.104 26.2822 299.393 26.2822 298.79 26.2822C298.187 26.2822 297.777 26.2822 297.56 26.2822C296.981 26.2822 296.353 26.3063 295.675 26.3544C295.022 26.3785 294.441 26.4146 293.932 26.4628L294.208 21.6958C294.519 21.7439 294.891 21.78 295.324 21.8041C295.756 21.8282 296.189 21.8523 296.622 21.8763C297.079 21.9004 297.464 21.9124 297.777 21.9124C298.139 21.9124 298.633 21.9124 299.26 21.9124C299.887 21.9124 300.575 21.9124 301.322 21.9124C302.07 21.9124 302.818 21.9124 303.565 21.9124C304.313 21.9124 304.988 21.9124 305.591 21.9124C306.218 21.9124 306.7 21.9124 307.038 21.9124C307.303 21.9124 307.617 21.9004 307.981 21.8763C308.344 21.8523 308.695 21.8161 309.036 21.768C309.378 21.6958 309.612 21.6115 309.738 21.5152L313.148 23.2125ZM290.032 36.3219C290.512 36.37 291.063 36.4182 291.688 36.4663C292.337 36.4904 292.976 36.5024 293.603 36.5024C293.965 36.5024 294.628 36.5024 295.592 36.5024C296.581 36.5024 297.739 36.5024 299.065 36.5024C300.416 36.5024 301.802 36.5024 303.225 36.5024C304.672 36.5024 306.047 36.5024 307.349 36.5024C308.676 36.5024 309.809 36.5024 310.75 36.5024C311.69 36.5024 312.293 36.5024 312.558 36.5024C313.016 36.5024 313.608 36.4904 314.333 36.4663C315.058 36.4422 315.651 36.4061 316.112 36.358L315.841 41.0167C315.602 40.9926 315.265 40.9685 314.833 40.9444C314.423 40.9444 313.989 40.9324 313.533 40.9083C313.099 40.9083 312.713 40.9083 312.375 40.9083C312.086 40.9083 311.459 40.9083 310.494 40.9083C309.529 40.9083 308.384 40.9083 307.057 40.9083C305.731 40.9083 304.332 40.9083 302.861 40.9083C301.414 40.9083 300.015 40.9083 298.665 40.9083C297.338 40.9083 296.193 40.9083 295.228 40.9083C294.264 40.9083 293.637 40.9083 293.347 40.9083C292.72 40.9083 292.141 40.9083 291.611 40.9083C291.079 40.9324 290.462 40.9685 289.76 41.0167L290.032 36.3219Z" fill="white"/>
</svg>
