<svg width="25" height="57" viewBox="0 0 25 57" fill="none" xmlns="http://www.w3.org/2000/svg">
<path d="M13.3745 4.85611C13.3696 4.80775 13.3647 4.75958 13.3602 4.71169V4.70641C13.329 4.3808 13.3099 4.06574 13.3948 3.79293C13.4814 3.52364 13.6719 3.28956 14.0529 3.12763C14.7768 2.82842 15.4331 2.41481 16.0566 1.89735C16.37 1.64038 16.6731 1.35525 16.9796 1.04372C17.0575 0.966274 17.1337 0.887071 17.2099 0.806109L17.2153 0.800579C17.2915 0.72138 17.3693 0.6405 17.4472 0.55794C17.495 0.504885 17.5477 0.450443 17.6012 0.395048C17.6328 0.362362 17.6651 0.328949 17.6966 0.29569L17.7607 0.228808L17.8351 0.158406L17.9096 0.086243C17.9165 0.0809629 17.9286 0.0686424 17.9286 0.0686424L18.0273 0C18.0204 0.0149605 18.0139 0.0299211 18.0074 0.0448816C18.0009 0.0598421 17.9944 0.0748026 17.9875 0.0897632C17.9841 0.0991419 17.9792 0.109106 17.9744 0.119201C17.9646 0.139394 17.9546 0.16018 17.9546 0.177766C17.9443 0.232095 17.9338 0.287131 17.9234 0.343212C17.9009 0.455838 17.8784 0.568519 17.8646 0.681144C17.841 0.840911 17.8166 1.00428 17.792 1.16931L17.7624 1.36757C17.6914 1.83046 17.6117 2.29864 17.5061 2.74922C17.2931 3.65037 16.9883 4.48464 16.4549 5.06722C15.9198 5.64804 15.4054 6.02469 14.8426 6.25702C14.5655 6.37847 14.2763 6.46471 13.9715 6.52455C13.6702 6.59143 13.3532 6.63191 13.0155 6.65832C13.2788 6.36614 13.3792 6.04405 13.4069 5.70964C13.432 5.42718 13.4029 5.13826 13.3745 4.85611Z" fill="#18724A"/>
<path d="M9.45397 7.88191C9.43064 7.84 9.40741 7.79826 9.38454 7.75663L9.38627 7.75311C9.22868 7.46798 9.08667 7.18813 9.05723 6.903C9.02952 6.62139 9.11092 6.32922 9.39666 6.02649C9.94218 5.45799 10.3803 4.81205 10.7475 4.08338C10.9328 3.71905 11.0973 3.33536 11.2566 2.92526C11.2982 2.82318 11.3363 2.71934 11.3744 2.61373C11.4142 2.5065 11.4541 2.39887 11.4939 2.28988C11.5156 2.22457 11.5411 2.15673 11.567 2.08788C11.5843 2.0417 11.6019 1.99506 11.6186 1.94843L11.6497 1.86043L11.6896 1.76538L11.7294 1.66858L11.732 1.66152C11.7341 1.6557 11.736 1.65027 11.7398 1.64394L11.7606 1.6105L11.8021 1.54185V1.64042C11.8027 1.65098 11.8025 1.66232 11.8023 1.67366C11.8019 1.69635 11.8015 1.71903 11.8073 1.73546L11.8437 1.90091L11.8497 1.92866C11.872 2.03079 11.8948 2.13513 11.9234 2.23356L11.9372 2.2863C11.99 2.48802 12.0443 2.69534 12.1 2.90414C12.216 3.35648 12.3303 3.81761 12.41 4.27347C12.5693 5.18694 12.6195 6.07401 12.3598 6.82556C12.0983 7.57535 11.7761 8.12977 11.3519 8.57154C11.144 8.79683 10.9137 8.9922 10.6574 9.17172C10.408 9.35477 10.1327 9.52022 9.83481 9.68214C9.96296 9.30725 9.92659 8.96932 9.82095 8.65251C9.73212 8.38167 9.5914 8.12883 9.45397 7.88191Z" fill="#18724A"/>
<path d="M16.1656 9.02912C16.299 8.96224 16.4375 8.90592 16.5795 8.85311C16.7216 8.80559 16.8688 8.76159 17.016 8.73167C17.0887 8.71759 17.1632 8.70527 17.2376 8.69471C17.3104 8.68767 17.3814 8.68591 17.4523 8.68415C16.8445 8.30397 16.0496 7.9854 15.2634 7.84988C14.4737 7.71259 13.684 7.77243 13.0934 8.14733C12.4994 8.5187 12.115 8.9904 11.8517 9.4885C11.7219 9.74018 11.6266 10.0007 11.5487 10.2594C11.4725 10.5217 11.4205 10.7892 11.3755 11.0497C11.6266 10.8138 11.921 10.7329 12.2345 10.7346C12.5331 10.7346 12.8444 10.8033 13.1427 10.8692L13.187 10.8789C13.8087 11.0127 14.3663 11.1254 14.6382 10.5586C14.9014 10.0253 15.2946 9.58354 15.7847 9.25265C15.9076 9.17168 16.0358 9.09776 16.1691 9.02912H16.1656Z" fill="#18724A"/>
<path d="M6.16195 13.9813C6.13321 13.9481 6.10417 13.9146 6.0759 13.8816L6.07763 13.8764C5.86462 13.6282 5.66546 13.3835 5.56502 13.1072C5.5148 12.9699 5.48882 12.8238 5.49748 12.6654C5.50614 12.507 5.5529 12.3398 5.64815 12.1585C6.35991 10.7628 6.88811 9.23683 6.83096 7.39053C7.29335 8.06815 7.81289 8.90066 8.18869 9.74549C8.37572 10.1679 8.54024 10.6026 8.63722 11.0233C8.73247 11.444 8.78269 11.8646 8.74286 12.2641C8.69784 12.6637 8.63549 13.0245 8.53678 13.3483C8.48829 13.5103 8.42941 13.6652 8.3636 13.8112C8.30125 13.9608 8.23198 14.1016 8.15405 14.2372C7.8354 14.7758 7.42497 15.2334 6.91062 15.6734C6.99625 14.9443 6.56593 14.4476 6.16195 13.9813Z" fill="#18724A"/>
<path d="M14.6675 12.7059C13.9592 12.5035 13.0985 12.324 12.2828 12.3222C11.4602 12.3152 10.6792 12.4859 10.125 12.9312C9.85486 13.1565 9.62799 13.3958 9.45135 13.6493C9.27817 13.9045 9.14482 14.1685 9.04265 14.436C8.94221 14.7036 8.88506 14.9799 8.84176 15.2527C8.82098 15.3882 8.80539 15.5238 8.795 15.6593C8.78808 15.7966 8.78461 15.9321 8.78461 16.0659C8.89025 15.9303 9.01148 15.83 9.14656 15.7596C9.28337 15.6892 9.4323 15.647 9.58643 15.6223C9.8833 15.5749 10.2027 15.5927 10.5089 15.6098L10.5441 15.6118C10.8628 15.6311 11.1624 15.6452 11.4204 15.5871C11.6767 15.529 11.8811 15.397 11.9971 15.1137C12.4508 14.0383 13.2959 13.0808 14.6658 12.7077L14.6675 12.7059Z" fill="#18724A"/>
<path d="M4.04501 20.6168L3.97149 20.5628L3.97322 20.5593C3.44156 20.165 2.96532 19.769 3.0952 18.9576C3.11541 18.8235 3.14134 18.6894 3.16737 18.5547L3.16751 18.554C3.17935 18.4927 3.19122 18.4313 3.20257 18.3698C3.23894 18.1726 3.27358 17.972 3.30475 17.7714C3.31621 17.6877 3.32811 17.604 3.34002 17.5202C3.38574 17.1987 3.43171 16.8755 3.45368 16.5446C3.46754 16.3369 3.47447 16.1257 3.471 15.9127C3.471 15.7015 3.46581 15.4885 3.44676 15.2703C3.41212 14.8373 3.3186 14.385 3.18872 13.9256C3.78619 14.4906 4.48237 15.1999 5.04347 15.9532C5.18375 16.1415 5.31536 16.3334 5.43659 16.527C5.55955 16.7224 5.67558 16.9195 5.77429 17.1184C5.97345 17.5161 6.10679 17.9139 6.16567 18.3205C6.22975 18.7271 6.24534 19.0984 6.22109 19.4452C6.19858 19.7919 6.15182 20.1175 6.0583 20.4238C6.01328 20.5769 5.95786 20.7265 5.89551 20.8726C5.83837 21.0204 5.77256 21.1647 5.69982 21.3056C5.55262 21.5889 5.37598 21.8617 5.17509 22.1328C5.09245 21.3853 4.5587 20.9937 4.04501 20.6168Z" fill="#18724A"/>
<path d="M8.77634 20.7124L8.80361 20.7094C9.42243 20.6402 10.0139 20.5741 10.2033 20.0207C10.2917 19.7479 10.4111 19.4769 10.5376 19.2111C10.6016 19.0773 10.6709 18.9453 10.7437 18.8169C10.8199 18.6884 10.9082 18.5634 11 18.442C11.0917 18.3205 11.1922 18.2044 11.2978 18.0917C11.3515 18.0354 11.4069 17.9808 11.4641 17.928C11.523 17.8752 11.587 17.8242 11.6511 17.7767C11.9109 17.5813 12.2088 17.4123 12.5534 17.2821C11.8156 17.1853 10.9393 17.1342 10.1081 17.2434C9.69072 17.2962 9.3028 17.3947 8.94259 17.5408C8.58584 17.6869 8.25853 17.8823 8.01954 18.1428C7.77536 18.4015 7.57794 18.6708 7.43073 18.9471C7.29046 19.2269 7.19348 19.5103 7.12767 19.7937C7.05666 20.0753 7.04454 20.3622 7.04281 20.6403C7.04627 20.9184 7.06532 21.1912 7.10862 21.4552C7.4549 20.8628 8.12868 20.7878 8.75538 20.7181L8.7746 20.716L8.77634 20.7124Z" fill="#18724A"/>
<path d="M1.63496 22.9354C1.5934 22.7242 1.53972 22.513 1.47218 22.3L1.47564 22.2965C1.4081 22.0835 1.32671 21.8706 1.22626 21.6576C1.12582 21.4429 1.00632 21.2281 0.87817 21.0152C1.05828 21.119 1.24531 21.2317 1.43581 21.3496C1.62977 21.4693 1.82546 21.5942 2.02289 21.7262C2.416 21.9885 2.81085 22.2754 3.17626 22.5816C3.35983 22.7348 3.53474 22.8932 3.701 23.0551C3.78412 23.1378 3.86378 23.2188 3.94172 23.3033C4.02138 23.3877 4.09931 23.4722 4.17204 23.5585C4.46645 23.9052 4.7037 24.2678 4.85783 24.6515C4.8829 24.7151 4.90571 24.7781 4.92825 24.8402C4.93997 24.8726 4.95162 24.9047 4.96347 24.9366C4.99984 25.0299 5.03101 25.1232 5.06045 25.2147C5.11934 25.3977 5.16436 25.5773 5.19727 25.7515C5.26481 26.1 5.27347 26.4362 5.27347 26.7635C5.26481 27.0909 5.21632 27.4095 5.13492 27.7228C5.11414 27.8002 5.09163 27.8794 5.06738 27.9569C5.04487 28.0343 5.02235 28.1117 4.99811 28.1892C4.94789 28.3441 4.89074 28.499 4.82839 28.6521C4.68985 28.2825 4.4474 28.0343 4.18417 27.846C3.93965 27.6733 3.65584 27.551 3.37543 27.4301L3.29922 27.3972C2.99442 27.2669 2.69655 27.1314 2.45757 26.929C2.33807 26.8287 2.23417 26.709 2.15104 26.5646C2.10948 26.4907 2.07311 26.4133 2.04367 26.327C2.01596 26.2426 1.99691 26.1493 1.98479 26.0472C1.95027 25.7653 1.92541 25.4763 1.90021 25.1834C1.89 25.0648 1.87974 24.9454 1.86876 24.8257C1.85621 24.7099 1.84904 24.5941 1.84185 24.478C1.83614 24.3859 1.83043 24.2936 1.822 24.2009C1.80468 23.9914 1.78217 23.782 1.75099 23.5708C1.72155 23.3596 1.67999 23.1466 1.63496 22.9354Z" fill="#18724A"/>
<path d="M6.65943 23.9615C6.58324 24.1111 6.51916 24.2607 6.46721 24.4103C6.3633 24.7113 6.29403 25.0087 6.27671 25.3044C6.26285 25.5984 6.2819 25.887 6.32347 26.1651C6.34425 26.3041 6.37196 26.4397 6.40313 26.5734C6.43624 26.7013 6.47886 26.826 6.52038 26.9475L6.52609 26.9642C6.5867 26.8022 6.66636 26.6685 6.77373 26.5558C6.8811 26.4432 7.00752 26.3534 7.14434 26.2777C7.41796 26.1264 7.73488 26.0331 8.04314 25.9433L8.06357 25.9374C8.36466 25.8497 8.65811 25.7643 8.89518 25.6318C9.01641 25.5649 9.12031 25.484 9.2069 25.3872C9.29696 25.2886 9.3645 25.1724 9.40779 25.0299C9.44897 24.8921 9.48633 24.753 9.52386 24.6133C9.56208 24.471 9.6005 24.328 9.64332 24.185C9.73856 23.9034 9.8442 23.6218 9.97928 23.3508C10.1074 23.0797 10.2962 22.8227 10.5213 22.5887C10.7517 22.3546 11.0166 22.1434 11.3786 21.9726C10.6149 21.992 9.73683 22.0782 8.92289 22.3141C8.51765 22.432 8.1228 22.5851 7.7851 22.784C7.45086 22.9847 7.16165 23.2276 6.94345 23.5197C6.83781 23.6658 6.7339 23.8119 6.66117 23.9615H6.65943Z" fill="#18724A"/>
<path d="M8.2515 31.3256C7.67308 31.6125 7.07561 31.917 6.91975 32.6017H6.91628C6.67037 32.1264 6.46948 31.5773 6.41233 30.9789C6.39501 30.6797 6.41233 30.3681 6.47468 30.0496C6.50585 29.8912 6.54741 29.731 6.60283 29.5691C6.65998 29.4072 6.73964 29.2452 6.82796 29.0833C7.00634 28.7594 7.26264 28.4708 7.5709 28.2174C7.6471 28.154 7.72676 28.0924 7.80989 28.0343C7.89475 27.9745 7.9848 27.9181 8.07485 27.8636C8.25669 27.7545 8.44719 27.6541 8.64288 27.5626C9.42565 27.1948 10.2985 26.9589 11.0449 26.8093C10.7037 27.0346 10.4509 27.2898 10.2586 27.5608C10.1634 27.6964 10.082 27.8354 10.011 27.978C9.94866 28.1205 9.89843 28.2649 9.85514 28.411C9.76855 28.7031 9.71313 29.0006 9.65945 29.298L9.64841 29.3847C9.61434 29.6529 9.58049 29.9194 9.52263 30.1816C9.38662 30.766 8.83984 31.0356 8.26172 31.3206L8.2515 31.3256Z" fill="#18724A"/>
<path d="M1.65543 31.5944L1.66425 31.6231C1.70188 31.7388 1.74008 31.854 1.7782 31.9689C1.80672 32.0549 1.83525 32.1409 1.86341 32.2268C1.9933 32.6263 2.12318 33.0206 2.2877 33.3902C2.64965 34.1294 3.29734 34.2579 3.95542 34.3793L3.98692 34.3851C4.30563 34.4429 4.62659 34.5012 4.9183 34.6222C5.0655 34.6838 5.21617 34.7665 5.35298 34.8739C5.48979 34.9813 5.61621 35.115 5.72704 35.2822C5.75302 35.115 5.7738 34.9478 5.78593 34.7824C5.79285 34.6997 5.79632 34.617 5.79978 34.5342C5.80671 34.4515 5.81017 34.3705 5.8119 34.2878C5.81883 33.9604 5.79285 33.6331 5.72185 33.3057C5.68721 33.142 5.64045 32.9783 5.58331 32.8146C5.53308 32.6492 5.47247 32.4837 5.398 32.3183C5.24907 31.9874 5.04818 31.6548 4.78841 31.3168C4.29485 30.6392 3.50169 30.1165 2.6202 29.6923C1.7595 29.2681 0.808748 28.9443 0 28.7084C0.391386 29.0639 0.682327 29.4371 0.90746 29.8243C1.14991 30.2097 1.32482 30.6093 1.46856 31.0123L1.46683 31.0141C1.53613 31.2069 1.59601 31.4014 1.65543 31.5944Z" fill="#18724A"/>
<path d="M8.75198 37.0388C8.56148 37.2834 8.44372 37.5597 8.44545 37.903L8.44199 37.9047C8.08004 37.5228 7.76486 37.0352 7.60553 36.4597C7.5328 36.1711 7.47911 35.8666 7.50163 35.5427C7.51028 35.3808 7.52933 35.2171 7.56224 35.0517C7.59168 34.8862 7.65229 34.7155 7.71637 34.5465C7.78391 34.3776 7.87223 34.2139 7.97787 34.0572C8.08351 33.9006 8.21512 33.7351 8.3554 33.5855C8.63768 33.281 8.97538 33.0047 9.33906 32.7565C10.0664 32.2602 10.8959 31.8783 11.6302 31.5984C11.5454 31.6723 11.4674 31.7445 11.3947 31.8184C11.3272 31.8923 11.2648 31.9663 11.2077 32.0402C11.0934 32.188 11.0033 32.3394 10.9288 32.4925C10.7816 32.797 10.702 33.1085 10.657 33.4148C10.6379 33.5486 10.6258 33.6823 10.6171 33.8179C10.6152 33.8555 10.6127 33.8934 10.6102 33.9315C10.6038 34.0286 10.5973 34.1266 10.5998 34.2227C10.5998 34.3582 10.5981 34.492 10.5894 34.6292C10.5859 34.6979 10.579 34.7665 10.5721 34.8352C10.5669 34.9021 10.56 34.9725 10.5513 35.0411C10.5149 35.3174 10.3608 35.555 10.1617 35.7698C9.98275 35.9644 9.75549 36.1445 9.52498 36.3272L9.45336 36.384C9.19878 36.5864 8.94421 36.7941 8.75198 37.0388Z" fill="#18724A"/>
<path d="M4.52011 40.8211C4.83876 41.1256 5.16434 41.2559 5.50377 41.2911C5.83974 41.328 6.17917 41.2805 6.51514 41.2295C6.85284 41.1784 7.18361 41.1291 7.51784 41.145C7.85035 41.1626 8.17766 41.2523 8.49631 41.4882C8.43916 41.1573 8.35257 40.837 8.23654 40.5237C8.1309 40.2051 7.98023 39.9024 7.80532 39.6049C7.71873 39.4553 7.62175 39.3092 7.51265 39.1667C7.46721 39.1056 7.41804 39.047 7.3683 38.9878L7.3412 38.9555C7.28405 38.8833 7.22344 38.8129 7.1611 38.7443C7.03468 38.6052 6.8944 38.4697 6.74027 38.3359L6.70279 38.3038C6.56077 38.182 6.41598 38.0578 6.25363 37.9381C6.07872 37.8079 5.88476 37.6935 5.68214 37.5879C5.48472 37.4805 5.27344 37.3872 5.05177 37.301C4.8301 37.2165 4.59977 37.1408 4.36252 37.074C4.12526 37.0071 3.88974 36.9437 3.64555 36.8909C3.15892 36.7835 2.66016 36.7026 2.17353 36.641C1.68689 36.5811 1.2245 36.5354 0.796751 36.5072C1.79426 37.0792 2.3952 37.822 2.90954 38.6087C3.03936 38.804 3.16937 38.9996 3.294 39.1966C3.33443 39.2591 3.37379 39.3219 3.41305 39.3846C3.49655 39.5179 3.57967 39.6505 3.67153 39.7774C3.93476 40.1541 4.19626 40.5202 4.52357 40.8211H4.52011Z" fill="#18724A"/>
<path d="M12.652 35.2734C12.503 35.4441 12.3835 35.6114 12.2918 35.775L12.29 35.7768C12.2034 35.9387 12.1411 36.0954 12.0978 36.2503C12.0562 36.4034 12.0268 36.5547 12.0233 36.7008C12.0199 36.8469 12.0285 36.9895 12.0458 37.1303C12.0545 37.2007 12.0632 37.2711 12.0753 37.3415C12.0845 37.3872 12.0953 37.433 12.1061 37.4787C12.1114 37.5015 12.1169 37.5247 12.122 37.5474L12.2208 37.961L12.229 37.9957C12.2922 38.2624 12.3561 38.532 12.3628 38.8323C12.4018 39.401 12.0344 39.9029 11.6711 40.3993L11.6008 40.4955C11.4068 40.7613 11.218 41.0288 11.0951 41.3157C10.9721 41.6026 10.9167 41.9106 11.0068 42.245C10.8942 42.1711 10.7799 42.0937 10.6725 42.0057C10.5669 41.9177 10.4613 41.8209 10.3608 41.7188C10.2621 41.6149 10.1617 41.5076 10.0733 41.3879C9.98674 41.2682 9.90361 41.1415 9.82915 41.0077C9.52781 40.4762 9.37022 39.8126 9.46201 39.0681C9.55899 38.3201 10.0214 37.5756 10.6362 36.9226C10.9427 36.5952 11.2752 36.2943 11.625 36.0162C11.9731 35.7398 12.3247 35.4899 12.652 35.2734Z" fill="#18724A"/>
<path d="M9.68827 47.1521C10.0222 47.079 10.3325 46.9336 10.6408 46.7891L10.6511 46.7842L10.6813 46.77C10.9814 46.6285 11.2833 46.4862 11.595 46.4146C11.9188 46.339 12.2513 46.3407 12.6219 46.4727C12.4782 46.1805 12.3171 45.8884 12.1162 45.6226C11.9188 45.3533 11.6972 45.0928 11.4305 44.864C11.1742 44.6264 10.8763 44.417 10.542 44.2322C10.3758 44.1389 10.1992 44.0509 10.0104 43.9734C9.91514 43.9347 9.81816 43.8977 9.71771 43.8625C9.619 43.8256 9.51682 43.7921 9.41292 43.7587C8.5678 43.507 7.58068 43.5264 6.57624 43.6725C5.58219 43.8097 4.57601 44.0773 3.74822 44.3325C4.33876 44.3976 4.82366 44.5578 5.25142 44.7743C5.46789 44.8781 5.67051 44.9978 5.86101 45.128C5.95626 45.1932 6.04977 45.26 6.13983 45.3304L6.21369 45.3854C6.28066 45.4352 6.34765 45.4849 6.41345 45.5364C6.59182 45.6772 6.76674 45.8215 6.93818 45.9676C7.09107 46.0979 7.2481 46.2197 7.40557 46.3419L7.46292 46.3865C7.63956 46.5202 7.8162 46.654 8.00497 46.7649C8.19373 46.8775 8.38769 46.9796 8.59031 47.0623C8.9869 47.2295 9.3523 47.2225 9.68827 47.1521Z" fill="#18724A"/>
<path d="M15.6739 42.7132C15.7345 43.0441 15.6946 43.3591 15.5994 43.6689L15.5977 43.6707C15.5127 43.9469 15.3851 44.2175 15.2578 44.4875L15.2115 44.5859C14.924 45.1931 14.6677 45.788 14.9482 46.441C14.7006 46.3337 14.4477 46.1964 14.207 46.0239C13.9715 45.8461 13.7429 45.6402 13.542 45.3955C13.3481 45.1456 13.1697 44.8693 13.0433 44.549C12.9809 44.3888 12.9272 44.2198 12.8857 44.0438C12.8649 43.9558 12.8458 43.8643 12.832 43.7728C12.8181 43.6795 12.8095 43.5827 12.8025 43.4859C12.78 43.0934 12.832 42.6903 12.9619 42.275C13.0883 41.8613 13.277 41.4477 13.5004 41.0482C13.9542 40.2438 14.5568 39.4923 15.0868 38.8939C14.6504 39.7792 14.7404 40.4198 14.9655 40.9831C15.0227 41.1239 15.0868 41.2612 15.1508 41.3984C15.1793 41.4562 15.2086 41.5133 15.238 41.5705C15.2784 41.6492 15.3188 41.728 15.3569 41.8085C15.4227 41.9458 15.4834 42.0919 15.5388 42.2397C15.5942 42.3876 15.6427 42.5442 15.6739 42.7132Z" fill="#18724A"/>
<path d="M17.7316 50.6018C17.5394 50.3466 17.3212 50.0949 17.0684 49.8749C16.8172 49.6531 16.5402 49.4437 16.2267 49.2765C15.9167 49.1022 15.5755 48.9614 15.1997 48.8611C14.8274 48.7555 14.4152 48.6992 13.9719 48.6833C13.5286 48.6657 13.0627 48.7414 12.5951 48.8593C12.1275 48.9808 11.6513 49.1585 11.1837 49.3697C10.252 49.7869 9.35494 50.329 8.62759 50.8148C9.80867 50.5596 10.6538 50.8394 11.4504 51.2055C11.6026 51.2754 11.7518 51.3505 11.9002 51.4252C11.946 51.4483 11.9917 51.4713 12.0375 51.4941C12.2332 51.5892 12.4289 51.6825 12.6263 51.7687C13.0194 51.9447 13.4333 52.0697 13.8749 52.1137C14.7099 52.1804 15.2715 51.7566 15.8129 51.3481L15.8596 51.3129C16.4172 50.8852 16.9558 50.4909 17.7299 50.6036L17.7316 50.6018Z" fill="#18724A"/>
<path d="M16.9784 47.2207C16.8208 46.427 16.9853 45.51 17.3074 44.6159L17.3057 44.6176C17.626 43.7235 18.0867 42.8611 18.5093 42.1588C18.2201 43.1832 18.4504 43.8203 18.7898 44.3659C18.8808 44.5107 18.9805 44.6485 19.0808 44.787C19.1695 44.9095 19.2585 45.0326 19.3423 45.1615C19.5276 45.429 19.6886 45.7265 19.7925 46.0855C19.9845 46.741 19.7847 47.3743 19.5923 47.984L19.5605 48.0849C19.3596 48.7256 19.1795 49.3557 19.5397 49.9753C19.273 49.9013 19.0046 49.7887 18.7396 49.6408C18.4729 49.4965 18.2201 49.3064 17.9845 49.0811C17.5169 48.6288 17.1411 48.0093 16.9784 47.2207Z" fill="#18724A"/>
<path d="M24.5216 52.7561C24.1129 52.1559 24.2255 51.5258 24.3692 50.8588L24.3855 50.7843C24.5266 50.14 24.6735 49.4693 24.435 48.7643C24.3051 48.3806 24.1077 48.0884 23.893 47.8209C23.7864 47.6929 23.6758 47.5711 23.5656 47.4499C23.4502 47.3229 23.3352 47.1965 23.2262 47.0641C22.8002 46.5484 22.4729 45.9306 22.6478 44.8094C22.3153 45.5698 21.9516 46.5044 21.73 47.453C21.5135 48.3947 21.4338 49.361 21.6728 50.1547C22.1473 51.7511 23.4306 52.5484 24.5216 52.7579V52.7561Z" fill="#18724A"/>
<path d="M20.5109 52.6171C20.9058 52.6505 21.2746 52.7315 21.6158 52.8529V52.8565C22.3016 53.0941 22.8765 53.4848 23.3251 53.9319C22.5406 53.9407 22.0661 54.4071 21.5725 54.9192C21.5557 54.9366 21.5389 54.954 21.522 54.9714C21.0441 55.4649 20.5436 55.9816 19.7022 56.1108C18.9559 56.2175 18.2887 56.0159 17.6196 55.8137C17.4719 55.7691 17.3242 55.7245 17.1755 55.6831C16.9694 55.625 16.7598 55.5793 16.5451 55.5441C16.3321 55.5071 16.1122 55.4895 15.8818 55.4948C15.4212 55.5089 14.9276 55.611 14.3648 55.8873C14.9848 55.2554 15.7623 54.5285 16.6057 53.9195C17.4508 53.3088 18.3566 52.823 19.2484 52.6716C19.6935 52.6012 20.1178 52.5801 20.5109 52.6171Z" fill="#18724A"/>
</svg>
