<svg width="38" height="38" viewBox="0 0 38 38" fill="none" xmlns="http://www.w3.org/2000/svg">
<path d="M29.8143 23.6591L25.8763 23.2095C25.4132 23.1551 24.9438 23.2064 24.5035 23.3595C24.0631 23.5125 23.6631 23.7634 23.3336 24.0933L20.4808 26.946C16.0798 24.7071 12.5025 21.1298 10.2637 16.7288L13.1319 13.8606C13.7986 13.1939 14.1242 12.2637 14.0156 11.3179L13.566 7.41091C13.4785 6.65445 13.1156 5.95666 12.5466 5.45057C11.9776 4.94447 11.2422 4.66545 10.4807 4.66669H7.79852C6.04657 4.66669 4.58918 6.12407 4.69771 7.87603C5.51943 21.1165 16.1087 31.6902 29.3337 32.512C31.0856 32.6205 32.543 31.1631 32.543 29.4111V26.7289C32.5585 25.163 31.3802 23.8452 29.8143 23.6591Z" fill="white"/>
</svg>
