<svg width="80" height="80" viewBox="0 0 80 80" fill="none" xmlns="http://www.w3.org/2000/svg">
<g clip-path="url(#clip0_230_1771)">
<mask id="mask0_230_1771" style="mask-type:luminance" maskUnits="userSpaceOnUse" x="-8" y="-10" width="99" height="100">
<path d="M90.7583 -9.33508H-7.57715V89.007H90.7583V-9.33508Z" fill="white"/>
</mask>
<g mask="url(#mask0_230_1771)">
<path d="M43.7672 47.4431C43.7672 47.4431 47.7497 31.3655 47.9726 30.6954L57.5006 33.8215L50.8012 50.3836C50.8012 50.3836 47.7497 51.9839 45.9631 51.1655C44.1764 50.3463 43.7672 47.4439 43.7672 47.4439V47.4431Z" fill="white" stroke="#333333" stroke-width="0.905276" stroke-linecap="round" stroke-linejoin="round"/>
<path d="M47.3779 78.705C47.194 77.2737 45.2748 69.6615 45.443 68.0977C45.6103 66.5347 51.4723 50.0098 51.4723 50.0098C51.4723 50.0098 49.1314 51.3351 46.6341 50.419C44.401 49.5998 43.098 47.0693 43.098 47.0693C42.4114 48.5669 39.9546 57.3313 38.1853 61.9566C37.6254 62.1098 35.1603 63.754 34.7801 64.1342C34.7801 64.1342 34.1663 69.0652 31.2631 70.108C28.3599 71.15 23.8936 70.8336 23.8936 70.8336C23.8936 70.8336 18.5916 73.0369 16.5614 75.2808C13.9663 78.1501 14.0309 87.0412 9.71375 96.0482C9.71375 96.0482 10.5321 98.6533 12.8398 99.4725C15.1475 100.292 16.3386 99.8444 16.3386 99.8444L22.4424 87.6367C22.4424 87.6367 25.6803 94.3916 26.1267 102.933L46.7542 102.291C46.7542 102.291 47.0052 91.6565 47.0052 89.1252C47.0052 86.5939 47.8799 82.6122 47.3771 78.7042L47.3779 78.705Z" fill="#8DD0A6" stroke="#333333" stroke-width="0.905276" stroke-linecap="round" stroke-linejoin="round"/>
<path d="M54.065 38.2348C54.065 38.2348 57.7237 37.4686 59.7464 35.4823C61.0303 34.2216 63.487 32.1649 64.1928 30.0477L64.8985 27.9306L49.7255 21.5087C49.7255 21.5087 45.2584 32.2055 48.0316 35.4823" fill="white"/>
<path d="M54.065 38.2348C54.065 38.2348 57.7237 37.4686 59.7464 35.4823C61.0303 34.2216 63.487 32.1649 64.1928 30.0477L64.8985 27.9306L49.7255 21.5087C49.7255 21.5087 45.2584 32.2055 48.0316 35.4823" stroke="#333333" stroke-width="0.905276" stroke-linecap="round" stroke-linejoin="round"/>
<path d="M73.2609 7.18787L69.3356 9.92792" stroke="#333333" stroke-width="0.984935" stroke-linecap="round" stroke-linejoin="round"/>
<path d="M68.4666 2.27429L65.7456 6.58648" stroke="#333333" stroke-width="0.984935" stroke-linecap="round" stroke-linejoin="round"/>
<path d="M61.8329 0L61.3458 4.66505" stroke="#333333" stroke-width="0.984935" stroke-linecap="round" stroke-linejoin="round"/>
<path d="M55.9138 64.6285C57.0066 64.5632 57.8604 63.9739 57.8208 63.3122C57.7813 62.6505 56.8634 62.167 55.7706 62.2323C54.6779 62.2976 53.824 62.887 53.8636 63.5487C53.9031 64.2104 54.8211 64.6938 55.9138 64.6285Z" fill="#333333"/>
<path d="M57.4261 63.5205L61.7408 54.5706" stroke="#333333" stroke-width="0.603766" stroke-linecap="round" stroke-linejoin="round"/>
<path d="M61.9778 54.623C61.9778 54.623 62.4781 55.8142 64.0022 57.6232C65.5611 59.4728 64.1645 61.9569 61.9123 62.7306C61.9123 62.7306 64.2018 61.0665 63.3917 59.1473C62.8649 57.899 61.4849 57.3606 60.8612 56.8537L61.9778 54.6239V54.623Z" fill="#333333"/>
<path d="M14.7591 36.2638C15.4216 36.2413 15.9284 35.336 15.8912 34.242C15.8539 33.1479 15.2867 32.2793 14.6242 32.3018C13.9617 32.3244 13.4549 33.2296 13.4921 34.3237C13.5294 35.4177 14.0966 36.2864 14.7591 36.2638Z" fill="#333333"/>
<path d="M14.8179 32.705L5.98145 28.1617" stroke="#333333" stroke-width="0.784672" stroke-linecap="round" stroke-linejoin="round"/>
<path d="M6.04041 27.9256C6.04041 27.9256 7.24394 27.4567 9.09191 25.979C10.9813 24.4682 13.4289 25.9277 14.1438 28.1997C14.1438 28.1997 12.5385 25.868 10.5994 26.6284C9.33791 27.1229 8.76389 28.4888 8.24123 29.0984L6.04041 27.9256Z" fill="#333333"/>
<path d="M23.2113 71.2711C24.4828 72.8134 31.8191 75.1559 33.682 74.2397C35.5449 73.3228 37.9519 66.0626 37.4806 63.9894C36.6399 64.5129 35.9739 65.13 34.3364 64.3919C32.0618 63.3665 30.5899 59.4246 30.5899 59.4246L23.9858 62.6699C24.52 64.1542 27.3951 68.1177 23.2121 71.2719L23.2113 71.2711Z" fill="white" stroke="#333333" stroke-width="0.905276" stroke-linecap="round" stroke-linejoin="round"/>
<path d="M19.5237 63.1513C20.1228 61.8317 19.4037 60.2149 17.9175 59.5401C16.4313 58.8653 14.7408 59.388 14.1416 60.7076C13.5425 62.0272 14.2616 63.644 15.7478 64.3188C17.234 64.9936 18.9245 64.4709 19.5237 63.1513Z" fill="white" stroke="#333333" stroke-width="0.905276" stroke-linecap="round" stroke-linejoin="round"/>
<path d="M15.5576 62.1027C15.5576 62.1027 16.5392 61.662 17.5737 62.1217L15.5576 62.1027Z" fill="white"/>
<path d="M15.5576 62.1027C15.5576 62.1027 16.5392 61.662 17.5737 62.1217" stroke="#333333" stroke-width="0.905276" stroke-linecap="round" stroke-linejoin="round"/>
<path d="M33.2618 53.3941C34.711 53.3807 35.8735 52.0467 35.8584 50.4146C35.8433 48.7824 34.6563 47.4701 33.2071 47.4835C31.7579 47.4969 30.5954 48.8309 30.6105 50.4631C30.6256 52.0953 31.8126 53.4075 33.2618 53.3941Z" fill="white" stroke="#333333" stroke-width="0.905276" stroke-linecap="round" stroke-linejoin="round"/>
<path d="M33.9081 49.3479C33.9081 49.3479 33.1079 50.0669 33.1088 51.1992L33.9081 49.3479Z" fill="white"/>
<path d="M33.9081 49.3479C33.9081 49.3479 33.1079 50.0669 33.1088 51.1992" stroke="#333333" stroke-width="0.905276" stroke-linecap="round" stroke-linejoin="round"/>
<path d="M15.884 59.9026C20.1009 65.8126 26.9718 66.6641 31.173 63.6863C35.0495 60.9388 36.1884 54.145 32.1835 48.2706C31.1804 46.7987 30.1475 44.6708 28.9664 43.5592C23.5285 38.4427 19.7945 40.9616 16.3984 43.386C12.8052 45.9505 11.0434 51.0446 12.9841 56.0567C13.4745 57.3224 15.0342 58.7106 15.8848 59.9017L15.884 59.9026Z" fill="white" stroke="#333333" stroke-width="0.905276" stroke-linecap="round" stroke-linejoin="round"/>
<path d="M9.7653 51.1997C9.7653 51.1997 2.89114 52.0173 3.00131 54.3216C3.10236 56.4305 5.73474 55.8929 5.73474 55.8929C5.73474 55.8929 3.43535 57.7467 4.6861 58.8666C5.78112 59.8465 7.83451 58.1509 7.83451 58.1509C7.83451 58.1509 6.97969 60.8023 8.6885 60.9208C10.7278 61.0624 13.5366 55.8018 13.5366 55.8018" fill="#333333"/>
<path d="M9.7653 51.1997C9.7653 51.1997 2.89114 52.0173 3.00131 54.3216C3.10236 56.4305 5.73474 55.8929 5.73474 55.8929C5.73474 55.8929 3.43535 57.7467 4.6861 58.8666C5.78112 59.8465 7.83451 58.1509 7.83451 58.1509C7.83451 58.1509 6.97969 60.8023 8.6885 60.9208C10.7278 61.0624 13.5366 55.8018 13.5366 55.8018" stroke="#333333" stroke-width="0.905276" stroke-linecap="round" stroke-linejoin="round"/>
<path d="M9.89437 53.7153L7.62231 54.3134" stroke="#333333" stroke-width="0.905276" stroke-linecap="round" stroke-linejoin="round"/>
<path d="M11.1732 55.8118L8.94336 57.1487" stroke="white" stroke-width="0.905276" stroke-linecap="round" stroke-linejoin="round"/>
<path d="M14.4744 41.0852L14.5009 41.0786C20.7637 35.2945 27.4101 39.0028 29.7758 42.1338C32.5423 45.795 32.8463 48.4191 33.0501 49.5C32.4487 48.6634 30.6596 46.1313 29.7625 45.1091C27.2478 42.2423 24.6734 40.1434 20.9236 41.4124C20.8375 41.4414 21.433 48.0935 15.036 56.1894L17.4182 61.4741C17.4182 61.4741 15.6415 60.7037 14.2549 59.5391C13.3561 58.7837 12.4491 57.7243 11.3235 56.23C8.96195 53.0957 6.36519 45.192 14.4752 41.086L14.4744 41.0852Z" fill="#333333" stroke="#333333" stroke-width="0.905276" stroke-linecap="round" stroke-linejoin="round"/>
<path d="M25.1984 51.7183C26.6131 52.4439 27.6411 52.0479 27.6411 52.0479L27.6899 53.5281" stroke="#333333" stroke-width="0.905276" stroke-linecap="round" stroke-linejoin="round"/>
<path d="M15.8171 44.8745C16.3008 46.9958 14.8098 50.7928 13.8175 52.6598L15.8171 44.8745Z" fill="#79C1D6"/>
<path d="M15.8171 44.8745C16.3008 46.9958 14.8098 50.7928 13.8175 52.6598" stroke="#333333" stroke-width="0.905276" stroke-linecap="round" stroke-linejoin="round"/>
<path d="M12.989 45.7683C13.2433 46.9064 12.4987 50.3174 11.3514 52.095L12.989 45.7683Z" fill="#79C1D6"/>
<path d="M12.989 45.7683C13.2433 46.9064 12.4987 50.3174 11.3514 52.095" stroke="white" stroke-width="0.905276" stroke-linecap="round" stroke-linejoin="round"/>
<path d="M24.9913 58.9188L28.9738 56.3196C28.9738 56.3196 31.2699 60.5605 29.4866 61.6092C27.7032 62.6578 24.9905 58.9197 24.9905 58.9197L24.9913 58.9188Z" fill="white" stroke="#333333" stroke-width="0.905276" stroke-linecap="round" stroke-linejoin="round"/>
<path d="M20.6916 53.6588C20.8971 54.0489 20.7471 54.531 20.3578 54.7364C19.9677 54.9419 19.4856 54.7919 19.2802 54.4026C19.0748 54.0125 19.2247 53.5304 19.614 53.325C20.0041 53.1196 20.4862 53.2695 20.6916 53.6588Z" fill="#333333"/>
<path d="M27.7446 48.7552C27.95 49.1454 27.8001 49.6275 27.4108 49.8329C27.0207 50.0383 26.5386 49.8884 26.3332 49.4991C26.1278 49.1089 26.2777 48.6268 26.667 48.4214C27.0563 48.216 27.5392 48.3659 27.7446 48.7552Z" fill="#333333"/>
<path d="M48.3704 21.3628L49.9798 22.2565" stroke="#333333" stroke-width="0.905276" stroke-linecap="round" stroke-linejoin="round"/>
<path d="M34.3685 15.3455L34.4282 22.5551L63.743 34.2923L77.5062 25.1171L77.2262 19.0091L48.4299 8.37439L34.3685 15.3455Z" fill="white" stroke="#333333" stroke-width="0.905276" stroke-linecap="round" stroke-linejoin="round"/>
<path d="M34.6866 15.8083C34.6866 15.8083 42.8298 19.993 48.4308 22.5549C52.1864 24.2729 63.386 27.5 63.386 27.5" stroke="#333333" stroke-width="0.905276" stroke-linecap="round" stroke-linejoin="round"/>
<path d="M63.564 27.9041V33.747" stroke="#333333" stroke-width="0.905276" stroke-linecap="round" stroke-linejoin="round"/>
<path d="M34.6069 18.3243L38.7178 20.1706" stroke="#333333" stroke-width="0.905276" stroke-linecap="round" stroke-linejoin="round"/>
<path d="M34.4878 20.5289L37.4076 21.7209" stroke="#333333" stroke-width="0.905276" stroke-linecap="round" stroke-linejoin="round"/>
<path d="M76.9105 21.3037L73.6934 23.2701" stroke="#333333" stroke-width="0.905276" stroke-linecap="round" stroke-linejoin="round"/>
<path d="M76.9105 23.1506L73.6934 25.117" stroke="#333333" stroke-width="0.905276" stroke-linecap="round" stroke-linejoin="round"/>
<path d="M34.4479 12.5648C34.4479 12.5648 40.4059 17.2523 47.3173 20.9855C55.2062 25.2471 63.6823 27.4206 63.6823 27.4206L77.1879 18.7614C77.1879 18.7614 63.9175 14.209 60.1868 12.4058C55.4199 10.1023 48.5084 4.77954 48.5084 4.77954L34.447 12.5648H34.4479Z" fill="white" stroke="#333333" stroke-width="0.905276" stroke-linecap="round" stroke-linejoin="round"/>
<path d="M63.3495 25.2213C61.0551 24.5644 54.4402 22.5235 48.2841 19.1978C44.2511 17.0193 40.5245 14.488 38.1912 12.8148L48.3413 7.19556C50.5057 8.80414 55.4938 12.3932 59.304 14.2354C61.8171 15.4497 68.3152 17.8013 72.5777 19.3046L63.3495 25.2213Z" fill="#FFDA03" stroke="#333333" stroke-width="0.905276" stroke-linecap="round" stroke-linejoin="round"/>
<path d="M58.9958 19C57.355 20.4064 55.0448 20.1381 52.7197 19.159C49.7005 17.8875 48.748 15.425 50.4162 14.3134C51.8185 13.3782 55.0241 13.8371 57.0096 14.711C59.3189 15.7273 60.1074 18.0474 58.9958 19.0008V19Z" fill="white"/>
<path d="M55.8185 21.4623C55.8185 21.4623 57.8147 20.6829 58.9959 20.5089C60.346 20.3102 61.5777 20.6282 61.5777 20.6282C61.5777 20.6282 62.5709 18.5227 64.3981 18.2054C65.185 18.0687 66.507 18.0721 67.1788 18.603C67.9334 19.1986 68.0526 19.8745 66.7812 20.7483C65.5097 21.6222 63.5243 21.8608 63.5243 21.8608C63.5243 21.8608 63.8423 23.0129 63.3652 23.8868" fill="#333333"/>
<path d="M48.3471 8.58054L48.6097 8.76277L44.9113 10.6306L44.6156 10.4252L47.4816 8.97813L46.7767 9.03528L47.4584 8.6468L48.348 8.57971L48.3471 8.58054Z" fill="#333333"/>
<path d="M45.9368 10.7473C46.2706 10.4499 46.9051 10.1227 47.1759 9.98523C47.8295 9.65556 48.2983 9.47333 48.6603 9.37725C49.1283 9.24969 49.4588 9.26377 49.6128 9.37062C49.7652 9.47582 49.742 9.67047 49.4488 9.92974C49.1208 10.2213 48.5244 10.5352 48.2022 10.6976C47.6638 10.9693 47.1594 11.1871 46.7303 11.3031C46.1306 11.4663 45.8697 11.3851 45.7653 11.3122C45.6576 11.2376 45.5657 11.0745 45.936 10.7465L45.9368 10.7473ZM47.9065 10.4922C48.657 10.1136 49.0554 9.83862 48.8997 9.73094C48.7332 9.6158 48.1525 9.8469 47.4716 10.1907C46.7212 10.5692 46.3211 10.8434 46.4793 10.9527C46.645 11.0678 47.2157 10.84 47.9057 10.4922H47.9065Z" fill="#333333"/>
<path d="M47.0599 11.5259C47.3937 11.2277 48.0274 10.9014 48.299 10.7639C48.9526 10.4342 49.4214 10.252 49.7834 10.1551C50.2514 10.0275 50.5819 10.0416 50.7359 10.1485C50.8884 10.2537 50.866 10.4475 50.5719 10.7076C50.2439 10.9991 49.6475 11.3131 49.3262 11.4754C48.7878 11.7471 48.2841 11.9649 47.8542 12.0817C47.2545 12.2441 46.9945 12.1637 46.8893 12.0908C46.7824 12.0163 46.6905 11.8531 47.0607 11.5259H47.0599ZM49.0296 11.2708C49.7801 10.8923 50.1785 10.6181 50.0228 10.5096C49.8571 10.3945 49.2756 10.6256 48.5948 10.9693C47.8443 11.3479 47.4451 11.6212 47.6024 11.7314C47.7689 11.8465 48.3396 11.6187 49.0296 11.2708Z" fill="#333333"/>
<path d="M48.1832 12.3053C48.5162 12.0071 49.1507 11.6799 49.4224 11.5433C50.0759 11.2136 50.5447 11.0314 50.9067 10.9353C51.3747 10.8077 51.7044 10.821 51.8593 10.9278C52.0117 11.0338 51.9893 11.2277 51.6961 11.4878C51.3681 11.7793 50.7717 12.0933 50.4495 12.2556C49.9111 12.5273 49.4083 12.746 48.9784 12.8619C48.3787 13.0243 48.1178 12.9439 48.0126 12.8702C47.9066 12.7965 47.8138 12.6325 48.184 12.3061L48.1832 12.3053ZM50.1521 12.0502C50.9026 11.6716 51.3002 11.3966 51.1444 11.2881C50.9788 11.173 50.3989 11.4049 49.7181 11.7487C48.9676 12.1272 48.5676 12.4006 48.7249 12.5099C48.8914 12.6259 49.463 12.3981 50.1529 12.0502H50.1521Z" fill="#333333"/>
<path d="M49.3045 13.0832C49.6383 12.7859 50.2728 12.4587 50.5436 12.3212C51.1972 11.9915 51.666 11.8093 52.0279 11.7132C52.4959 11.5856 52.8264 11.5997 52.9805 11.7066C53.1321 11.8118 53.1097 12.0064 52.8157 12.2657C52.4877 12.5572 51.8913 12.8712 51.5699 13.0335C51.0315 13.3052 50.5271 13.523 50.098 13.639C49.4983 13.8022 49.2374 13.721 49.133 13.6481C49.0253 13.5736 48.9334 13.4104 49.3036 13.0824L49.3045 13.0832ZM51.2742 12.8281C52.0246 12.4496 52.4231 12.1746 52.2673 12.0669C52.1008 11.9517 51.5202 12.1828 50.8393 12.5266C50.0889 12.9051 49.6888 13.1793 49.847 13.2886C50.0127 13.4038 50.5834 13.176 51.2734 12.8281H51.2742Z" fill="#333333"/>
<path d="M46.7617 27.5596L50.1578 28.9893V22.3164L64.3385 13.7964L60.1679 12.0089L46.5828 20.5289L46.7617 27.5596Z" fill="white" stroke="#333333" stroke-width="0.905276" stroke-linecap="round" stroke-linejoin="round"/>
<path d="M59.0953 30.181L63.3255 31.6703" stroke="#333333" stroke-width="0.905276" stroke-linecap="round" stroke-linejoin="round"/>
<path d="M60.1082 28.9296L63.3253 30.0022" stroke="#333333" stroke-width="0.905276" stroke-linecap="round" stroke-linejoin="round"/>
<path d="M48.0315 35.4821C47.2902 34.7408 44.7216 32.6153 43.8676 28.7778C43.4998 27.1228 44.3612 23.5553 44.5733 22.92C44.7853 22.2846 44.9966 19.7442 45.7023 19.4618C46.408 19.1793 48.666 20.5907 48.4548 23.4136C48.3388 24.9584 48.0845 26.4486 48.0845 27.0126C48.0845 27.0126 51.4723 26.9066 52.2658 31.0358" fill="white"/>
<path d="M48.0315 35.4821C47.2902 34.7408 44.7216 32.6154 43.8676 28.7778C43.4998 27.1228 44.3612 23.5553 44.5733 22.92C44.7853 22.2846 44.9966 19.7442 45.7023 19.4618C46.408 19.1793 48.666 20.5907 48.4548 23.4136C48.3388 24.9584 48.0845 26.4486 48.0845 27.0126C48.0845 27.0126 51.4723 26.9066 52.2658 31.0358" stroke="#333333" stroke-width="0.905276" stroke-linecap="round" stroke-linejoin="round"/>
</g>
</g>
<defs>
<clipPath id="clip0_230_1771">
<rect width="80" height="80" fill="white"/>
</clipPath>
</defs>
</svg>
