<svg width="80" height="80" viewBox="0 0 80 80" fill="none" xmlns="http://www.w3.org/2000/svg">
<g clip-path="url(#clip0_230_1664)">
<mask id="mask0_230_1664" style="mask-type:luminance" maskUnits="userSpaceOnUse" x="-11" y="0" width="108" height="127">
<path d="M96.5951 0.00012207H-10.4226V127H96.5951V0.00012207Z" fill="white"/>
</mask>
<g mask="url(#mask0_230_1664)">
<path d="M9.13114 50.0486C9.14449 48.5218 10.6623 43.5443 11.0028 41.8529C11.3445 40.1615 11.0462 40.0913 11.0896 37.1536C11.133 34.2158 11.5837 32.1027 11.2376 31.3315C10.8916 30.5603 7.12812 24.8951 7.56878 23.8936C7.73459 23.5175 8.44788 23.5342 9.41156 24.4734C11.0184 26.038 13.4576 29.6545 13.4576 29.6545C13.4576 29.6545 12.5162 25.9445 12.3093 23.2415C12.1579 21.2675 11.2098 18.5745 12.6676 18.6524C13.5111 18.6969 15.8746 28.6686 15.8746 28.6686C15.8746 28.6686 15.849 25.071 16.224 22.3958C16.4844 20.5353 16.6491 17.76 17.6506 17.8134C19.5223 17.9135 18.9893 23.4352 18.8836 24.9185C18.7846 26.3073 18.8346 28.4705 18.8346 28.4705C18.8346 28.4705 20.6129 26.6801 21.4497 26.7924C22.2865 26.906 23.9167 27.7795 24.1137 28.3225C24.3106 28.8656 24.8782 30.8141 24.8782 30.8141C24.8782 30.8141 26.0622 30.4936 26.8267 31.2336C27.5344 31.9179 25.6627 33.4803 25.0006 34.1446C24.659 34.4874 24.1204 35.2596 23.9512 35.8249C23.7843 36.3802 22.1841 39.3747 21.2505 40.2138C20.3169 41.0528 18.0891 42.3025 17.9255 42.7954C17.7619 43.2884 16.5056 46.7536 16.5056 46.7536L16.2029 51.1357C16.2029 51.1357 13.8093 52.421 12.2837 52.4077C10.7569 52.3943 9.1278 50.0508 9.1278 50.0508L9.13114 50.0486ZM21.0624 34.484L23.1278 31.8489L21.8692 29.8259C21.8692 29.8259 21.4586 29.6723 20.9066 29.9984C20.5884 30.1864 20.239 30.6761 19.9697 30.8864C19.2319 31.4617 19.1306 33.3045 19.1306 33.3045L21.0613 34.484H21.0624Z" fill="white" stroke="#333333" stroke-width="1.06213" stroke-linecap="round" stroke-linejoin="round"/>
<path d="M12.9982 30.6105C13.3264 30.4458 16.2898 28.948 17.2078 28.8145L12.9982 30.6105Z" fill="white"/>
<path d="M12.9982 30.6105C13.3264 30.4458 16.2898 28.948 17.2078 28.8145" stroke="#333333" stroke-width="0.772459" stroke-linecap="round" stroke-linejoin="round"/>
<path d="M51.1022 34.5062C54.2469 34.7866 58.8794 34.6787 61.0093 41.3198C63.138 47.9609 65.6652 55.1595 67.4245 55.5023C62.319 55.2385 55.1126 51.9614 52.2572 47.6048C49.4018 43.2483 49.3951 39.4259 49.0212 39.0197" fill="#333333"/>
<path d="M51.1022 34.5062C54.2469 34.7866 58.8794 34.6787 61.0093 41.3198C63.138 47.9609 65.6652 55.1595 67.4245 55.5023C62.319 55.2385 55.1126 51.9614 52.2572 47.6048C49.4018 43.2483 49.3951 39.4259 49.0212 39.0197" stroke="#333333" stroke-width="1.06213" stroke-linecap="round" stroke-linejoin="round"/>
<path d="M54.0979 41.5757C54.8602 44.2942 57.0501 46.9349 58.5323 47.8763L54.0979 41.5757Z" fill="#8DD0A6"/>
<path d="M54.0979 41.5757C54.8602 44.2942 57.0501 46.9349 58.5323 47.8763" stroke="white" stroke-width="1.06213" stroke-linecap="round" stroke-linejoin="round"/>
<path d="M15.4807 52.9906L17.2567 47.2186L8.47458 45.1455L6.45154 52.2506" fill="white"/>
<path d="M15.4807 52.9906L17.2567 47.2186L8.47458 45.1455L6.45154 52.2506" stroke="#333333" stroke-width="1.06213" stroke-linecap="round" stroke-linejoin="round"/>
<path d="M55.0014 91.9204C55.1204 92.3788 60.0912 106.667 60.0912 106.667C60.0912 106.667 51.4271 110.249 38.5099 109.832C32.2271 109.629 22.3689 106.798 22.6761 106.186C22.9821 105.574 27.7604 91.7879 27.3208 88.2404C26.0088 77.6433 22.0507 77.6433 23.9257 70.2121C23.9257 70.2121 10.037 80.7658 3.78651 77.7101C-1.7852 74.986 6.2046 47.8596 6.2046 47.8596L17.8488 50.4747C17.8488 50.4747 15.4307 61.4779 15.0368 63.7958C16.1718 61.9208 24.4476 49.9327 24.4476 49.9327C26.3226 48.0577 29.1936 48.9869 33.302 49.3074C35.2761 49.462 39.1976 49.0369 42.1754 49.0369C44.1851 49.0369 55.4977 50.7217 55.4977 50.7217C55.4977 50.7217 62.6084 53.556 63.2337 53.9599C65.5951 55.4878 64.3588 64.1152 63.6499 66.9472C61.3587 76.1144 54.445 87.7174 55.0002 91.9193L55.0014 91.9204Z" fill="#8DD0A6" stroke="#333333" stroke-width="1.06213" stroke-linecap="round" stroke-linejoin="round"/>
<path d="M32.7578 51.4119C32.7578 51.4119 53.1496 53.2747 52.5376 53.071C51.9256 52.8674 37.3258 81.7831 37.3258 81.7831C37.3258 81.7831 29.5241 67.2991 30.4855 63.6881C31.447 60.0771 33.4211 52.8151 32.7567 51.4119H32.7578Z" fill="#FFDA03"/>
<path d="M45.6974 38.9319C45.6974 38.9319 45.8509 45.8234 47.8417 48.8857C49.8325 51.9481 51.8233 51.3361 51.8233 51.3361C51.8233 51.3361 43.5375 61.5815 39.4702 61.034C34.1611 60.3196 33.3455 51.8457 33.3455 51.8457C33.3455 51.8457 36.6638 52.8662 38.807 48.7322C40.9514 44.5971 39.5726 38.4723 39.5726 38.4723" fill="white"/>
<path d="M45.6974 38.9319C45.6974 38.9319 45.8509 45.8234 47.8417 48.8857C49.8325 51.9481 51.8233 51.3361 51.8233 51.3361C51.8233 51.3361 43.5375 61.5815 39.4702 61.034C34.1611 60.3196 33.3455 51.8457 33.3455 51.8457C33.3455 51.8457 36.6638 52.8662 38.807 48.7322C40.9514 44.5971 39.5726 38.4723 39.5726 38.4723" stroke="#333333" stroke-width="1.06213" stroke-linecap="round" stroke-linejoin="round"/>
<path d="M49.3729 51.3348C49.3729 51.3348 45.7485 68.0266 42.2266 72.1606C38.7046 76.2957 36.4078 79.7153 36.4078 79.7153C31.9667 69.3019 35.009 50.8619 35.1315 50.8753" stroke="#333333" stroke-width="1.06213" stroke-linecap="round" stroke-linejoin="round"/>
<path d="M56.0084 59.1956C56.0084 59.1956 54.6808 49.4976 55.1404 49.4976C55.6 49.4976 49.1169 48.426 49.1169 48.426C49.1169 48.426 46.8713 55.9295 45.1865 59.2979C43.1535 63.3629 37.3258 81.054 37.3258 81.054C37.3258 81.054 42.0218 76.0409 45.2889 72.9785C48.556 69.9161 53.6604 63.6879 53.6604 63.6879L50.7883 60.8158C54.0209 59.7609 56.0084 59.1956 56.0084 59.1956Z" fill="#8DD0A6" stroke="#333333" stroke-width="1.06213" stroke-linecap="round" stroke-linejoin="round"/>
<path d="M35.3861 56.9356C35.9481 52.5969 38.8057 48.0033 38.8057 48.0033L33.0927 47.8508C33.0927 47.8508 26.8911 58.1764 27.8058 58.0851C28.38 58.0273 29.8645 58.4646 31.448 59.3481C29.9635 60.0258 28.2398 60.7714 28.2398 60.9428C28.2398 61.2488 28.3422 66.9663 29.8734 70.6407C31.4046 74.3162 37.3257 81.0541 37.3257 81.0541C37.3257 81.0541 34.9978 59.9323 35.3861 56.9356Z" fill="#8DD0A6" stroke="#333333" stroke-width="1.06213" stroke-linecap="round" stroke-linejoin="round"/>
<path d="M40.2915 5.19781C40.2915 5.19781 31.939 2.45034 28.792 11.406C26.2315 18.6948 30.8863 24.942 30.8863 24.942L40.2904 5.19892L40.2915 5.19781Z" fill="#333333" stroke="#333333" stroke-width="1.06213" stroke-linecap="round" stroke-linejoin="round"/>
<path d="M32.0023 14.554C30.7282 17.869 30.3921 22.0519 29.6098 26.8992C28.4203 34.2714 32.0613 42.3848 39.3934 43.1904C46.2193 43.9404 52.6267 39.9901 56.1331 34.7967C58.4744 31.3304 60.7778 24.1963 60.2904 19.4347C59.803 14.6731 52.6823 5.83088 45.4637 6.55975C38.245 7.28862 34.3047 8.56388 32.0023 14.554Z" fill="white" stroke="#333333" stroke-width="1.06213" stroke-linecap="round" stroke-linejoin="round"/>
<path d="M39.5403 4.70577C38.8749 5.11416 41.9328 13.6793 48.9589 20.2981C55.984 26.917 59.7552 30.0406 59.7552 30.0406C59.7552 30.0406 69.4364 19.1642 60.3138 8.81306C54.2469 1.93048 44.4444 1.69346 39.5403 4.70465V4.70577Z" fill="#333333" stroke="#333333" stroke-width="1.06213" stroke-linecap="round" stroke-linejoin="round"/>
<path d="M50.2821 25.6264C50.3678 26.2629 49.9216 26.8471 49.2851 26.9328C48.6486 27.0185 48.0644 26.5722 47.9787 25.9357C47.893 25.2992 48.3392 24.715 48.9757 24.6293C49.6122 24.5436 50.1965 24.9899 50.2821 25.6264Z" fill="#333333"/>
<path d="M37.9467 22.5661C38.0324 23.2026 37.5862 23.7868 36.9496 23.8725C36.3131 23.9582 35.7289 23.5119 35.6432 22.8754C35.5575 22.2389 36.0038 21.6547 36.6403 21.569C37.2768 21.4833 37.861 21.9296 37.9467 22.5661Z" fill="#333333"/>
<path d="M49.2961 12.2515C50.6348 15.7078 54.2992 20.0421 57.1802 21.1905" stroke="white" stroke-width="1.06213" stroke-linecap="round" stroke-linejoin="round"/>
<path d="M53.6193 11.0509C54.544 13.7561 56.9087 17.0355 59.2589 17.939L53.6193 11.0509Z" fill="#333333"/>
<path d="M53.6193 11.0509C54.544 13.7561 56.9087 17.0355 59.2589 17.939" stroke="white" stroke-width="1.06213" stroke-linecap="round" stroke-linejoin="round"/>
<path d="M39.9398 24.6349C37.4138 27.4792 35.4119 27.8853 35.4119 27.8853L38.7191 30.27" fill="white"/>
<path d="M39.9398 24.6349C37.4138 27.4792 35.4119 27.8853 35.4119 27.8853L38.7191 30.27" stroke="#333333" stroke-width="1.06213" stroke-linecap="round" stroke-linejoin="round"/>
<path d="M44.4923 35.6724C44.4923 35.6724 43.5809 39.7518 41.3098 39.3724C39.5337 39.0764 38.8672 34.9324 38.8672 34.9324C38.8672 34.9324 44.8951 35.8816 44.4923 35.6724Z" fill="white" stroke="#333333" stroke-width="1.06213" stroke-linecap="round" stroke-linejoin="round"/>
<path d="M56.9365 28.4695C59.2088 29.0548 60.9092 30.4091 60.3561 32.559C59.8019 34.7089 57.5107 35.9763 55.2384 35.391" fill="white"/>
<path d="M56.9365 28.4695C59.2088 29.0548 60.9092 30.4091 60.3561 32.559C59.8019 34.7089 57.5107 35.9763 55.2384 35.391" stroke="#333333" stroke-width="1.06213" stroke-linecap="round" stroke-linejoin="round"/>
<path d="M57.1956 36.1021C57.1745 36.9189 56.4946 37.5643 55.6767 37.5432C54.8599 37.522 54.2145 36.8421 54.2356 36.0242C54.2568 35.2063 54.9367 34.562 55.7546 34.5831C56.5714 34.6043 57.2168 35.2842 57.1956 36.1021Z" fill="white" stroke="#333333" stroke-width="1.06213" stroke-linecap="round" stroke-linejoin="round"/>
<path d="M23.8434 70.6051C24.2785 69.5179 25.2499 66.4611 25.3979 65.4985L23.8434 70.6051Z" fill="#8DD0A6"/>
<path d="M23.8434 70.6051C24.2785 69.5179 25.2499 66.4611 25.3979 65.4985" stroke="#333333" stroke-width="1.06213" stroke-linecap="round" stroke-linejoin="round"/>
<path d="M3.45483 10.9017L6.07656 14.8543" stroke="#FFDA03" stroke-width="1.54492" stroke-linecap="round" stroke-linejoin="round"/>
<path d="M-0.960693 16.4612L3.63956 17.614" stroke="#FFDA03" stroke-width="1.54492" stroke-linecap="round" stroke-linejoin="round"/>
<path d="M10.2896 8.99768L9.56299 13.6847" stroke="#FFDA03" stroke-width="1.54492" stroke-linecap="round" stroke-linejoin="round"/>
<path d="M64.1295 55.4089C64.8427 57.8415 68.9734 80.2908 71.6218 90.0433C74.2692 99.7968 76.9643 106.797 76.9643 106.797C76.9643 106.797 74.5841 109.685 70.6548 110.16C66.7245 110.635 64.1039 110.059 64.1039 110.059C64.1039 110.059 59.2677 82.0791 57.2146 74.5711" fill="#8DD0A6"/>
<path d="M64.1295 55.4089C64.8427 57.8415 68.9734 80.2908 71.6218 90.0433C74.2692 99.7968 76.9643 106.797 76.9643 106.797C76.9643 106.797 74.5841 109.685 70.6548 110.16C66.7245 110.635 64.1039 110.059 64.1039 110.059C64.1039 110.059 59.2677 82.0791 57.2146 74.5711" stroke="#333333" stroke-width="1.06213" stroke-linecap="round" stroke-linejoin="round"/>
<path d="M20.6608 34.5386C20.6608 34.5386 19.0328 35.6235 18.8848 36.3647L20.6608 34.5386Z" fill="white"/>
<path d="M20.6608 34.5386C20.6608 34.5386 19.0328 35.6235 18.8848 36.3647" stroke="#333333" stroke-width="0.965574" stroke-linecap="round" stroke-linejoin="round"/>
<path d="M22.3633 30.5657C22.3633 30.5657 23.0721 31.8109 23.9423 31.6262C25.1631 31.3669 24.5098 29.6031 24.5098 29.6031" fill="white"/>
<path d="M22.3633 30.5657C22.3633 30.5657 23.0721 31.8109 23.9423 31.6262C25.1631 31.3669 24.5098 29.6031 24.5098 29.6031" stroke="#333333" stroke-width="1.06213" stroke-linecap="round" stroke-linejoin="round"/>
</g>
</g>
<defs>
<clipPath id="clip0_230_1664">
<rect width="80" height="80" fill="white"/>
</clipPath>
</defs>
</svg>
