<svg width="80" height="80" viewBox="0 0 80 80" fill="none" xmlns="http://www.w3.org/2000/svg">
<g clip-path="url(#clip0_230_1675)">
<mask id="mask0_230_1675" style="mask-type:luminance" maskUnits="userSpaceOnUse" x="-15" y="-1" width="103" height="105">
<path d="M87.2352 -0.00012207H-14.2762V104H87.2352V-0.00012207Z" fill="white"/>
</mask>
<g mask="url(#mask0_230_1675)">
<path d="M66.6964 49.1871C66.397 48.4788 65.8188 48.0956 65.2156 47.7223C64.5518 47.3115 63.4763 46.8856 62.2022 46.4713C61.0991 46.0392 60.0834 45.7665 59.5105 45.6828C55.2969 44.5512 50.5576 43.662 50.5211 43.6584C44.0212 43.0089 38.7857 42.4306 36.4753 43.081C34.0606 43.76 29.8854 45.1321 26.5414 46.2575C24.6837 46.4045 20.545 47.3445 19.1301 49.229C16.0695 53.3053 14.2277 62.7865 11.5013 71.9122C9.67025 78.0423 7.94615 83.4971 9.01268 87.6456C10.1478 92.0588 21.1553 91.5545 24.2747 91.0332C24.5411 98.1105 24.9679 111.833 24.7184 112.332C24.411 112.947 32.6475 113.744 41.701 114.01C53.5648 114.357 63.7151 112.336 63.7151 112.336C63.7151 112.336 63.2714 101.916 63.3801 89.5158C64.3335 89.3189 72.9531 89.3644 74.6121 86.4009C75.6038 84.6296 75.5896 78.1341 73.9011 71.5567C71.4125 61.8635 70.0546 53.9763 66.6955 49.188L66.6964 49.1871Z" fill="#8DD0A6" stroke="#333333" stroke-width="1.14852" stroke-linecap="round" stroke-linejoin="round"/>
<path d="M27.5082 28.4996C25.1595 28.1058 24.2436 29.706 24.7862 31.7687C25.3279 33.8314 27.3915 35.4459 29.6315 34.5077" fill="white"/>
<path d="M27.5082 28.4996C25.1595 28.1058 24.2436 29.706 24.7862 31.7687C25.3279 33.8314 27.3915 35.4459 29.6315 34.5077" stroke="#333333" stroke-width="1.14852" stroke-linecap="round" stroke-linejoin="round"/>
<path d="M28.7976 32.3978C28.4394 31.6084 27.7658 31.4284 27.2285 31.3116L28.7976 32.3978Z" fill="white"/>
<path d="M28.7976 32.3978C28.4394 31.6084 27.7658 31.4284 27.2285 31.3116" stroke="#333333" stroke-width="1.14852" stroke-linecap="round" stroke-linejoin="round"/>
<path d="M29.9388 45.1739L41.5299 79.4812L53.5541 43.9827L29.9388 45.1739Z" fill="white"/>
<path d="M48.0469 35.322C48.0469 35.322 47.5123 42.8466 49.5117 45.9214C51.5102 48.9963 51.3374 48.933 51.3374 48.933C51.3374 48.933 46.7291 49.6155 42.0709 49.7234C36.6937 49.8481 32.7831 49.4454 32.7831 49.4454C32.7831 49.4454 33.5271 49.5425 35.6797 45.3904C37.8324 41.2383 36.871 35.9662 36.871 35.9662" fill="white"/>
<path d="M48.0469 35.322C48.0469 35.322 47.5123 42.8466 49.5117 45.9214C51.5102 48.9963 51.3374 48.933 51.3374 48.933C51.3374 48.933 46.7291 49.6155 42.0709 49.7234C36.6937 49.8481 32.7831 49.4454 32.7831 49.4454C32.7831 49.4454 33.5271 49.5425 35.6797 45.3904C37.8324 41.2383 36.871 35.9662 36.871 35.9662" stroke="#333333" stroke-width="1.14852" stroke-linecap="round" stroke-linejoin="round"/>
<path d="M38.0631 49.3989L45.5743 49.6716L43.263 54.8145L39.9672 54.7628L38.0631 49.3989Z" fill="#333333"/>
<path d="M39.9673 54.7629C39.9673 54.7629 37.3192 65.0353 36.8719 70.5222L41.9632 78.4298L46.5688 70.5115C46.5688 70.5115 43.6151 57.5144 43.2631 54.8155L39.9673 54.7638V54.7629Z" fill="#333333"/>
<path d="M58.0119 54.7565C58.0332 54.54 55.9456 44.0003 55.9456 44.0003L50.7903 41.8672C50.7903 41.8672 48.5155 52.5753 47.2325 56.134C45.6848 60.4277 42.0424 79.4819 42.0424 79.4819C42.0424 79.4819 46.0492 73.2021 48.9459 69.7637C51.8425 66.3244 56.1995 59.5136 56.1995 59.5136L52.9973 56.9885C56.0962 55.5548 58.0119 54.7583 58.0119 54.7583V54.7565Z" fill="#8DD0A6" stroke="#333333" stroke-width="1.14852" stroke-linecap="round" stroke-linejoin="round"/>
<path d="M26.6582 54.7568C26.6369 54.5403 28.7477 45.4993 28.7477 45.4993L32.7465 42.845C32.7465 42.845 35.0578 52.5756 36.3408 56.1334C37.8885 60.4272 41.5309 79.4814 41.5309 79.4814C41.5309 79.4814 37.5241 73.2015 34.6274 69.7632C31.7307 66.3239 27.3737 59.513 27.3737 59.513L31.6728 56.9879C28.5739 55.5543 26.6582 54.7577 26.6582 54.7577V54.7568Z" fill="#8DD0A6" stroke="#333333" stroke-width="1.14852" stroke-linecap="round" stroke-linejoin="round"/>
<path d="M41.9202 49.1289L46.6274 54.4981C46.7182 54.5418 48.6392 51.5266 49.647 49.3374C50.6948 47.0618 51.8335 44.4315 51.7783 44.4208L49.4688 41.387C49.4688 41.387 46.36 44.7345 45.1171 45.989C43.8741 47.2444 41.9202 49.1271 41.9202 49.1271V49.1289Z" fill="white" stroke="#333333" stroke-width="1.14852" stroke-linecap="round" stroke-linejoin="round"/>
<path d="M41.9203 49.1289L37.2131 54.4981C37.1222 54.5417 35.2012 51.5266 34.1935 49.3374C33.1457 47.0617 32.2458 45.0757 32.301 45.0659L34.3708 41.3878C34.3708 41.3878 37.4795 44.7353 38.7225 45.9899C39.9654 47.2453 41.9194 49.128 41.9194 49.128L41.9203 49.1289Z" fill="white" stroke="#333333" stroke-width="1.14852" stroke-linecap="round" stroke-linejoin="round"/>
<path d="M28.2086 8.87345C25.9614 9.16391 24.1144 8.22657 24.1144 8.22657C23.9362 10.3115 25.4331 11.6667 26.586 12.3929C26.5486 12.5435 25.8349 13.3009 25.8011 13.4586C24.3541 20.2293 29.8801 24.6478 29.8801 24.6478L35.0951 7.38279C35.0951 7.38279 30.2802 3.54523 28.2077 8.87434L28.2086 8.87345Z" fill="#333333" stroke="#333333" stroke-width="1.14852" stroke-linecap="round" stroke-linejoin="round"/>
<path d="M28.1008 16.6466C27.2908 19.9612 28.025 26.1991 28.2264 30.9116C28.7316 42.7442 34.8778 44.7739 40.6141 44.7917C47.3554 44.8122 51.2999 42.0546 54.1315 34.4668C55.5366 30.7023 56.2503 23.8656 55.2043 19.3883C54.1591 14.9101 46.296 7.35255 39.5056 8.92785C32.7153 10.5031 29.5638 10.6582 28.1008 16.6466Z" fill="white" stroke="#333333" stroke-width="1.14852" stroke-linecap="round" stroke-linejoin="round"/>
<path d="M55.6239 27.5553C55.6239 27.5553 63.0665 16.3055 53.7786 8.14299C47.6022 2.71498 33.6072 3.60955 32.8275 8.81927C32.7242 9.51158 36.9814 10.1086 40.238 17.4228C40.238 17.4228 41.6752 16.449 41.8267 14.2437C41.8267 14.2437 44.1335 17.1591 47.5478 18.0902C51.5823 19.1906 54.1627 22.2752 54.3738 23.1297C54.5859 23.9842 55.076 28.7261 55.076 28.7261C55.076 28.7261 55.3513 26.5663 56.4481 26.8924C57.5449 27.2194 55.6239 27.5562 55.6239 27.5562" fill="#333333"/>
<path d="M55.6239 27.5553C55.6239 27.5553 63.0665 16.3055 53.7786 8.14299C47.6022 2.71498 33.6072 3.60955 32.8275 8.81927C32.7242 9.51158 36.9814 10.1086 40.238 17.4228C40.238 17.4228 41.6752 16.449 41.8267 14.2437C41.8267 14.2437 44.1335 17.1591 47.5478 18.0902C51.5823 19.1906 54.1627 22.2752 54.3738 23.1297C54.5859 23.9842 55.076 28.7261 55.076 28.7261C55.076 28.7261 55.3513 26.5663 56.4481 26.8924C57.5449 27.2194 55.6239 27.5562 55.6239 27.5562" stroke="#333333" stroke-width="1.14852" stroke-linecap="round" stroke-linejoin="round"/>
<path d="M54.1296 26.9627C56.4062 26.2624 58.8743 27.4145 58.6087 29.5306C58.3432 31.6467 55.9464 33.5562 53.6022 32.9218" fill="white"/>
<path d="M54.1296 26.9627C56.4062 26.2624 58.8743 27.4145 58.6087 29.5306C58.3432 31.6467 55.9464 33.5562 53.6022 32.9218" stroke="#333333" stroke-width="1.14852" stroke-linecap="round" stroke-linejoin="round"/>
<path d="M38.1361 28.9159C36.4797 31.5649 35.4907 32.2554 35.4907 32.2554L38.3455 34.1924" fill="white"/>
<path d="M38.1361 28.9159C36.4797 31.5649 35.4907 32.2554 35.4907 32.2554L38.3455 34.1924" stroke="#333333" stroke-width="0.956693" stroke-linecap="round" stroke-linejoin="round"/>
<path d="M54.4968 30.6978C54.7481 29.8674 55.3914 29.601 55.9091 29.4148L54.4968 30.6978Z" fill="white"/>
<path d="M54.4968 30.6978C54.7481 29.8674 55.3914 29.601 55.9091 29.4148" stroke="#333333" stroke-width="1.14852" stroke-linecap="round" stroke-linejoin="round"/>
<path d="M45.8665 8.4458C48.1653 12.1363 50.2413 13.6288 51.6348 14.2275" stroke="white" stroke-width="0.798333" stroke-linecap="round" stroke-linejoin="round"/>
<path d="M43.2167 9C45.3916 12.7645 47.4169 14.3247 48.7899 14.9697" stroke="white" stroke-width="0.798333" stroke-linecap="round" stroke-linejoin="round"/>
<path d="M38.2574 24.4938C38.2574 24.4938 38.3207 25.4489 38.3982 26.617C38.4757 27.7843 37.1321 28.833 35.4124 28.947L32.6548 29.1297C30.9351 29.2437 29.465 28.3812 29.3883 27.2131C29.3108 26.0459 29.2476 25.0899 29.2476 25.0899" fill="white"/>
<path d="M38.2574 24.4938C38.2574 24.4938 38.3207 25.4489 38.3982 26.617C38.4757 27.7843 37.1321 28.833 35.4124 28.947L32.6548 29.1297C30.9351 29.2437 29.465 28.3812 29.3883 27.2131C29.3108 26.0459 29.2476 25.0899 29.2476 25.0899" stroke="#333333" stroke-width="0.721601" stroke-linecap="round" stroke-linejoin="round"/>
<path d="M51.0105 23.6497C51.0105 23.6497 51.0737 24.6048 51.1512 25.7729C51.2288 26.9401 49.8851 27.9889 48.1655 28.1029L45.4078 28.2856C43.6882 28.3996 42.218 27.5371 42.1414 26.369C42.0639 25.2018 42.0006 24.2457 42.0006 24.2457" fill="white"/>
<path d="M51.0105 23.6497C51.0105 23.6497 51.0737 24.6048 51.1512 25.7729C51.2288 26.9401 49.8851 27.9889 48.1655 28.1029L45.4078 28.2856C43.6882 28.3996 42.218 27.5371 42.1414 26.369C42.0639 25.2018 42.0006 24.2457 42.0006 24.2457" stroke="#333333" stroke-width="0.721601" stroke-linecap="round" stroke-linejoin="round"/>
<path d="M55.3888 24.6005L51.2305 24.8758" stroke="#333333" stroke-width="0.721601" stroke-linecap="round" stroke-linejoin="round"/>
<path d="M42.0129 25.4854L38.5469 25.7152" stroke="#333333" stroke-width="0.721601" stroke-linecap="round" stroke-linejoin="round"/>
<path d="M29.0658 26.2865L27.6687 26.3792" stroke="#333333" stroke-width="0.721601" stroke-linecap="round" stroke-linejoin="round"/>
<path d="M44.9657 37.0774C43.1267 37.5363 39.2829 37.7555 37.2826 37.5862C37.2826 37.5862 38.35 42.746 41.7795 42.5188C45.209 42.2916 44.9657 37.0774 44.9657 37.0774Z" fill="white" stroke="#333333" stroke-width="1.14852" stroke-linecap="round" stroke-linejoin="round"/>
<path d="M35.3393 26.4929C35.3741 27.0151 34.9785 27.4668 34.4554 27.5016C33.9333 27.5363 33.4816 27.1407 33.4468 26.6177C33.4121 26.0947 33.8077 25.6438 34.3307 25.6091C34.8537 25.5743 35.3046 25.9699 35.3393 26.4929Z" fill="#333333"/>
<path d="M46.9286 25.7261C46.9633 26.2482 46.5677 26.7 46.0447 26.7347C45.5226 26.7695 45.0708 26.3739 45.0361 25.8508C45.0013 25.3278 45.3969 24.877 45.9199 24.8422C46.4421 24.8075 46.8938 25.2031 46.9286 25.7261Z" fill="#333333"/>
<path d="M17.2501 77.4525L25.0723 76.0295" stroke="#333333" stroke-width="1.14852" stroke-linecap="round" stroke-linejoin="round"/>
<path d="M55.0572 76.2666C55.0572 76.2666 56.6673 79.9206 55.9562 82.8538C55.2452 85.787 53.1219 87.8417 53.1219 87.8417L56.7172 87.921C56.7172 87.921 58.8903 87.4763 59.5122 82.8547C60.1342 78.2322 58.3566 76.4546 58.3566 76.4546L55.0581 76.2666H55.0572Z" fill="white" stroke="#333333" stroke-width="1.14852" stroke-linecap="round" stroke-linejoin="round"/>
<path d="M27.6793 75.8521C27.6793 75.8521 25.9053 79.6549 26.6164 82.5881C27.3274 85.5212 29.4506 87.5759 29.4506 87.5759L26.7313 88.6522C26.7313 88.6522 24.2721 87.1705 23.6502 82.5489C23.0283 77.9263 24.8949 76.6228 24.8949 76.6228L27.6802 75.8521H27.6793Z" fill="white" stroke="#333333" stroke-width="1.14852" stroke-linecap="round" stroke-linejoin="round"/>
<path d="M62.6424 65.1262L62.7903 76.0892L57.0719 75.8227C57.0719 75.8227 59.245 77.2947 59.0864 82.9045C58.9822 86.5941 55.6498 89.5024 55.6498 89.5024C55.3246 89.5808 64.3345 89.775 67.4423 89.2458" fill="#8DD0A6"/>
<path d="M62.6424 65.1262L62.7903 76.0892L57.0719 75.8227C57.0719 75.8227 59.245 77.2947 59.0864 82.9045C58.9822 86.5941 55.6498 89.5024 55.6498 89.5024C55.3246 89.5808 64.3345 89.775 67.4423 89.2458" stroke="#333333" stroke-width="1.14852" stroke-linecap="round" stroke-linejoin="round"/>
<path d="M55.0573 76.2666C54.8791 76.2666 51.324 70.2221 50.4348 71.1113C49.5456 72.0005 49.6053 73.8369 50.5533 75.1413C51.5013 76.4448 53.3974 77.3929 54.2866 77.2744C55.1758 77.1559 55.0573 76.2666 55.0573 76.2666Z" fill="white" stroke="#333333" stroke-width="1.14852" stroke-linecap="round" stroke-linejoin="round"/>
<path d="M27.3827 76.7406C27.5609 76.7406 31.0572 69.9262 31.9455 70.8145C32.8348 71.7037 33.0718 73.4216 32.1237 74.726C31.1757 76.0296 29.3385 77.5113 28.4492 77.3928C27.56 77.2743 27.3827 76.7406 27.3827 76.7406Z" fill="white" stroke="#333333" stroke-width="1.14852" stroke-linecap="round" stroke-linejoin="round"/>
<path d="M62.1283 76.1477L64.7755 76.2662" stroke="#333333" stroke-width="1.14852" stroke-linecap="round" stroke-linejoin="round"/>
<path d="M23.3535 76.0295L23.1459 66.7559" stroke="#333333" stroke-width="1.14852" stroke-linecap="round" stroke-linejoin="round"/>
<path d="M48.4738 47.0112L35.1489 47.4766L36.1261 75.4594L49.451 74.9941L48.4738 47.0112Z" fill="white" stroke="#333333" stroke-width="0.979549" stroke-linecap="round" stroke-linejoin="round"/>
<path d="M46.796 48.9531L36.9581 49.2966L37.804 73.5181L47.6418 73.1746L46.796 48.9531Z" fill="#8DD0A6"/>
<path d="M41.1227 57.3416C41.1556 56.9264 41.1601 56.5994 41.1449 56.1548L41.1334 55.8126L39.9403 55.8545C39.5741 55.867 39.3362 55.8919 39.0832 55.94L39.0457 54.8664C39.2863 54.9056 39.5331 54.9127 39.9064 54.9002L41.0995 54.8584L41.0942 54.6989L40.8081 54.2632L39.9011 54.2953C39.5197 54.3086 39.3603 54.322 39.044 54.3808L39.0065 53.3071C39.2622 53.3463 39.4939 53.3535 39.8672 53.341L40.2014 53.3294L39.1509 51.7497C38.9745 51.477 38.6475 51.019 38.4808 50.8096L40.4455 50.741C40.5257 50.9852 40.6112 51.1651 40.8402 51.5634L41.8319 53.2884L42.7087 51.4984C42.9243 51.0529 42.9902 50.8836 43.0455 50.6501L45.0021 50.5815C44.8658 50.7936 44.4746 51.444 44.4078 51.5661L43.4785 53.2154L43.8046 53.2038C44.1779 53.1904 44.3606 53.1681 44.6537 53.1102L44.6911 54.1839C44.4274 54.1536 44.1957 54.1456 43.8385 54.158L42.9394 54.1892L42.6766 54.6445L42.6819 54.8031L43.8429 54.763C44.2011 54.7506 44.423 54.7265 44.692 54.6695L44.7295 55.7431C44.4256 55.7137 44.2269 55.7048 43.8768 55.7173L42.7158 55.7583L42.7274 56.1004C42.7461 56.6333 42.7719 56.9193 42.8325 57.2828L41.1227 57.3425V57.3416Z" fill="#333333"/>
<path d="M46.2222 48.6241L32.9399 49.7861L35.3803 77.6795L48.6626 76.5174L46.2222 48.6241Z" fill="white" stroke="#333333" stroke-width="0.979549" stroke-linecap="round" stroke-linejoin="round"/>
<path d="M44.6491 50.6508L34.8428 51.5088L36.9551 75.6528L46.7615 74.7949L44.6491 50.6508Z" fill="#8DD0A6"/>
<path d="M39.4228 59.3241C39.4344 58.908 39.4219 58.581 39.3827 58.1373L39.3533 57.796L38.1647 57.9003C37.8003 57.9323 37.5633 57.9689 37.3138 58.0303L37.2202 56.9602C37.4626 56.987 37.7094 56.9816 38.0818 56.9487L39.2704 56.8444L39.2562 56.6858L38.9479 56.2653L38.0444 56.3446C37.664 56.3775 37.5063 56.3998 37.1935 56.4746L37.1 55.4046C37.3575 55.4295 37.5891 55.4259 37.9616 55.393L38.2948 55.3636L37.1632 53.8408C36.9725 53.578 36.6224 53.1369 36.4451 52.9374L38.4035 52.7663C38.4962 53.006 38.5915 53.1815 38.841 53.5664L39.9218 55.237L40.7041 53.4034C40.8956 52.9472 40.9527 52.7743 40.9963 52.5391L42.9467 52.3689C42.822 52.5872 42.4656 53.2581 42.4041 53.3829L41.5621 55.0784L41.8873 55.0499C42.2598 55.017 42.4406 54.9858 42.7302 54.9118L42.8238 55.9819C42.5591 55.965 42.3275 55.9695 41.9711 56.0006L41.0756 56.079L40.8368 56.5468L40.8511 56.7054L42.0085 56.6038C42.3649 56.5727 42.5859 56.537 42.8514 56.4666L42.945 57.5367C42.6402 57.5234 42.4406 57.5251 42.0923 57.5554L40.9348 57.657L40.9642 57.9983C41.0106 58.5293 41.0516 58.8135 41.1309 59.1735L39.4264 59.3223L39.4228 59.3241Z" fill="#333333"/>
<path d="M43.746 50.5912L30.5427 52.4468L34.4396 80.1742L47.6428 78.3186L43.746 50.5912Z" fill="white" stroke="#333333" stroke-width="0.979549" stroke-linecap="round" stroke-linejoin="round"/>
<path d="M42.2801 52.6976L32.5321 54.0676L35.9051 78.068L45.6532 76.698L42.2801 52.6976Z" fill="#FFDA03"/>
<path d="M37.5159 61.6328C37.5053 61.2167 37.4759 60.8914 37.4144 60.4495L37.3672 60.1109L36.1848 60.2766C35.8221 60.3274 35.5878 60.3764 35.3419 60.4513L35.1922 59.3874C35.4355 59.4017 35.6814 59.383 36.052 59.3304L37.2344 59.1647L37.2121 59.007L36.8824 58.6033L35.9843 58.7299C35.6065 58.7833 35.4497 58.8127 35.1414 58.9045L34.9917 57.8406C35.2501 57.8522 35.4809 57.8362 35.8515 57.7845L36.1821 57.7382L34.9721 56.2769C34.7681 56.0248 34.3956 55.6024 34.2076 55.4118L36.1536 55.1382C36.2587 55.3725 36.363 55.5427 36.6321 55.9143L37.7984 57.5261L38.4836 55.6541C38.6511 55.189 38.6992 55.0135 38.7295 54.7756L40.6683 54.5029C40.5552 54.7275 40.2344 55.4162 40.1801 55.5436L39.428 57.2802L39.7515 57.2348C40.1221 57.1831 40.3012 57.1412 40.5855 57.053L40.7352 58.1169C40.4696 58.1142 40.2389 58.1302 39.8842 58.1801L38.9941 58.3049L38.7803 58.7851L38.8026 58.9428L39.9529 58.7815C40.3075 58.7316 40.5258 58.6853 40.7868 58.5998L40.9365 59.6636C40.6318 59.6663 40.4322 59.6779 40.0856 59.7269L38.9353 59.8882L38.9825 60.2268C39.0565 60.7551 39.1126 61.0358 39.2106 61.3922L37.5168 61.6301L37.5159 61.6328Z" fill="#333333"/>
<path d="M52.5249 91.0804L50.1861 93.2483L33.8343 94.6783L31.3003 65.7224L50.162 64.0723L52.5249 91.0804Z" fill="white" stroke="#333333" stroke-width="1.14281" stroke-linecap="round" stroke-linejoin="round"/>
<path d="M48.0815 66.1279L50.1923 90.2564" stroke="#333333" stroke-width="0.653033" stroke-linecap="round" stroke-linejoin="round"/>
<path d="M35.6305 70.3406L44.692 69.5476" stroke="#333333" stroke-width="0.979549" stroke-linecap="round" stroke-linejoin="round"/>
<path d="M35.9246 73.7049L44.987 72.9128" stroke="#333333" stroke-width="0.979549" stroke-linecap="round" stroke-linejoin="round"/>
<path d="M26.7901 77.3929C27.1751 75.2741 36.6269 72.8301 36.9236 74.5488C37.2203 76.2676 31.0572 77.5711 31.0572 77.5711C31.0572 77.5711 36.6866 76.0306 36.9833 77.8678C37.28 79.7051 31.2354 80.8304 31.2354 80.8304C31.2354 80.8304 36.9245 79.7042 36.8059 81.2456C36.6874 82.7862 31.8876 84.3267 32.0649 84.3267C32.2422 84.3267 37.3985 82.6677 37.2203 84.4452C37.0421 86.2228 31.3539 88.4156 29.6939 87.823C28.0349 87.2305 25.6051 83.9115 26.7901 77.3938V77.3929Z" fill="white" stroke="#333333" stroke-width="1.14852" stroke-linecap="round" stroke-linejoin="round"/>
<path d="M56.0054 77.3929C55.6204 75.2741 46.1687 72.8301 45.872 74.5488C45.5752 76.2676 51.324 77.3341 51.324 77.3341C51.324 77.3341 45.3685 76.3861 45.0718 78.2233C44.7751 80.0606 51.561 80.8304 51.561 80.8304C51.561 80.8304 45.3979 79.6454 45.5164 81.1859C45.6349 82.7265 51.2643 84.03 51.087 84.03C50.9097 84.03 45.3979 82.6668 45.5761 84.4452C45.7543 86.2228 51.4425 88.4156 53.1025 87.823C54.7615 87.2305 57.1913 83.9115 56.0063 77.3938L56.0054 77.3929Z" fill="white" stroke="#333333" stroke-width="1.14852" stroke-linecap="round" stroke-linejoin="round"/>
<path d="M11.1913 34.3889L14.431 40.9984" stroke="#FFDA03" stroke-width="2.44887" stroke-linecap="round" stroke-linejoin="round"/>
<path d="M2.27234 46.6868L10.2504 48.9677" stroke="#FFDA03" stroke-width="2.44887" stroke-linecap="round" stroke-linejoin="round"/>
<path d="M2.422 59.8477L8.97178 58.7705" stroke="#FFDA03" stroke-width="2.44887" stroke-linecap="round" stroke-linejoin="round"/>
<path d="M67.3237 14.0445L64.1749 13.7238" stroke="#333333" stroke-width="1.05791" stroke-linecap="round" stroke-linejoin="round"/>
<path d="M66.1502 8.27356L63.0175 10.0137" stroke="#333333" stroke-width="1.05791" stroke-linecap="round" stroke-linejoin="round"/>
<path d="M62.0856 4.30066L60.4141 6.62886" stroke="#333333" stroke-width="1.05791" stroke-linecap="round" stroke-linejoin="round"/>
</g>
</g>
<defs>
<clipPath id="clip0_230_1675">
<rect width="80" height="80" fill="white"/>
</clipPath>
</defs>
</svg>
