<svg width="80" height="80" viewBox="0 0 80 80" fill="none" xmlns="http://www.w3.org/2000/svg">
<circle cx="40" cy="40" r="40" fill="#CBCBCB"/>
<mask id="mask0_99_360" style="mask-type:luminance" maskUnits="userSpaceOnUse" x="0" y="0" width="80" height="80">
<path d="M0 40C0 62.0914 17.9086 80 40 80C62.0914 80 80 62.0914 80 40C80 17.9086 62.0914 0 40 0C17.9086 0 0 17.9086 0 40Z" fill="white"/>
</mask>
<g mask="url(#mask0_99_360)">
<path d="M61.7545 48.9151C61.4826 48.2716 60.9573 47.9236 60.4093 47.5844C59.8063 47.2113 58.8293 46.8244 57.6718 46.448C56.6698 46.0555 55.747 45.8078 55.2266 45.7317C51.3988 44.7037 47.0935 43.8959 47.0603 43.8927C41.1556 43.3026 36.3994 42.7773 34.3006 43.3682C32.107 43.985 28.3141 45.2315 25.2763 46.2538C23.5887 46.3873 19.8289 47.2413 18.5436 48.9532C13.8012 55.2691 15.573 80.3927 17.7163 85.8086C18.2692 87.2048 20.3834 87.4031 23.218 86.9296C23.46 93.3589 23.8477 105.825 23.6211 106.278C23.3418 106.837 30.8241 107.561 39.0486 107.802C49.8261 108.118 59.047 106.282 59.047 106.282C59.047 106.282 58.6439 96.8159 58.7427 85.5512C59.6088 85.3723 60.2725 85.0218 60.6642 84.4552C63.91 79.7541 66.3488 55.465 61.7545 48.9159V48.9151Z" fill="#95B5A1" stroke="#333333" stroke-width="1.13886" stroke-linecap="round" stroke-linejoin="round"/>
<path d="M27.5654 28.1406C25.4601 27.6428 24.5342 29.0383 24.9016 30.9404C25.2691 32.8426 27.0425 34.4298 29.1292 33.7143" fill="white"/>
<path d="M27.5654 28.1406C25.4601 27.6428 24.5342 29.0383 24.9016 30.9404C25.2691 32.8426 27.0425 34.4298 29.1292 33.7143" stroke="#333333" stroke-width="1.13886" stroke-linecap="round" stroke-linejoin="round"/>
<path d="M28.5003 31.7514C28.2227 31.014 27.6237 30.8108 27.1429 30.6732L28.5003 31.7514Z" fill="white"/>
<path d="M28.5003 31.7514C28.2227 31.014 27.6237 30.8108 27.1429 30.6732" stroke="#333333" stroke-width="1.13886" stroke-linecap="round" stroke-linejoin="round"/>
<path d="M28.3627 45.2696L38.8924 76.4355L49.8156 44.1874L28.3627 45.2696Z" fill="white"/>
<path d="M44.8125 36.3197C44.8125 36.3197 44.3268 43.1553 46.1432 45.9486C47.9587 48.7419 47.8017 48.6844 47.8017 48.6844C47.8017 48.6844 43.6154 49.3044 39.3837 49.4024C34.4988 49.5157 30.9463 49.1498 30.9463 49.1498C30.9463 49.1498 31.6222 49.2381 33.5777 45.4662C35.5333 41.6943 34.6599 36.9049 34.6599 36.9049" fill="white"/>
<path d="M44.8125 36.3197C44.8125 36.3197 44.3268 43.1553 46.1432 45.9486C47.9587 48.7419 47.8017 48.6844 47.8017 48.6844C47.8017 48.6844 43.6154 49.3044 39.3837 49.4024C34.4988 49.5157 30.9463 49.1498 30.9463 49.1498C30.9463 49.1498 31.6222 49.2381 33.5777 45.4662C35.5333 41.6943 34.6599 36.9049 34.6599 36.9049" stroke="#333333" stroke-width="1.13886" stroke-linecap="round" stroke-linejoin="round"/>
<path d="M35.7429 49.1078L42.5663 49.3555L40.4667 54.0275L37.4727 53.9805L35.7429 49.1078Z" fill="#333333"/>
<path d="M37.4727 53.9805C37.4727 53.9805 35.0671 63.3123 34.6608 68.2967L39.2858 75.4803L43.4697 68.287C43.4697 68.287 40.7865 56.48 40.4667 54.0282L37.4727 53.9813V53.9805Z" fill="#333333"/>
<path d="M53.8652 53.9749C53.8846 53.7782 52.4212 44.9676 52.4212 44.9676L47.5517 43.433C47.5517 43.433 45.2384 51.9934 44.0728 55.2254C42.6668 59.126 39.3579 76.4355 39.3579 76.4355C39.3579 76.4355 42.9979 70.7307 45.6293 67.6072C48.2607 64.4828 52.2188 58.2956 52.2188 58.2956L49.3097 56.0017C52.1249 54.6993 53.8652 53.9757 53.8652 53.9757V53.9749Z" fill="#95B5A1" stroke="#333333" stroke-width="1.13886" stroke-linecap="round" stroke-linejoin="round"/>
<path d="M25.3824 53.9749C25.363 53.7782 27.2805 45.565 27.2805 45.565L30.9375 43.849C30.9375 43.849 33.012 51.9934 34.1776 55.2254C35.5835 59.126 38.8925 76.4355 38.8925 76.4355C38.8925 76.4355 35.2525 70.7307 32.6211 67.6071C29.9896 64.4828 26.0316 58.2956 26.0316 58.2956L29.937 56.0017C27.1219 54.6993 25.3816 53.9757 25.3816 53.9757L25.3824 53.9749Z" fill="#95B5A1" stroke="#333333" stroke-width="1.13886" stroke-linecap="round" stroke-linejoin="round"/>
<path d="M39.2469 48.8625L43.5231 53.7401C43.6057 53.7798 45.3508 51.0407 46.2663 49.0519C47.2181 46.9847 48.2526 44.5953 48.2024 44.5855L46.1044 41.8295C46.1044 41.8295 43.2803 44.8705 42.1512 46.0101C41.022 47.1506 39.2469 48.8609 39.2469 48.8609V48.8625Z" fill="white" stroke="#333333" stroke-width="1.13886" stroke-linecap="round" stroke-linejoin="round"/>
<path d="M39.247 48.8625L34.9708 53.7401C34.8883 53.7798 33.1431 51.0407 32.2277 49.0519C31.2758 46.9847 30.2414 44.5953 30.2916 44.5855L32.3896 41.8295C32.3896 41.8295 35.2136 44.8705 36.3428 46.0101C37.4719 47.1506 39.247 48.8609 39.247 48.8609V48.8625Z" fill="white" stroke="#333333" stroke-width="1.13886" stroke-linecap="round" stroke-linejoin="round"/>
<path d="M29.3769 10.3924C27.3226 10.5211 25.7045 9.56032 25.7045 9.56032C25.418 11.439 26.6937 12.7575 27.6957 13.4844C27.652 13.6188 26.96 14.2623 26.9203 14.4031C25.2027 20.4535 29.9467 24.7904 29.9467 24.7904L35.709 9.45348C35.709 9.45348 31.5745 5.68643 29.3769 10.3924Z" fill="#333333" stroke="#333333" stroke-width="1.13886" stroke-linecap="round" stroke-linejoin="round"/>
<path d="M28.8135 17.432C27.8811 20.388 28.1716 26.0863 28.0713 30.3698C27.8195 41.1254 33.2694 43.3343 38.4675 43.6945C44.577 44.1178 48.3173 41.8539 51.3397 35.1462C52.8388 31.8178 53.8959 25.6638 53.2168 21.5422C52.5376 17.4207 45.8632 10.0986 39.6136 11.1193C33.3641 12.14 30.4979 12.0914 28.8127 17.4328L28.8135 17.432Z" fill="white" stroke="#333333" stroke-width="1.13886" stroke-linecap="round" stroke-linejoin="round"/>
<path d="M53.1076 28.9711C53.1076 28.9711 60.5284 19.2199 52.5993 11.2633C47.3267 5.97215 34.5864 5.94463 33.5673 10.6198C33.4322 11.2407 37.2559 12.0371 39.7683 18.863C39.7683 18.863 41.1298 18.0665 41.3993 16.077C41.3993 16.077 43.3152 18.8581 46.3546 19.9063C49.946 21.1456 52.099 24.0967 52.2399 24.8835C52.3807 25.6702 52.541 29.9982 52.541 29.9982C52.541 29.9982 52.9206 28.0564 53.8951 28.419C54.8697 28.7808 53.1084 28.9711 53.1084 28.9711" fill="#333333"/>
<path d="M53.1076 28.971C53.1076 28.971 60.5284 19.22 52.5993 11.2633C47.3267 5.97215 34.5864 5.94463 33.5673 10.6198C33.4322 11.2407 37.2559 12.0371 39.7683 18.863C39.7683 18.863 41.1298 18.0665 41.3993 16.077C41.3993 16.077 43.3152 18.8581 46.3546 19.9063C49.946 21.1456 52.099 24.0967 52.2399 24.8835C52.3807 25.6702 52.541 29.9982 52.541 29.9982C52.541 29.9982 52.9206 28.0564 53.8951 28.419C54.8697 28.7808 53.1084 28.971 53.1084 28.971" stroke="#333333" stroke-width="1.13886" stroke-linecap="round" stroke-linejoin="round"/>
<path d="M51.7881 28.3437C53.8934 27.8459 56.0618 29.0381 55.6943 30.9403C55.3269 32.8424 53.0394 34.4297 50.9528 33.7142" fill="white"/>
<path d="M51.7881 28.3437C53.8934 27.8459 56.0618 29.0381 55.6943 30.9403C55.3269 32.8424 53.0394 34.4297 50.9528 33.7142" stroke="#333333" stroke-width="1.13886" stroke-linecap="round" stroke-linejoin="round"/>
<path d="M37.2057 27.0284C35.5447 29.3304 34.6074 29.897 34.6074 29.897L37.0794 31.8235" fill="white"/>
<path d="M37.2057 27.0284C35.5447 29.3304 34.6074 29.897 34.6074 29.897L37.0794 31.8235" stroke="#333333" stroke-width="0.948642" stroke-linecap="round" stroke-linejoin="round"/>
<path d="M51.8966 31.7514C52.1742 31.014 52.7732 30.8108 53.254 30.6732L51.8966 31.7514Z" fill="white"/>
<path d="M51.8966 31.7514C52.1742 31.014 52.7732 30.8108 53.254 30.6732" stroke="#333333" stroke-width="1.13886" stroke-linecap="round" stroke-linejoin="round"/>
<path d="M45.4092 11.0632C47.2717 14.5462 49.0637 16.0234 50.2908 16.6499" stroke="white" stroke-width="0.791614" stroke-linecap="round" stroke-linejoin="round"/>
<path d="M42.9735 11.4075C44.7194 14.9503 46.4621 16.4858 47.6673 17.1527" stroke="white" stroke-width="0.791614" stroke-linecap="round" stroke-linejoin="round"/>
<path d="M37.5812 24.075V26.0079C37.5812 27.0706 36.3007 27.9407 34.7353 27.9407H32.2245C30.659 27.9407 29.3785 27.0706 29.3785 26.0079V24.075" fill="white"/>
<path d="M37.5812 24.075V26.0079C37.5812 27.0706 36.3007 27.9407 34.7353 27.9407H32.2245C30.659 27.9407 29.3785 27.0706 29.3785 26.0079V24.075" stroke="#333333" stroke-width="0.715529" stroke-linecap="round" stroke-linejoin="round"/>
<path d="M49.1914 24.075V26.0079C49.1914 27.0706 47.9109 27.9407 46.3455 27.9407H43.8347C42.2693 27.9407 40.9888 27.0706 40.9888 26.0079V24.075" fill="white"/>
<path d="M49.1914 24.075V26.0079C49.1914 27.0706 47.9109 27.9407 46.3455 27.9407H43.8347C42.2693 27.9407 40.9888 27.0706 40.9888 26.0079V24.075" stroke="#333333" stroke-width="0.715529" stroke-linecap="round" stroke-linejoin="round"/>
<path d="M53.1034 25.1982H49.3177" stroke="#333333" stroke-width="0.715529" stroke-linecap="round" stroke-linejoin="round"/>
<path d="M40.9248 25.1982H37.7705" stroke="#333333" stroke-width="0.715529" stroke-linecap="round" stroke-linejoin="round"/>
<path d="M29.1414 25.1482H27.8698" stroke="#333333" stroke-width="0.715529" stroke-linecap="round" stroke-linejoin="round"/>
<path d="M31.2547 74.5504C34.4122 74.378 35.6928 76.5562 35.9178 75.8795C36.1436 75.2028 37.4597 71.2536 37.4597 71.2536C33.398 68.0945 32.4996 67.0859 29.5994 66.6278C27.8624 66.3534 26.7414 66.5274 25.1371 67.3045C25.49 68.797 27.0425 74.1489 27.0425 74.1489C27.0425 74.1489 29.8754 74.6257 31.2547 74.5504Z" fill="white" stroke="#333333" stroke-width="1.13886" stroke-linecap="round" stroke-linejoin="round"/>
<path d="M50.1838 65.0485C50.1838 65.0485 53.1423 63.6191 55.3989 63.9202C57.6556 64.2213 59.9867 64.3338 59.4226 65.7633C59.1951 66.3404 56.677 65.9891 56.677 65.9891C56.677 65.9891 60.9143 66.8293 60.1867 67.9074C59.4719 68.9678 56.1881 68.2458 56.1881 68.2458C56.1881 68.2458 59.6087 69.714 58.9839 70.4644C57.981 71.668 54.8348 70.5769 55.0598 70.5016C55.0598 70.5016 58.3064 72.0687 57.6548 72.7453C56.7321 73.7037 54.9975 72.9582 53.6935 72.7202C52.4842 72.4993 50.1337 73.2464 49.6067 73.6227C49.0806 73.9991 42.6117 71.6672 42.6117 71.6672C42.6117 71.6672 46.6734 66.6026 50.183 65.0485H50.1838Z" fill="white" stroke="#333333" stroke-width="1.13886" stroke-linecap="round" stroke-linejoin="round"/>
<path d="M24.4103 75.1647L28.0592 74.3739" stroke="#333333" stroke-width="1.13886" stroke-linecap="round" stroke-linejoin="round"/>
<path d="M35.8806 38.1968C37.6856 36.956 41.1831 37.1818 42.8756 38.1968H35.8806Z" fill="white"/>
<path d="M35.8806 38.1968C37.6856 36.956 41.1831 37.1818 42.8756 38.1968" stroke="#333333" stroke-width="1.13886" stroke-linecap="round" stroke-linejoin="round"/>
<path d="M31.9064 24.6584C32.6583 26.0879 34.2383 25.9373 35.0655 24.6584H31.9064Z" fill="white"/>
<path d="M31.9064 24.6584C32.6583 26.0879 34.2383 25.9373 35.0655 24.6584" stroke="#333333" stroke-width="1.13886" stroke-linecap="round" stroke-linejoin="round"/>
<path d="M43.49 24.6584C44.2419 26.0879 45.8219 25.9373 46.6492 24.6584H43.49Z" fill="white"/>
<path d="M43.49 24.6584C44.2419 26.0879 45.8219 25.9373 46.6492 24.6584" stroke="#333333" stroke-width="1.13886" stroke-linecap="round" stroke-linejoin="round"/>
<path d="M31.8561 18.6411L34.188 18.5658" stroke="#333333" stroke-width="0.791614" stroke-linecap="round" stroke-linejoin="round"/>
<path d="M46.8239 32.9695C46.3723 33.9845 45.9967 36.6928 47.3501 36.6928C49.682 36.6928 48.102 32.9323 48.102 32.9323" fill="white"/>
<path d="M46.8239 32.9695C46.3723 33.9845 45.9967 36.6928 47.3501 36.6928C49.682 36.6928 48.102 32.9323 48.102 32.9323" stroke="#333333" stroke-width="0.791614" stroke-linecap="round" stroke-linejoin="round"/>
<path d="M23.5078 61.3633L27.0426 74.1497" stroke="#333333" stroke-width="1.13886" stroke-linecap="round" stroke-linejoin="round"/>
<path d="M55.1917 70.5017C54.3265 70.0128 52.7287 70.0128 51.1487 70.05L55.1917 70.5017Z" fill="white"/>
<path d="M55.1917 70.5017C54.3265 70.0128 52.7287 70.0128 51.1487 70.05" stroke="#333333" stroke-width="1.13886" stroke-linecap="round" stroke-linejoin="round"/>
<path d="M55.9251 68.1698C54.7215 67.6185 52.2204 67.6242 51.3373 67.7561L55.9251 68.1698Z" fill="white"/>
<path d="M55.9251 68.1698C54.7215 67.6185 52.2204 67.6242 51.3373 67.7561" stroke="#333333" stroke-width="1.13886" stroke-linecap="round" stroke-linejoin="round"/>
<path d="M56.4512 65.9138C55.5487 65.7131 53.2734 65.8386 52.3142 65.8952L56.4512 65.9138Z" fill="white"/>
<path d="M56.4512 65.9138C55.5487 65.7131 53.2734 65.8386 52.3142 65.8952" stroke="#333333" stroke-width="1.13886" stroke-linecap="round" stroke-linejoin="round"/>
<path d="M38.5007 70.3139L35.6418 68.9597L32.6833 77.6343L35.3917 78.4866" fill="white"/>
<path d="M38.5007 70.3139L35.6418 68.9597L32.6833 77.6343L35.3917 78.4866" stroke="#333333" stroke-width="1.13886" stroke-linecap="round" stroke-linejoin="round"/>
<path d="M53.067 74.2251C52.6154 74.4509 38.3 69.2488 37.8483 69.3613C37.3966 69.4738 34.2383 79.4402 34.2383 79.4402C34.2383 79.4402 57.3546 89.2472 60.6635 84.4546" fill="#95B5A1"/>
<path d="M53.067 74.2251C52.6154 74.4509 38.3 69.2488 37.8483 69.3613C37.3966 69.4738 34.2383 79.4402 34.2383 79.4402C34.2383 79.4402 57.3546 89.2472 60.6635 84.4546" stroke="#333333" stroke-width="1.13886" stroke-linecap="round" stroke-linejoin="round"/>
<path d="M37.2469 79.0136C37.5379 79.0136 37.7738 78.7777 37.7738 78.4867C37.7738 78.1956 37.5379 77.9597 37.2469 77.9597C36.9559 77.9597 36.72 78.1956 36.72 78.4867C36.72 78.7777 36.9559 79.0136 37.2469 79.0136Z" fill="#333333"/>
<path d="M39.9294 79.2895C39.9294 79.5801 39.6938 79.8164 39.4024 79.8164C39.111 79.8164 38.8755 79.5809 38.8755 79.2895C38.8755 78.9981 39.111 78.7626 39.4024 78.7626C39.6938 78.7626 39.9294 78.9981 39.9294 79.2895Z" fill="#333333"/>
<path d="M53.8943 63.5439C54.1201 63.3934 55.0979 60.6106 55.0979 60.6106L53.8943 63.5439Z" fill="#95B5A1"/>
<path d="M53.8943 63.5439C54.1201 63.3934 55.0979 60.6106 55.0979 60.6106" stroke="#333333" stroke-width="1.13886" stroke-linecap="round" stroke-linejoin="round"/>
<path d="M20.1601 38.2148C20.1601 38.2148 14.9051 40.8829 14.5586 38.634C14.2131 36.386 19.1655 36.4739 19.1655 36.4739" fill="white"/>
<path d="M20.1601 38.2148C20.1601 38.2148 14.9051 40.8829 14.5586 38.634C14.2131 36.386 19.1655 36.4739 19.1655 36.4739" stroke="#333333" stroke-width="1.16634" stroke-linecap="round" stroke-linejoin="round"/>
<path d="M15.4008 31.6767C15.4008 31.6767 9.59537 32.6934 9.92172 30.4422C10.2481 28.191 14.9587 29.7217 14.9587 29.7217" fill="white"/>
<path d="M15.4008 31.6767C15.4008 31.6767 9.59537 32.6934 9.92172 30.4422C10.2481 28.191 14.9587 29.7217 14.9587 29.7217" stroke="#333333" stroke-width="1.16634" stroke-linecap="round" stroke-linejoin="round"/>
<path d="M18.22 25.2793C18.22 25.2793 12.8404 22.8742 14.3701 21.1905C15.8997 19.5069 18.9481 23.4107 18.9481 23.4107" fill="white"/>
<path d="M18.22 25.2793C18.22 25.2793 12.8404 22.8742 14.3701 21.1905C15.8997 19.5069 18.9481 23.4107 18.9481 23.4107" stroke="#333333" stroke-width="1.16634" stroke-linecap="round" stroke-linejoin="round"/>
</g>
</svg>
