<svg width="80" height="80" viewBox="0 0 80 80" fill="none" xmlns="http://www.w3.org/2000/svg">
<circle cx="40" cy="40" r="40" fill="#CBCBCB"/>
<mask id="mask0_99_470" style="mask-type:luminance" maskUnits="userSpaceOnUse" x="0" y="0" width="80" height="80">
<path d="M0 40C0 62.0914 17.9086 80 40 80C62.0914 80 80 62.0914 80 40C80 17.9086 62.0914 0 40 0C17.9086 0 0 17.9086 0 40Z" fill="white"/>
</mask>
<g mask="url(#mask0_99_470)">
<path d="M50.5888 32.2676C51.8957 32.6025 52.0263 35.1441 52.0263 35.1441C52.0263 35.1441 54.0677 33.4122 55.3959 34.8283C56.975 36.5127 55.7117 38.3032 55.7117 38.3032C55.7117 38.3032 57.5014 37.3557 57.9225 40.6192C58.3436 43.8836 54.4476 44.5152 54.4476 44.5152C54.4476 44.5152 55.0793 47.1471 51.7104 47.6743C48.3408 48.2007 47.1828 45.3582 47.1828 45.3582C47.1828 45.3582 45.7928 45.6756 43.7079 43.6738C41.6238 41.672 42.0235 39.1462 42.0235 39.1462C42.0235 39.1462 39.9853 35.5723 42.6551 34.6185C44.129 34.0922 45.6029 35.2502 45.6029 35.2502C45.6029 35.2502 47.9917 31.6027 50.588 32.2684L50.5888 32.2676Z" fill="#333333" stroke="#333333" stroke-width="1.11529" stroke-linecap="round" stroke-linejoin="round"/>
<path d="M52.3421 37.3558C53.1843 38.0928 52.9737 39.2508 52.2368 39.8824L52.3421 37.3558Z" fill="#95B5A1"/>
<path d="M52.3421 37.3558C53.1843 38.0928 52.9737 39.2508 52.2368 39.8824" stroke="white" stroke-width="1.11529" stroke-linecap="round" stroke-linejoin="round"/>
<path d="M50.6965 91.1991C47.7527 61.342 47.2865 49.6319 48.868 41.9325C45.6813 42.2254 39.0362 41.7766 34.9384 42.143C32.7181 52.301 34.9305 69.7419 36.5856 91.1999H50.6965V91.1991Z" fill="#95B5A1" stroke="#333333" stroke-width="1.11529" stroke-linecap="round" stroke-linejoin="round"/>
<path d="M41.7362 28.933C41.7362 28.933 43.3082 36.9149 45.5538 39.1835C47.6973 41.3484 49.0414 41.5613 49.0414 41.5613C49.0414 41.5613 52.1585 46.2766 49.8202 49.2377C47.8651 51.7137 41.3721 52.3137 39.5848 52.3525C37.9866 52.3873 32.825 52.168 31.7967 51.1287C29.529 48.8364 32.5408 42.5974 32.5408 42.5974C32.5408 42.5974 34.9653 44.889 35.7402 40.5014C36.4914 36.25 33.6759 32.7316 33.6759 32.7316" fill="white"/>
<path d="M41.7362 28.933C41.7362 28.933 43.3082 36.9149 45.5538 39.1835C47.6973 41.3484 49.0414 41.5613 49.0414 41.5613C49.0414 41.5613 52.1585 46.2766 49.8202 49.2377C47.8651 51.7137 41.3721 52.3137 39.5848 52.3525C37.9866 52.3873 32.825 52.168 31.7967 51.1287C29.529 48.8364 32.5408 42.5974 32.5408 42.5974C32.5408 42.5974 34.9653 44.889 35.7402 40.5014C36.4914 36.25 33.6759 32.7316 33.6759 32.7316" stroke="#333333" stroke-width="1.11529" stroke-linecap="round" stroke-linejoin="round"/>
<path d="M28.0518 69.1767C28.3653 70.3197 31.9241 76.2025 33.1431 81.9222C33.9956 85.9203 32.6159 90.4408 32.8059 91.1991H42.1667C42.0274 86.601 40.9905 79.9956 38.6245 73.3205C34.6581 62.128 33.8064 50.3537 34.4024 45.1343C34.5599 43.7546 34.643 43.2805 35.2953 41.6974C33.0465 42.7216 26.9801 42.6314 24.5413 46.586C21.797 51.0361 27.5413 67.3134 28.0518 69.1759V69.1767Z" fill="white" stroke="#333333" stroke-width="1.11529" stroke-linecap="round" stroke-linejoin="round"/>
<path d="M21.6095 31.3567C20.2504 29.5512 17.3462 25.2214 17.3003 22.0157C17.2117 15.9128 21.8264 13.63 24.4567 12.825C27.7757 8.87996 36.5452 6.07393 43.8195 9.63193C46.0105 10.7037 49.1862 13.1915 51.0471 18.8376C52.912 24.4972 52.1173 27.9167 50.5904 32.267C49.3904 35.6849 45.3717 41.289 41.6261 41.6698C38.9942 41.9373 23.8567 33.9862 21.6111 31.3559L21.6095 31.3567Z" fill="#333333" stroke="#333333" stroke-width="1.11529" stroke-linecap="round" stroke-linejoin="round"/>
<path d="M66.3279 91.1991C66.3279 91.1991 61.3522 82.6393 60.7197 77.7056C60.4839 75.8645 61.9245 69.8266 62.1857 66.0992C63.7442 59.0132 65.1762 52.908 64.6838 49.7909C63.5567 42.6544 58.7805 40.9359 55.9135 41.1045C53.1304 41.1892 50.6038 41.7932 49.3136 41.5359C44.3593 47.767 44.0941 82.8546 45.5403 91.1983H66.3286L66.3279 91.1991Z" fill="white" stroke="#333333" stroke-width="1.11529" stroke-linecap="round" stroke-linejoin="round"/>
<path d="M23.1697 34.4365C22.3267 30.1075 20.3494 27.1218 20.3035 23.9319C20.2663 21.3364 20.8996 18.9301 23.3763 15.6705C24.8818 18.7552 26.2005 21.0618 30.9459 24.425C38.9136 30.0711 46.0818 27.2746 47.7939 27.915C47.8414 30.0007 47.9633 31.7856 47.6008 33.2587C46.2544 38.7235 42.3418 45.1952 36.8302 46.0311C32.7363 46.6517 29.2393 44.6609 26.3929 41.6372C24.6855 39.823 23.6502 36.9061 23.1697 34.4373V34.4365Z" fill="white" stroke="#333333" stroke-width="1.11529" stroke-linecap="round" stroke-linejoin="round"/>
<path d="M32.718 17.2062C34.9185 19.7051 39.3512 22.223 42.135 22.2982" stroke="white" stroke-width="1.11529" stroke-linecap="round" stroke-linejoin="round"/>
<path d="M35.9904 14.8538C37.6083 16.8477 40.6185 18.8788 42.8808 18.9128" stroke="white" stroke-width="1.11529" stroke-linecap="round" stroke-linejoin="round"/>
<path d="M28.955 35.3041C28.6265 37.1365 27.4819 39.3204 27.4819 39.3204L30.474 40.1816" fill="white"/>
<path d="M28.955 35.3041C28.6265 37.1365 27.4819 39.3204 27.4819 39.3204L30.474 40.1816" stroke="#333333" stroke-width="1.11529" stroke-linecap="round" stroke-linejoin="round"/>
<path d="M45.9147 33.9799C48.0123 33.7686 49.5511 31.99 49.3508 30.0056C49.1513 28.0212 46.8155 26.2631 45.2007 27.6183C44.425 28.2689 44.311 29.0375 44.311 29.0375" fill="white"/>
<path d="M45.9147 33.9799C48.0123 33.7686 49.5511 31.99 49.3508 30.0056C49.1513 28.0212 46.8155 26.2631 45.2007 27.6183C44.425 28.2689 44.311 29.0375 44.311 29.0375" stroke="#333333" stroke-width="1.11529" stroke-linecap="round" stroke-linejoin="round"/>
<path d="M36.1019 31.2221C36.371 31.7319 36.1763 32.3636 35.6666 32.6327C35.1568 32.9018 34.5252 32.7071 34.256 32.1973C33.9869 31.6876 34.1816 31.0559 34.6914 30.7868C35.2011 30.5177 35.8328 30.7124 36.1019 31.2221Z" fill="#333333"/>
<path d="M24.7915 33.8484C24.9165 34.4112 25.4746 34.7658 26.0373 34.6408C26.6001 34.5157 26.9547 33.9577 26.8297 33.3957C26.7046 32.8329 26.1466 32.4783 25.5838 32.6033C25.021 32.7284 24.6664 33.2857 24.7915 33.8484Z" fill="#333333"/>
<path d="M46.1316 31.5529C46.2456 30.7844 46.4989 30.011 46.7704 29.7933L46.1316 31.5529Z" fill="white"/>
<path d="M46.1316 31.5529C46.2456 30.7844 46.4989 30.011 46.7704 29.7933" stroke="#333333" stroke-width="1.11529" stroke-linecap="round" stroke-linejoin="round"/>
<path d="M32.5415 42.5974C32.6127 41.5977 35.7417 41.004 36.5816 41.6721L32.5415 42.5974Z" fill="white"/>
<path d="M32.5415 42.5974C32.6127 41.5977 35.7417 41.004 36.5816 41.6721" stroke="#333333" stroke-width="1.11529" stroke-linecap="round" stroke-linejoin="round"/>
<path d="M22.6859 28.792C23.5717 28.4129 24.5833 27.3862 25.0471 26.1213L22.6859 28.792Z" fill="white"/>
<path d="M22.6859 28.792C23.5717 28.4129 24.5833 27.3862 25.0471 26.1213" stroke="#333333" stroke-width="1.11529" stroke-linecap="round" stroke-linejoin="round"/>
<path d="M32.2994 67.1218L47.7749 60.3327C47.7749 60.3327 47.6063 62.6939 48.1121 64.7179C48.6179 66.7419 49.9255 69.2717 49.9255 69.2717C46.6588 72.0136 27.1915 83.7016 22.1802 81.2889C19.4858 79.9924 19.018 73.413 20.5782 69.9461C22.4755 65.7295 23.909 48.1033 23.909 48.1033C24.0776 47.429 24.5414 46.6699 24.8367 46.2899" fill="white"/>
<path d="M32.2994 67.1218L47.7749 60.3327C47.7749 60.3327 47.6063 62.6939 48.1121 64.7179C48.6179 66.7419 49.9255 69.2717 49.9255 69.2717C46.6588 72.0136 27.1915 83.7016 22.1802 81.2889C19.4858 79.9924 19.018 73.413 20.5782 69.9461C22.4755 65.7295 23.909 48.1033 23.909 48.1033C24.0776 47.429 24.5414 46.6699 24.8367 46.2899" stroke="#333333" stroke-width="1.11529" stroke-linecap="round" stroke-linejoin="round"/>
<path d="M52.16 58.8993L47.7328 61.5557C47.7328 61.5557 47.0956 63.2742 47.7748 65.4351C48.2386 66.9113 49.293 68.2601 49.293 68.2601L55.323 64.2122" fill="white"/>
<path d="M52.16 58.8993L47.7328 61.5557C47.7328 61.5557 47.0956 63.2742 47.7748 65.4351C48.2386 66.9113 49.293 68.2601 49.293 68.2601L55.323 64.2122" stroke="#333333" stroke-width="1.11529" stroke-linecap="round" stroke-linejoin="round"/>
<path d="M50.7684 60.0377C50.7684 60.0377 51.6542 57.0013 52.5391 55.9897C53.4249 54.9773 55.828 54.0924 57.0929 52.8275C58.3578 51.5626 59.4121 52.0264 59.4121 53.038C59.4121 54.0496 57.81 55.9478 57.81 55.9478C57.81 55.9478 59.2768 55.2559 60.9794 54.8554C62.682 54.4549 64.6403 54.8649 64.8303 55.4974C65.2094 56.7623 63.3556 56.638 63.7981 56.7488C64.3039 56.8754 65.7374 57.2126 65.3582 58.0984C64.9791 58.9841 63.2923 59.1527 63.2923 59.1527C63.2923 59.1527 65.8648 59.3213 65.4429 60.5443C65.1453 61.4063 62.6179 61.472 62.6179 61.472C62.6179 61.472 65.5419 60.9028 64.8667 62.2722C64.3126 63.3954 61.0158 64.4664 61.0158 64.4664C61.0158 64.4664 59.7509 65.0988 57.4736 65.2255C55.1963 65.3521 53.9734 65.1835 53.9734 65.1835" fill="white"/>
<path d="M50.7684 60.0377C50.7684 60.0377 51.6542 57.0013 52.5391 55.9897C53.4249 54.9773 55.828 54.0924 57.0929 52.8275C58.3578 51.5626 59.4121 52.0264 59.4121 53.038C59.4121 54.0496 57.81 55.9478 57.81 55.9478C57.81 55.9478 59.2768 55.2559 60.9794 54.8554C62.682 54.4549 64.6403 54.8649 64.8303 55.4974C65.2094 56.7623 63.3556 56.638 63.7981 56.7488C64.3039 56.8754 65.7374 57.2126 65.3582 58.0984C64.9791 58.9841 63.2923 59.1527 63.2923 59.1527C63.2923 59.1527 65.8648 59.3213 65.4429 60.5443C65.1453 61.4063 62.6179 61.472 62.6179 61.472C62.6179 61.472 65.5419 60.9028 64.8667 62.2722C64.3126 63.3954 61.0158 64.4664 61.0158 64.4664C61.0158 64.4664 59.7509 65.0988 57.4736 65.2255C55.1963 65.3521 53.9734 65.1835 53.9734 65.1835" stroke="#333333" stroke-width="1.11529" stroke-linecap="round" stroke-linejoin="round"/>
<path d="M63.7981 56.7488C63.7981 56.7488 60.9185 56.991 60.1602 57.2443L63.7981 56.7488Z" fill="white"/>
<path d="M63.7981 56.7488C63.7981 56.7488 60.9185 56.991 60.1602 57.2443" stroke="#333333" stroke-width="1.11529" stroke-linecap="round" stroke-linejoin="round"/>
<path d="M60.256 59.3631C60.256 59.3631 62.4905 59.2784 63.2924 59.1526L60.256 59.3631Z" fill="white"/>
<path d="M60.256 59.3631C60.256 59.3631 62.4905 59.2784 63.2924 59.1526" stroke="#333333" stroke-width="1.11529" stroke-linecap="round" stroke-linejoin="round"/>
<path d="M60.4807 61.5225C60.4807 61.5225 61.9427 61.5558 62.6171 61.4711L60.4807 61.5225Z" fill="white"/>
<path d="M60.4807 61.5225C60.4807 61.5225 61.9427 61.5558 62.6171 61.4711" stroke="#333333" stroke-width="1.11529" stroke-linecap="round" stroke-linejoin="round"/>
<path d="M30.7233 68.6298C30.7233 68.6298 28.6993 69.009 26.422 68.8831C24.1447 68.7565 22.8798 68.124 22.8798 68.124C22.8798 68.124 21.2192 67.7211 20.3334 66.8354C19.4477 65.9496 21.4883 65.3409 21.4883 65.3409C21.4883 65.3409 19.8055 65.0987 19.2997 64.3396C18.7939 63.5805 20.6026 62.8104 20.6026 62.8104C20.6026 62.8104 19.2514 62.7644 18.8715 61.8795C18.4923 60.9938 19.7627 60.5244 20.096 60.4072C20.5266 60.256 19.5965 60.0423 19.9764 58.7774C20.3556 57.5125 26.4212 60.0273 26.4212 60.0273C26.4212 60.0273 25.4088 57.75 25.4088 56.7384C25.4088 55.7268 25.7041 54.7564 26.969 56.0213C28.2339 57.2862 30.4692 58.6357 31.3541 59.6473C32.2399 60.6597 33.2934 64.5383 33.2934 64.5383" fill="white"/>
<path d="M30.7233 68.6298C30.7233 68.6298 28.6993 69.009 26.422 68.8831C24.1447 68.7565 22.8798 68.124 22.8798 68.124C22.8798 68.124 21.2192 67.7211 20.3334 66.8354C19.4477 65.9496 21.4883 65.3409 21.4883 65.3409C21.4883 65.3409 19.8055 65.0987 19.2997 64.3396C18.7939 63.5805 20.6026 62.8104 20.6026 62.8104C20.6026 62.8104 19.2514 62.7644 18.8715 61.8795C18.4923 60.9938 19.7627 60.5244 20.096 60.4072C20.5266 60.256 19.5965 60.0423 19.9764 58.7774C20.3556 57.5125 26.4212 60.0273 26.4212 60.0273C26.4212 60.0273 25.4088 57.75 25.4088 56.7384C25.4088 55.7268 25.7041 54.7564 26.969 56.0213C28.2339 57.2862 30.4692 58.6357 31.3541 59.6473C32.2399 60.6597 33.2934 64.5383 33.2934 64.5383" stroke="#333333" stroke-width="1.11529" stroke-linecap="round" stroke-linejoin="round"/>
<path d="M20.0967 60.4073L22.1207 60.7865" stroke="#333333" stroke-width="1.11529" stroke-linecap="round" stroke-linejoin="round"/>
<path d="M20.441 62.7352L22.4159 63.0637" stroke="#333333" stroke-width="1.11529" stroke-linecap="round" stroke-linejoin="round"/>
<path d="M21.4883 65.3411L22.7112 65.2983" stroke="#333333" stroke-width="1.11529" stroke-linecap="round" stroke-linejoin="round"/>
<path d="M53.0458 52.2788C53.0458 52.2788 51.7809 56.622 51.6962 57.4231L53.0458 52.2788Z" fill="white"/>
<path d="M53.0458 52.2788C53.0458 52.2788 51.7809 56.622 51.6962 57.4231" stroke="#333333" stroke-width="1.11529" stroke-linecap="round" stroke-linejoin="round"/>
<path d="M24.0775 69.7784L26.4221 68.8823" stroke="#333333" stroke-width="1.11529" stroke-linecap="round" stroke-linejoin="round"/>
<path d="M28.1675 53.3333L27.7456 56.1163" stroke="#333333" stroke-width="1.11529" stroke-linecap="round" stroke-linejoin="round"/>
<path d="M67.5682 41.6919C68.8569 41.8882 69.8178 43.3059 69.5218 44.5755C69.3239 45.4248 68.6622 46.2631 68.9835 47.0728C69.3611 48.0235 70.8706 48.2119 71.078 49.2132C71.2901 50.2374 69.9104 51.0701 70.083 52.1015C70.1867 52.7213 70.8072 53.1012 71.1429 53.6324C71.7072 54.5237 71.2766 55.878 70.3014 56.2793" stroke="#333333" stroke-width="1.11529" stroke-linecap="round" stroke-linejoin="round"/>
<path d="M72.0358 39.5887C73.1487 40.5323 73.7178 42.0766 73.4843 43.5164C73.3489 44.3491 72.9674 45.1921 73.197 46.0042C73.493 47.0514 74.7516 47.8042 74.5822 48.8791C74.4943 49.434 74.0265 49.8709 73.9371 50.4258C73.8547 50.9379 74.1112 51.4414 74.3954 51.8759C74.6795 52.3105 75.0088 52.7403 75.0998 53.2508C75.1909 53.7614 74.9384 54.382 74.4294 54.4864" stroke="#333333" stroke-width="1.11529" stroke-linecap="round" stroke-linejoin="round"/>
<path d="M16.2927 42.6909C15.5431 42.4186 14.6542 42.5737 14.0415 43.0843C13.4289 43.5948 13.1154 44.441 13.2484 45.2278C13.3363 45.7462 13.5943 46.3035 13.3418 46.7642C12.969 47.4433 11.8125 47.3024 11.4231 47.9713C11.1049 48.5174 11.5165 49.1895 11.9273 49.6699C12.3381 50.1504 12.7972 50.7646 12.5629 51.352C12.3294 51.9369 11.6677 52.0525 11.2569 52.4419C10.7709 52.9026 10.4645 53.5596 10.4091 54.2261C10.3474 54.9749 10.6023 55.7458 11.0994 56.3094" stroke="#333333" stroke-width="1.11529" stroke-linecap="round" stroke-linejoin="round"/>
<path d="M18.4844 44.7702C17.4332 44.3816 16.1248 45.2087 16.0258 46.3248C15.9419 47.2683 16.5483 48.3678 15.9261 49.0826C15.6958 49.3477 15.3491 49.4728 15.0459 49.6509C14.7435 49.8298 14.453 50.1242 14.4815 50.4741C14.5132 50.8635 14.9105 51.1097 15.0934 51.4556C15.7805 52.7601 13.781 53.8255 13.6116 55.0168C13.5079 55.7426 13.7486 56.5104 14.2464 57.0479" stroke="#333333" stroke-width="1.11529" stroke-linecap="round" stroke-linejoin="round"/>
<path d="M62.0694 66.8266C62.0694 66.8266 57.6842 83.3557 51.5275 83.3557C47.9656 83.3557 29.7695 72.5613 29.1371 71.9281C28.5046 71.2957 29.5162 66.9944 31.0344 65.477C32.5526 63.9588 33.8175 63.7063 33.8175 63.7063L46.13 70.4107L49.6722 68.8506" fill="white"/>
<path d="M62.0694 66.8266C62.0694 66.8266 57.6842 83.3557 51.5275 83.3557C47.9656 83.3557 29.7695 72.5613 29.1371 71.9281C28.5046 71.2957 29.5162 66.9944 31.0344 65.477C32.5526 63.9588 33.8175 63.7063 33.8175 63.7063L46.13 70.4107L49.6722 68.8506" stroke="#333333" stroke-width="1.11529" stroke-linecap="round" stroke-linejoin="round"/>
<path d="M46.13 70.4108C46.13 70.4108 49.0397 71.7604 49.9247 71.929L46.13 70.4108Z" fill="white"/>
<path d="M46.13 70.4108C46.13 70.4108 49.0397 71.7604 49.9247 71.929" stroke="#333333" stroke-width="1.11529" stroke-linecap="round" stroke-linejoin="round"/>
<path d="M48.7025 71.2966C48.7025 71.2966 49.5883 68.303 49.8408 67.8811L48.7025 71.2966Z" fill="white"/>
<path d="M48.7025 71.2966C48.7025 71.2966 49.5883 68.303 49.8408 67.8811" stroke="#333333" stroke-width="1.11529" stroke-linecap="round" stroke-linejoin="round"/>
</g>
</svg>
