<svg width="80" height="80" viewBox="0 0 80 80" fill="none" xmlns="http://www.w3.org/2000/svg">
<circle cx="40" cy="40" r="40" fill="#CBCBCB"/>
<mask id="mask0_99_361" style="mask-type:luminance" maskUnits="userSpaceOnUse" x="0" y="0" width="80" height="80">
<path d="M0 40C0 62.0914 17.9086 80 40 80C62.0914 80 80 62.0914 80 40C80 17.9086 62.0914 0 40 0C17.9086 0 0 17.9086 0 40Z" fill="white"/>
</mask>
<g mask="url(#mask0_99_361)">
<mask id="mask1_99_361" style="mask-type:luminance" maskUnits="userSpaceOnUse" x="-8" y="4" width="86" height="110">
<path d="M77.5794 4.80005H-8V113.6H77.5794V4.80005Z" fill="white"/>
</mask>
<g mask="url(#mask1_99_361)">
<path d="M29.7765 33.0531C30.4691 30.9039 32.0628 26.5396 33.144 23.8141C32.5302 21.5738 32.2749 18.6633 33.4462 15.584C35.6762 9.72088 40.9508 9.29008 43.7693 9.51909C48.4367 7.00942 57.2581 7.55471 62.6003 13.9368C63.2516 14.7149 66.7815 19.5343 66.8894 25.3486C66.9692 29.68 66.6895 33.1648 65.812 37.8219C64.0522 47.1595 59.5838 48.2397 55.8606 47.1829C53.2448 46.4405 49.9168 45.1866 47.9336 45.0571C45.0082 44.8647 44.0734 45.3246 40.7434 44.9924C38.0498 44.7239 35.3618 44.0651 32.9037 42.4611C30.0956 40.6281 28.7347 36.2967 29.7793 33.0541L29.7765 33.0531Z" fill="#333333" stroke="#333333" stroke-width="0.995797" stroke-linecap="round" stroke-linejoin="round"/>
<path d="M51.7385 102.084C51.5348 99.4213 50.6263 94.2509 50.5193 90.3587C50.0585 73.6451 52.2097 59.1408 55.3895 50.6488C52.1074 50.4386 44.8806 48.6019 40.6599 48.3203C37.757 58.1666 35.2445 82.3586 35.2445 82.3586C35.2445 82.3586 36.1718 93.6633 35.4585 101.301C39.3047 102.461 45.9946 103.282 51.7376 102.084H51.7385Z" fill="white" stroke="#333333" stroke-width="0.995797" stroke-linecap="round" stroke-linejoin="round"/>
<path d="M51.3753 37.5251C51.3753 37.5251 49.8568 45.4427 51.7751 48.1044C53.6062 50.6451 55.4965 50.921 55.4965 50.921C55.4965 50.921 57.0141 55.1473 54.1675 57.7808C51.7873 59.9836 45.9177 59.2759 44.096 59.031C42.4676 58.8123 37.7326 57.7255 36.8541 56.5063C34.917 53.8174 38.017 49.4972 38.017 49.4972C38.017 49.4972 40.8167 51.1378 42.3024 46.8064C43.7421 42.6092 42.8599 37.5805 42.8599 37.5805" fill="white"/>
<path d="M51.3753 37.5251C51.3753 37.5251 49.8568 45.4427 51.7751 48.1044C53.6062 50.6451 55.4965 50.921 55.4965 50.921C55.4965 50.921 57.0141 55.1473 54.1675 57.7808C51.7873 59.9836 45.9177 59.2759 44.096 59.031C42.4676 58.8123 37.7326 57.7255 36.8541 56.5063C34.917 53.8174 38.017 49.4972 38.017 49.4972C38.017 49.4972 40.8167 51.1378 42.3024 46.8064C43.7421 42.6092 42.8599 37.5805 42.8599 37.5805" stroke="#333333" stroke-width="0.995797" stroke-linecap="round" stroke-linejoin="round"/>
<path d="M36.5087 83.1413C36.5087 83.1413 36.5087 61.1652 39.6125 51.8877C40.0649 50.5343 41.2747 49.2626 41.7055 47.8013C40.3868 47.7131 38.6955 47.4324 38.3173 47.4024C34.2778 47.0871 30.7095 49.6465 29.4809 51.5883C29.4809 51.5883 16.5383 69.2142 16.2793 69.7145C12.5589 76.8896 12.5589 84.9076 16.2793 85.971C19.5943 86.918 27.0566 83.6828 29.6451 79.8301C29.6451 82.886 27.0961 108.264 26.7957 108.867C26.6024 109.254 30.8887 110.201 36.2581 110.323C35.8593 98.4959 36.5097 83.1413 36.5097 83.1413H36.5087Z" fill="#95B5A1" stroke="#333333" stroke-width="0.995797" stroke-linecap="round" stroke-linejoin="round"/>
<path d="M61.8664 52.4106C61.0602 51.8203 56.5279 50.8667 55.1173 50.541C51.9375 59.032 50.0576 73.6452 50.5184 90.3588C50.7577 99.0225 51.0553 107.729 51.5649 110.941C57.9104 111.429 65.7191 110.331 65.7191 110.331C65.7191 110.331 62.4182 90.8412 62.3009 90.3907C61.7547 86.2602 60.9776 75.618 63.231 66.6052C63.9274 63.8214 67.5746 56.5899 61.8654 52.4106H61.8664Z" fill="#95B5A1" stroke="#333333" stroke-width="0.995797" stroke-linecap="round" stroke-linejoin="round"/>
<path d="M35.4866 25.5887C33.3223 25.6864 31.5287 26.5874 31.6216 28.6343C31.7136 30.6822 33.5438 32.2627 35.708 32.1651" fill="white"/>
<path d="M35.4866 25.5887C33.3223 25.6864 31.5287 26.5874 31.6216 28.6343C31.7136 30.6822 33.5438 32.2627 35.708 32.1651" stroke="#333333" stroke-width="0.995797" stroke-linecap="round" stroke-linejoin="round"/>
<path d="M33.8338 29.9024C34.6701 25.4472 35.0793 21.5954 36.3341 18.5657C37.9616 14.6351 40.3107 12.9683 43.9786 12.1545C45.026 15.0828 47.6023 20.059 51.8474 24.2684C56.2951 28.6786 59.2975 31.4557 60.6903 32.7171C59.9442 34.7275 59.031 36.5492 58.1262 37.8181C54.7672 42.5278 48.9228 46.8291 43.636 45.6306C36.9949 44.1252 32.5612 36.6787 33.8338 29.9024Z" fill="white" stroke="#333333" stroke-width="0.995797" stroke-linecap="round" stroke-linejoin="round"/>
<path d="M52.3495 16.8491C53.503 20.0702 56.7832 24.1576 59.4139 25.2857" stroke="white" stroke-width="0.995797" stroke-linecap="round" stroke-linejoin="round"/>
<path d="M56.3674 15.843C57.1567 18.3611 59.2619 21.4433 61.4093 22.334" stroke="white" stroke-width="0.995797" stroke-linecap="round" stroke-linejoin="round"/>
<path d="M43.926 30.5715C41.528 33.1366 39.6707 33.4651 39.6707 33.4651L42.6665 35.7439" fill="white"/>
<path d="M43.926 30.5715C41.528 33.1366 39.6707 33.4651 39.6707 33.4651L42.6665 35.7439" stroke="#333333" stroke-width="0.995797" stroke-linecap="round" stroke-linejoin="round"/>
<path d="M59.0179 31.9972C61.1014 32.5913 62.6388 33.8809 62.0766 35.8518C61.5144 37.8227 59.3698 38.9387 57.2863 38.3446" fill="white"/>
<path d="M59.0179 31.9972C61.1014 32.5913 62.6388 33.8809 62.0766 35.8518C61.5144 37.8227 59.3698 38.9387 57.2863 38.3446" stroke="#333333" stroke-width="0.995797" stroke-linecap="round" stroke-linejoin="round"/>
<path d="M52.5605 31.3506C52.6244 31.94 52.1983 32.4694 51.6098 32.5332C51.0204 32.597 50.491 32.1709 50.4272 31.5825C50.3634 30.993 50.7895 30.4637 51.378 30.3999C51.9674 30.3361 52.4967 30.7622 52.5605 31.3506Z" fill="#333333"/>
<path d="M38.7499 28.4008C38.6561 28.9855 39.054 29.5364 39.6387 29.6303C40.2234 29.7242 40.7744 29.3262 40.8682 28.7415C40.9621 28.1568 40.5641 27.6059 39.9794 27.512C39.3947 27.4181 38.8438 27.8161 38.7499 28.4008Z" fill="#333333"/>
<path d="M55.5629 63.2143C55.6633 62.6504 55.2875 62.1119 54.7236 62.0115C54.1596 61.9112 53.6212 62.287 53.5208 62.8509C53.4205 63.4148 53.7963 63.9533 54.3602 64.0536C54.9241 64.154 55.4626 63.7782 55.5629 63.2143Z" fill="white"/>
<path d="M59.2674 39.1161C59.228 39.8698 58.5851 40.4489 57.8315 40.4104C57.0778 40.3719 56.4987 39.7281 56.5372 38.9744C56.5766 38.2208 57.2195 37.6417 57.9732 37.6802C58.7268 37.7196 59.3059 38.3625 59.2674 39.1161Z" fill="white" stroke="#333333" stroke-width="0.995797" stroke-linecap="round" stroke-linejoin="round"/>
<path d="M13.3885 68.6313L13.9911 76.2176C13.9911 76.2176 13.6513 78.4363 17.2422 78.0243C20.9148 77.6029 22.0588 74.4118 22.0588 74.4118L18.9279 66.4642" fill="white"/>
<path d="M13.3885 68.6313L13.9911 76.2176C13.9911 76.2176 13.6513 78.4363 17.2422 78.0243C20.9147 77.6029 22.0588 74.4118 22.0588 74.4118L18.9279 66.4642" stroke="#333333" stroke-width="0.995797" stroke-linecap="round" stroke-linejoin="round"/>
<path d="M29.6451 80.1915C29.585 78.0845 28.5244 76.2281 27.9594 73.6292C27.6582 72.2449 28.0195 70.318 28.3808 68.9928" fill="#95B5A1"/>
<path d="M29.6451 80.1915C29.585 78.0845 28.5244 76.2281 27.9594 73.6292C27.6582 72.2449 28.0195 70.318 28.3808 68.9928" stroke="#333333" stroke-width="0.995797" stroke-linecap="round" stroke-linejoin="round"/>
<path d="M57.6653 66.4006L32.1049 63.4771L19.1934 69.2698L44.7547 72.1933L57.6653 66.4006Z" fill="white" stroke="#333333" stroke-width="0.995797" stroke-linecap="round" stroke-linejoin="round"/>
<path d="M44.7547 72.1931L19.1935 69.2696L15.4045 54.434L40.9649 57.3575L44.7547 72.1931Z" fill="white" stroke="#333333" stroke-width="0.995797" stroke-linecap="round" stroke-linejoin="round"/>
<path d="M38.1504 67.6807C38.3484 67.7032 38.4235 67.7098 38.5352 67.7164C38.5492 67.8318 38.568 67.9238 38.6168 68.1143L38.9979 69.6056C39.0345 69.7502 39.0701 69.8675 39.1189 70.0008C38.9838 69.9773 38.9472 69.9736 38.7332 69.9492L38.049 69.8713C37.6257 69.8225 37.3235 69.5822 37.2315 69.2218C37.1893 69.0557 37.2081 68.9308 37.2832 68.8492C37.3273 68.8041 37.3676 68.7825 37.4643 68.7534C37.3282 68.7084 37.2522 68.668 37.1593 68.5911C37.0204 68.4747 36.9256 68.3208 36.8796 68.1406C36.7792 67.7483 36.9866 67.5465 37.4408 67.599L38.1513 67.6807H38.1504ZM38.1185 68.1134L37.6379 68.058C37.4737 68.0392 37.3986 68.1227 37.4399 68.2842C37.4802 68.4419 37.6032 68.546 37.7703 68.5657L38.248 68.6202L38.1185 68.1134ZM37.8998 69.004C37.7618 68.9881 37.697 69.0632 37.7308 69.1964C37.7646 69.3297 37.865 69.4151 38.0143 69.433L38.4685 69.4846L38.3597 69.0566L37.8998 69.004Z" fill="#333333"/>
<path d="M34.9742 67.3177C35.0287 67.451 35.0625 67.5232 35.1122 67.619L35.2417 67.8583L35.986 67.9437L35.9973 67.7203C36.0029 67.6152 36.0001 67.5326 35.9869 67.4331L36.5979 67.5026C36.5801 67.5796 36.5726 67.6424 36.5576 67.8208L36.4121 69.3975C36.3989 69.5261 36.3961 69.6049 36.4036 69.6819L35.7223 69.604C35.6838 69.5233 35.6472 69.4501 35.558 69.2999L34.5725 67.5946C34.4862 67.4444 34.4158 67.328 34.3623 67.2473L34.9733 67.3168L34.9742 67.3177ZM35.9438 69.177L35.9775 68.3867L35.4867 68.3304L35.9438 69.176V69.177Z" fill="#333333"/>
<path d="M33.2285 68.2372C33.1225 68.1115 33.0511 68.0186 32.9573 67.8909C32.9995 68.0176 33.0371 68.1434 33.0755 68.2964L33.2342 68.9177C33.2801 69.0979 33.313 69.2068 33.3609 69.3344L32.8043 69.2706C32.7883 69.1495 32.7649 69.0359 32.7198 68.8586L32.35 67.4113C32.3078 67.2452 32.2675 67.1185 32.2252 67.0031L32.7968 67.0687C32.87 67.1776 32.9563 67.2856 33.0812 67.4376L33.7588 68.2532C33.8574 68.3705 33.9221 68.4569 34.0329 68.6098C33.9887 68.486 33.9446 68.3348 33.9109 68.2016L33.755 67.5906C33.7072 67.4029 33.6715 67.2818 33.6255 67.1626L34.1821 67.2264C34.1933 67.3306 34.2187 67.4498 34.2703 67.6516L34.6363 69.0857C34.6767 69.2434 34.7133 69.3672 34.7612 69.494L34.1943 69.4292C34.1492 69.3522 34.0638 69.2368 33.9221 69.0669L33.2285 68.2363V68.2372Z" fill="#333333"/>
<path d="M30.2186 67.1645C30.0037 66.9073 29.9568 66.8538 29.8385 66.729L30.518 66.8069C30.5771 66.8979 30.6898 67.0519 30.7864 67.1739L31.3636 67.8966L31.557 67.6516L31.4697 67.3081C31.4265 67.1392 31.3984 67.0481 31.3458 66.9026L31.8995 66.9655C31.9193 67.1025 31.9399 67.203 31.9821 67.3663L32.3557 68.8276C32.3979 68.9937 32.4308 69.1007 32.4796 69.233L31.9258 69.1702C31.9052 69.0303 31.8873 68.9412 31.8432 68.7694L31.7203 68.287L31.3486 68.8079C31.2754 68.9083 31.2313 68.9928 31.1994 69.0876L30.4945 69.0069C30.5293 68.9627 30.5415 68.943 30.5687 68.9093C30.635 68.8254 30.6798 68.7688 30.7029 68.7394L31.0962 68.2053L30.2196 67.1654L30.2186 67.1645Z" fill="#333333"/>
<path d="M43.2192 66.8397L18.0465 63.9649L16.4641 57.5659L41.5571 60.5524L43.2192 66.8397Z" fill="#95B5A1"/>
<path d="M44.7547 72.1931L19.1935 69.2696L15.4045 54.434L40.9649 57.3575L44.7547 72.1931Z" stroke="#333333" stroke-width="0.995797" stroke-linecap="round" stroke-linejoin="round"/>
<path d="M13.7499 69.173C12.3046 67.4273 11.3013 63.9349 11.4017 61.0452C11.4317 60.1808 13.81 58.0766 15.7763 57.5359C17.7904 56.9831 20.2569 56.6209 19.9378 58.055C19.7538 58.8818 18.3573 58.9194 16.941 59.3595C15.9865 59.6561 14.3525 60.5637 14.3525 60.5637C14.3525 60.5637 19.8721 59.1746 20.1133 60.6679C20.2334 61.415 18.605 61.644 17.3633 62.0081C16.1216 62.3723 15.3136 63.1616 15.3136 63.1616C15.3136 63.1616 20.2888 61.0564 20.1931 62.3094C20.1508 62.8631 18.8988 63.5192 18.0475 63.965C16.972 64.5281 15.7772 65.5661 15.8579 65.5661C16.0024 65.5661 20.8791 63.8148 20.7346 65.2602C20.6529 66.0805 19.4554 66.6849 17.9049 67.2471" fill="white"/>
<path d="M13.7499 69.173C12.3046 67.4273 11.3013 63.9349 11.4017 61.0452C11.4317 60.1808 13.81 58.0766 15.7763 57.5359C17.7904 56.9831 20.2569 56.6209 19.9378 58.055C19.7538 58.8818 18.3573 58.9194 16.941 59.3595C15.9865 59.6561 14.3525 60.5637 14.3525 60.5637C14.3525 60.5637 19.8721 59.1746 20.1133 60.6679C20.2334 61.415 18.605 61.644 17.3633 62.0081C16.1216 62.3723 15.3136 63.1616 15.3136 63.1616C15.3136 63.1616 20.2888 61.0564 20.1931 62.3094C20.1508 62.8631 18.8988 63.5192 18.0475 63.965C16.972 64.5281 15.7772 65.5661 15.8579 65.5661C16.0024 65.5661 20.8791 63.8148 20.7346 65.2602C20.6529 66.0805 19.4554 66.6849 17.9049 67.2471" stroke="#333333" stroke-width="0.995797" stroke-linecap="round" stroke-linejoin="round"/>
<path d="M60.9531 77.3019C60.9531 77.3019 52.9397 70.0976 51.7178 68.473C51.6699 67.0755 51.3423 65.678 50.8703 63.951C50.5127 62.6436 47.8153 61.4874 46.1766 61.3428C44.3023 61.1776 41.2689 61.1439 41.1863 61.967C41.1056 62.7816 43.0925 63.4621 44.8758 63.7033C46.4581 63.9173 47.0917 65.0041 47.0917 65.0041C47.0917 65.0041 40.8381 63.722 40.6833 65.4621C40.6176 66.2054 42.4064 66.5752 43.9119 66.9309C44.7444 67.128 46.4891 67.5344 46.9237 67.7888C46.4413 67.8244 44.4037 67.4462 43.6237 67.4565C42.3445 67.4743 40.7809 67.4124 40.9733 68.2318C41.1394 68.9385 42.963 69.1525 44.1531 69.4847C45.3432 69.817 47.2484 70.4918 47.1649 70.4983C46.9988 70.5105 41.2877 69.6039 41.574 71.2576C41.7082 72.0329 43.3872 72.0601 44.8598 72.6007C45.4821 72.8287 45.5872 73.634 46.3577 73.8912C47.2052 74.1746 47.5656 74.0798 48.0443 74.0639C48.7679 75.4717 55.1059 83.1903 55.12 83.3818C55.1406 83.6699 56.3955 83.2588 58.785 81.637C60.098 80.7463 60.9521 77.3019 60.9521 77.3019H60.9531Z" fill="white" stroke="#333333" stroke-width="0.995797" stroke-linecap="round" stroke-linejoin="round"/>
<path d="M61.5556 52.2548C65.4093 54.0615 66.8537 56.5899 67.2151 59.2385C67.5764 61.888 67.6965 74.5311 68.0579 77.4209C68.4192 80.3107 70.9477 87.0542 67.9378 90.3053C64.987 93.4926 61.2544 91.3893 59.0272 89.3423C57.1295 87.5985 54.0905 82.8401 54.0905 82.8401C54.0905 82.8401 56.8601 82.2375 58.3055 80.673C59.7508 79.1075 59.6297 75.6152 59.6297 75.6152" fill="#95B5A1"/>
<path d="M61.5556 52.2548C65.4093 54.0615 66.8537 56.5899 67.2151 59.2385C67.5764 61.888 67.6965 74.5311 68.0579 77.4209C68.4192 80.3107 70.9477 87.0542 67.9378 90.3053C64.987 93.4926 61.2544 91.3893 59.0272 89.3423C57.1295 87.5985 54.0905 82.8401 54.0905 82.8401C54.0905 82.8401 56.8601 82.2375 58.3055 80.673C59.7508 79.1075 59.6297 75.6152 59.6297 75.6152" stroke="#333333" stroke-width="0.995797" stroke-linecap="round" stroke-linejoin="round"/>
<path d="M63.6027 76.5191L60.4116 75.1338" stroke="#333333" stroke-width="0.995797" stroke-linecap="round" stroke-linejoin="round"/>
<path d="M58.4848 68.4514C58.4848 68.4514 57.9432 73.0878 57.9432 73.8096L58.4848 68.4514Z" fill="#95B5A1"/>
<path d="M58.4848 68.4514C58.4848 68.4514 57.9432 73.0878 57.9432 73.8096" stroke="#333333" stroke-width="0.995797" stroke-linecap="round" stroke-linejoin="round"/>
<path d="M57.4608 35.8782C58.0634 34.9153 58.9062 34.9153 58.9062 34.9153L57.4608 35.8782Z" fill="#95B5A1"/>
<path d="M57.4608 35.8782C58.0634 34.9153 58.9062 34.9153 58.9062 34.9153" stroke="#333333" stroke-width="0.995797" stroke-linecap="round" stroke-linejoin="round"/>
<path d="M38.7537 18.9701L41.375 18.0963" stroke="#333333" stroke-width="0.844691" stroke-linecap="round" stroke-linejoin="round"/>
<path d="M53.8596 35.1996C53.8596 35.1996 51.7376 40.0688 53.2355 40.1936C54.7334 40.3184 54.8582 36.9481 54.8582 36.9481" stroke="#333333" stroke-width="0.844691" stroke-linecap="round" stroke-linejoin="round"/>
<path d="M13.6335 45.1096L13.9104 48.433" stroke="#333333" stroke-width="1.21636" stroke-linecap="round" stroke-linejoin="round"/>
<path d="M7.88501 47.4392L10.2914 50.3478" stroke="#333333" stroke-width="1.21636" stroke-linecap="round" stroke-linejoin="round"/>
<path d="M4.55591 52.4163L7.28989 53.6964" stroke="#333333" stroke-width="1.21636" stroke-linecap="round" stroke-linejoin="round"/>
<path d="M48.1157 41.4737C48.0612 42.0275 47.4915 42.3766 46.6778 42.2856C46.201 42.2321 45.6445 41.8426 45.0504 41.7478C44.3521 41.637 43.6125 41.8435 43.1329 41.7224C42.5097 41.5648 42.2488 41.0457 42.2976 40.5492C42.384 39.6708 43.7561 39.1658 45.3629 39.4211C46.9697 39.6764 48.202 40.5952 48.1147 41.4728L48.1157 41.4737Z" fill="white" stroke="#333333" stroke-width="0.985473" stroke-linecap="round" stroke-linejoin="round"/>
<path d="M9.80387 30.9464C8.63478 31.6375 6.99756 31.1219 6.21954 30.0085C5.44233 28.8952 5.44151 27.3654 5.9662 26.1127C6.4909 24.8599 7.47471 23.8515 8.55116 23.0227C10.4278 21.5773 12.6536 20.5894 14.9844 20.1672C16.9275 19.8146 19.1558 19.9393 20.5577 21.3297C21.6825 22.4455 22.0244 24.1893 21.712 25.7429C21.3997 27.2965 20.5126 28.6796 19.4714 29.8741C18.4581 31.0358 17.2423 32.0811 15.7772 32.5615C14.3122 33.0411 12.5651 32.864 11.4288 31.8212C9.89406 30.4135 9.95062 27.8163 11.1369 26.1053C12.3232 24.3934 14.3523 23.4498 16.3814 22.9809C17.9252 22.6242 19.5714 22.5037 21.075 23.0063C22.5778 23.508 23.9076 24.7271 24.2109 26.2832C24.5839 28.1983 23.3222 30.1364 21.653 31.1456C19.9838 32.1549 17.9842 32.4303 16.0445 32.6419C14.9418 32.7624 13.53 32.6951 13.1185 31.6654C12.6766 30.5619 13.8211 29.5125 14.8205 28.869C16.4782 27.8015 18.2261 26.7029 20.1921 26.5488C22.158 26.3947 24.3765 27.5433 24.7045 29.4879C25.0004 31.2424 23.6436 32.9345 22.0113 33.6429C21.0644 34.0544 19.8772 34.1881 19.0648 33.5511C18.1039 32.7984 18.1564 31.1579 19.0541 30.3307C19.951 29.5035 21.4251 29.4953 22.4532 30.1528C23.4813 30.8103 24.0797 32.013 24.2093 33.2272C24.2806 33.8921 24.2142 34.6013 23.8444 35.1571C23.4747 35.713 22.7418 36.0622 22.1129 35.8359C21.2046 35.5088 21.0758 34.079 21.8203 33.4658C22.5655 32.8526 23.7846 33.0903 24.4028 33.8314C25.0209 34.5726 25.0947 35.6613 24.7848 36.5754" stroke="#333333" stroke-width="0.737855" stroke-linecap="round" stroke-linejoin="round"/>
</g>
</g>
</svg>
