<svg width="80" height="80" viewBox="0 0 80 80" fill="none" xmlns="http://www.w3.org/2000/svg">
<circle cx="40" cy="40" r="40" fill="#CBCBCB"/>
<mask id="mask0_99_524" style="mask-type:luminance" maskUnits="userSpaceOnUse" x="0" y="0" width="80" height="80">
<path d="M0 40C0 62.0914 17.9086 80 40 80C62.0914 80 80 62.0914 80 40C80 17.9086 62.0914 0 40 0C17.9086 0 0 17.9086 0 40Z" fill="white"/>
</mask>
<g mask="url(#mask0_99_524)">
<path d="M53.0606 54.2564C53.0606 54.2564 48.0294 51.3756 47.7533 47.7101C47.6001 45.6707 48.0241 37.608 48.0241 37.608L32.8286 38.0466C32.8286 38.0466 32.4945 49.0878 31.7587 50.447C31.023 51.8062 25.8333 53.88 25.8333 53.88C25.8333 53.88 27.0551 61.203 39.2323 61.3641C50.3132 61.5107 53.0606 54.2564 53.0606 54.2564Z" fill="white" stroke="#333333" stroke-width="1.16634" stroke-linecap="round" stroke-linejoin="round"/>
<path d="M26.7722 35.3585C24.4158 35.3149 22.1452 32.3628 22.6379 29.2072C22.9469 27.2298 25.9652 25.9961 27.3798 27.8044C27.9003 28.4701 28.4643 29.4581 28.6334 29.9046" fill="white"/>
<path d="M26.7722 35.3585C24.4158 35.3149 22.1452 32.3628 22.6379 29.2072C22.9469 27.2298 25.9652 25.9961 27.3798 27.8044C27.9003 28.4701 28.4643 29.4581 28.6334 29.9046" stroke="#333333" stroke-width="1.16634" stroke-linecap="round" stroke-linejoin="round"/>
<path d="M25.0339 30.7445C25.4672 31.0483 25.9982 31.4578 26.0127 32.2714L25.0339 30.7445Z" fill="white"/>
<path d="M25.0339 30.7445C25.4672 31.0483 25.9982 31.4578 26.0127 32.2714" stroke="#333333" stroke-width="1.16634" stroke-linecap="round" stroke-linejoin="round"/>
<path d="M50.3871 39.7505C52.5375 40.7147 55.8489 39.0121 56.7485 35.9463C57.3112 34.0258 55.1066 31.6244 53.0566 32.6573C52.3011 33.0378 51.3698 33.6916 51.0277 34.0231" fill="white"/>
<path d="M50.3871 39.7505C52.5375 40.7147 55.8489 39.0121 56.7485 35.9463C57.3112 34.0258 55.1066 31.6244 53.0566 32.6573C52.3011 33.0378 51.3698 33.6916 51.0277 34.0231" stroke="#333333" stroke-width="1.16634" stroke-linecap="round" stroke-linejoin="round"/>
<path d="M54.0037 35.8802C53.4899 36.0084 52.848 36.1999 52.5428 36.9541L54.0037 35.8802Z" fill="white"/>
<path d="M54.0037 35.8802C53.4899 36.0084 52.848 36.1999 52.5428 36.9541" stroke="#333333" stroke-width="1.16634" stroke-linecap="round" stroke-linejoin="round"/>
<path d="M54.3365 24.311C54.215 27.5101 53.3141 31.9258 51.9153 36.1315C48.3106 46.9681 43.183 48.8741 40.4104 49.1555C37.3063 49.4698 33.0016 48.8543 31.5539 47.7474C28.0047 45.033 26.0049 39.7481 26.2334 33.9983C26.3536 30.9854 27.0642 23.8685 29.2252 20.1079C31.3861 16.3473 40.8701 7.35345 49.3303 15.111C54.2916 19.6601 54.5558 18.5321 54.3352 24.3123L54.3365 24.311Z" fill="white" stroke="#333333" stroke-width="1.16634" stroke-linecap="round" stroke-linejoin="round"/>
<path d="M36.531 33.2833L35.3317 31.026C35.3317 31.026 37.8638 28.972 38.4357 27.9219" fill="white"/>
<path d="M36.531 33.2833L35.3317 31.026C35.3317 31.026 37.8638 28.972 38.4357 27.9219" stroke="#333333" stroke-width="1.16634" stroke-linecap="round" stroke-linejoin="round"/>
<path d="M51.9156 36.1324C51.9156 36.1324 51.9238 36.1202 51.9387 36.097C51.9061 36.1351 51.8966 36.1473 51.9156 36.1324Z" fill="#333333" stroke="#333333" stroke-width="1.16634" stroke-linecap="round" stroke-linejoin="round"/>
<path d="M57.9042 23.0559C58.0072 19.8065 54.5425 17.1925 54.5425 17.1925C54.5425 17.1925 54.9111 16.285 52.19 13.6736C49.757 11.3383 45.6041 9.85232 41.7075 9.50889C37.8188 9.16678 33.7175 10.5947 31.6292 11.6329C28.2662 13.3025 26.837 16.3471 26.0603 20.5303C25.5188 23.4482 26.6574 28.0039 26.8066 28.5772C26.7234 28.0752 27.2742 25.6699 28.142 23.1748C29.5342 19.1725 33.1984 17.2202 33.1984 17.2202L32.386 19.5397C32.386 19.5397 35.1691 18.5702 36.6089 17.4065C36.6802 18.0471 36.1426 19.4393 36.1426 19.4393C36.1426 19.4393 38.5797 18.9175 40.458 17.5702C40.528 18.6758 39.6945 19.8541 39.6945 19.8541C39.6945 19.8541 42.0034 19.5912 43.8685 18.8238C45.6649 18.0841 47.2433 17.2876 48.5497 17.2308C48.3846 17.7789 47.9183 18.8555 46.6635 19.7827C46.6635 19.7827 49.5866 19.6612 51.3671 18.7802C51.3011 19.3851 51.0422 20.4564 50.0938 21.5501C50.0938 21.5501 51.663 21.13 53.1028 20.4009C53.6681 22.6107 51.5679 26.0477 52.2785 29.0884C53.2811 33.3746 52.1372 35.7852 51.9378 36.0996C52.4027 35.5699 57.636 31.5016 57.9042 23.0585V23.0559Z" fill="#333333" stroke="#333333" stroke-width="0.848007" stroke-linecap="round" stroke-linejoin="round"/>
<path d="M26.8066 28.5773C26.8106 28.6013 26.816 28.6227 26.8227 28.6387C26.8227 28.6387 26.8173 28.6173 26.8066 28.5773Z" fill="#333333" stroke="#333333" stroke-width="1.16634" stroke-linecap="round" stroke-linejoin="round"/>
<path d="M43.0403 11.4322C40.6575 11.2895 36.0502 11.9262 34.514 13.5324" stroke="#727171" stroke-width="0.848007" stroke-linecap="round" stroke-linejoin="round"/>
<path d="M38.4397 14.9033C39.7038 13.9853 43.1302 13.3037 44.7549 13.379" stroke="#727171" stroke-width="0.848007" stroke-linecap="round" stroke-linejoin="round"/>
<path d="M41.6099 42.9472C41.771 45.0434 40.1292 46.2626 37.5891 46.1913C36.1876 46.153 33.7744 44.8083 33.604 42.5945C33.4336 40.3807 35.3713 37.2145 37.3077 37.3044C40.3405 37.4457 41.4408 40.7334 41.6099 42.9472Z" fill="white" stroke="#333333" stroke-width="1.16634" stroke-linecap="round" stroke-linejoin="round"/>
<path d="M32.9342 26.3582L34.8033 27.7689L32.4045 28.5799" stroke="#333333" stroke-width="1.06595" stroke-linecap="round" stroke-linejoin="round"/>
<path d="M46.0546 28.4397L43.6096 29.326L45.7719 30.7671" stroke="#333333" stroke-width="1.06595" stroke-linecap="round" stroke-linejoin="round"/>
<path d="M33.7097 21.4338L35.6144 23.2672" stroke="#333333" stroke-width="1.16634" stroke-linecap="round" stroke-linejoin="round"/>
<path d="M11.565 54.909C11.565 54.909 -5.49556 26.7134 -1.2793 21.1525C2.93697 15.5915 21.1969 18.7841 21.1969 18.7841C21.1969 18.7841 26.1198 10.5431 26.8621 10.1812C27.6045 9.81796 29.1882 9.22224 30.2925 9.60133C31.398 9.98042 33.1601 11.8085 32.114 12.3897C31.7587 12.5865 30.6768 13.2377 29.6703 13.461C28.5423 13.7119 28.1817 14.9826 28.1817 14.9826C28.1817 14.9826 28.0575 24.0412 25.5267 25.6659C22.9959 27.2919 21.012 25.8773 21.012 25.8773L11.384 28.2047C11.384 28.2047 18.0558 41.432 19.9539 43.6524L11.5637 54.9076L11.565 54.909Z" fill="white" stroke="#333333" stroke-width="1.26277" stroke-linecap="round" stroke-linejoin="round"/>
<path d="M64.0754 60.4763C64.0754 60.4763 87.1737 31.5437 83.8939 25.3844C80.6142 19.2251 59.801 21.5327 59.801 21.5327C59.801 21.5327 56.2478 12.6154 55.5715 12.1399C54.8966 11.6644 53.4278 10.8243 52.2759 11.0237C51.1241 11.2232 49.1521 12.6801 50.0344 13.4872C50.3607 13.7857 51.453 13.7329 52.169 14.3907C53.0315 15.1819 53.5057 16.6718 53.5057 16.6718C53.5057 16.6718 52.6286 25.1413 54.8688 27.1464C57.1091 29.1529 59.2423 28.7685 59.2423 28.7685L68.6707 33.1063C68.6707 33.1063 57.9412 48.1089 55.7142 49.9991L64.0728 60.4737L64.0754 60.4763Z" fill="white" stroke="#333333" stroke-width="1.26277" stroke-linecap="round" stroke-linejoin="round"/>
<path d="M32.4098 55.0066C30.8908 54.4413 29.3547 48.8196 25.1529 46.6811C22.2443 45.2004 15.9107 34.3823 15.9107 34.3823C15.9107 34.3823 10.5638 35.2224 6.63016 37.9342C3.93159 39.794 1.12207 42.0659 1.12207 42.0659C1.12207 42.0659 12.2466 62.673 12.4764 64.8498C12.7049 67.0266 12.8991 71.8333 13.1117 78.2872C13.2729 83.1837 13.5172 92.6967 13.7471 99.3421C13.9769 105.987 15.1221 123.181 15.1221 123.181H59.4536C59.3915 123.999 60.6081 97.7068 61.0096 90.4182C61.3359 84.498 62.242 74.376 63.1587 71.091C64.3475 66.8338 67.5282 61.0391 71.4116 56.49C75.1153 52.1522 78.5655 47.7166 78.6791 47.1434C79.0067 47.4379 72.6387 41.309 70.3007 39.6526C66.4385 36.9158 62.9474 36.2818 62.9474 36.2818C62.9474 36.2818 56.9334 44.0182 55.3298 45.6983C53.7263 47.3785 51.6842 49.0521 48.8364 51.8748C47.5379 53.1613 46.6992 54.5047 45.5513 55.0066C41.8845 56.6102 35.6975 56.2284 32.4125 55.0066H32.4098Z" fill="#95B5A1" stroke="#333333" stroke-width="1.16634" stroke-linecap="round" stroke-linejoin="round"/>
<path d="M28.1816 14.9812L28.8408 12.3724" stroke="#333333" stroke-width="1.26277" stroke-linecap="round" stroke-linejoin="round"/>
<path d="M53.5071 16.6719C53.5071 16.6719 53.5678 14.9441 53.7409 14.6667L53.5071 16.6719Z" fill="white"/>
<path d="M53.5071 16.6719C53.5071 16.6719 53.5678 14.9441 53.7409 14.6667" stroke="#333333" stroke-width="1.26277" stroke-linecap="round" stroke-linejoin="round"/>
<path d="M12.4751 64.8501C12.4751 64.8501 12.8978 57.8666 13.8501 55.0095" stroke="#333333" stroke-width="1.26277" stroke-linecap="round" stroke-linejoin="round"/>
<path d="M11.4196 28.1929C11.4196 28.1929 10.2401 26.4942 10.1503 26.0187" stroke="#333333" stroke-width="1.26277" stroke-linecap="round" stroke-linejoin="round"/>
<path d="M68.6733 33.1076C68.6733 33.1076 70.2227 30.9731 70.5305 30.3206" stroke="#333333" stroke-width="1.26277" stroke-linecap="round" stroke-linejoin="round"/>
<path d="M31.3822 51.1298C29.5131 52.2935 27.7682 50.6794 27.6084 52.1179C27.4671 53.3872 26.6257 60.0392 37.766 60.5821C46.4416 61.0048 51.9061 56.597 52.2587 53.8456C52.6101 51.1021 49.44 52.1165 48.2406 49.5065" fill="white"/>
<path d="M31.3822 51.1298C29.5131 52.2935 27.7682 50.6794 27.6084 52.1179C27.4671 53.3872 26.6257 60.0392 37.766 60.5821C46.4416 61.0048 51.9061 56.597 52.2587 53.8456C52.6101 51.1021 49.44 52.1165 48.2406 49.5065" stroke="#333333" stroke-width="1.16634" stroke-linecap="round" stroke-linejoin="round"/>
<path d="M13.5147 4.6941C13.5147 4.6941 12.1277 -1.03325 10.194 0.164787C8.26019 1.36283 11.5452 5.07055 11.5452 5.07055" fill="white"/>
<path d="M13.5147 4.6941C13.5147 4.6941 12.1277 -1.03325 10.194 0.164787C8.26019 1.36283 11.5452 5.07055 11.5452 5.07055" stroke="#333333" stroke-width="1.16634" stroke-linecap="round" stroke-linejoin="round"/>
<path d="M5.45193 5.32432C5.45193 5.32432 2.45352 0.250804 0.952996 1.96135C-0.546208 3.67189 3.67798 6.25951 3.67798 6.25951" fill="white"/>
<path d="M5.45193 5.32432C5.45193 5.32432 2.45352 0.250804 0.952996 1.96135C-0.546208 3.67189 3.67798 6.25951 3.67798 6.25951" stroke="#333333" stroke-width="1.16634" stroke-linecap="round" stroke-linejoin="round"/>
<path d="M2.42183 11.6249C2.42183 11.6249 -2.90133 9.09805 -3.18797 11.3541C-3.4746 13.6102 1.47476 13.3922 1.47476 13.3922" fill="white"/>
<path d="M2.42183 11.6249C2.42183 11.6249 -2.90133 9.09805 -3.18797 11.3541C-3.4746 13.6102 1.47476 13.3922 1.47476 13.3922" stroke="#333333" stroke-width="1.16634" stroke-linecap="round" stroke-linejoin="round"/>
<path d="M72.6096 8.21843C72.6096 8.21843 74.6279 2.68129 76.4164 4.08803C78.2036 5.49477 74.5249 8.81151 74.5249 8.81151" fill="white"/>
<path d="M72.6096 8.21843C72.6096 8.21843 74.6279 2.68129 76.4164 4.08803C78.2036 5.49477 74.5249 8.81151 74.5249 8.81151" stroke="#333333" stroke-width="1.16634" stroke-linecap="round" stroke-linejoin="round"/>
<path d="M80.5508 9.74657C80.5508 9.74657 84.0987 5.04027 85.3971 6.908C86.6955 8.77573 82.2085 10.8733 82.2085 10.8733" fill="white"/>
<path d="M80.5508 9.74657C80.5508 9.74657 84.0987 5.04027 85.3971 6.908C86.6955 8.77573 82.2085 10.8733 82.2085 10.8733" stroke="#333333" stroke-width="1.16634" stroke-linecap="round" stroke-linejoin="round"/>
</g>
</svg>
