<svg width="42" height="59" viewBox="0 0 42 59" fill="none" xmlns="http://www.w3.org/2000/svg">
<path d="M25.4347 44.0805C21.5626 44.1613 17.7078 44.4035 13.8682 45.0749C17.7078 45.7485 21.5648 45.9907 25.4369 46.0693C22.7567 48.8145 20.2042 51.666 17.9739 54.8085C21.1733 52.6179 24.0741 50.1107 26.8711 47.4781C26.9533 51.2814 27.1999 55.0699 27.8835 58.8414C28.5692 55.0699 28.8158 51.2814 28.8958 47.4781C31.6907 50.1107 34.5937 52.6179 37.793 54.8085C35.5628 51.666 33.0102 48.8167 30.33 46.0715C34.2021 45.9928 38.0591 45.7506 41.8966 45.0749C38.0591 44.3993 34.2021 44.1549 30.3322 44.0784C33.0124 41.3353 35.565 38.4839 37.7909 35.3413C34.5894 37.5299 31.6885 40.035 28.8958 42.6697C28.8158 38.8663 28.5692 35.08 27.8813 31.3106C27.1934 35.08 26.9447 38.8685 26.8668 42.6697C24.0741 40.0371 21.1711 37.5299 17.9717 35.3435C20.1998 38.4881 22.7502 41.3375 25.4326 44.0827L25.4347 44.0805Z" fill="#4FA668"/>
<path d="M15.414 7.86592C13.028 7.91479 10.6528 8.06565 8.28843 8.47998C10.6528 8.89431 13.0301 9.04304 15.4161 9.09404C13.7656 10.7854 12.193 12.5425 10.8172 14.4782C12.7879 13.129 14.5768 11.5843 16.2987 9.96095C16.3485 12.3046 16.5021 14.6376 16.9239 16.9621C17.3457 14.6397 17.4971 12.3046 17.549 9.96095C19.2709 11.5821 21.0599 13.1269 23.0306 14.4782C21.6569 12.5425 20.0843 10.7875 18.4338 9.09616C20.8198 9.04729 23.195 8.89856 25.5593 8.4821C23.195 8.06565 20.8198 7.91691 18.4338 7.86804C20.0865 6.17884 21.6569 4.42166 23.0284 2.48599C21.0577 3.83309 19.2688 5.37781 17.549 6.99901C17.4993 4.65751 17.3479 2.32238 16.9239 0C16.4999 2.32238 16.3485 4.65538 16.2987 6.99901C14.579 5.37568 12.79 3.83309 10.8194 2.48599C12.1908 4.42378 13.7635 6.17884 15.4161 7.87016L15.414 7.86592Z" fill="#4FA668"/>
<path d="M8.91235 26.3491C5.92931 26.4108 2.95926 26.5977 2.09808e-05 27.1162C2.9571 27.6346 5.92931 27.8216 8.91235 27.8832C6.84651 29.9995 4.88017 32.1944 3.1626 34.6166C5.62647 32.9274 7.86321 30.996 10.0177 28.969C10.0805 31.8991 10.2708 34.8185 10.7987 37.7231C11.3265 34.8185 11.5168 31.8991 11.5796 28.969C13.7341 30.9982 15.9687 32.9296 18.4347 34.6166C16.7171 32.1965 14.7508 29.9995 12.685 27.8854C15.668 27.8259 18.6402 27.6389 21.5973 27.1162C18.6402 26.5956 15.6702 26.4086 12.6871 26.3491C14.753 24.235 16.7193 22.0401 18.4347 19.6179C15.9687 21.3028 13.7341 23.2342 11.5817 25.2634C11.5212 22.3333 11.3308 19.416 10.7987 16.5114C10.2687 19.416 10.0783 22.3333 10.0177 25.2634C7.86537 23.2342 5.6308 21.3028 3.16477 19.6179C4.88017 22.0401 6.84651 24.2371 8.91452 26.3513L8.91235 26.3491Z" fill="#4FA668"/>
</svg>
