<svg width="42" height="59" viewBox="0 0 42 59" fill="none" xmlns="http://www.w3.org/2000/svg">
<path d="M16.4619 44.0805C20.334 44.1613 24.1888 44.4035 28.0284 45.0749C24.1888 45.7485 20.3318 45.9907 16.4597 46.0693C19.1399 48.8145 21.6924 51.666 23.9227 54.8085C20.7233 52.6179 17.8225 50.1107 15.0255 47.4781C14.9433 51.2814 14.6967 55.0699 14.0131 58.8414C13.3274 55.0699 13.0808 51.2814 13.0008 47.4781C10.2059 50.1107 7.30292 52.6179 4.10357 54.8085C6.33381 51.666 8.88638 48.8167 11.5666 46.0715C7.69446 45.9928 3.8375 45.7506 0 45.0749C3.8375 44.3993 7.69446 44.1549 11.5644 44.0784C8.88421 41.3353 6.33165 38.4839 4.10573 35.3413C7.30724 37.5299 10.2081 40.035 13.0008 42.6697C13.0808 38.8663 13.3274 35.08 14.0153 31.3106C14.7032 35.08 14.952 38.8685 15.0298 42.6697C17.8225 40.0371 20.7255 37.5299 23.9249 35.3435C21.6968 38.4881 19.1464 41.3375 16.464 44.0827L16.4619 44.0805Z" fill="#4FA668"/>
<path d="M26.4826 7.86592C28.8686 7.91479 31.2438 8.06565 33.6082 8.47998C31.2438 8.89431 28.8665 9.04304 26.4805 9.09404C28.131 10.7854 29.7036 12.5425 31.0794 14.4782C29.1087 13.129 27.3198 11.5843 25.5979 9.96095C25.5481 12.3046 25.3945 14.6376 24.9727 16.9621C24.5509 14.6397 24.3995 12.3046 24.3476 9.96095C22.6257 11.5821 20.8367 13.1269 18.866 14.4782C20.2397 12.5425 21.8123 10.7875 23.4628 9.09616C21.0768 9.04729 18.7016 8.89856 16.3373 8.4821C18.7016 8.06565 21.0768 7.91691 23.4628 7.86804C21.8101 6.17884 20.2397 4.42166 18.8682 2.48599C20.8389 3.83309 22.6278 5.37781 24.3476 6.99901C24.3973 4.65751 24.5487 2.32238 24.9727 0C25.3967 2.32238 25.5481 4.65538 25.5979 6.99901C27.3176 5.37568 29.1066 3.83309 31.0772 2.48599C29.7058 4.42378 28.1331 6.17884 26.4805 7.87016L26.4826 7.86592Z" fill="#4FA668"/>
<path d="M32.9843 26.3491C35.9673 26.4108 38.9373 26.5977 41.8966 27.1162C38.9395 27.6346 35.9673 27.8216 32.9843 27.8832C35.0501 29.9995 37.0164 32.1944 38.734 34.6166C36.2701 32.9274 34.0334 30.996 31.8789 28.969C31.8161 31.8991 31.6258 34.8185 31.098 37.7231C30.5701 34.8185 30.3798 31.8991 30.317 28.969C28.1625 30.9982 25.9279 32.9296 23.4619 34.6166C25.1795 32.1965 27.1458 29.9995 29.2117 27.8854C26.2286 27.8259 23.2564 27.6389 20.2993 27.1162C23.2564 26.5956 26.2265 26.4086 29.2095 26.3491C27.1436 24.235 25.1773 22.0401 23.4619 19.6179C25.9279 21.3028 28.1625 23.2342 30.3149 25.2634C30.3755 22.3333 30.5658 19.416 31.098 16.5114C31.6279 19.416 31.8183 22.3333 31.8789 25.2634C34.0312 23.2342 36.2658 21.3028 38.7318 19.6179C37.0164 22.0401 35.0501 24.2371 32.9821 26.3513L32.9843 26.3491Z" fill="#4FA668"/>
</svg>
