<svg width="24" height="57" viewBox="0 0 24 57" fill="none" xmlns="http://www.w3.org/2000/svg">
<line x1="9.29541" y1="14.0922" x2="23.2622" y2="52.64" stroke="#F5F1D9"/>
<path d="M6.6342 7.92433L4.7291 9.80101C4.37282 10.1521 3.76635 10.0144 3.60893 9.54701L2.76756 7.04789L0.368666 5.86564C-0.0798643 5.64431 -0.129617 5.03596 0.276937 4.74215L2.45005 3.17021L2.87255 0.563436C2.95174 0.0760006 3.52737 -0.162399 3.9363 0.122784L6.12046 1.65058L8.78043 1.22189C9.27776 1.14174 9.68354 1.60219 9.52997 2.07249L8.70658 4.58879L9.92822 6.93059C10.1565 7.36846 9.83132 7.8924 9.3275 7.89724L6.63511 7.92497L6.6342 7.92433Z" fill="#F5F1D9"/>
</svg>
