<svg width="24" height="57" viewBox="0 0 24 57" fill="none" xmlns="http://www.w3.org/2000/svg">
<line y1="-0.5" x2="41" y2="-0.5" transform="matrix(-0.340654 0.940189 0.940189 0.340654 14.907 14.2626)" stroke="#F5F1D9"/>
<path d="M17.0982 7.92433L19.0033 9.80101C19.3596 10.1521 19.9661 10.0144 20.1235 9.54701L20.9649 7.04789L23.3638 5.86564C23.8123 5.64431 23.862 5.03596 23.4555 4.74215L21.2824 3.17021L20.8599 0.563436C20.7807 0.0760005 20.205 -0.162399 19.7961 0.122784L17.612 1.65058L14.952 1.22189C14.4547 1.14174 14.0489 1.60219 14.2025 2.07249L15.0258 4.58879L13.8042 6.93059C13.5759 7.36846 13.9011 7.8924 14.4049 7.89724L17.0973 7.92497L17.0982 7.92433Z" fill="#F5F1D9"/>
</svg>
