<svg width="24" height="24" viewBox="0 0 24 24" fill="none" xmlns="http://www.w3.org/2000/svg">
<g clip-path="url(#clip0_468_6814)">
<path d="M20 12V18C20 18.5304 19.7893 19.0391 19.4142 19.4142C19.0391 19.7893 18.5304 20 18 20H6C5.46957 20 4.96086 19.7893 4.58579 19.4142C4.21071 19.0391 4 18.5304 4 18V6C4 5.46957 4.21071 4.96086 4.58579 4.58579C4.96086 4.21071 5.46957 4 6 4H15" stroke="#333333" stroke-width="2" stroke-linecap="round" stroke-linejoin="round"/>
<path d="M0.260716 8.47921L9.92784 17.7472L13.4164 16.7801L23.0095 1.03436L22.0001 0.500743L10.6005 12.3628L3.02099 7.57605L0.260716 8.47921Z" fill="#FABE00"/>
</g>
<defs>
<clipPath id="clip0_468_6814">
<rect width="24" height="24" fill="white"/>
</clipPath>
</defs>
</svg>
