<svg width="336" height="228" viewBox="0 0 336 228" fill="none" xmlns="http://www.w3.org/2000/svg">
<rect x="0.5" y="0.5" width="335" height="226.277" rx="15.5" fill="#F5F1D9"/>
<rect x="0.5" y="0.5" width="335" height="226.277" rx="15.5" stroke="#333333"/>
<path d="M93.3673 32.1152C93.3693 32.4219 93.4776 32.6812 93.6923 32.8931C93.9069 33.0918 94.1676 33.1901 94.4742 33.1881C94.7675 33.1863 95.0202 33.0847 95.2323 32.8833C95.4443 32.6686 95.5493 32.4079 95.5473 32.1013C95.5454 31.8079 95.4371 31.5553 95.2224 31.3433C95.0078 31.1314 94.7537 31.0263 94.4604 31.0282C94.1538 31.0301 93.8944 31.1385 93.6825 31.3532C93.4705 31.5679 93.3655 31.8219 93.3673 32.1152ZM92.1474 32.123C92.1446 31.6963 92.2422 31.309 92.4399 30.9611C92.6511 30.6131 92.9293 30.3313 93.2746 30.1157C93.6332 29.9001 94.0258 29.7909 94.4525 29.7882C94.8791 29.7855 95.2665 29.8897 95.6145 30.1008C95.9625 30.3119 96.2377 30.5902 96.4399 30.9355C96.6554 31.2808 96.7645 31.6668 96.7673 32.0935C96.77 32.5201 96.6658 32.9141 96.4548 33.2755C96.257 33.6234 95.9855 33.9052 95.6402 34.1207C95.2948 34.3229 94.9088 34.4254 94.4821 34.4281C94.0555 34.4308 93.6615 34.3334 93.3003 34.1357C92.9522 33.9246 92.6704 33.6463 92.4549 33.3011C92.2526 32.9423 92.1501 32.5497 92.1474 32.123ZM89.3824 31.3607C89.3697 31.4541 89.3507 31.6075 89.3254 31.821C89.3001 32.0345 89.2749 32.2614 89.2497 32.5015C89.2245 32.7284 89.2125 32.9284 89.2136 33.1018C89.2161 33.5018 89.2189 33.9417 89.222 34.4217C89.2251 34.9017 89.2281 35.3817 89.2312 35.8617C89.2342 36.3284 89.2369 36.755 89.2394 37.1417C89.2411 37.4083 89.2435 37.7817 89.2465 38.2617C89.2496 38.7416 89.2531 39.2816 89.2569 39.8816C89.2607 40.4816 89.2647 41.1083 89.2689 41.7616C89.273 42.4016 89.277 43.0282 89.2809 43.6415C89.2848 44.2415 89.2883 44.7882 89.2914 45.2815C89.2945 45.7615 89.2969 46.1415 89.2987 46.4215C89.3024 46.9948 89.1319 47.4492 88.7874 47.7848C88.4563 48.1336 87.9374 48.3102 87.2308 48.3147C86.8708 48.317 86.5041 48.3127 86.1306 48.3018C85.7572 48.2908 85.3904 48.2732 85.0303 48.2488C84.6701 48.2244 84.3166 48.1934 83.9697 48.1556L83.7138 45.6772C84.141 45.7544 84.5547 45.8118 84.9549 45.8492C85.3685 45.8866 85.6953 45.9045 85.9353 45.903C86.202 45.9013 86.3883 45.8467 86.4943 45.7394C86.6002 45.6187 86.659 45.4317 86.6707 45.1783C86.6699 45.0583 86.6683 44.7983 86.6657 44.3983C86.6765 43.9982 86.6801 43.5248 86.6766 42.9782C86.6731 42.4315 86.6694 41.8515 86.6655 41.2382C86.6616 40.6249 86.6578 40.0382 86.6543 39.4783C86.6507 38.9183 86.6476 38.4316 86.6449 38.0183C86.6423 37.605 86.6405 37.3183 86.6394 37.1583C86.6379 36.9183 86.6356 36.5583 86.6325 36.0783C86.6294 35.585 86.6261 35.065 86.6226 34.5184C86.6191 33.9717 86.6161 33.505 86.6136 33.1184C86.6119 32.8517 86.5899 32.5385 86.5476 32.1788C86.5052 31.8057 86.4635 31.5393 86.4225 31.3796L89.3824 31.3607ZM79.603 34.6032C79.9099 34.6413 80.2301 34.6792 80.5637 34.7171C80.8972 34.7416 81.2239 34.7529 81.5439 34.7508C81.7039 34.7498 82.0239 34.7478 82.5039 34.7447C82.9972 34.7415 83.5839 34.7378 84.2639 34.7334C84.9439 34.7291 85.6705 34.7244 86.4438 34.7195C87.2305 34.7145 88.0171 34.7094 88.8038 34.7044C89.6038 34.6993 90.3438 34.6946 91.0237 34.6902C91.7171 34.6858 92.3171 34.682 92.8237 34.6787C93.3304 34.6755 93.6837 34.6732 93.8837 34.6719C94.1637 34.6702 94.4903 34.6547 94.8634 34.6257C95.2499 34.5965 95.583 34.5611 95.8628 34.5193L95.8795 37.1392C95.5727 37.1145 95.2393 37.1033 94.8793 37.1056C94.5192 37.0946 94.1992 37.09 93.9192 37.0918C93.7192 37.093 93.3658 37.0953 92.8592 37.0985C92.3659 37.1017 91.7725 37.1055 91.0792 37.1099C90.3992 37.1143 89.6659 37.119 88.8793 37.124C88.0926 37.129 87.306 37.134 86.5193 37.1391C85.7327 37.1441 84.9993 37.1488 84.3194 37.1531C83.6394 37.1575 83.0527 37.1612 82.5594 37.1644C82.0794 37.1674 81.7461 37.1696 81.5594 37.1708C81.2661 37.1726 80.9395 37.1814 80.5796 37.197C80.233 37.2126 79.9131 37.2346 79.62 37.2632L79.603 34.6032ZM84.7375 39.9905C84.5137 40.4453 84.2435 40.9337 83.9268 41.4557C83.6102 41.9778 83.2668 42.5 82.8968 43.0223C82.5402 43.5446 82.19 44.0335 81.8462 44.4891C81.5023 44.9313 81.1914 45.3 80.9132 45.5951L78.7438 44.1289C79.0752 43.8201 79.4129 43.458 79.7569 43.0424C80.1142 42.6135 80.458 42.1646 80.7883 41.6958C81.132 41.2269 81.4423 40.7583 81.7193 40.2898C82.0097 39.8213 82.2602 39.373 82.4708 38.945L84.7375 39.9905ZM93.3302 38.8156C93.5855 39.1339 93.868 39.5121 94.1774 39.9502C94.5002 40.3881 94.8233 40.8594 95.1465 41.364C95.4696 41.8553 95.7727 42.34 96.0558 42.8182C96.3388 43.2831 96.5814 43.6949 96.7837 44.0536L94.4319 45.3487C94.2159 44.9234 93.9663 44.465 93.6831 43.9734C93.4133 43.4818 93.1302 42.9903 92.8337 42.4988C92.5372 42.0074 92.2409 41.5493 91.9449 41.1245C91.6621 40.6863 91.3997 40.3146 91.1577 40.0095L93.3302 38.8156ZM107.987 35.1418C108.082 35.3546 108.204 35.6604 108.353 36.0595C108.515 36.4451 108.685 36.8641 108.861 37.3163C109.037 37.7552 109.193 38.1742 109.329 38.5733C109.465 38.9725 109.573 39.2851 109.655 39.5112L107.26 40.3666C107.205 40.1136 107.11 39.7942 106.974 39.4084C106.838 39.0226 106.689 38.6169 106.526 38.1912C106.364 37.7522 106.201 37.3333 106.038 36.9343C105.876 36.5353 105.734 36.2029 105.612 35.937L107.987 35.1418ZM115.376 36.5546C115.272 36.8753 115.18 37.1492 115.101 37.3764C115.036 37.6035 114.971 37.8172 114.906 38.0177C114.659 39.0326 114.318 40.0481 113.885 41.0642C113.451 42.067 112.897 43.0106 112.223 43.8949C111.297 45.1009 110.244 46.1276 109.063 46.9752C107.895 47.8093 106.725 48.4502 105.555 48.8976L103.441 46.7711C104.173 46.5664 104.945 46.2682 105.756 45.8763C106.566 45.4711 107.35 44.9861 108.106 44.4212C108.863 43.8564 109.512 43.2322 110.054 42.5488C110.504 41.9725 110.9 41.3167 111.242 40.5811C111.597 39.8322 111.885 39.037 112.107 38.1956C112.341 37.3407 112.496 36.4997 112.57 35.6725L115.376 36.5546ZM103.354 36.2315C103.489 36.4839 103.638 36.8097 103.8 37.2086C103.976 37.6075 104.152 38.0264 104.328 38.4653C104.504 38.9042 104.674 39.3297 104.836 39.742C105.012 40.1543 105.148 40.5001 105.243 40.7795L102.809 41.715C102.727 41.4489 102.605 41.103 102.442 40.6774C102.293 40.2516 102.123 39.8061 101.934 39.3406C101.744 38.8618 101.561 38.423 101.385 38.0241C101.223 37.6251 101.081 37.3193 100.959 37.1068L103.354 36.2315ZM133.949 32.1958C133.951 32.5158 134.066 32.7884 134.294 33.0136C134.522 33.2255 134.789 33.3305 135.096 33.3285C135.416 33.3265 135.689 33.2181 135.914 33.0033C136.139 32.7752 136.251 32.5011 136.249 32.1811C136.247 31.8611 136.132 31.5885 135.903 31.3633C135.675 31.1381 135.401 31.0265 135.081 31.0286C134.775 31.0305 134.509 31.1456 134.283 31.3737C134.058 31.6018 133.947 31.8758 133.949 32.1958ZM132.709 32.2038C132.706 31.7638 132.81 31.3631 133.021 31.0017C133.245 30.627 133.537 30.3318 133.895 30.1161C134.254 29.9005 134.647 29.7913 135.073 29.7886C135.513 29.7858 135.914 29.8899 136.275 30.1009C136.65 30.3119 136.945 30.6033 137.161 30.9753C137.377 31.3339 137.486 31.7332 137.489 32.1732C137.491 32.5999 137.387 32.9939 137.176 33.3552C136.965 33.7166 136.674 34.0118 136.302 34.2408C135.943 34.4565 135.544 34.5657 135.104 34.5685C134.677 34.5712 134.283 34.4671 133.922 34.256C133.56 34.0317 133.265 33.7402 133.036 33.3817C132.821 33.0231 132.711 32.6304 132.709 32.2038ZM135.139 33.7683C135.047 33.9555 134.968 34.1827 134.903 34.4498C134.838 34.7035 134.773 34.9373 134.708 35.151C134.604 35.645 134.468 36.1993 134.298 36.8137C134.129 37.4148 133.926 38.0428 133.69 38.6976C133.454 39.3525 133.172 40.001 132.843 40.6431C132.527 41.2851 132.164 41.8874 131.754 42.4501C131.159 43.2539 130.464 44.005 129.669 44.7034C128.873 45.4019 127.984 46.0342 127.001 46.6005C126.018 47.1668 124.934 47.6471 123.75 48.0413L121.554 45.6553C122.886 45.3268 124.03 44.9261 124.987 44.4534C125.944 43.9806 126.774 43.4419 127.477 42.8374C128.193 42.2328 128.822 41.5888 129.364 40.9053C129.801 40.3425 130.17 39.7335 130.473 39.0782C130.788 38.4228 131.044 37.7678 131.24 37.1132C131.449 36.4452 131.592 35.8243 131.668 35.2505C131.468 35.2517 131.135 35.2539 130.668 35.2569C130.215 35.2598 129.675 35.2632 129.048 35.2672C128.435 35.2711 127.788 35.2753 127.108 35.2796C126.442 35.2839 125.795 35.288 125.168 35.292C124.542 35.296 123.975 35.2996 123.468 35.3029C122.975 35.306 122.608 35.3084 122.368 35.3099C121.902 35.3129 121.448 35.3225 121.009 35.3386C120.582 35.3547 120.242 35.3768 119.989 35.4051L119.971 32.5852C120.171 32.6106 120.411 32.6357 120.691 32.6606C120.985 32.6854 121.278 32.7035 121.572 32.7149C121.878 32.7263 122.139 32.7313 122.352 32.73C122.565 32.7286 122.865 32.7267 123.252 32.7242C123.652 32.7216 124.112 32.7187 124.632 32.7154C125.152 32.7121 125.692 32.7086 126.252 32.705C126.825 32.7014 127.392 32.6977 127.952 32.6942C128.525 32.6905 129.058 32.6871 129.552 32.6839C130.045 32.6808 130.472 32.6781 130.832 32.6758C131.192 32.6735 131.452 32.6718 131.612 32.6708C131.812 32.6695 132.052 32.6613 132.332 32.6462C132.625 32.631 132.904 32.5825 133.171 32.5008L135.139 33.7683ZM145.151 32.5042C145.096 32.2112 145.027 31.945 144.946 31.7055C144.878 31.466 144.809 31.2264 144.741 30.9868L147.558 30.5088C147.586 30.7086 147.614 30.9618 147.643 31.2683C147.685 31.5614 147.733 31.8277 147.788 32.0674C147.816 32.2539 147.878 32.6001 147.975 33.1062C148.071 33.6123 148.189 34.2249 148.327 34.944C148.464 35.6631 148.616 36.4422 148.781 37.2811C148.96 38.1067 149.132 38.9456 149.298 39.7979C149.463 40.6368 149.621 41.4358 149.773 42.1949C149.938 42.9539 150.075 43.6263 150.186 44.2123C150.31 44.7982 150.399 45.231 150.454 45.5106C150.523 45.8035 150.605 46.123 150.7 46.4691C150.796 46.8151 150.891 47.1478 150.987 47.4672L148.09 48.0058C148.034 47.6328 147.992 47.273 147.963 46.9266C147.934 46.5934 147.886 46.2804 147.817 45.9875C147.762 45.7212 147.679 45.315 147.569 44.769C147.472 44.2096 147.348 43.5571 147.197 42.8114C147.059 42.0656 146.907 41.2732 146.742 40.4342C146.576 39.5953 146.411 38.7563 146.246 37.9174C146.08 37.0784 145.922 36.2927 145.77 35.5603C145.632 34.8279 145.508 34.1953 145.398 33.6627C145.288 33.1167 145.206 32.7306 145.151 32.5042ZM139.707 35.0791C140.027 35.0637 140.34 35.0484 140.647 35.0331C140.953 35.0044 141.26 34.9692 141.566 34.9272C141.859 34.8853 142.272 34.8293 142.805 34.7593C143.338 34.6759 143.951 34.5853 144.644 34.4875C145.336 34.3764 146.049 34.2585 146.781 34.1338C147.527 34.0091 148.246 33.8911 148.939 33.7801C149.632 33.6556 150.244 33.545 150.777 33.4483C151.323 33.3515 151.749 33.2754 152.056 33.2201C152.375 33.1514 152.708 33.0826 153.054 33.0137C153.4 32.9315 153.693 32.8563 153.933 32.7881L154.43 35.405C154.216 35.4197 153.93 35.4549 153.57 35.5105C153.211 35.5661 152.884 35.6149 152.591 35.6567C152.232 35.7124 151.759 35.7887 151.173 35.8858C150.6 35.9828 149.961 36.0936 149.255 36.2181C148.549 36.3293 147.829 36.4472 147.097 36.5719C146.364 36.6832 145.665 36.801 144.999 36.9253C144.333 37.0362 143.747 37.1333 143.241 37.2165C142.735 37.2998 142.355 37.3622 142.102 37.4038C141.783 37.4725 141.483 37.5411 141.203 37.6096C140.924 37.6647 140.611 37.74 140.265 37.8356L139.707 35.0791ZM139.765 40.9588C140.031 40.9438 140.365 40.915 140.764 40.8724C141.177 40.8165 141.537 40.7675 141.843 40.7255C142.203 40.6699 142.683 40.5935 143.282 40.4963C143.881 40.3992 144.554 40.2882 145.3 40.1634C146.059 40.0386 146.838 39.9136 147.637 39.7885C148.437 39.65 149.216 39.5117 149.975 39.3735C150.734 39.2354 151.427 39.1109 152.053 39.0003C152.679 38.8896 153.185 38.7997 153.571 38.7305C153.957 38.6481 154.323 38.5657 154.669 38.4835C155.029 38.4012 155.342 38.3192 155.608 38.2375L156.165 40.874C155.898 40.8891 155.572 40.9311 155.185 41.0003C154.812 41.056 154.433 41.1184 154.047 41.1876C153.62 41.257 153.088 41.347 152.448 41.4578C151.809 41.5685 151.103 41.693 150.331 41.8313C149.571 41.9562 148.792 42.0878 147.993 42.2263C147.194 42.3514 146.428 42.4829 145.696 42.621C144.963 42.7456 144.304 42.8565 143.718 42.9536C143.132 43.0507 142.672 43.1336 142.339 43.2024C141.913 43.2852 141.527 43.361 141.181 43.4298C140.848 43.4986 140.568 43.5671 140.342 43.6352L139.765 40.9588ZM165.881 33.9518C165.922 34.1782 165.97 34.4245 166.025 34.6909C166.094 34.9438 166.155 35.2034 166.21 35.4697C166.333 35.8556 166.476 36.3547 166.64 36.967C166.817 37.5792 167.008 38.2513 167.213 38.9834C167.417 39.7154 167.622 40.4608 167.827 41.2195C168.045 41.9648 168.256 42.6834 168.461 43.3755C168.665 44.0542 168.842 44.6597 168.992 45.1921C169.142 45.7112 169.258 46.1104 169.34 46.3899C169.394 46.4962 169.448 46.6559 169.503 46.8689C169.558 47.0819 169.619 47.2948 169.687 47.5077C169.769 47.7205 169.836 47.8934 169.891 48.0264L167.175 48.7238C167.133 48.4441 167.085 48.151 167.029 47.8447C166.974 47.5384 166.899 47.2455 166.804 46.9661C166.722 46.6733 166.606 46.2541 166.456 45.7083C166.305 45.1493 166.135 44.517 165.944 43.8116C165.752 43.1061 165.548 42.3741 165.33 41.6155C165.125 40.8567 164.927 40.118 164.735 39.3992C164.544 38.6671 164.36 38.0082 164.183 37.4227C164.019 36.8237 163.883 36.3579 163.774 36.0253C163.705 35.759 163.617 35.5063 163.509 35.267C163.414 35.0276 163.313 34.8082 163.205 34.6089L165.881 33.9518ZM175.5 36.9704C175.303 37.4116 175.033 37.9134 174.69 38.4756C174.36 39.0377 173.997 39.6133 173.601 40.2026C173.204 40.7918 172.808 41.3543 172.411 41.8902C172.015 42.4127 171.638 42.8685 171.28 43.2575L169.073 42.1715C169.418 41.8627 169.782 41.487 170.166 41.0445C170.55 40.6021 170.907 40.1598 171.238 39.7177C171.581 39.2621 171.832 38.8738 171.99 38.5528C171.844 38.5804 171.564 38.6355 171.151 38.7182C170.752 38.8007 170.266 38.9038 169.693 39.0275C169.121 39.1512 168.495 39.2885 167.816 39.4395C167.15 39.5771 166.477 39.7214 165.798 39.8724C165.119 40.0234 164.474 40.1676 163.861 40.3048C163.249 40.4287 162.709 40.5455 162.243 40.6552C161.777 40.7515 161.424 40.8271 161.185 40.8819L160.549 38.4859C160.869 38.4572 161.176 38.4219 161.469 38.3801C161.762 38.3382 162.068 38.2896 162.388 38.2342C162.548 38.2065 162.827 38.158 163.227 38.0888C163.64 38.0195 164.126 37.9297 164.685 37.8195C165.258 37.7092 165.87 37.5919 166.523 37.4677C167.176 37.3302 167.835 37.1994 168.501 37.0751C169.166 36.9375 169.792 36.8135 170.378 36.7031C170.964 36.5793 171.477 36.4761 171.916 36.3932C172.356 36.2971 172.675 36.2217 172.875 36.1671C173.048 36.1393 173.228 36.0982 173.414 36.0437C173.6 35.9758 173.76 35.9081 173.893 35.8406L175.5 36.9704ZM187.985 34.6305C188.08 34.8432 188.202 35.1491 188.351 35.5482C188.514 35.9338 188.683 36.3528 188.859 36.805C189.035 37.2439 189.191 37.6629 189.327 38.062C189.463 38.4611 189.572 38.7738 189.653 38.9999L187.259 39.8553C187.204 39.6023 187.108 39.2829 186.973 38.8971C186.837 38.5113 186.688 38.1055 186.525 37.6799C186.362 37.2409 186.199 36.822 186.037 36.423C185.874 36.024 185.732 35.6916 185.61 35.4257L187.985 34.6305ZM195.375 36.0433C195.27 36.364 195.178 36.6379 195.1 36.8651C195.035 37.0922 194.969 37.3059 194.904 37.5063C194.657 38.5213 194.317 39.5368 193.883 40.5529C193.45 41.5557 192.896 42.4993 192.221 43.3836C191.296 44.5896 190.242 45.6163 189.061 46.4639C187.893 47.298 186.724 47.9388 185.553 48.3863L183.44 46.2598C184.172 46.0551 184.943 45.7568 185.754 45.365C186.565 44.9598 187.348 44.4748 188.105 43.9099C188.861 43.3451 189.51 42.7209 190.053 42.0374C190.502 41.4612 190.898 40.8054 191.24 40.0698C191.595 39.3209 191.884 38.5257 192.105 37.6842C192.339 36.8294 192.494 35.9884 192.569 35.1612L195.375 36.0433ZM183.352 35.7201C183.487 35.9726 183.636 36.2983 183.798 36.6973C183.974 37.0962 184.15 37.5151 184.327 37.954C184.503 38.3928 184.672 38.8184 184.835 39.2307C185.011 39.643 185.146 39.9888 185.241 40.2682L182.807 41.2037C182.726 40.9376 182.603 40.5917 182.441 40.1661C182.291 39.7403 182.122 39.2947 181.932 38.8293C181.742 38.3505 181.56 37.9116 181.384 37.5128C181.221 37.1138 181.079 36.808 180.958 36.5955L183.352 35.7201ZM204.04 30.5678C204.361 30.7524 204.729 30.9701 205.144 31.2208C205.559 31.4715 205.981 31.7288 206.409 31.9927C206.851 32.2566 207.259 32.5139 207.634 32.7649C208.022 33.0024 208.35 33.2137 208.618 33.3986L207.132 35.6282C206.864 35.4299 206.536 35.2053 206.148 34.9544C205.76 34.7036 205.358 34.4461 204.943 34.1821C204.528 33.9181 204.113 33.6674 203.698 33.4301C203.296 33.1793 202.928 32.9616 202.594 32.7771L204.04 30.5678ZM200.411 44.7913C201.17 44.6531 201.929 44.4883 202.687 44.2967C203.459 44.0918 204.225 43.8402 204.983 43.5421C205.754 43.2438 206.499 42.899 207.216 42.5078C208.345 41.8605 209.394 41.1338 210.362 40.3276C211.344 39.5213 212.218 38.6624 212.986 37.7508C213.767 36.8391 214.421 35.9082 214.948 34.9582L216.505 37.6683C215.581 39.0609 214.436 40.3749 213.07 41.6103C211.718 42.8457 210.225 43.9419 208.591 44.899C207.914 45.29 207.17 45.6548 206.358 45.9933C205.56 46.3318 204.769 46.6235 203.984 46.8685C203.212 47.1268 202.527 47.3112 201.927 47.4217L200.411 44.7913ZM200.989 35.1474C201.323 35.3319 201.698 35.5496 202.113 35.8002C202.541 36.0375 202.97 36.2881 203.398 36.552C203.826 36.816 204.228 37.0667 204.603 37.3044C204.991 37.5419 205.312 37.7532 205.567 37.9382L204.121 40.1875C203.827 39.9894 203.492 39.7715 203.117 39.5339C202.742 39.283 202.34 39.0255 201.912 38.7616C201.497 38.4842 201.082 38.2269 200.667 37.9895C200.266 37.7521 199.891 37.5478 199.543 37.3767L200.989 35.1474ZM233.079 36.6823C233.027 36.816 232.988 36.9629 232.962 37.1231C232.937 37.2833 232.911 37.4168 232.885 37.5236C232.847 37.8038 232.789 38.1909 232.712 38.6847C232.649 39.1785 232.572 39.7256 232.483 40.3262C232.406 40.9134 232.324 41.5073 232.234 42.1079C232.145 42.7084 232.061 43.2556 231.985 43.7495C231.921 44.2432 231.864 44.6369 231.812 44.9306L229.072 44.9481C229.124 44.6678 229.181 44.3141 229.245 43.887C229.309 43.4466 229.38 42.9728 229.456 42.4656C229.546 41.945 229.623 41.4245 229.686 40.9041C229.763 40.3836 229.827 39.9032 229.877 39.4629C229.928 39.0225 229.959 38.669 229.97 38.4022C229.784 38.4034 229.497 38.4053 229.11 38.4077C228.737 38.4101 228.31 38.4129 227.83 38.4159C227.364 38.4189 226.897 38.4219 226.43 38.4249C225.977 38.4278 225.584 38.4303 225.25 38.4324C224.917 38.4345 224.69 38.436 224.57 38.4368C224.25 38.4388 223.904 38.4544 223.531 38.4834C223.171 38.499 222.851 38.5211 222.571 38.5495L222.554 35.9096C222.728 35.9352 222.935 35.9538 223.175 35.9656C223.415 35.9774 223.655 35.9892 223.895 36.001C224.148 36.0127 224.362 36.018 224.535 36.0169C224.735 36.0157 225.008 36.0139 225.355 36.0117C225.702 36.0095 226.082 36.007 226.495 36.0044C226.908 36.0018 227.322 35.9991 227.735 35.9965C228.148 35.9938 228.522 35.9915 228.855 35.9893C229.202 35.9871 229.468 35.9854 229.655 35.9842C229.802 35.9833 229.975 35.9755 230.175 35.9609C230.375 35.9463 230.568 35.925 230.754 35.8972C230.941 35.856 231.067 35.8085 231.133 35.7548L233.079 36.6823ZM220.766 44.0212C221.033 44.0461 221.34 44.0709 221.687 44.0953C222.047 44.1063 222.4 44.1107 222.747 44.1085C222.947 44.1073 223.313 44.1049 223.847 44.1015C224.393 44.098 225.033 44.0939 225.767 44.0892C226.513 44.0845 227.28 44.0796 228.067 44.0745C228.867 44.0694 229.626 44.0646 230.346 44.06C231.08 44.0553 231.706 44.0513 232.226 44.0479C232.746 44.0446 233.08 44.0425 233.226 44.0415C233.48 44.0399 233.806 44.0312 234.206 44.0153C234.606 43.9994 234.933 43.9773 235.186 43.949L235.202 46.529C235.069 46.5165 234.882 46.5043 234.642 46.4926C234.415 46.494 234.175 46.4889 233.922 46.4772C233.682 46.4787 233.469 46.48 233.282 46.4812C233.122 46.4823 232.775 46.4845 232.242 46.4879C231.709 46.4913 231.075 46.4953 230.342 46.5C229.609 46.5047 228.835 46.5097 228.022 46.5149C227.222 46.52 226.449 46.5249 225.702 46.5297C224.969 46.5344 224.336 46.5384 223.802 46.5418C223.269 46.5452 222.922 46.5475 222.762 46.5485C222.416 46.5507 222.096 46.5527 221.802 46.5546C221.509 46.5698 221.169 46.592 220.783 46.6211L220.766 44.0212ZM245.702 33.8616C246.275 33.9113 246.849 33.9543 247.422 33.9906C248.009 34.0135 248.603 34.0231 249.203 34.0192C250.429 34.0114 251.649 33.9503 252.862 33.8358C254.074 33.7214 255.193 33.5476 256.218 33.3144L256.234 35.8143C255.195 35.9676 254.069 36.0948 252.857 36.1959C251.644 36.2837 250.431 36.3314 249.218 36.3392C248.631 36.3429 248.044 36.34 247.457 36.3304C246.884 36.3074 246.304 36.2778 245.717 36.2416L245.702 33.8616ZM253.28 30.4331C253.254 30.6199 253.229 30.8268 253.204 31.0536C253.192 31.2803 253.18 31.5071 253.168 31.7338C253.156 31.9473 253.145 32.234 253.134 32.5941C253.123 32.9542 253.119 33.3609 253.121 33.8142C253.124 34.2542 253.127 34.7208 253.13 35.2142C253.136 36.1208 253.155 36.974 253.187 37.7738C253.218 38.5603 253.256 39.2934 253.301 39.9732C253.345 40.6396 253.382 41.2527 253.413 41.8125C253.456 42.3722 253.479 42.8921 253.483 43.3721C253.486 43.8921 253.416 44.3725 253.272 44.8134C253.141 45.2543 252.924 45.6424 252.619 45.9776C252.315 46.3129 251.91 46.5689 251.404 46.7454C250.912 46.9352 250.306 47.0324 249.586 47.0371C248.199 47.0459 247.104 46.7729 246.301 46.218C245.497 45.6632 245.092 44.8591 245.085 43.8057C245.081 43.1258 245.257 42.5313 245.614 42.0223C245.97 41.5 246.481 41.0968 247.146 40.8125C247.811 40.5149 248.597 40.3632 249.503 40.3574C250.45 40.3514 251.31 40.4459 252.085 40.6409C252.86 40.836 253.568 41.0981 254.21 41.4274C254.852 41.7566 255.421 42.1197 255.917 42.5165C256.426 42.8999 256.882 43.2703 257.284 43.6278L255.918 45.7366C255.153 45.0214 254.409 44.4062 253.686 43.8908C252.963 43.3754 252.24 42.98 251.518 42.7046C250.81 42.4291 250.076 42.2938 249.316 42.2987C248.756 42.3023 248.296 42.4119 247.938 42.6275C247.592 42.843 247.421 43.1441 247.423 43.5308C247.426 43.9308 247.608 44.223 247.969 44.4073C248.33 44.5917 248.771 44.6822 249.291 44.6789C249.704 44.6762 250.03 44.6075 250.27 44.4726C250.509 44.3244 250.674 44.1167 250.766 43.8494C250.87 43.5688 250.922 43.2351 250.919 42.8484C250.917 42.5018 250.901 42.0485 250.87 41.4887C250.84 40.9289 250.803 40.3025 250.758 39.6094C250.727 38.9163 250.696 38.1964 250.665 37.45C250.633 36.6901 250.615 35.9502 250.61 35.2303C250.606 34.4703 250.595 33.7837 250.577 33.1704C250.573 32.5438 250.57 32.0771 250.568 31.7705C250.567 31.6238 250.553 31.4172 250.524 31.1507C250.496 30.8842 250.461 30.6511 250.42 30.4514L253.28 30.4331ZM243.521 30.7155C243.482 30.8491 243.424 31.0361 243.345 31.2766C243.28 31.517 243.221 31.7507 243.17 31.9778C243.131 32.2047 243.099 32.3782 243.073 32.4984C243.008 32.7788 242.937 33.1593 242.86 33.6398C242.783 34.1069 242.7 34.6408 242.61 35.2414C242.534 35.8286 242.458 36.4357 242.382 37.0629C242.306 37.6767 242.25 38.2638 242.213 38.824C242.177 39.3709 242.16 39.8444 242.162 40.2444C242.164 40.4444 242.165 40.6643 242.167 40.9043C242.181 41.1309 242.209 41.3441 242.251 41.5438C242.342 41.3032 242.434 41.0693 242.526 40.842C242.631 40.6147 242.737 40.3874 242.842 40.16C242.947 39.9327 243.046 39.7054 243.137 39.4781L244.364 40.4703C244.181 41.0181 243.991 41.5927 243.795 42.194C243.612 42.7951 243.442 43.3629 243.286 43.8973C243.142 44.4315 243.032 44.8789 242.954 45.2394C242.928 45.3729 242.903 45.5331 242.877 45.7199C242.865 45.9066 242.86 46.06 242.86 46.18C242.861 46.2867 242.862 46.4133 242.863 46.56C242.877 46.7199 242.891 46.8665 242.906 46.9997L240.647 47.1942C240.429 46.4889 240.236 45.5901 240.069 44.4978C239.902 43.3922 239.815 42.1594 239.806 40.7994C239.801 40.0528 239.829 39.2726 239.891 38.4588C239.952 37.6318 240.021 36.838 240.096 36.0775C240.184 35.3169 240.273 34.623 240.362 33.9957C240.452 33.3552 240.522 32.8414 240.573 32.4544C240.611 32.1741 240.649 31.8605 240.686 31.5136C240.724 31.1534 240.749 30.8132 240.76 30.4931L243.521 30.7155ZM71.971 60.9125C72.7049 61.0012 73.5319 61.0626 74.4522 61.0967C75.3724 61.1308 76.3592 61.1445 77.4125 61.1378C78.0792 61.1335 78.7591 61.1158 79.4522 61.0847C80.1454 61.0536 80.8185 61.016 81.4715 60.9718C82.1245 60.9143 82.7042 60.8639 83.2106 60.8207L83.2276 63.4806C82.7611 63.5103 82.1947 63.5472 81.5283 63.5915C80.8752 63.6357 80.1888 63.6734 79.469 63.7047C78.7625 63.7359 78.0892 63.7535 77.4493 63.7576C76.4093 63.7642 75.4425 63.7504 74.5489 63.7161C73.6553 63.6685 72.8016 63.6206 71.988 63.5725L71.971 60.9125ZM73.7051 69.3816C73.614 69.7289 73.5362 70.0694 73.4716 70.4031C73.4071 70.7369 73.3759 71.0704 73.378 71.4038C73.3822 72.0571 73.7056 72.5884 74.3482 72.9976C75.0041 73.3934 76.052 73.5867 77.492 73.5775C78.3987 73.5717 79.2718 73.5328 80.1113 73.4608C80.9642 73.3886 81.7636 73.2969 82.5096 73.1854C83.2555 73.0607 83.9213 72.9164 84.5069 72.7527L84.5448 75.5525C83.9723 75.6895 83.3198 75.8136 82.5871 75.925C81.8678 76.0363 81.0883 76.1212 80.2487 76.1799C79.4225 76.2519 78.5427 76.2908 77.6094 76.2968C76.0761 76.3066 74.8017 76.1414 73.7862 75.8012C72.7707 75.4744 72.001 74.9993 71.477 74.376C70.9662 73.7392 70.7079 72.9609 70.7021 72.0409C70.6984 71.4676 70.7417 70.9406 70.832 70.46C70.9221 69.9661 70.9994 69.5323 71.0636 69.1585L73.7051 69.3816ZM83.7176 58.7774C83.8924 59.0163 84.0742 59.3018 84.263 59.6339C84.4652 59.966 84.6606 60.2981 84.8494 60.6302C85.0382 60.9624 85.2001 61.2547 85.335 61.5071L83.7195 62.2175C83.5169 61.8054 83.2672 61.3337 82.9705 60.8022C82.6871 60.2707 82.4108 59.8125 82.1417 59.4275L83.7176 58.7774ZM86.0918 57.8622C86.2667 58.1144 86.4552 58.4066 86.6574 58.7386C86.8595 59.0707 87.0549 59.4028 87.2437 59.7349C87.4458 60.0536 87.6076 60.3326 87.7291 60.5718L86.1335 61.262C85.9175 60.8501 85.6612 60.385 85.3645 59.8669C85.0678 59.3355 84.7783 58.884 84.4959 58.5124L86.0918 57.8622ZM88.9517 64.1041L98.5315 64.0428L98.5457 66.2628L88.9659 66.324L88.9517 64.1041ZM99.489 60.5167L101.809 60.5018L101.881 71.7416L99.5608 71.7564L99.489 60.5167ZM92.7462 60.0997L95.0861 60.0848L95.1934 76.8644L92.8534 76.8794L92.7462 60.0997ZM104.216 58.4264L106.596 58.4112L106.695 73.8909C106.699 74.5975 106.616 75.1314 106.445 75.4925C106.287 75.8668 106.002 76.1553 105.59 76.358C105.178 76.5473 104.639 76.6707 103.973 76.7283C103.306 76.7993 102.513 76.8377 101.593 76.8435C101.565 76.617 101.504 76.3508 101.408 76.0447C101.313 75.752 101.204 75.4527 101.083 75.1468C100.974 74.8541 100.859 74.5948 100.738 74.369C101.391 74.3914 102.011 74.4075 102.598 74.4171C103.185 74.4133 103.578 74.4108 103.778 74.4095C103.964 74.395 104.098 74.3541 104.177 74.287C104.27 74.2064 104.316 74.0727 104.315 73.8861L104.216 58.4264ZM96.754 58.1741L98.4657 60.0032C97.6278 60.3419 96.6964 60.6478 95.6715 60.9211C94.6466 61.1943 93.5947 61.4343 92.516 61.6412C91.4507 61.8481 90.4118 62.028 89.3994 62.1812C89.3576 61.9014 89.2623 61.582 89.1133 61.223C88.9642 60.8506 88.8223 60.5448 88.6874 60.3057C89.4066 60.1811 90.1391 60.0431 90.8848 59.8916C91.6305 59.7402 92.3562 59.5756 93.0617 59.3977C93.7806 59.2198 94.4527 59.0288 95.0781 58.8248C95.7035 58.6208 96.2621 58.4039 96.754 58.1741ZM92.7583 65.1198L94.3828 65.8294C94.1343 66.5777 93.8392 67.3529 93.4977 68.1551C93.1694 68.9439 92.8077 69.7262 92.4127 70.5021C92.0175 71.2646 91.5955 71.9873 91.1465 72.6702C90.7108 73.3397 90.2545 73.9226 89.7776 74.419C89.6961 74.1795 89.5811 73.9202 89.4327 73.6412C89.2842 73.3621 89.1291 73.0831 88.9673 72.8041C88.8189 72.5251 88.6773 72.2793 88.5426 72.0668C88.9666 71.6508 89.3835 71.1681 89.7934 70.6188C90.2165 70.0694 90.6128 69.4869 90.9822 68.8712C91.3649 68.2421 91.7075 67.6065 92.01 66.9646C92.3126 66.3226 92.562 65.7077 92.7583 65.1198ZM94.7911 67.1268C94.9787 67.2589 95.2533 67.4705 95.6152 67.7616C95.977 68.0393 96.3656 68.3434 96.7811 68.6741C97.1965 69.0048 97.5719 69.3158 97.9071 69.6069C98.2555 69.8847 98.5034 70.0831 98.6509 70.2022L97.2842 72.291C97.0691 72.0124 96.8004 71.7007 96.4782 71.3561C96.1559 70.9982 95.8136 70.6337 95.4512 70.2627C95.1022 69.8915 94.7599 69.5471 94.4246 69.2292C94.0891 68.898 93.794 68.6199 93.5392 68.3948L94.7911 67.1268ZM112.262 59.335L124.521 59.2566L124.536 61.5566L112.276 61.6349L112.262 59.335ZM112.291 63.9549L124.591 63.8763L124.605 66.1162L112.306 66.1949L112.291 63.9549ZM112.281 68.6751L124.701 68.5957L124.716 70.8556L112.296 70.935L112.281 68.6751ZM110.882 59.3438L113.242 59.3287L113.288 66.5286C113.293 67.3152 113.265 68.1754 113.204 69.1092C113.143 70.0429 113.016 70.9837 112.822 71.9317C112.642 72.8662 112.361 73.7613 111.979 74.6171C111.611 75.4728 111.123 76.2359 110.514 76.9065C110.393 76.7473 110.212 76.5684 109.971 76.37C109.729 76.1715 109.481 75.9798 109.227 75.7947C108.986 75.6096 108.778 75.4643 108.604 75.3587C109.147 74.7552 109.576 74.0925 109.891 73.3704C110.207 72.6351 110.435 71.8803 110.577 71.106C110.732 70.3183 110.827 69.5377 110.862 68.7641C110.91 67.9771 110.932 67.2303 110.928 66.5237L110.882 59.3438ZM123.681 59.262L126.081 59.2467L126.175 73.8664C126.179 74.5064 126.102 75.0002 125.944 75.3479C125.787 75.7089 125.502 75.984 125.09 76.1733C124.691 76.3626 124.178 76.4858 123.552 76.5432C122.926 76.6005 122.152 76.6255 121.232 76.618C121.19 76.2983 121.088 75.9123 120.925 75.46C120.762 75.0076 120.6 74.6287 120.438 74.323C120.824 74.3339 121.211 74.3448 121.598 74.3556C121.985 74.3532 122.325 74.351 122.618 74.3491C122.925 74.3471 123.145 74.3457 123.278 74.3449C123.465 74.3437 123.591 74.3096 123.657 74.2425C123.737 74.1753 123.776 74.0484 123.775 73.8617L123.681 59.262ZM117.047 60.2244L119.467 60.209L119.571 76.4886L117.152 76.5041L117.047 60.2244ZM133.25 60.5609C133.198 60.8012 133.153 61.0748 133.115 61.3818C133.09 61.6886 133.066 61.9887 133.041 62.2822C133.029 62.5757 133.024 62.8157 133.026 63.0024C133.015 63.4424 133.011 63.8958 133.014 64.3625C133.031 64.829 133.047 65.3089 133.063 65.8022C133.093 66.282 133.13 66.7618 133.173 67.2415C133.272 68.2009 133.411 69.0467 133.589 69.7789C133.767 70.5111 133.997 71.083 134.28 71.4945C134.562 71.8927 134.917 72.0905 135.344 72.0877C135.57 72.0863 135.79 71.9582 136.001 71.7035C136.226 71.4487 136.424 71.1208 136.595 70.7197C136.779 70.3052 136.936 69.8708 137.067 69.4167C137.21 68.9624 137.334 68.5349 137.438 68.1343L139.454 70.5614C139.021 71.7242 138.587 72.6537 138.152 73.3498C137.729 74.0325 137.286 74.5287 136.821 74.8383C136.357 75.1346 135.851 75.2846 135.304 75.288C134.584 75.2926 133.896 75.057 133.24 74.5812C132.597 74.1053 132.045 73.3355 131.585 72.2718C131.125 71.1947 130.795 69.7634 130.597 67.978C130.527 67.3651 130.469 66.7188 130.425 66.039C130.394 65.3592 130.37 64.7127 130.353 64.0995C130.349 63.4861 130.345 62.9795 130.343 62.5795C130.341 62.2995 130.326 61.9663 130.296 61.5798C130.267 61.1933 130.225 60.8469 130.17 60.5406L133.25 60.5609ZM143.253 60.9569C143.629 61.4079 143.992 61.9589 144.343 62.61C144.694 63.2611 145.019 63.9591 145.317 64.7038C145.615 65.4486 145.88 66.2136 146.111 66.9988C146.343 67.7707 146.528 68.5295 146.666 69.2753C146.817 70.0077 146.915 70.6804 146.959 71.2935L144.325 72.3303C144.254 71.5174 144.128 70.6316 143.948 69.6727C143.769 68.7138 143.529 67.7487 143.23 66.7772C142.93 65.8058 142.571 64.8881 142.152 64.024C141.747 63.16 141.269 62.4163 140.718 61.7932L143.253 60.9569ZM157.519 58.7457C157.441 59.0129 157.363 59.3401 157.285 59.7272C157.208 60.1144 157.15 60.4148 157.111 60.6284C157.02 61.0823 156.904 61.6364 156.761 62.2906C156.632 62.9448 156.483 63.6391 156.315 64.3735C156.159 65.1079 155.997 65.8089 155.828 66.4767C155.659 67.1844 155.451 67.9525 155.203 68.7807C154.955 69.5957 154.687 70.4307 154.399 71.2859C154.124 72.1277 153.843 72.9362 153.554 73.7114C153.266 74.4732 152.984 75.155 152.707 75.7568L149.922 74.8346C150.212 74.3261 150.521 73.7108 150.85 72.9886C151.178 72.2532 151.493 71.4645 151.795 70.6226C152.109 69.7805 152.397 68.9453 152.659 68.117C152.92 67.2886 153.142 66.5205 153.324 65.8127C153.454 65.3452 153.578 64.8644 153.695 64.3703C153.812 63.8762 153.915 63.3955 154.006 62.9283C154.096 62.461 154.173 62.0272 154.237 61.6268C154.315 61.2129 154.372 60.8525 154.41 60.5456C154.448 60.172 154.472 59.7986 154.483 59.4251C154.494 59.0517 154.485 58.7518 154.457 58.5253L157.519 58.7457ZM152.438 61.7583C153.251 61.7531 154.098 61.7076 154.977 61.622C155.857 61.5364 156.743 61.4174 157.635 61.265C158.527 61.1127 159.413 60.9337 160.292 60.728L160.308 63.228C159.482 63.4199 158.603 63.5856 157.671 63.7249C156.738 63.8642 155.819 63.9767 154.913 64.0625C154.007 64.1349 153.173 64.1736 152.413 64.1785C151.933 64.1815 151.5 64.1776 151.113 64.1668C150.727 64.1426 150.353 64.125 149.993 64.1139L149.917 61.6144C150.437 61.6644 150.884 61.7015 151.258 61.7258C151.631 61.7501 152.025 61.7609 152.438 61.7583ZM158.737 64.7781C159.297 64.7211 159.917 64.6705 160.597 64.6262C161.276 64.5818 161.936 64.5576 162.576 64.5535C163.149 64.5499 163.729 64.5595 164.316 64.5824C164.916 64.6052 165.51 64.6481 166.097 64.711L166.052 67.1114C165.559 67.0478 165.012 66.998 164.412 66.9618C163.825 66.9123 163.224 66.8894 162.611 66.8933C161.931 66.8977 161.271 66.9219 160.631 66.966C160.005 66.9967 159.379 67.054 158.753 67.138L158.737 64.7781ZM159.85 69.8111C159.771 70.0916 159.707 70.3853 159.655 70.6923C159.604 70.986 159.579 71.2461 159.58 71.4728C159.582 71.6861 159.63 71.8858 159.724 72.0719C159.819 72.258 159.966 72.4237 160.167 72.5691C160.368 72.7011 160.642 72.806 160.989 72.8838C161.35 72.9615 161.797 72.9987 162.33 72.9953C163.01 72.9909 163.69 72.9532 164.369 72.8822C165.062 72.7978 165.768 72.6866 166.487 72.5487L166.404 75.1093C165.844 75.1795 165.224 75.2435 164.545 75.3012C163.865 75.3722 163.125 75.4102 162.325 75.4153C160.646 75.4261 159.357 75.161 158.46 74.62C157.577 74.0657 157.132 73.2818 157.125 72.2685C157.122 71.8152 157.159 71.3549 157.236 70.8878C157.313 70.4206 157.391 69.9868 157.468 69.5863L159.85 69.8111ZM176.92 58.8417C176.842 59.1222 176.757 59.4561 176.666 59.8434C176.589 60.2172 176.531 60.5176 176.492 60.7445C176.402 61.1984 176.285 61.7525 176.143 62.4068C176.013 63.0609 175.871 63.7552 175.716 64.4895C175.561 65.2105 175.398 65.9116 175.229 66.5927C175.047 67.2872 174.832 68.0486 174.584 68.8769C174.349 69.705 174.088 70.5401 173.8 71.3819C173.525 72.2237 173.244 73.0322 172.955 73.8074C172.667 74.5826 172.385 75.271 172.109 75.8728L169.303 74.9507C169.606 74.4421 169.915 73.8201 170.231 73.0848C170.559 72.3493 170.881 71.5672 171.196 70.7386C171.51 69.8965 171.798 69.0613 172.06 68.233C172.321 67.3913 172.543 66.6232 172.725 65.9287C172.842 65.4479 172.959 64.9605 173.076 64.4664C173.193 63.9723 173.296 63.4916 173.387 63.0244C173.49 62.5571 173.574 62.1232 173.638 61.7228C173.716 61.3089 173.773 60.9552 173.811 60.6616C173.849 60.288 173.873 59.9146 173.884 59.5411C173.895 59.1677 173.887 58.8611 173.858 58.6213L176.92 58.8417ZM171.839 61.8743C172.652 61.8691 173.499 61.8237 174.378 61.738C175.258 61.6524 176.144 61.5334 177.036 61.381C177.928 61.2153 178.814 61.0297 179.693 60.824L179.709 63.324C178.883 63.5293 178.004 63.7016 177.072 63.8409C176.139 63.9802 175.22 64.0927 174.314 64.1785C173.408 64.251 172.575 64.2896 171.815 64.2945C171.335 64.2975 170.901 64.2936 170.515 64.2828C170.128 64.2586 169.754 64.241 169.394 64.2299L169.318 61.7304C169.839 61.7804 170.285 61.8175 170.659 61.8418C171.032 61.8661 171.426 61.8769 171.839 61.8743ZM178.139 64.8941C178.698 64.8238 179.318 64.7732 179.998 64.7422C180.677 64.6978 181.337 64.6736 181.977 64.6695C182.551 64.6659 183.131 64.6755 183.717 64.6984C184.318 64.7212 184.911 64.7641 185.498 64.827L185.454 67.2274C184.96 67.1638 184.413 67.1073 183.813 67.0578C183.226 67.0083 182.625 66.9854 182.012 66.9893C181.319 66.9938 180.659 67.018 180.032 67.062C179.406 67.0927 178.78 67.15 178.154 67.234L178.139 64.8941ZM179.251 69.9071C179.172 70.1876 179.108 70.4813 179.056 70.7883C179.005 71.0953 178.98 71.3555 178.981 71.5688C178.983 71.7955 179.031 72.0018 179.125 72.1879C179.22 72.374 179.367 72.5397 179.568 72.6851C179.769 72.8171 180.043 72.9221 180.39 72.9998C180.751 73.0642 181.198 73.0947 181.731 73.0913C182.398 73.087 183.077 73.0493 183.77 72.9782C184.463 72.9071 185.169 72.8026 185.888 72.6647L185.805 75.2053C185.245 75.2889 184.626 75.3595 183.946 75.4172C183.266 75.4882 182.527 75.5262 181.727 75.5313C180.047 75.5421 178.758 75.2703 177.861 74.716C176.978 74.1617 176.533 73.3845 176.526 72.3845C176.523 71.9179 176.554 71.451 176.617 70.9839C176.694 70.5167 176.772 70.0896 176.849 69.7024L179.251 69.9071ZM183.323 59.3808C183.498 59.6197 183.68 59.9052 183.869 60.2373C184.071 60.5694 184.267 60.9015 184.455 61.2336C184.644 61.5657 184.799 61.8581 184.921 62.1107L183.325 62.8209C183.19 62.5417 183.035 62.236 182.86 61.9038C182.684 61.5716 182.502 61.2394 182.313 60.9073C182.124 60.5752 181.936 60.2897 181.748 60.0509L183.323 59.3808ZM185.678 58.4657C185.866 58.7045 186.061 58.9966 186.263 59.342C186.465 59.6741 186.661 60.0062 186.85 60.3383C187.052 60.657 187.207 60.936 187.315 61.1753L185.739 61.8654C185.523 61.4401 185.267 60.9684 184.97 60.4503C184.674 59.9322 184.384 59.4874 184.102 59.1158L185.678 58.4657ZM193.249 60.1774C193.197 60.4177 193.152 60.6914 193.114 60.9983C193.089 61.3051 193.065 61.6053 193.04 61.8988C193.028 62.1922 193.023 62.4322 193.024 62.6189C193.014 63.059 193.01 63.5123 193.013 63.979C193.029 64.4455 193.046 64.9255 193.062 65.4187C193.092 65.8985 193.128 66.3783 193.171 66.858C193.271 67.8174 193.41 68.6632 193.588 69.3954C193.766 70.1276 193.996 70.6995 194.279 71.111C194.561 71.5092 194.916 71.707 195.342 71.7042C195.569 71.7028 195.788 71.5747 196 71.32C196.225 71.0653 196.423 70.7373 196.594 70.3362C196.778 69.9217 196.935 69.4874 197.065 69.0332C197.209 68.5789 197.333 68.1514 197.437 67.7508L199.453 70.1779C199.02 71.3407 198.586 72.2702 198.151 72.9663C197.728 73.649 197.285 74.1452 196.82 74.4549C196.355 74.7512 195.85 74.9011 195.303 74.9046C194.583 74.9092 193.895 74.6736 193.238 74.1977C192.595 73.7218 192.044 72.952 191.584 71.8883C191.123 70.8112 190.794 69.3799 190.596 67.5945C190.525 66.9816 190.468 66.3353 190.424 65.6556C190.393 64.9757 190.369 64.3292 190.351 63.716C190.347 63.1027 190.344 62.596 190.342 62.196C190.34 61.916 190.324 61.5828 190.295 61.1963C190.266 60.8098 190.224 60.4634 190.169 60.1571L193.249 60.1774ZM203.251 60.5735C203.628 61.0244 203.991 61.5754 204.342 62.2265C204.693 62.8776 205.017 63.5756 205.315 64.3204C205.614 65.0651 205.878 65.8301 206.11 66.6153C206.342 67.3872 206.527 68.146 206.665 68.8918C206.816 69.6242 206.914 70.2969 206.958 70.91L204.324 71.9468C204.252 71.134 204.127 70.2481 203.947 69.2892C203.768 68.3303 203.528 67.3652 203.229 66.3937C202.929 65.4223 202.57 64.5046 202.151 63.6406C201.746 62.7765 201.267 62.0328 200.717 61.4097L203.251 60.5735ZM217.518 58.3622C217.439 58.6294 217.361 58.9566 217.284 59.3438C217.206 59.7309 217.148 60.0313 217.11 60.2449C217.019 60.6988 216.903 61.2529 216.76 61.9072C216.631 62.5613 216.482 63.2556 216.314 63.9901C216.158 64.7244 215.996 65.4254 215.827 66.0932C215.658 66.801 215.45 67.569 215.202 68.3972C214.954 69.2122 214.686 70.0472 214.398 70.9024C214.123 71.7442 213.842 72.5527 213.553 73.3279C213.265 74.0897 212.982 74.7716 212.706 75.3733L209.92 74.4511C210.21 73.9426 210.52 73.3273 210.849 72.6052C211.177 71.8697 211.492 71.081 211.793 70.2391C212.108 69.397 212.396 68.5618 212.657 67.7335C212.919 66.9051 213.141 66.137 213.323 65.4292C213.453 64.9617 213.577 64.4809 213.693 63.9868C213.81 63.4927 213.914 63.012 214.004 62.5448C214.095 62.0775 214.172 61.6437 214.236 61.2433C214.313 60.8294 214.371 60.4691 214.409 60.1621C214.447 59.7886 214.471 59.4151 214.482 59.0417C214.493 58.6682 214.484 58.3683 214.456 58.1418L217.518 58.3622ZM212.437 61.3748C213.25 61.3696 214.096 61.3242 214.976 61.2385C215.855 61.1529 216.741 61.0339 217.634 60.8815C218.526 60.7292 219.412 60.5502 220.29 60.3446L220.306 62.8445C219.481 63.0365 218.602 63.2021 217.669 63.3414C216.737 63.4807 215.818 63.5932 214.912 63.679C214.005 63.7515 213.172 63.7901 212.412 63.795C211.932 63.7981 211.499 63.7942 211.112 63.7833C210.725 63.7591 210.352 63.7415 209.992 63.7305L209.916 61.2309C210.436 61.2809 210.883 61.318 211.257 61.3423C211.63 61.3666 212.023 61.3774 212.437 61.3748ZM218.736 64.3946C219.296 64.3377 219.916 64.287 220.595 64.2427C221.275 64.1983 221.935 64.1741 222.575 64.17C223.148 64.1664 223.728 64.176 224.315 64.1989C224.915 64.2217 225.509 64.2646 226.096 64.3275L226.051 66.7279C225.558 66.6644 225.011 66.6145 224.41 66.5784C223.823 66.5288 223.223 66.5059 222.61 66.5099C221.93 66.5142 221.27 66.5384 220.63 66.5825C220.004 66.6132 219.377 66.6705 218.751 66.7545L218.736 64.3946ZM219.848 69.4276C219.77 69.7081 219.705 70.0018 219.654 70.3088C219.603 70.6025 219.578 70.8627 219.579 71.0893C219.58 71.3027 219.628 71.5024 219.723 71.6884C219.817 71.8745 219.965 72.0402 220.166 72.1856C220.367 72.3176 220.641 72.4226 220.988 72.5003C221.349 72.578 221.795 72.6152 222.329 72.6118C223.009 72.6074 223.689 72.5698 224.368 72.4987C225.061 72.4143 225.767 72.3031 226.486 72.1652L226.402 74.7258C225.843 74.796 225.223 74.86 224.544 74.9177C223.864 74.9887 223.124 75.0267 222.324 75.0319C220.644 75.0426 219.356 74.7775 218.459 74.2365C217.576 73.6822 217.131 72.8983 217.124 71.885C217.121 71.4317 217.158 70.9715 217.235 70.5043C217.312 70.0371 217.389 69.6033 217.467 69.2028L219.848 69.4276ZM228.991 60.469L247.131 60.353L247.146 62.633L229.006 62.7489L228.991 60.469ZM235.703 65.3262L243.362 65.2772L243.377 67.5372L235.717 67.5861L235.703 65.3262ZM242.462 65.283L244.942 65.2671C244.942 65.2671 244.936 65.3338 244.924 65.4672C244.924 65.5872 244.925 65.7272 244.926 65.8872C244.927 66.0472 244.915 66.1873 244.889 66.3075C244.781 68.1349 244.657 69.629 244.518 70.7899C244.378 71.9508 244.217 72.8586 244.035 73.5131C243.852 74.1542 243.629 74.6224 243.364 74.9174C243.059 75.2527 242.741 75.4814 242.408 75.6035C242.076 75.7256 241.676 75.8149 241.21 75.8712C240.824 75.9136 240.317 75.9302 239.69 75.9209C239.064 75.9249 238.417 75.9157 237.75 75.8933C237.735 75.5467 237.645 75.1473 237.482 74.695C237.32 74.256 237.117 73.8706 236.875 73.5388C237.569 73.6011 238.236 73.6368 238.876 73.646C239.516 73.6553 239.976 73.659 240.256 73.6572C240.483 73.6558 240.669 73.6413 240.816 73.6136C240.975 73.5726 241.115 73.4984 241.234 73.391C241.446 73.2163 241.624 72.8351 241.767 72.2475C241.923 71.6599 242.058 70.8257 242.171 69.7449C242.284 68.6642 242.382 67.2968 242.465 65.6429L242.462 65.283ZM234.78 61.792L237.46 61.7749C237.413 62.8418 237.334 63.9224 237.221 65.0164C237.121 66.0971 236.941 67.1716 236.681 68.24C236.421 69.295 236.041 70.3041 235.54 71.2673C235.04 72.2305 234.379 73.1281 233.558 73.96C232.736 74.792 231.694 75.532 230.432 76.1801C230.256 75.8478 230.001 75.4895 229.665 75.1049C229.342 74.7203 229.027 74.4023 228.719 74.151C229.875 73.6102 230.818 72.9842 231.547 72.2729C232.289 71.5481 232.871 70.771 233.292 69.9417C233.713 69.0989 234.021 68.2236 234.215 67.3157C234.423 66.4077 234.557 65.4868 234.618 64.5531C234.692 63.6192 234.746 62.6989 234.78 61.792ZM236.67 57.1198L239.17 57.1038L239.197 61.3037L236.697 61.3197L236.67 57.1198ZM259.871 60.3516C259.744 61.3657 259.578 62.4468 259.372 63.5948C259.166 64.7428 258.887 65.9047 258.534 67.0803C258.156 68.4294 257.71 69.5923 257.196 70.5689C256.683 71.5455 256.114 72.3025 255.491 72.8398C254.881 73.3637 254.209 73.628 253.476 73.6327C252.743 73.6374 252.061 73.3951 251.431 72.9058C250.815 72.403 250.317 71.7129 249.938 70.8353C249.572 69.9576 249.386 68.9588 249.379 67.8388C249.371 66.6788 249.598 65.584 250.058 64.5544C250.518 63.5248 251.159 62.614 251.98 61.822C252.815 61.0167 253.785 60.3838 254.888 59.9234C256.005 59.4629 257.211 59.2286 258.504 59.2203C259.744 59.2124 260.859 59.4053 261.848 59.7989C262.85 60.1925 263.707 60.7404 264.418 61.4425C265.129 62.1447 265.675 62.9679 266.054 63.9121C266.433 64.8564 266.627 65.8752 266.634 66.9685C266.643 68.3685 266.364 69.6236 265.798 70.7339C265.231 71.8442 264.384 72.763 263.255 73.4902C262.14 74.2174 260.743 74.7196 259.065 74.997L257.55 72.6267C257.936 72.5842 258.276 72.5354 258.569 72.4802C258.862 72.4249 259.141 72.3632 259.408 72.2948C260.046 72.1307 260.638 71.9003 261.183 71.6034C261.741 71.2932 262.225 70.9168 262.636 70.4741C263.046 70.0182 263.363 69.4895 263.586 68.888C263.822 68.2865 263.938 67.6257 263.933 66.9058C263.928 66.1191 263.804 65.3999 263.559 64.7481C263.315 64.0963 262.958 63.5319 262.489 63.0549C262.019 62.5646 261.45 62.1949 260.781 61.9458C260.113 61.6834 259.346 61.555 258.479 61.5605C257.412 61.5673 256.474 61.7667 255.663 62.1585C254.852 62.537 254.168 63.0281 253.612 63.6317C253.056 64.2352 252.633 64.8846 252.344 65.5798C252.069 66.2749 251.933 66.9358 251.937 67.5624C251.941 68.2291 252.025 68.7886 252.188 69.2409C252.351 69.6798 252.546 70.0119 252.774 70.2371C253.016 70.4489 253.27 70.554 253.536 70.5523C253.816 70.5505 254.089 70.4087 254.354 70.127C254.632 69.8319 254.902 69.3902 255.165 68.8018C255.428 68.2135 255.69 67.4718 255.951 66.5768C256.251 65.6148 256.505 64.5865 256.711 63.4918C256.918 62.3972 257.064 61.3295 257.151 60.289L259.871 60.3516Z" fill="#333333"/>
<g clip-path="url(#clip0_119_1926)">
<path d="M41.9118 97.8608C44.4327 97.8608 46.4952 99.9233 46.4952 102.444C46.4952 104.965 44.4327 107.028 41.9118 107.028C39.391 107.028 37.3285 104.965 37.3285 102.444C37.3285 99.9233 39.391 97.8608 41.9118 97.8608ZM50.8493 111.84C49.9327 110.923 48.3285 109.319 45.3493 109.319H39.6202C33.2035 109.319 28.1618 104.278 28.1618 97.8608H23.5785C23.5785 105.194 28.391 111.153 35.0368 113.215V143.694H39.6202V129.944H44.2035V143.694H48.7868V116.423L57.9535 125.361L61.1618 122.153L50.8493 111.84Z" fill="#4FA668"/>
</g>
<g clip-path="url(#clip1_119_1926)">
<path d="M69.9118 97.8608C72.4327 97.8608 74.4952 99.9233 74.4952 102.444C74.4952 104.965 72.4327 107.028 69.9118 107.028C67.391 107.028 65.3285 104.965 65.3285 102.444C65.3285 99.9233 67.391 97.8608 69.9118 97.8608ZM78.8493 111.84C77.9327 110.923 76.3285 109.319 73.3493 109.319H67.6202C61.2035 109.319 56.1618 104.278 56.1618 97.8608H51.5785C51.5785 105.194 56.391 111.153 63.0368 113.215V143.694H67.6202V129.944H72.2035V143.694H76.7868V116.423L85.9535 125.361L89.1618 122.153L78.8493 111.84Z" fill="#4FA668"/>
</g>
<g clip-path="url(#clip2_119_1926)">
<path d="M97.9118 97.8608C100.433 97.8608 102.495 99.9233 102.495 102.444C102.495 104.965 100.433 107.028 97.9118 107.028C95.391 107.028 93.3285 104.965 93.3285 102.444C93.3285 99.9233 95.391 97.8608 97.9118 97.8608ZM106.849 111.84C105.933 110.923 104.328 109.319 101.349 109.319H95.6202C89.2035 109.319 84.1618 104.278 84.1618 97.8608H79.5785C79.5785 105.194 84.391 111.153 91.0368 113.215V143.694H95.6202V129.944H100.203V143.694H104.787V116.423L113.953 125.361L117.162 122.153L106.849 111.84Z" fill="#4FA668"/>
</g>
<g clip-path="url(#clip3_119_1926)">
<path d="M125.912 97.8608C128.433 97.8608 130.495 99.9233 130.495 102.444C130.495 104.965 128.433 107.028 125.912 107.028C123.391 107.028 121.328 104.965 121.328 102.444C121.328 99.9233 123.391 97.8608 125.912 97.8608ZM134.849 111.84C133.933 110.923 132.328 109.319 129.349 109.319H123.62C117.203 109.319 112.162 104.278 112.162 97.8608H107.578C107.578 105.194 112.391 111.153 119.037 113.215V143.694H123.62V129.944H128.203V143.694H132.787V116.423L141.953 125.361L145.162 122.153L134.849 111.84Z" fill="#4FA668"/>
</g>
<g clip-path="url(#clip4_119_1926)">
<path d="M153.912 97.8608C156.433 97.8608 158.495 99.9233 158.495 102.444C158.495 104.965 156.433 107.028 153.912 107.028C151.391 107.028 149.328 104.965 149.328 102.444C149.328 99.9233 151.391 97.8608 153.912 97.8608ZM162.849 111.84C161.933 110.923 160.328 109.319 157.349 109.319H151.62C145.203 109.319 140.162 104.278 140.162 97.8608H135.578C135.578 105.194 140.391 111.153 147.037 113.215V143.694H151.62V129.944H156.203V143.694H160.787V116.423L169.953 125.361L173.162 122.153L162.849 111.84Z" fill="#4FA668"/>
</g>
<g clip-path="url(#clip5_119_1926)">
<path d="M41.9118 152.861C44.4327 152.861 46.4952 154.923 46.4952 157.444C46.4952 159.965 44.4327 162.028 41.9118 162.028C39.391 162.028 37.3285 159.965 37.3285 157.444C37.3285 154.923 39.391 152.861 41.9118 152.861ZM50.8493 166.84C49.9327 165.923 48.3285 164.319 45.3493 164.319H39.6202C33.2035 164.319 28.1618 159.278 28.1618 152.861H23.5785C23.5785 160.194 28.391 166.153 35.0368 168.215V198.694H39.6202V184.944H44.2035V198.694H48.7868V171.423L57.9535 180.361L61.1618 177.153L50.8493 166.84Z" fill="#4FA668"/>
</g>
<g clip-path="url(#clip6_119_1926)">
<path d="M69.9118 152.861C72.4327 152.861 74.4952 154.923 74.4952 157.444C74.4952 159.965 72.4327 162.028 69.9118 162.028C67.391 162.028 65.3285 159.965 65.3285 157.444C65.3285 154.923 67.391 152.861 69.9118 152.861ZM78.8493 166.84C77.9327 165.923 76.3285 164.319 73.3493 164.319H67.6202C61.2035 164.319 56.1618 159.278 56.1618 152.861H51.5785C51.5785 160.194 56.391 166.153 63.0368 168.215V198.694H67.6202V184.944H72.2035V198.694H76.7868V171.423L85.9535 180.361L89.1618 177.153L78.8493 166.84Z" fill="#4FA668"/>
</g>
<g clip-path="url(#clip7_119_1926)">
<path d="M97.9118 152.861C100.433 152.861 102.495 154.923 102.495 157.444C102.495 159.965 100.433 162.028 97.9118 162.028C95.391 162.028 93.3285 159.965 93.3285 157.444C93.3285 154.923 95.391 152.861 97.9118 152.861ZM106.849 166.84C105.933 165.923 104.328 164.319 101.349 164.319H95.6202C89.2035 164.319 84.1618 159.278 84.1618 152.861H79.5785C79.5785 160.194 84.391 166.153 91.0368 168.215V198.694H95.6202V184.944H100.203V198.694H104.787V171.423L113.953 180.361L117.162 177.153L106.849 166.84Z" fill="#4FA668"/>
</g>
<g clip-path="url(#clip8_119_1926)">
<path d="M125.912 152.861C128.433 152.861 130.495 154.923 130.495 157.444C130.495 159.965 128.433 162.028 125.912 162.028C123.391 162.028 121.328 159.965 121.328 157.444C121.328 154.923 123.391 152.861 125.912 152.861ZM134.849 166.84C133.933 165.923 132.328 164.319 129.349 164.319H123.62C117.203 164.319 112.162 159.278 112.162 152.861H107.578C107.578 160.194 112.391 166.153 119.037 168.215V198.694H123.62V184.944H128.203V198.694H132.787V171.423L141.953 180.361L145.162 177.153L134.849 166.84Z" fill="#4FA668"/>
</g>
<path d="M153.912 152.861C155.127 152.861 156.293 153.344 157.153 154.203C158.012 155.063 158.495 156.229 158.495 157.444C158.495 158.66 158.012 159.826 157.153 160.685C156.293 161.545 155.127 162.028 153.912 162.028C152.696 162.028 151.53 161.545 150.671 160.685C149.811 159.826 149.328 158.66 149.328 157.444C149.328 156.229 149.811 155.063 150.671 154.203C151.53 153.344 152.696 152.861 153.912 152.861ZM150.474 164.319H157.349C158.565 164.319 159.731 164.802 160.59 165.662C161.45 166.521 161.933 167.687 161.933 168.903V181.507H158.495V198.694H149.328V181.507H145.891V168.903C145.891 167.687 146.374 166.521 147.233 165.662C148.093 164.802 149.259 164.319 150.474 164.319Z" fill="#D9D9D9"/>
<path d="M187.231 122.442L187.215 120.042L190.415 120.021L190.356 110.681L187.656 110.699L187.644 108.859C188.39 108.721 189.029 108.556 189.561 108.366C190.106 108.163 190.611 107.906 191.076 107.597L193.256 107.583L193.335 120.003L196.115 119.985L196.131 122.385L187.231 122.442ZM203.289 122.619C202.289 122.625 201.407 122.344 200.644 121.776C199.893 121.194 199.301 120.331 198.867 119.187C198.446 118.03 198.231 116.598 198.22 114.891C198.209 113.198 198.406 111.79 198.813 110.667C199.232 109.531 199.813 108.681 200.556 108.116C201.313 107.551 202.191 107.266 203.191 107.259C204.204 107.253 205.086 107.534 205.836 108.102C206.587 108.658 207.172 109.494 207.592 110.611C208.026 111.728 208.249 113.134 208.259 114.827C208.27 116.534 208.066 117.968 207.647 119.131C207.241 120.28 206.666 121.151 205.924 121.742C205.181 122.32 204.302 122.612 203.289 122.619ZM203.274 120.319C203.714 120.316 204.1 120.147 204.431 119.812C204.762 119.476 205.019 118.914 205.2 118.127C205.382 117.325 205.468 116.232 205.459 114.845C205.451 113.472 205.351 112.399 205.159 111.627C204.967 110.841 204.704 110.296 204.368 109.992C204.033 109.674 203.645 109.516 203.205 109.519C202.792 109.522 202.413 109.684 202.068 110.006C201.737 110.315 201.474 110.864 201.279 111.652C201.084 112.426 200.991 113.5 201 114.873C201.008 116.26 201.115 117.353 201.321 118.151C201.526 118.937 201.796 119.495 202.131 119.826C202.48 120.157 202.861 120.322 203.274 120.319ZM217.398 105.728L220.158 105.711C220.135 106.271 220.093 106.991 220.032 107.872C219.971 108.752 219.851 109.733 219.671 110.814C219.504 111.882 219.245 113.003 218.892 114.179C218.54 115.355 218.054 116.531 217.435 117.708C216.829 118.872 216.049 119.991 215.096 121.063C214.156 122.123 213.009 123.07 211.654 123.906C211.439 123.6 211.144 123.275 210.768 122.931C210.406 122.587 210.024 122.276 209.622 121.998C210.951 121.243 212.065 120.383 212.966 119.417C213.866 118.451 214.6 117.44 215.166 116.383C215.733 115.313 216.166 114.243 216.466 113.175C216.766 112.093 216.979 111.071 217.106 110.11C217.234 109.15 217.308 108.289 217.33 107.529C217.352 106.769 217.374 106.169 217.398 105.728ZM220.062 106.251C220.077 106.505 220.106 106.904 220.149 107.451C220.193 107.997 220.277 108.65 220.402 109.409C220.527 110.169 220.712 110.994 220.958 111.886C221.217 112.764 221.556 113.669 221.975 114.599C222.394 115.53 222.914 116.44 223.533 117.329C224.152 118.219 224.897 119.041 225.768 119.795C226.653 120.55 227.684 121.203 228.861 121.755C228.476 122.038 228.118 122.367 227.787 122.742C227.47 123.118 227.212 123.473 227.014 123.807C225.784 123.202 224.706 122.482 223.78 121.648C222.868 120.8 222.082 119.885 221.423 118.903C220.776 117.907 220.236 116.897 219.803 115.873C219.37 114.849 219.017 113.845 218.744 112.86C218.484 111.862 218.285 110.936 218.146 110.084C218.007 109.231 217.909 108.492 217.852 107.866C217.808 107.239 217.772 106.786 217.743 106.506L220.062 106.251ZM238.054 108.136C238.668 108.213 239.355 108.268 240.115 108.303C240.889 108.325 241.669 108.333 242.455 108.328C243.255 108.31 244.022 108.278 244.755 108.234C245.488 108.176 246.121 108.118 246.654 108.061L246.67 110.641C246.057 110.699 245.384 110.75 244.651 110.794C243.918 110.826 243.165 110.844 242.392 110.849C241.618 110.854 240.858 110.845 240.111 110.823C239.378 110.788 238.698 110.746 238.071 110.696L238.054 108.136ZM239.709 116.666C239.631 117 239.573 117.3 239.534 117.567C239.496 117.821 239.478 118.081 239.479 118.348C239.481 118.561 239.535 118.761 239.643 118.947C239.751 119.119 239.912 119.271 240.126 119.403C240.354 119.522 240.641 119.613 240.988 119.678C241.348 119.729 241.782 119.753 242.288 119.75C243.182 119.744 244.022 119.699 244.808 119.614C245.594 119.515 246.426 119.377 247.305 119.198L247.362 121.897C246.723 122.021 245.984 122.119 245.144 122.191C244.318 122.263 243.338 122.303 242.205 122.31C240.485 122.321 239.203 122.043 238.359 121.475C237.516 120.893 237.091 120.09 237.084 119.063C237.081 118.676 237.106 118.276 237.156 117.862C237.22 117.435 237.304 116.968 237.407 116.461L239.709 116.666ZM234.966 106.816C234.913 106.95 234.854 107.137 234.789 107.377C234.724 107.618 234.659 107.851 234.594 108.079C234.542 108.306 234.503 108.479 234.477 108.599C234.439 108.88 234.375 109.247 234.284 109.701C234.207 110.141 234.123 110.642 234.034 111.202C233.957 111.749 233.881 112.31 233.804 112.884C233.728 113.458 233.665 114.011 233.615 114.545C233.578 115.079 233.561 115.545 233.564 115.945C233.565 116.132 233.567 116.345 233.568 116.585C233.583 116.825 233.611 117.045 233.652 117.245C233.744 117.018 233.843 116.79 233.948 116.563C234.053 116.336 234.158 116.108 234.264 115.881C234.369 115.64 234.461 115.413 234.539 115.199L235.785 116.171C235.602 116.719 235.413 117.307 235.217 117.935C235.034 118.563 234.865 119.157 234.708 119.718C234.565 120.266 234.454 120.72 234.377 121.08C234.351 121.227 234.325 121.394 234.3 121.581C234.288 121.767 234.282 121.914 234.283 122.021C234.283 122.128 234.284 122.254 234.285 122.401C234.3 122.561 234.314 122.707 234.328 122.841L232.009 123.015C231.805 122.323 231.619 121.405 231.451 120.259C231.284 119.1 231.196 117.84 231.187 116.481C231.183 115.734 231.211 114.974 231.273 114.2C231.334 113.426 231.41 112.686 231.499 111.978C231.587 111.258 231.67 110.604 231.746 110.017C231.836 109.43 231.913 108.942 231.977 108.555C232.002 108.275 232.033 107.962 232.071 107.615C232.122 107.254 232.153 106.914 232.164 106.594L234.966 106.816ZM294.698 106.094C294.646 106.348 294.588 106.628 294.523 106.936C294.458 107.229 294.4 107.503 294.348 107.757C294.297 108.05 294.233 108.384 294.155 108.758C294.077 109.118 294 109.486 293.922 109.859C293.858 110.22 293.786 110.574 293.709 110.921C293.579 111.495 293.417 112.163 293.221 112.924C293.026 113.685 292.798 114.507 292.537 115.388C292.276 116.257 291.982 117.132 291.654 118.014C291.326 118.896 290.978 119.758 290.611 120.601C290.242 121.43 289.847 122.179 289.425 122.848L286.818 121.825C287.281 121.195 287.71 120.493 288.105 119.717C288.513 118.928 288.881 118.125 289.209 117.31C289.537 116.481 289.826 115.666 290.074 114.864C290.335 114.049 290.557 113.294 290.739 112.6C290.935 111.905 291.084 111.311 291.188 110.817C291.369 109.909 291.51 109.035 291.611 108.194C291.713 107.353 291.747 106.56 291.716 105.813L294.698 106.094ZM301.591 108.07C301.913 108.508 302.244 109.046 302.581 109.684C302.932 110.309 303.276 110.973 303.614 111.678C303.952 112.382 304.256 113.06 304.527 113.712C304.798 114.363 305.008 114.929 305.158 115.408L302.625 116.584C302.502 116.025 302.318 115.406 302.073 114.727C301.842 114.049 301.571 113.364 301.26 112.673C300.949 111.968 300.618 111.303 300.267 110.679C299.93 110.054 299.58 109.53 299.217 109.106L301.591 108.07ZM286.604 110.246C286.964 110.271 287.318 110.282 287.664 110.279C288.024 110.264 288.384 110.248 288.744 110.233C289.077 110.217 289.477 110.195 289.944 110.165C290.41 110.122 290.903 110.079 291.423 110.035C291.956 109.992 292.489 109.949 293.022 109.905C293.555 109.848 294.048 109.805 294.501 109.776C294.955 109.746 295.328 109.73 295.621 109.729C296.341 109.724 296.969 109.84 297.503 110.077C298.038 110.3 298.461 110.69 298.771 111.248C299.094 111.806 299.259 112.565 299.265 113.525C299.27 114.312 299.243 115.166 299.182 116.086C299.121 117.006 299.007 117.887 298.839 118.728C298.684 119.569 298.462 120.284 298.172 120.872C297.857 121.568 297.42 122.051 296.862 122.321C296.317 122.591 295.664 122.729 294.904 122.733C294.531 122.736 294.124 122.705 293.684 122.641C293.243 122.591 292.85 122.533 292.502 122.469L292.066 119.831C292.319 119.897 292.6 119.961 292.907 120.026C293.227 120.091 293.528 120.142 293.808 120.18C294.101 120.218 294.335 120.237 294.508 120.236C294.842 120.234 295.135 120.172 295.387 120.05C295.64 119.915 295.845 119.687 296.003 119.366C296.187 118.978 296.337 118.477 296.453 117.863C296.569 117.249 296.652 116.589 296.7 115.882C296.763 115.161 296.791 114.475 296.787 113.821C296.784 113.288 296.701 112.895 296.54 112.643C296.391 112.39 296.17 112.225 295.877 112.147C295.596 112.055 295.249 112.011 294.836 112.014C294.529 112.016 294.116 112.045 293.596 112.102C293.077 112.145 292.517 112.202 291.917 112.272C291.331 112.329 290.785 112.393 290.278 112.463C289.772 112.533 289.379 112.582 289.099 112.61C288.806 112.666 288.433 112.728 287.981 112.797C287.541 112.854 287.168 112.909 286.862 112.965L286.604 110.246ZM301.213 105.293C301.388 105.532 301.57 105.817 301.758 106.149C301.96 106.481 302.156 106.813 302.345 107.146C302.534 107.478 302.695 107.77 302.83 108.022L301.215 108.733C301.08 108.454 300.924 108.148 300.749 107.816C300.574 107.484 300.391 107.151 300.203 106.819C300.014 106.487 299.825 106.202 299.637 105.963L301.213 105.293ZM303.587 104.378C303.762 104.63 303.951 104.922 304.153 105.254C304.355 105.586 304.55 105.918 304.739 106.25C304.941 106.582 305.096 106.861 305.204 107.087L303.629 107.777C303.413 107.365 303.157 106.9 302.86 106.382C302.563 105.851 302.274 105.399 301.991 105.028L303.587 104.378Z" fill="#333333"/>
<path d="M256.326 122.392C255.038 122.4 253.916 122.174 252.961 121.713C252.025 121.253 251.247 120.707 250.627 120.076L252.795 117.57C253.171 117.997 253.658 118.349 254.258 118.625C254.857 118.901 255.464 119.037 256.08 119.033C256.677 119.03 257.246 118.895 257.786 118.631C258.325 118.347 258.789 117.905 259.177 117.306C259.584 116.687 259.896 115.873 260.114 114.864C260.35 113.854 260.463 112.612 260.454 111.137C260.442 109.364 260.265 107.956 259.923 106.913C259.599 105.869 259.165 105.125 258.62 104.681C258.076 104.218 257.459 103.988 256.768 103.993C256.264 103.996 255.798 104.139 255.371 104.422C254.943 104.704 254.601 105.127 254.343 105.688C254.104 106.25 253.987 106.96 253.992 107.819C253.998 108.621 254.123 109.292 254.369 109.832C254.615 110.353 254.954 110.743 255.385 111.002C255.834 111.26 256.358 111.388 256.955 111.384C257.534 111.38 258.13 111.199 258.744 110.84C259.358 110.482 259.914 109.881 260.412 109.038L260.626 111.808C260.275 112.315 259.839 112.756 259.319 113.133C258.817 113.509 258.296 113.802 257.756 114.011C257.216 114.219 256.694 114.325 256.19 114.329C255.051 114.336 254.033 114.109 253.134 113.648C252.235 113.169 251.521 112.454 250.992 111.506C250.482 110.538 250.222 109.317 250.213 107.843C250.203 106.424 250.494 105.2 251.085 104.169C251.676 103.12 252.464 102.312 253.45 101.746C254.435 101.18 255.516 100.893 256.692 100.885C257.681 100.879 258.616 101.078 259.496 101.483C260.395 101.87 261.192 102.48 261.888 103.316C262.602 104.133 263.16 105.193 263.56 106.497C263.979 107.783 264.194 109.321 264.206 111.113C264.218 113.073 264.014 114.764 263.594 116.185C263.174 117.588 262.584 118.749 261.824 119.669C261.084 120.588 260.239 121.275 259.289 121.729C258.34 122.164 257.352 122.385 256.326 122.392ZM273.913 105.367L276.673 105.35C276.65 105.91 276.608 106.63 276.547 107.51C276.486 108.391 276.365 109.372 276.185 110.453C276.019 111.521 275.759 112.642 275.407 113.818C275.054 114.993 274.569 116.17 273.949 117.347C273.343 118.511 272.564 119.629 271.611 120.702C270.671 121.762 269.524 122.709 268.169 123.544C267.954 123.239 267.658 122.914 267.283 122.57C266.92 122.226 266.538 121.915 266.137 121.637C267.465 120.882 268.58 120.022 269.48 119.056C270.381 118.09 271.114 117.079 271.681 116.022C272.247 114.951 272.681 113.882 272.98 112.813C273.28 111.731 273.494 110.71 273.621 109.749C273.748 108.788 273.823 107.928 273.844 107.168C273.866 106.408 273.889 105.807 273.913 105.367ZM276.576 105.89C276.591 106.143 276.62 106.543 276.664 107.09C276.707 107.636 276.792 108.289 276.916 109.048C277.041 109.807 277.227 110.633 277.472 111.525C277.731 112.403 278.07 113.307 278.49 114.238C278.909 115.169 279.428 116.079 280.047 116.968C280.666 117.858 281.411 118.68 282.283 119.434C283.168 120.188 284.199 120.842 285.375 121.394C284.991 121.677 284.633 122.006 284.302 122.381C283.984 122.757 283.726 123.112 283.529 123.446C282.298 122.841 281.22 122.121 280.295 121.287C279.383 120.439 278.597 119.524 277.937 118.542C277.291 117.546 276.751 116.536 276.318 115.512C275.884 114.488 275.531 113.484 275.258 112.499C274.999 111.5 274.799 110.575 274.661 109.723C274.522 108.87 274.424 108.131 274.366 107.504C274.322 106.878 274.286 106.425 274.258 106.145L276.576 105.89Z" fill="#4FA668"/>
<rect x="185.912" y="132.952" width="115.183" height="36.613" fill="#FFDA03"/>
<rect x="185.912" y="132.952" width="115.183" height="36.613" stroke="#18724A"/>
<path d="M214.718 142.318C214.704 142.654 214.682 143.022 214.653 143.423C214.639 143.807 214.634 144.239 214.637 144.719C214.64 145.135 214.643 145.639 214.647 146.231C214.651 146.823 214.654 147.415 214.658 148.007C214.662 148.583 214.665 149.071 214.668 149.471C214.676 150.751 214.619 151.871 214.497 152.832C214.391 153.792 214.221 154.634 213.985 155.355C213.75 156.077 213.458 156.718 213.109 157.281C212.777 157.827 212.388 158.349 211.943 158.848C211.419 159.428 210.814 159.951 210.129 160.42C209.444 160.872 208.751 161.253 208.049 161.561C207.363 161.886 206.724 162.146 206.134 162.341L203.597 159.718C204.795 159.438 205.873 159.055 206.83 158.569C207.802 158.067 208.646 157.429 209.361 156.657C209.774 156.19 210.107 155.724 210.36 155.258C210.613 154.793 210.802 154.279 210.927 153.719C211.067 153.142 211.159 152.493 211.202 151.773C211.262 151.052 211.288 150.228 211.282 149.3C211.28 148.884 211.277 148.388 211.273 147.812C211.269 147.236 211.266 146.668 211.262 146.108C211.258 145.548 211.255 145.092 211.253 144.74C211.25 144.26 211.231 143.828 211.197 143.445C211.178 143.045 211.144 142.677 211.094 142.341L214.718 142.318ZM203.583 142.581C203.569 142.869 203.555 143.158 203.541 143.446C203.527 143.718 203.521 144.046 203.523 144.43C203.524 144.606 203.526 144.894 203.529 145.294C203.531 145.694 203.534 146.166 203.538 146.71C203.541 147.238 203.545 147.798 203.548 148.39C203.552 148.966 203.556 149.526 203.559 150.07C203.563 150.614 203.566 151.11 203.569 151.558C203.571 151.99 203.574 152.318 203.575 152.542C203.577 152.846 203.587 153.198 203.606 153.597C203.624 153.997 203.642 154.341 203.66 154.629L200.18 154.651C200.195 154.427 200.217 154.107 200.246 153.691C200.276 153.275 200.289 152.891 200.287 152.539C200.285 152.315 200.283 151.987 200.281 151.555C200.278 151.123 200.275 150.635 200.271 150.091C200.268 149.531 200.264 148.963 200.26 148.387C200.257 147.795 200.253 147.235 200.25 146.707C200.246 146.179 200.243 145.715 200.241 145.315C200.238 144.915 200.236 144.627 200.235 144.451C200.234 144.227 200.224 143.939 200.206 143.587C200.187 143.219 200.161 142.891 200.127 142.603L203.583 142.581ZM238.031 143.753C238.034 144.137 238.164 144.464 238.422 144.735C238.695 145.005 239.024 145.139 239.408 145.136C239.792 145.134 240.119 144.996 240.39 144.722C240.66 144.448 240.794 144.12 240.791 143.736C240.789 143.352 240.651 143.024 240.377 142.754C240.103 142.484 239.775 142.35 239.391 142.352C239.007 142.355 238.679 142.493 238.409 142.767C238.155 143.04 238.029 143.369 238.031 143.753ZM236.544 143.763C236.54 143.235 236.665 142.754 236.918 142.32C237.172 141.887 237.513 141.54 237.944 141.282C238.374 141.007 238.853 140.868 239.381 140.864C239.909 140.861 240.39 140.994 240.824 141.263C241.257 141.517 241.603 141.858 241.862 142.289C242.137 142.719 242.276 143.198 242.279 143.726C242.283 144.254 242.15 144.735 241.881 145.169C241.627 145.602 241.286 145.956 240.855 146.231C240.425 146.49 239.946 146.621 239.418 146.624C238.89 146.628 238.409 146.503 237.975 146.25C237.542 145.98 237.195 145.631 236.937 145.2C236.678 144.77 236.547 144.291 236.544 143.763ZM226.815 142.457C226.753 142.825 226.708 143.25 226.679 143.73C226.65 144.21 226.637 144.618 226.639 144.954C226.64 145.194 226.643 145.618 226.647 146.226C226.651 146.818 226.655 147.522 226.661 148.338C226.666 149.154 226.671 150.01 226.677 150.906C226.683 151.786 226.688 152.642 226.693 153.474C226.699 154.29 226.703 155.018 226.707 155.658C226.711 156.298 226.714 156.77 226.716 157.074C226.72 157.586 226.85 157.937 227.107 158.127C227.364 158.318 227.757 158.467 228.286 158.576C228.654 158.621 229.079 158.659 229.559 158.688C230.039 158.701 230.543 158.705 231.071 158.702C231.695 158.698 232.383 158.678 233.135 158.641C233.902 158.588 234.67 158.527 235.437 158.458C236.221 158.389 236.956 158.296 237.644 158.18C238.331 158.064 238.922 157.94 239.417 157.809L239.44 161.313C238.688 161.429 237.817 161.523 236.825 161.593C235.834 161.68 234.818 161.742 233.779 161.781C232.755 161.835 231.795 161.865 230.899 161.871C230.115 161.876 229.371 161.857 228.667 161.813C227.978 161.77 227.378 161.71 226.866 161.633C225.824 161.432 225.014 161.045 224.434 160.472C223.854 159.884 223.561 159.078 223.555 158.054C223.552 157.59 223.548 156.99 223.543 156.254C223.538 155.502 223.533 154.678 223.527 153.782C223.521 152.87 223.516 151.958 223.51 151.046C223.504 150.118 223.498 149.246 223.493 148.43C223.488 147.598 223.483 146.878 223.479 146.27C223.475 145.662 223.473 145.23 223.471 144.974C223.47 144.798 223.46 144.558 223.442 144.254C223.424 143.951 223.398 143.639 223.364 143.319C223.346 142.999 223.313 142.719 223.263 142.48L226.815 142.457ZM225.278 149.835C226.045 149.67 226.86 149.473 227.722 149.243C228.585 148.998 229.455 148.736 230.333 148.458C231.212 148.181 232.042 147.904 232.824 147.627C233.622 147.333 234.332 147.049 234.955 146.773C235.386 146.61 235.809 146.423 236.223 146.213C236.654 146.002 237.1 145.751 237.562 145.46L238.878 148.5C238.415 148.679 237.928 148.882 237.418 149.109C236.923 149.32 236.476 149.499 236.077 149.646C235.375 149.922 234.569 150.215 233.659 150.525C232.765 150.835 231.831 151.145 230.857 151.455C229.882 151.749 228.916 152.028 227.958 152.29C227.015 152.552 226.137 152.781 225.322 152.979L225.278 149.835ZM245.701 149.632C245.989 149.646 246.357 149.668 246.806 149.697C247.254 149.71 247.718 149.723 248.198 149.736C248.694 149.749 249.15 149.754 249.566 149.752C249.966 149.749 250.462 149.746 251.054 149.742C251.646 149.738 252.286 149.734 252.974 149.73C253.678 149.725 254.398 149.721 255.134 149.716C255.886 149.711 256.63 149.706 257.366 149.702C258.102 149.697 258.798 149.693 259.454 149.688C260.11 149.684 260.694 149.68 261.206 149.677C261.734 149.674 262.15 149.671 262.454 149.669C263.014 149.666 263.542 149.646 264.037 149.611C264.533 149.56 264.941 149.525 265.261 149.507L265.285 153.275C265.013 153.261 264.605 153.24 264.06 153.211C263.516 153.182 262.988 153.17 262.476 153.173C262.172 153.175 261.756 153.178 261.228 153.181C260.7 153.184 260.108 153.188 259.452 153.192C258.796 153.197 258.1 153.201 257.364 153.206C256.644 153.21 255.908 153.215 255.156 153.22C254.404 153.225 253.676 153.229 252.972 153.234C252.284 153.238 251.644 153.242 251.052 153.246C250.476 153.25 249.988 153.253 249.588 153.255C248.9 153.26 248.197 153.28 247.477 153.317C246.757 153.338 246.173 153.365 245.725 153.4L245.701 149.632ZM275.085 158.253C275.083 157.949 275.08 157.453 275.075 156.765C275.071 156.061 275.066 155.253 275.06 154.341C275.054 153.413 275.048 152.445 275.041 151.437C275.035 150.429 275.029 149.461 275.023 148.533C275.017 147.589 275.011 146.757 275.007 146.037C275.002 145.317 274.999 144.789 274.997 144.453C274.994 144.037 274.967 143.557 274.916 143.013C274.88 142.47 274.821 141.99 274.738 141.575L278.482 141.551C278.437 141.967 278.392 142.431 278.347 142.943C278.302 143.44 278.281 143.936 278.285 144.432C278.288 144.88 278.291 145.488 278.296 146.256C278.301 147.024 278.307 147.88 278.313 148.824C278.319 149.752 278.325 150.704 278.331 151.68C278.337 152.64 278.343 153.568 278.349 154.464C278.354 155.36 278.359 156.144 278.364 156.816C278.368 157.472 278.371 157.944 278.373 158.232C278.374 158.456 278.384 158.776 278.403 159.191C278.422 159.591 278.456 160.007 278.507 160.439C278.558 160.87 278.592 161.254 278.61 161.59L274.866 161.614C274.927 161.134 274.98 160.573 275.024 159.933C275.068 159.293 275.088 158.733 275.085 158.253ZM277.586 147.772C278.387 147.975 279.285 148.242 280.279 148.571C281.273 148.885 282.275 149.223 283.286 149.584C284.296 149.946 285.242 150.308 286.125 150.67C287.023 151.016 287.769 151.339 288.363 151.64L287.016 154.96C286.342 154.613 285.596 154.265 284.777 153.919C283.959 153.556 283.125 153.209 282.275 152.879C281.441 152.548 280.615 152.241 279.797 151.958C278.995 151.676 278.265 151.424 277.608 151.204L277.586 147.772Z" fill="#18724A"/>
<path d="M195.602 182.611C195.52 182.385 195.425 182.106 195.316 181.773C195.207 181.441 195.085 181.108 194.95 180.776L197.648 180.438C197.758 180.958 197.881 181.477 198.018 181.996C198.154 182.502 198.304 183.001 198.467 183.493C198.63 183.972 198.793 184.424 198.956 184.85C199.268 185.675 199.633 186.486 200.051 187.283C200.483 188.067 200.86 188.685 201.183 189.136C201.358 189.388 201.533 189.627 201.708 189.853C201.896 190.065 202.084 190.27 202.272 190.469L201.043 192.277C200.763 192.225 200.409 192.174 199.982 192.124C199.555 192.06 199.088 192.003 198.581 191.953C198.088 191.902 197.587 191.852 197.08 191.802C196.587 191.752 196.133 191.715 195.72 191.691L195.906 189.57C196.239 189.594 196.593 189.625 196.967 189.663C197.34 189.687 197.687 189.712 198.007 189.736C198.341 189.761 198.614 189.779 198.827 189.791C198.585 189.406 198.329 188.968 198.059 188.476C197.789 187.984 197.526 187.473 197.269 186.941C197.012 186.396 196.776 185.851 196.559 185.305C196.342 184.747 196.152 184.241 195.989 183.789C195.839 183.337 195.71 182.944 195.602 182.611ZM188.328 183.598C189.569 183.737 190.736 183.829 191.83 183.876C192.923 183.922 193.943 183.929 194.89 183.896C195.836 183.863 196.702 183.798 197.489 183.699C198.101 183.616 198.694 183.525 199.267 183.428C199.853 183.331 200.425 183.214 200.985 183.077C201.557 182.94 202.096 182.79 202.602 182.627L202.938 185.145C202.499 185.267 202.019 185.384 201.5 185.494C200.994 185.604 200.468 185.707 199.922 185.804C199.376 185.887 198.836 185.964 198.303 186.034C196.958 186.19 195.478 186.286 193.865 186.323C192.252 186.36 190.425 186.305 188.384 186.158L188.328 183.598ZM192.371 190.392C192.067 190.861 191.83 191.322 191.66 191.777C191.489 192.218 191.406 192.659 191.408 193.099C191.414 193.938 191.784 194.549 192.52 194.931C193.256 195.3 194.304 195.48 195.664 195.471C196.757 195.464 197.743 195.411 198.623 195.312C199.515 195.213 200.315 195.095 201.021 194.957L200.897 197.478C200.337 197.588 199.605 197.7 198.699 197.812C197.806 197.924 196.746 197.984 195.52 197.992C194.173 197.988 192.999 197.815 191.996 197.475C190.994 197.148 190.218 196.653 189.667 195.99C189.116 195.313 188.837 194.502 188.831 193.555C188.827 192.942 188.91 192.341 189.08 191.753C189.263 191.152 189.525 190.51 189.868 189.828L192.371 190.392ZM225.045 195.584C224.581 196.013 224.043 196.37 223.432 196.654C222.82 196.938 222.108 197.082 221.295 197.088C220.548 197.092 219.94 196.836 219.47 196.319C219.013 195.802 218.782 195.057 218.775 194.084C218.772 193.55 218.802 192.977 218.864 192.363C218.94 191.736 219.023 191.109 219.112 190.481C219.202 189.854 219.278 189.26 219.341 188.7C219.417 188.126 219.454 187.612 219.451 187.159C219.448 186.666 219.326 186.3 219.084 186.061C218.842 185.81 218.508 185.685 218.082 185.688C217.615 185.691 217.096 185.861 216.525 186.198C215.954 186.521 215.37 186.939 214.773 187.449C214.176 187.96 213.606 188.503 213.063 189.08C212.534 189.657 212.07 190.206 211.674 190.729L211.634 187.649C211.872 187.381 212.184 187.066 212.568 186.703C212.966 186.341 213.41 185.964 213.901 185.575C214.405 185.185 214.929 184.821 215.474 184.485C216.032 184.134 216.59 183.851 217.148 183.634C217.72 183.417 218.273 183.307 218.806 183.303C219.526 183.299 220.114 183.428 220.569 183.692C221.037 183.942 221.386 184.293 221.616 184.745C221.845 185.184 221.962 185.683 221.965 186.243C221.969 186.763 221.939 187.33 221.876 187.944C221.813 188.544 221.737 189.158 221.648 189.785C221.559 190.412 221.483 191.033 221.42 191.647C221.37 192.26 221.347 192.82 221.351 193.327C221.352 193.594 221.42 193.813 221.555 193.986C221.689 194.145 221.876 194.224 222.116 194.222C222.49 194.22 222.902 194.097 223.354 193.854C223.806 193.598 224.257 193.235 224.707 192.766L225.045 195.584ZM211.164 186.132C210.951 186.16 210.678 186.195 210.345 186.237C210.012 186.279 209.652 186.328 209.266 186.384C208.893 186.44 208.513 186.496 208.127 186.552C207.741 186.607 207.381 186.656 207.048 186.698L206.772 184.14C207.065 184.152 207.338 184.157 207.592 184.155C207.858 184.14 208.165 184.125 208.511 184.109C208.831 184.08 209.211 184.045 209.651 184.002C210.104 183.946 210.557 183.883 211.01 183.813C211.476 183.743 211.909 183.667 212.308 183.585C212.708 183.502 213.02 183.42 213.247 183.339L214.053 184.354C213.934 184.514 213.795 184.715 213.637 184.956C213.492 185.197 213.34 185.445 213.182 185.699C213.023 185.94 212.885 186.154 212.766 186.342L211.61 190.109C211.398 190.417 211.134 190.806 210.817 191.274C210.514 191.743 210.19 192.238 209.847 192.761C209.503 193.283 209.167 193.785 208.836 194.267C208.506 194.749 208.209 195.171 207.944 195.533L206.35 193.363C206.602 193.041 206.886 192.673 207.203 192.258C207.534 191.829 207.878 191.38 208.235 190.911C208.592 190.429 208.942 189.953 209.286 189.484C209.629 189.002 209.946 188.553 210.237 188.138C210.541 187.709 210.792 187.341 210.99 187.033L211.027 186.513L211.164 186.132ZM210.9 182.294C210.898 182 210.896 181.707 210.894 181.414C210.892 181.107 210.864 180.801 210.808 180.494L213.729 180.576C213.651 180.883 213.567 181.33 213.477 181.917C213.401 182.491 213.319 183.152 213.23 183.899C213.155 184.646 213.08 185.433 213.005 186.26C212.944 187.074 212.889 187.888 212.841 188.701C212.806 189.515 212.791 190.275 212.795 190.982C212.799 191.528 212.802 192.082 212.806 192.642C212.823 193.202 212.84 193.775 212.857 194.361C212.874 194.948 212.905 195.555 212.949 196.181C212.963 196.354 212.985 196.594 213.013 196.901C213.042 197.22 213.07 197.493 213.098 197.72L210.338 197.738C210.364 197.497 210.375 197.231 210.373 196.937C210.385 196.644 210.39 196.417 210.389 196.257C210.398 195.604 210.408 194.997 210.417 194.437C210.427 193.877 210.43 193.284 210.426 192.657C210.435 192.03 210.451 191.303 210.472 190.477C210.483 190.17 210.501 189.783 210.525 189.316C210.548 188.836 210.572 188.316 210.595 187.756C210.631 187.182 210.667 186.602 210.704 186.015C210.74 185.428 210.77 184.881 210.793 184.374C210.83 183.854 210.854 183.414 210.865 183.054C210.889 182.68 210.901 182.427 210.9 182.294ZM226.278 182.855C226.678 182.84 227.058 182.824 227.418 182.808C227.778 182.779 228.058 182.757 228.258 182.743C228.671 182.7 229.177 182.65 229.777 182.593C230.376 182.536 231.049 182.472 231.795 182.4C232.555 182.329 233.361 182.257 234.214 182.185C235.067 182.099 235.953 182.014 236.873 181.928C237.565 181.87 238.259 181.819 238.952 181.774C239.645 181.717 240.298 181.672 240.911 181.642C241.537 181.598 242.077 181.568 242.53 181.552L242.567 184.111C242.207 184.114 241.793 184.123 241.327 184.139C240.86 184.156 240.394 184.185 239.927 184.228C239.474 184.258 239.068 184.314 238.708 184.396C238.109 184.56 237.551 184.837 237.034 185.227C236.529 185.603 236.086 186.053 235.702 186.575C235.319 187.098 235.022 187.66 234.813 188.261C234.617 188.849 234.52 189.443 234.524 190.043C234.529 190.696 234.646 191.275 234.875 191.781C235.105 192.273 235.421 192.697 235.824 193.055C236.239 193.399 236.721 193.689 237.269 193.925C237.817 194.149 238.405 194.318 239.032 194.434C239.673 194.55 240.334 194.626 241.014 194.661L240.092 197.407C239.251 197.359 238.43 197.231 237.629 197.023C236.841 196.815 236.099 196.526 235.403 196.157C234.721 195.788 234.118 195.339 233.595 194.809C233.071 194.266 232.661 193.648 232.363 192.957C232.065 192.252 231.913 191.466 231.908 190.6C231.902 189.626 232.049 188.739 232.351 187.937C232.652 187.135 233.028 186.432 233.477 185.829C233.927 185.213 234.377 184.737 234.828 184.401C234.455 184.443 234.002 184.499 233.469 184.57C232.95 184.626 232.383 184.696 231.771 184.78C231.171 184.851 230.558 184.928 229.932 185.012C229.306 185.096 228.7 185.193 228.114 185.304C227.541 185.401 227.022 185.497 226.556 185.594L226.278 182.855ZM250.054 182.163C250.002 182.404 249.958 182.677 249.92 182.984C249.895 183.291 249.87 183.591 249.845 183.885C249.834 184.178 249.829 184.418 249.83 184.605C249.819 185.045 249.816 185.498 249.819 185.965C249.835 186.432 249.851 186.912 249.868 187.405C249.898 187.885 249.934 188.364 249.977 188.844C250.076 189.803 250.215 190.649 250.393 191.381C250.571 192.114 250.802 192.686 251.084 193.097C251.367 193.495 251.721 193.693 252.148 193.69C252.375 193.689 252.594 193.561 252.806 193.306C253.031 193.051 253.229 192.723 253.399 192.322C253.583 191.908 253.741 191.473 253.871 191.019C254.015 190.565 254.139 190.138 254.243 189.737L256.258 192.164C255.826 193.327 255.392 194.256 254.956 194.952C254.534 195.635 254.09 196.131 253.626 196.441C253.161 196.737 252.655 196.887 252.108 196.891C251.388 196.895 250.7 196.66 250.044 196.184C249.401 195.708 248.849 194.938 248.389 193.874C247.929 192.797 247.6 191.366 247.402 189.581C247.331 188.968 247.274 188.321 247.229 187.642C247.198 186.962 247.174 186.315 247.157 185.702C247.153 185.089 247.15 184.582 247.147 184.182C247.145 183.902 247.13 183.569 247.101 183.182C247.072 182.796 247.029 182.449 246.974 182.143L250.054 182.163ZM260.057 182.56C260.433 183.01 260.797 183.561 261.148 184.213C261.498 184.864 261.823 185.562 262.121 186.306C262.419 187.051 262.684 187.816 262.916 188.601C263.147 189.373 263.332 190.132 263.47 190.878C263.622 191.61 263.719 192.283 263.763 192.896L261.13 193.933C261.058 193.12 260.932 192.234 260.753 191.275C260.573 190.316 260.334 189.351 260.034 188.38C259.735 187.408 259.375 186.491 258.957 185.627C258.551 184.763 258.073 184.019 257.522 183.396L260.057 182.56ZM276.782 180.113C276.756 180.313 276.731 180.54 276.706 180.793C276.694 181.033 276.683 181.28 276.671 181.533C276.659 181.8 276.648 182.16 276.638 182.614C276.627 183.054 276.624 183.54 276.627 184.074C276.63 184.607 276.634 185.134 276.637 185.654C276.64 186.174 276.643 186.647 276.646 187.074C276.65 187.634 276.667 188.26 276.698 188.953C276.729 189.633 276.767 190.326 276.812 191.033C276.869 191.726 276.913 192.379 276.944 192.992C276.988 193.592 277.011 194.091 277.014 194.491C277.017 195.051 276.874 195.566 276.583 196.034C276.293 196.489 275.855 196.852 275.27 197.123C274.699 197.393 273.973 197.531 273.093 197.537C271.493 197.547 270.278 197.261 269.447 196.68C268.617 196.098 268.198 195.281 268.192 194.228C268.187 193.548 268.377 192.953 268.76 192.444C269.157 191.922 269.721 191.511 270.453 191.213C271.197 190.915 272.083 190.763 273.11 190.756C274.203 190.749 275.224 190.863 276.172 191.097C277.133 191.317 278.009 191.612 278.798 191.98C279.587 192.348 280.289 192.737 280.905 193.147C281.521 193.556 282.043 193.926 282.472 194.257L281.047 196.506C280.564 196.055 280.021 195.612 279.418 195.176C278.829 194.74 278.179 194.344 277.47 193.988C276.775 193.633 276.033 193.351 275.245 193.143C274.47 192.921 273.65 192.813 272.783 192.818C272.09 192.823 271.55 192.946 271.165 193.189C270.793 193.431 270.609 193.726 270.611 194.072C270.612 194.326 270.694 194.545 270.855 194.731C271.016 194.916 271.25 195.055 271.558 195.146C271.865 195.238 272.252 195.282 272.719 195.279C273.079 195.277 273.385 195.235 273.638 195.153C273.904 195.071 274.11 194.923 274.255 194.709C274.4 194.495 274.472 194.194 274.469 193.808C274.467 193.514 274.451 193.094 274.421 192.548C274.404 192.001 274.38 191.402 274.35 190.748C274.319 190.082 274.288 189.429 274.257 188.789C274.226 188.149 274.209 187.583 274.206 187.089C274.203 186.609 274.2 186.109 274.197 185.589C274.207 185.056 274.21 184.529 274.207 184.009C274.203 183.489 274.2 183.016 274.198 182.589C274.208 182.149 274.212 181.789 274.211 181.509C274.209 181.322 274.195 181.096 274.166 180.829C274.151 180.549 274.123 180.316 274.082 180.13L276.782 180.113ZM268.494 182.046C268.854 182.097 269.255 182.147 269.695 182.198C270.135 182.248 270.582 182.299 271.036 182.349C271.503 182.386 271.943 182.417 272.357 182.441C272.77 182.452 273.13 182.456 273.437 182.454C274.797 182.445 276.15 182.397 277.496 182.308C278.855 182.206 280.261 182.03 281.712 181.781L281.707 184.081C281.028 184.179 280.242 184.271 279.349 184.356C278.456 184.442 277.503 184.515 276.49 184.575C275.491 184.621 274.484 184.647 273.471 184.654C273.057 184.656 272.544 184.646 271.93 184.624C271.33 184.588 270.73 184.545 270.13 184.495C269.529 184.432 269.009 184.376 268.568 184.325L268.494 182.046ZM268.422 186.366C268.742 186.417 269.122 186.468 269.563 186.519C270.003 186.569 270.45 186.607 270.903 186.63C271.37 186.654 271.81 186.678 272.224 186.702C272.637 186.713 272.977 186.717 273.244 186.715C274.484 186.707 275.604 186.674 276.603 186.614C277.616 186.554 278.562 186.481 279.442 186.396C280.321 186.31 281.167 186.211 281.98 186.099L281.975 188.46C281.282 188.544 280.609 188.615 279.957 188.672C279.317 188.73 278.657 188.781 277.977 188.825C277.311 188.869 276.591 188.901 275.818 188.919C275.045 188.937 274.178 188.949 273.218 188.956C272.832 188.958 272.351 188.954 271.778 188.945C271.205 188.922 270.618 188.892 270.017 188.856C269.431 188.82 268.91 188.776 268.457 188.726L268.422 186.366ZM297.902 180.038C297.889 180.144 297.87 180.318 297.845 180.558C297.833 180.785 297.821 181.018 297.809 181.258C297.798 181.485 297.785 181.652 297.773 181.758C297.761 182.025 297.757 182.385 297.76 182.839C297.762 183.279 297.766 183.772 297.769 184.319C297.773 184.865 297.776 185.419 297.78 185.979C297.796 186.525 297.806 187.045 297.81 187.538C297.826 188.018 297.835 188.418 297.837 188.738L295.332 187.914C295.33 187.661 295.328 187.328 295.326 186.914C295.323 186.488 295.32 186.028 295.317 185.534C295.314 185.028 295.304 184.528 295.287 184.034C295.284 183.541 295.274 183.094 295.259 182.695C295.243 182.295 295.227 181.995 295.213 181.795C295.184 181.382 295.148 181.022 295.106 180.715C295.064 180.396 295.029 180.176 295.002 180.056L297.902 180.038ZM286.618 182.59C287.204 182.586 287.871 182.575 288.618 182.557C289.364 182.539 290.144 182.521 290.957 182.502C291.771 182.484 292.57 182.465 293.357 182.447C294.144 182.428 294.883 182.417 295.577 182.413C296.27 182.395 296.87 182.384 297.377 182.381C297.883 182.378 298.437 182.374 299.037 182.37C299.637 182.353 300.23 182.343 300.816 182.339C301.403 182.335 301.936 182.332 302.416 182.329C302.91 182.326 303.29 182.323 303.556 182.322L303.551 184.682C302.925 184.659 302.098 184.644 301.071 184.637C300.044 184.617 298.791 184.612 297.311 184.621C296.404 184.627 295.484 184.646 294.551 184.679C293.618 184.698 292.692 184.724 291.772 184.757C290.852 184.789 289.965 184.828 289.112 184.874C288.259 184.906 287.453 184.951 286.693 185.009L286.618 182.59ZM297.475 188.441C297.482 189.534 297.355 190.441 297.093 191.163C296.844 191.885 296.461 192.434 295.943 192.81C295.426 193.174 294.78 193.358 294.007 193.363C293.633 193.365 293.24 193.288 292.825 193.13C292.424 192.973 292.049 192.742 291.701 192.437C291.352 192.133 291.07 191.755 290.854 191.303C290.651 190.851 290.547 190.318 290.543 189.705C290.538 188.945 290.714 188.29 291.071 187.741C291.427 187.179 291.904 186.743 292.502 186.432C293.114 186.108 293.786 185.944 294.519 185.939C295.399 185.934 296.134 186.129 296.723 186.525C297.326 186.908 297.776 187.432 298.073 188.097C298.384 188.761 298.542 189.514 298.548 190.354C298.552 191.007 298.449 191.688 298.241 192.396C298.032 193.104 297.683 193.799 297.194 194.482C296.718 195.152 296.069 195.763 295.246 196.315C294.436 196.867 293.419 197.32 292.194 197.674L290.041 195.568C290.893 195.389 291.685 195.158 292.416 194.873C293.148 194.588 293.786 194.231 294.33 193.801C294.887 193.37 295.317 192.841 295.619 192.212C295.935 191.584 296.091 190.829 296.085 189.949C296.081 189.309 295.918 188.83 295.596 188.513C295.287 188.194 294.913 188.037 294.473 188.04C294.219 188.041 293.973 188.103 293.734 188.224C293.495 188.346 293.303 188.527 293.157 188.768C293.012 189.009 292.941 189.303 292.943 189.649C292.946 190.103 293.102 190.468 293.41 190.747C293.732 191.011 294.093 191.142 294.493 191.14C294.813 191.138 295.092 191.036 295.331 190.834C295.583 190.633 295.747 190.298 295.824 189.831C295.901 189.364 295.831 188.738 295.612 187.952L297.475 188.441ZM307.652 191.056L307.185 183.678L307.067 180.879L310.027 180.86L309.945 183.661L309.572 191.043L307.652 191.056ZM308.646 196.369C308.113 196.373 307.672 196.189 307.323 195.818C306.987 195.447 306.817 194.994 306.814 194.461C306.81 193.901 306.974 193.44 307.305 193.078C307.65 192.716 308.088 192.533 308.622 192.529C309.155 192.526 309.59 192.703 309.925 193.061C310.274 193.419 310.45 193.878 310.454 194.438C310.457 194.971 310.287 195.425 309.943 195.801C309.612 196.176 309.18 196.366 308.646 196.369Z" fill="#333333"/>
<defs>
<clipPath id="clip0_119_1926">
<rect width="38" height="55" fill="white" transform="translate(23.4119 93.2773)"/>
</clipPath>
<clipPath id="clip1_119_1926">
<rect width="38" height="55" fill="white" transform="translate(51.4119 93.2773)"/>
</clipPath>
<clipPath id="clip2_119_1926">
<rect width="38" height="55" fill="white" transform="translate(79.4119 93.2773)"/>
</clipPath>
<clipPath id="clip3_119_1926">
<rect width="38" height="55" fill="white" transform="translate(107.412 93.2773)"/>
</clipPath>
<clipPath id="clip4_119_1926">
<rect width="38" height="55" fill="white" transform="translate(135.412 93.2773)"/>
</clipPath>
<clipPath id="clip5_119_1926">
<rect width="38" height="55" fill="white" transform="translate(23.4119 148.277)"/>
</clipPath>
<clipPath id="clip6_119_1926">
<rect width="38" height="55" fill="white" transform="translate(51.4119 148.277)"/>
</clipPath>
<clipPath id="clip7_119_1926">
<rect width="38" height="55" fill="white" transform="translate(79.4119 148.277)"/>
</clipPath>
<clipPath id="clip8_119_1926">
<rect width="38" height="55" fill="white" transform="translate(107.412 148.277)"/>
</clipPath>
</defs>
</svg>
